<svg xmlns="http://www.w3.org/2000/svg" viewBox="0 0 512 512">
  <defs>
    <linearGradient id="grad1" x1="0%" y1="0%" x2="100%" y2="100%">
      <stop offset="0%" style="stop-color:#06b6d4;stop-opacity:1" />
      <stop offset="100%" style="stop-color:#10b981;stop-opacity:1" />
    </linearGradient>
  </defs>
  <rect x="0" y="0" width="512" height="512" rx="128" ry="128" fill="url(#grad1)" />
  <path d="M352 216h-64v-64c0-22.09-17.91-40-40-40s-40 17.91-40 40v64h-64c-22.09 0-40 17.91-40 40s17.91 40 40 40h64v64c0 22.09 17.91 40 40 40s40-17.91 40-40v-64h64c22.09 0 40-17.91 40-40s-17.91-40-40-40z" fill="white" />
</svg>
