<svg xmlns="http://www.w3.org/2000/svg" viewBox="0 0 380 80" fill="none">
  <defs>
    <linearGradient id="grad1" x1="0%" y1="0%" x2="100%" y2="100%">
      <stop offset="0%" style="stop-color:#22d3ee;stop-opacity:1" />
      <stop offset="100%" style="stop-color:#34d399;stop-opacity:1" />
    </linearGradient>
  </defs>
  <!-- Icon Part -->
  <g transform="translate(10, 10) scale(0.12)">
    <rect x="0" y="0" width="512" height="512" rx="128" ry="128" fill="url(#grad1)" />
    <path d="M352 216h-64v-64c0-22.09-17.91-40-40-40s-40 17.91-40 40v64h-64c-22.09 0-40 17.91-40 40s17.91 40 40 40h64v64c0 22.09 17.91 40 40 40s40-17.91 40-40v-64h64c22.09 0 40-17.91 40-40s-17.91-40-40-40z" fill="white" />
  </g>
  
  <!-- Text Part -->
  <text x="90" y="52" font-family="'Google Sans Flex', -apple-system, sans-serif" font-weight="bold" font-size="40" fill="#f3f4f6">
    PharmaFlow<tspan fill="#22d3ee">.</tspan>AI
  </text>
</svg>
