<svg xmlns="http://www.w3.org/2000/svg" viewBox="0 0 900 300" width="100%" height="100%">
  <g fill="#FFFFFF">
    <rect x="735" y="75" width="35" height="35" />
    <path d="M 770,130 L 770,260 L 645,260 L 645,225 L 735,225 L 735,130 Z" />
    
    <rect x="535" y="75" width="35" height="35" />
    
    <path d="M 570,130 L 570,260 L 135,260 L 135,160 L 170,160 L 170,225 L 385,225 L 385,75 L 420,75 L 420,225 L 535,225 L 535,130 Z" />
    
    <path d="M 255,120 L 305,120 L 305,135 L 275,155 L 305,155 L 305,170 L 255,170 L 255,155 L 285,135 L 255,135 Z" />
  </g>
</svg>
