<?xml version="1.0" encoding="UTF-8"?>
<!DOCTYPE svg PUBLIC "-//W3C//DTD SVG 1.1//EN" "http://www.w3.org/Graphics/SVG/1.1/DTD/svg11.dtd">
<svg xmlns="http://www.w3.org/2000/svg" version="1.1" width="593px" height="269px" style="shape-rendering:geometricPrecision; text-rendering:geometricPrecision; image-rendering:optimizeQuality; fill-rule:evenodd; clip-rule:evenodd" xmlns:xlink="http://www.w3.org/1999/xlink">
<g><path style="opacity:1" fill="#b9b9bb" d="M 239.5,1.5 C 241.338,0.321671 243.005,0.655004 244.5,2.5C 242.784,2.37133 241.117,2.038 239.5,1.5 Z"/></g>
<g><path style="opacity:1" fill="#4e5254" d="M 237.5,7.5 C 237.02,10.6852 237.686,13.5185 239.5,16C 238.24,17.113 237.073,17.2797 236,16.5C 235.098,18.4308 233.931,20.0975 232.5,21.5C 233.796,16.6066 235.462,11.9399 237.5,7.5 Z"/></g>
<g><path style="opacity:1" fill="#3a3c3c" d="M 496.5,4.5 C 496.631,7.83981 496.631,11.1731 496.5,14.5C 491.461,16.9981 488.794,20.9981 488.5,26.5C 488.5,25.5 488.5,24.5 488.5,23.5C 488.767,21.0347 489.434,18.7014 490.5,16.5C 491.906,16.0269 492.573,15.0269 492.5,13.5C 493.042,10.0878 494.375,7.08781 496.5,4.5 Z"/></g>
<g><path style="opacity:1" fill="#abacad" d="M 246.5,11.5 C 246.726,15.4069 247.726,19.0735 249.5,22.5C 248.25,22.4226 247.417,21.756 247,20.5C 245.649,17.3768 245.482,14.3768 246.5,11.5 Z"/></g>
<g><path style="opacity:1" fill="#b7baba" d="M 492.5,13.5 C 492.573,15.0269 491.906,16.0269 490.5,16.5C 490.427,14.9731 491.094,13.9731 492.5,13.5 Z"/></g>
<g><path style="opacity:1" fill="#717175" d="M 454.5,16.5 C 455.791,18.5902 455.124,19.9236 452.5,20.5C 452.66,18.847 453.326,17.5137 454.5,16.5 Z"/></g>
<g><path style="opacity:1" fill="#7f8080" d="M 496.5,4.5 C 498.153,3.20056 499.653,3.5339 501,5.5C 501.167,8 501.333,10.5 501.5,13C 500.713,31.7033 500.38,50.5367 500.5,69.5C 499.668,48.6707 499.168,27.6707 499,6.5C 498.583,5.24402 497.75,4.57735 496.5,4.5 Z"/></g>
<g><path style="opacity:1" fill="#212526" d="M 460.5,61.5 C 459.851,75.8733 460.518,89.8733 462.5,103.5C 462.5,105.5 462.5,107.5 462.5,109.5C 462.171,112.228 462.837,114.562 464.5,116.5C 465.338,116.842 465.672,117.508 465.5,118.5C 466.167,121.167 467.833,122.833 470.5,123.5C 471.492,123.328 472.158,123.662 472.5,124.5C 473.097,125.139 473.93,125.472 475,125.5C 476.376,125.316 477.209,124.649 477.5,123.5C 478.042,120.088 479.375,117.088 481.5,114.5C 482.825,113.047 483.658,113.381 484,115.5C 484.805,113.099 485.638,113.266 486.5,116C 483.233,116.895 482.566,118.728 484.5,121.5C 484.5,121.833 484.5,122.167 484.5,122.5C 482.312,124.092 482.312,125.426 484.5,126.5C 489.177,125.909 493.51,124.576 497.5,122.5C 498.93,121.463 500.597,120.796 502.5,120.5C 505.912,119.958 508.912,118.625 511.5,116.5C 513.849,115.876 516.182,115.543 518.5,115.5C 519.602,117.889 521.269,119.723 523.5,121C 523.384,122.268 523.051,123.602 522.5,125C 523.998,125.585 524.998,125.085 525.5,123.5C 529.201,121.988 532.534,119.988 535.5,117.5C 536.899,116.11 538.566,115.11 540.5,114.5C 542.027,114.573 543.027,113.906 543.5,112.5C 545.404,112.262 546.738,111.262 547.5,109.5C 549.404,109.262 550.738,108.262 551.5,106.5C 553.754,105.585 555.754,104.252 557.5,102.5C 558.507,101.172 559.84,100.172 561.5,99.5C 561.217,100.743 561.884,101.91 563.5,103C 563.2,105.024 562.367,105.524 561,104.5C 560.023,106.74 559.523,109.073 559.5,111.5C 559.167,112.167 558.833,112.833 558.5,113.5C 557.167,113.5 555.833,113.5 554.5,113.5C 554.5,114.5 554.5,115.5 554.5,116.5C 552.488,115.986 550.488,115.82 548.5,116C 549.167,116.667 549.833,117.333 550.5,118C 545.633,117.587 542.967,119.753 542.5,124.5C 540.847,124.66 539.514,125.326 538.5,126.5C 536.819,128.008 534.819,129.008 532.5,129.5C 531.069,129.119 530.236,128.119 530,126.5C 529.94,129.79 528.607,130.79 526,129.5C 524.989,129.892 524.489,130.559 524.5,131.5C 523.001,129.198 521.668,129.531 520.5,132.5C 518.577,133.308 516.577,133.808 514.5,134C 515.056,134.383 515.389,134.883 515.5,135.5C 513.447,135.402 511.78,136.069 510.5,137.5C 508.54,139.156 506.54,140.823 504.5,142.5C 502.5,142.5 500.5,142.5 498.5,142.5C 498.567,143.959 498.234,145.292 497.5,146.5C 497.158,147.338 496.492,147.672 495.5,147.5C 493.847,147.66 492.514,148.326 491.5,149.5C 490.791,150.404 489.791,150.737 488.5,150.5C 485.848,150.41 483.515,151.076 481.5,152.5C 478.167,152.833 474.833,153.167 471.5,153.5C 468.373,152.419 465.04,151.753 461.5,151.5C 461.217,150.711 460.717,150.044 460,149.5C 459.235,151.066 459.402,152.399 460.5,153.5C 460.672,154.492 460.338,155.158 459.5,155.5C 458.596,156.209 458.263,157.209 458.5,158.5C 457.194,163.616 456.527,168.949 456.5,174.5C 456.795,176.735 456.461,178.735 455.5,180.5C 453.12,183.675 452.12,187.342 452.5,191.5C 452.5,191.833 452.5,192.167 452.5,192.5C 450.655,193.995 450.322,195.662 451.5,197.5C 451.5,198.167 451.167,198.5 450.5,198.5C 449.833,198.5 449.5,198.833 449.5,199.5C 448.265,199.721 447.265,200.388 446.5,201.5C 445.828,204.897 444.995,208.23 444,211.5C 443.333,210.833 442.667,210.167 442,209.5C 441.664,211.074 440.831,212.408 439.5,213.5C 440.016,212.242 439.35,211.242 437.5,210.5C 438.025,209.808 438.692,209.308 439.5,209C 438.692,208.692 438.025,208.192 437.5,207.5C 438.374,205.253 438.708,202.92 438.5,200.5C 440.113,200.056 441.28,199.056 442,197.5C 442.953,194.568 443.453,191.568 443.5,188.5C 443.5,188.167 443.5,187.833 443.5,187.5C 445.223,185.22 445.889,182.553 445.5,179.5C 446.314,177.369 446.814,175.036 447,172.5C 447.596,145.828 447.429,119.161 446.5,92.5C 446.315,76.4962 445.981,60.4962 445.5,44.5C 445.5,43.8333 445.5,43.1667 445.5,42.5C 447.281,38.8002 448.281,34.8002 448.5,30.5C 449.282,26.9368 450.616,23.6035 452.5,20.5C 455.124,19.9236 455.791,18.5902 454.5,16.5C 456.042,15.6993 457.708,15.366 459.5,15.5C 459.17,31.0091 459.504,46.3424 460.5,61.5 Z"/></g>
<g><path style="opacity:1" fill="#c8c8c8" d="M 249.5,23.5 C 250.301,25.0418 250.634,26.7085 250.5,28.5C 249.661,27.3588 248.994,26.0255 248.5,24.5C 248.624,23.8933 248.957,23.56 249.5,23.5 Z"/></g>
<g><path style="opacity:1" fill="#838486" d="M 232.5,22.5 C 231.493,28.628 230.493,34.628 229.5,40.5C 229.062,34.129 230.062,28.129 232.5,22.5 Z"/></g>
<g><path style="opacity:1" fill="#9fa0a0" d="M 488.5,23.5 C 488.5,24.5 488.5,25.5 488.5,26.5C 488.011,27.9952 487.345,29.3285 486.5,30.5C 486.41,27.8478 487.076,25.5145 488.5,23.5 Z"/></g>
<g><path style="opacity:1" fill="#a8a9a8" d="M 250.5,28.5 C 251.931,29.7804 252.598,31.4471 252.5,33.5C 251.069,32.2196 250.402,30.5529 250.5,28.5 Z"/></g>
<g><path style="opacity:1" fill="#525256" d="M 461.5,17.5 C 460.504,31.9905 460.171,46.6572 460.5,61.5C 459.504,46.3424 459.17,31.0091 459.5,15.5C 457.708,15.366 456.042,15.6993 454.5,16.5C 454.418,14.7483 455.251,13.7483 457,13.5C 459.305,13.9733 460.805,15.3066 461.5,17.5 Z"/></g>
<g><path style="opacity:1" fill="#898a8a" d="M 448.5,30.5 C 448.281,34.8002 447.281,38.8002 445.5,42.5C 445.719,38.1998 446.719,34.1998 448.5,30.5 Z"/></g>
<g><path style="opacity:1" fill="#cfcfcf" d="M 461.5,17.5 C 461.175,46.2405 461.509,74.9072 462.5,103.5C 460.518,89.8733 459.851,75.8733 460.5,61.5C 460.171,46.6572 460.504,31.9905 461.5,17.5 Z"/></g>
<g><path style="opacity:1" fill="#818283" d="M 252.5,33.5 C 254.992,37.1509 256.992,41.1509 258.5,45.5C 257.5,45.5 256.5,45.5 255.5,45.5C 255.096,41.3568 254.096,37.3568 252.5,33.5 Z"/></g>
<g><path style="opacity:1" fill="#898989" d="M 122.5,46.5 C 121.041,46.4326 119.708,46.7659 118.5,47.5C 119.244,44.1155 120.577,43.7822 122.5,46.5 Z"/></g>
<g><path style="opacity:1" fill="#bebec0" d="M 569.5,43.5 C 569.573,45.0269 568.906,46.0269 567.5,46.5C 567.427,44.9731 568.094,43.9731 569.5,43.5 Z"/></g>
<g><path style="opacity:1" fill="#707073" d="M 574.5,82.5 C 574.667,70.1622 574.5,57.8288 574,45.5C 573.061,42.9849 571.561,42.3183 569.5,43.5C 570.636,39.2871 572.803,38.6204 576,41.5C 576.667,52.1667 576.667,62.8333 576,73.5C 575.819,76.6946 575.319,79.6946 574.5,82.5 Z"/></g>
<g><path style="opacity:1" fill="#88898b" d="M 118.5,47.5 C 117.92,49.7488 116.587,51.4154 114.5,52.5C 115.08,50.2512 116.413,48.5846 118.5,47.5 Z"/></g>
<g><path style="opacity:1" fill="#a5a5a7" d="M 260.5,49.5 C 262.25,50.6594 263.25,52.326 263.5,54.5C 261.75,53.3406 260.75,51.674 260.5,49.5 Z"/></g>
<g><path style="opacity:1" fill="#222627" d="M 122.5,46.5 C 124.858,48.5293 127.192,50.5293 129.5,52.5C 130.687,53.5336 131.52,54.867 132,56.5C 133.356,55.6198 134.856,55.2865 136.5,55.5C 137.471,56.9621 137.138,58.2954 135.5,59.5C 134.448,59.3505 133.448,59.5172 132.5,60C 132.833,60.3333 133.167,60.6667 133.5,61C 127.665,62.9779 125.998,66.1445 128.5,70.5C 125.059,70.6989 121.726,70.1989 118.5,69C 118.943,67.4815 118.276,66.3148 116.5,65.5C 115.817,65.8627 115.15,66.1961 114.5,66.5C 114.167,65.5 113.5,64.8333 112.5,64.5C 112.5,61.5 112.5,58.5 112.5,55.5C 113.906,55.0269 114.573,54.0269 114.5,52.5C 116.587,51.4154 117.92,49.7488 118.5,47.5C 119.708,46.7659 121.041,46.4326 122.5,46.5 Z"/></g>
<g><path style="opacity:1" fill="#aeaeaf" d="M 114.5,52.5 C 114.573,54.0269 113.906,55.0269 112.5,55.5C 112.427,53.9731 113.094,52.9731 114.5,52.5 Z"/></g>
<g><path style="opacity:1" fill="#707071" d="M 129.5,52.5 C 132.346,52.5516 134.68,53.5516 136.5,55.5C 134.856,55.2865 133.356,55.6198 132,56.5C 131.52,54.867 130.687,53.5336 129.5,52.5 Z"/></g>
<g><path style="opacity:1" fill="#959999" d="M 19.5,53.5 C 18.7779,57.506 17.9445,61.506 17,65.5C 16.6174,66.056 16.1174,66.3893 15.5,66.5C 16.0777,61.8348 17.4111,57.5015 19.5,53.5 Z"/></g>
<g><path style="opacity:1" fill="#919293" d="M 563.5,54.5 C 563.59,57.1522 562.924,59.4855 561.5,61.5C 561.41,58.8478 562.076,56.5145 563.5,54.5 Z"/></g>
<g><path style="opacity:1" fill="#94989a" d="M 112.5,55.5 C 112.5,58.5 112.5,61.5 112.5,64.5C 109.983,61.4611 109.983,58.4611 112.5,55.5 Z"/></g>
<g><path style="opacity:1" fill="#282c2e" d="M 574.5,82.5 C 574.784,84.4147 574.451,86.0813 573.5,87.5C 571.787,88.6354 571.12,90.302 571.5,92.5C 569.478,93.507 568.145,95.1737 567.5,97.5C 565.844,99.0224 564.677,98.689 564,96.5C 563.333,97.1667 562.667,97.8333 562,98.5C 561.23,97.4019 560.397,97.4019 559.5,98.5C 560.129,86.0379 560.796,73.7046 561.5,61.5C 562.924,59.4855 563.59,57.1522 563.5,54.5C 564.326,51.5152 565.659,48.8485 567.5,46.5C 568.906,46.0269 569.573,45.0269 569.5,43.5C 571.561,42.3183 573.061,42.9849 574,45.5C 574.5,57.8288 574.667,70.1622 574.5,82.5 Z"/></g>
<g><path style="opacity:1" fill="#4d4d4f" d="M 135.5,59.5 C 133.554,63.4394 131.221,67.106 128.5,70.5C 125.998,66.1445 127.665,62.9779 133.5,61C 133.167,60.6667 132.833,60.3333 132.5,60C 133.448,59.5172 134.448,59.3505 135.5,59.5 Z"/></g>
<g><path style="opacity:1" fill="#bbbcc0" d="M 267.5,62.5 C 268.906,62.9731 269.573,63.9731 269.5,65.5C 268.094,65.0269 267.427,64.0269 267.5,62.5 Z"/></g>
<g><path style="opacity:1" fill="#d9dcdc" d="M 112.5,64.5 C 113.5,64.8333 114.167,65.5 114.5,66.5C 114.5,66.8333 114.5,67.1667 114.5,67.5C 113.094,67.0269 112.427,66.0269 112.5,64.5 Z"/></g>
<g><path style="opacity:1" fill="#606364" d="M 128.5,70.5 C 123.288,72.2619 118.622,71.2619 114.5,67.5C 114.5,67.1667 114.5,66.8333 114.5,66.5C 115.15,66.1961 115.817,65.8627 116.5,65.5C 118.276,66.3148 118.943,67.4815 118.5,69C 121.726,70.1989 125.059,70.6989 128.5,70.5 Z"/></g>
<g><path style="opacity:1" fill="#939498" d="M 486.5,33.5 C 486.5,58.5 486.5,83.5 486.5,108.5C 485.391,108.557 484.391,108.89 483.5,109.5C 483.892,107.821 484.392,106.154 485,104.5C 485.168,80.6631 485.668,56.9965 486.5,33.5 Z"/></g>
<g><path style="opacity:1" fill="#b3b6b7" d="M 536.5,67.5 C 530.842,66.2317 525.175,66.2317 519.5,67.5C 525.204,63.7532 530.87,63.7532 536.5,67.5 Z"/></g>
<g><path style="opacity:1" fill="#8d8d90" d="M 269.5,65.5 C 271.293,67.4261 272.293,69.7594 272.5,72.5C 270.707,70.5739 269.707,68.2406 269.5,65.5 Z"/></g>
<g><path style="opacity:1" fill="#d6d6d7" d="M 536.5,67.5 C 538.027,67.427 539.027,68.0937 539.5,69.5C 537.973,69.573 536.973,68.9063 536.5,67.5 Z"/></g>
<g><path style="opacity:1" fill="#96979b" d="M 15.5,66.5 C 15.8294,69.2282 15.1628,71.5615 13.5,73.5C 13.7215,70.9327 14.3882,68.5994 15.5,66.5 Z"/></g>
<g><path style="opacity:1" fill="#222628" d="M 496.5,4.5 C 497.75,4.57735 498.583,5.24402 499,6.5C 499.168,27.6707 499.668,48.6707 500.5,69.5C 500.5,70.5 500.5,71.5 500.5,72.5C 499.235,73.5145 498.569,75.0145 498.5,77C 498.508,78.7067 498.842,80.2067 499.5,81.5C 499.5,81.8333 499.5,82.1667 499.5,82.5C 499.19,83.7383 498.69,83.7383 498,82.5C 497.333,83.8333 497.333,85.1667 498,86.5C 500.454,84.5588 502.287,82.2254 503.5,79.5C 504.833,77.5 506.5,75.8333 508.5,74.5C 510.404,74.2624 511.738,73.2624 512.5,71.5C 514.027,71.573 515.027,70.9063 515.5,69.5C 516.514,68.3263 517.847,67.6596 519.5,67.5C 525.175,66.2317 530.842,66.2317 536.5,67.5C 536.973,68.9063 537.973,69.573 539.5,69.5C 539.738,71.4044 540.738,72.7377 542.5,73.5C 543.401,74.2905 544.068,75.2905 544.5,76.5C 543.513,81.3054 543.179,86.3054 543.5,91.5C 543.768,93.099 543.434,94.4324 542.5,95.5C 541.463,96.9303 540.796,98.597 540.5,100.5C 538.442,106.954 535.109,112.621 530.5,117.5C 528.086,118.911 526.419,120.911 525.5,123.5C 524.998,125.085 523.998,125.585 522.5,125C 523.051,123.602 523.384,122.268 523.5,121C 521.269,119.723 519.602,117.889 518.5,115.5C 516.182,115.543 513.849,115.876 511.5,116.5C 514.894,113.779 518.561,111.446 522.5,109.5C 524.404,109.262 525.738,108.262 526.5,106.5C 529.731,104.78 532.564,102.447 535,99.5C 535.789,97.2884 535.622,95.2884 534.5,93.5C 532.863,91.5248 531.196,89.5248 529.5,87.5C 527.538,85.9827 525.205,85.3161 522.5,85.5C 520.631,85.5068 518.964,85.8401 517.5,86.5C 516.07,87.5375 514.403,88.2041 512.5,88.5C 511.833,88.5 511.167,88.5 510.5,88.5C 510.265,87.9033 509.765,87.5699 509,87.5C 507.687,89.6166 505.853,91.1166 503.5,92C 504.458,93.1475 504.125,94.1475 502.5,95C 501.551,95.6172 500.718,95.4506 500,94.5C 499.558,96.6785 498.558,97.3452 497,96.5C 496.508,97.549 496.674,98.549 497.5,99.5C 494.176,100.159 492.843,102.159 493.5,105.5C 492.167,105.5 490.833,105.5 489.5,105.5C 489.662,107.527 489.495,109.527 489,111.5C 487.955,110.627 487.122,109.627 486.5,108.5C 486.5,83.5 486.5,58.5 486.5,33.5C 486.5,32.5 486.5,31.5 486.5,30.5C 487.345,29.3285 488.011,27.9952 488.5,26.5C 488.794,20.9981 491.461,16.9981 496.5,14.5C 496.631,11.1731 496.631,7.83981 496.5,4.5 Z"/></g>
<g><path style="opacity:1" fill="#9ca3a3" d="M 515.5,69.5 C 515.027,70.9063 514.027,71.573 512.5,71.5C 512.973,70.0937 513.973,69.427 515.5,69.5 Z"/></g>
<g><path style="opacity:1" fill="#9e9ea0" d="M 539.5,69.5 C 541.262,70.2623 542.262,71.5956 542.5,73.5C 540.738,72.7377 539.738,71.4044 539.5,69.5 Z"/></g>
<g><path style="opacity:1" fill="#959698" d="M 512.5,71.5 C 511.738,73.2624 510.404,74.2624 508.5,74.5C 509.262,72.7376 510.596,71.7376 512.5,71.5 Z"/></g>
<g><path style="opacity:1" fill="#7e7e80" d="M 445.5,44.5 C 445.981,60.4962 446.315,76.4962 446.5,92.5C 446.167,92.5 445.833,92.5 445.5,92.5C 444.312,76.3414 444.312,60.3414 445.5,44.5 Z"/></g>
<g><path style="opacity:1" fill="#bbbbbb" d="M 500.5,72.5 C 499.701,75.4299 499.368,78.4299 499.5,81.5C 498.842,80.2067 498.508,78.7067 498.5,77C 498.569,75.0145 499.235,73.5145 500.5,72.5 Z"/></g>
<g><path style="opacity:1" fill="#a2a5a5" d="M 503.5,79.5 C 502.287,82.2254 500.454,84.5588 498,86.5C 497.333,85.1667 497.333,83.8333 498,82.5C 498.69,83.7383 499.19,83.7383 499.5,82.5C 500.833,81.5 502.167,80.5 503.5,79.5 Z"/></g>
<g><path style="opacity:1" fill="#7d7d80" d="M 544.5,76.5 C 545.394,81.6514 545.061,86.6514 543.5,91.5C 543.179,86.3054 543.513,81.3054 544.5,76.5 Z"/></g>
<g><path style="opacity:1" fill="#525656" d="M 275.5,78.5 C 278.149,83.7901 279.816,89.4567 280.5,95.5C 279.306,92.289 277.64,89.289 275.5,86.5C 276.353,83.9285 276.353,81.2619 275.5,78.5 Z"/></g>
<g><path style="opacity:1" fill="#cacacb" d="M 517.5,86.5 C 518.964,85.8401 520.631,85.5068 522.5,85.5C 525.205,85.3161 527.538,85.9827 529.5,87.5C 525.548,86.7279 521.548,86.3946 517.5,86.5 Z"/></g>
<g><path style="opacity:1" fill="#d7d7d8" d="M 510.5,88.5 C 511.167,88.5 511.833,88.5 512.5,88.5C 512.027,89.9063 511.027,90.573 509.5,90.5C 509.833,89.8333 510.167,89.1667 510.5,88.5 Z"/></g>
<g><path style="opacity:1" fill="#919191" d="M 573.5,87.5 C 573.598,89.5529 572.931,91.2196 571.5,92.5C 571.12,90.302 571.787,88.6354 573.5,87.5 Z"/></g>
<g><path style="opacity:1" fill="#a2a2a2" d="M 542.5,95.5 C 542.88,97.698 542.213,99.3646 540.5,100.5C 540.796,98.597 541.463,96.9303 542.5,95.5 Z"/></g>
<g><path style="opacity:1" fill="#a4a6a7" d="M 534.5,93.5 C 535.622,95.2884 535.789,97.2884 535,99.5C 532.564,102.447 529.731,104.78 526.5,106.5C 528.795,103.703 531.295,101.036 534,98.5C 534.494,96.8659 534.66,95.1992 534.5,93.5 Z"/></g>
<g><path style="opacity:1" fill="#7d7f81" d="M 557.5,100.5 C 557.5,101.167 557.5,101.833 557.5,102.5C 555.754,104.252 553.754,105.585 551.5,106.5C 553.167,104.167 555.167,102.167 557.5,100.5 Z"/></g>
<g><path style="opacity:1" fill="#939396" d="M 131.5,106.5 C 126.833,106.5 122.167,106.5 117.5,106.5C 122.184,103.924 126.851,103.924 131.5,106.5 Z"/></g>
<g><path style="opacity:1" fill="#414245" d="M 571.5,92.5 C 569.246,100.024 565.246,106.358 559.5,111.5C 559.523,109.073 560.023,106.74 561,104.5C 562.367,105.524 563.2,105.024 563.5,103C 561.884,101.91 561.217,100.743 561.5,99.5C 559.84,100.172 558.507,101.172 557.5,102.5C 557.5,101.833 557.5,101.167 557.5,100.5C 557.833,99.5 558.5,98.8333 559.5,98.5C 560.397,97.4019 561.23,97.4019 562,98.5C 562.667,97.8333 563.333,97.1667 564,96.5C 564.677,98.689 565.844,99.0224 567.5,97.5C 568.145,95.1737 569.478,93.507 571.5,92.5 Z"/></g>
<g><path style="opacity:1" fill="#ced4d4" d="M 117.5,106.5 C 115.819,108.008 113.819,109.008 111.5,109.5C 112.911,107.461 114.911,106.461 117.5,106.5 Z"/></g>
<g><path style="opacity:1" fill="#202426" d="M 117.5,106.5 C 122.167,106.5 126.833,106.5 131.5,106.5C 133.038,108.551 132.704,110.218 130.5,111.5C 130.134,117.229 129.134,122.563 127.5,127.5C 126.609,126.89 125.609,126.557 124.5,126.5C 122.007,124.416 119.34,124.083 116.5,125.5C 114.343,126.407 112.01,127.073 109.5,127.5C 107.011,127.241 105.344,128.241 104.5,130.5C 100.96,130.377 98.9601,132.043 98.5,135.5C 98.5,136.167 98.1667,136.5 97.5,136.5C 95.3699,137.032 93.3699,137.865 91.5,139C 91.9574,139.414 92.2907,139.914 92.5,140.5C 91.1468,141.524 90.4802,142.857 90.5,144.5C 89.8826,144.389 89.3826,144.056 89,143.5C 87.3708,144.565 86.2042,145.899 85.5,147.5C 84.7132,146.758 84.0465,145.925 83.5,145C 86.5812,144.009 87.2479,142.176 85.5,139.5C 86.9063,139.027 87.573,138.027 87.5,136.5C 88.9063,136.027 89.573,135.027 89.5,133.5C 90.9063,133.027 91.573,132.027 91.5,130.5C 92.9063,130.027 93.573,129.027 93.5,127.5C 95.2624,126.738 96.2624,125.404 96.5,123.5C 100.5,120.167 104.167,116.5 107.5,112.5C 109.404,112.262 110.738,111.262 111.5,109.5C 113.819,109.008 115.819,108.008 117.5,106.5 Z"/></g>
<g><path style="opacity:1" fill="#a1a1a1" d="M 526.5,106.5 C 525.738,108.262 524.404,109.262 522.5,109.5C 523.262,107.738 524.596,106.738 526.5,106.5 Z"/></g>
<g><path style="opacity:1" fill="#a2a2a4" d="M 551.5,106.5 C 550.738,108.262 549.404,109.262 547.5,109.5C 548.262,107.738 549.596,106.738 551.5,106.5 Z"/></g>
<g><path style="opacity:1" fill="#dadbdd" d="M 134.5,108.5 C 135.833,108.5 136.5,109.167 136.5,110.5C 135.5,110.167 134.833,109.5 134.5,108.5 Z"/></g>
<g><path style="opacity:1" fill="#a9aaac" d="M 225.5,106.5 C 225.167,108.833 223.833,110.167 221.5,110.5C 222.5,108.833 223.833,107.5 225.5,106.5 Z"/></g>
<g><path style="opacity:1" fill="#b0b1b1" d="M 111.5,109.5 C 110.738,111.262 109.404,112.262 107.5,112.5C 108.262,110.738 109.596,109.738 111.5,109.5 Z"/></g>
<g><path style="opacity:1" fill="#2c3032" d="M 131.5,106.5 C 133.027,106.427 134.027,107.094 134.5,108.5C 134.833,109.5 135.5,110.167 136.5,110.5C 138.136,111.749 139.303,113.416 140,115.5C 141.422,130.499 137.589,143.832 128.5,155.5C 128.461,154.417 128.127,153.417 127.5,152.5C 131.246,150.282 130.912,148.616 126.5,147.5C 126.715,145.821 126.048,144.821 124.5,144.5C 127.248,142.006 129.248,139.006 130.5,135.5C 129.763,133.03 128.763,130.696 127.5,128.5C 127.5,128.167 127.5,127.833 127.5,127.5C 129.134,122.563 130.134,117.229 130.5,111.5C 132.704,110.218 133.038,108.551 131.5,106.5 Z"/></g>
<g><path style="opacity:1" fill="#414445" d="M 510.5,88.5 C 510.167,89.1667 509.833,89.8333 509.5,90.5C 503.985,94.3632 499.152,99.0299 495,104.5C 491.462,110.263 487.962,115.93 484.5,121.5C 482.566,118.728 483.233,116.895 486.5,116C 485.638,113.266 484.805,113.099 484,115.5C 483.658,113.381 482.825,113.047 481.5,114.5C 481.893,112.716 482.559,111.05 483.5,109.5C 484.391,108.89 485.391,108.557 486.5,108.5C 487.122,109.627 487.955,110.627 489,111.5C 489.495,109.527 489.662,107.527 489.5,105.5C 490.833,105.5 492.167,105.5 493.5,105.5C 492.843,102.159 494.176,100.159 497.5,99.5C 496.674,98.549 496.508,97.549 497,96.5C 498.558,97.3452 499.558,96.6785 500,94.5C 500.718,95.4506 501.551,95.6172 502.5,95C 504.125,94.1475 504.458,93.1475 503.5,92C 505.853,91.1166 507.687,89.6166 509,87.5C 509.765,87.5699 510.265,87.9033 510.5,88.5 Z"/></g>
<g><path style="opacity:1" fill="#9fa0a0" d="M 547.5,109.5 C 546.738,111.262 545.404,112.262 543.5,112.5C 544.262,110.738 545.596,109.738 547.5,109.5 Z"/></g>
<g><path style="opacity:1" fill="#75797b" d="M 221.5,110.5 C 220.264,113.621 217.931,114.955 214.5,114.5C 216.663,112.917 218.996,111.584 221.5,110.5 Z"/></g>
<g><path style="opacity:1" fill="#949696" d="M 462.5,109.5 C 463.612,111.599 464.279,113.933 464.5,116.5C 462.837,114.562 462.171,112.228 462.5,109.5 Z"/></g>
<g><path style="opacity:1" fill="#a0a0a1" d="M 543.5,112.5 C 543.027,113.906 542.027,114.573 540.5,114.5C 540.973,113.094 541.973,112.427 543.5,112.5 Z"/></g>
<g><path style="opacity:1" fill="#77777c" d="M 558.5,113.5 C 557.205,114.488 555.872,115.488 554.5,116.5C 554.5,115.5 554.5,114.5 554.5,113.5C 555.833,113.5 557.167,113.5 558.5,113.5 Z"/></g>
<g><path style="opacity:1" fill="#9b9ca0" d="M 107.5,112.5 C 104.167,116.5 100.5,120.167 96.5,123.5C 99.1667,118.833 102.833,115.167 107.5,112.5 Z"/></g>
<g><path style="opacity:1" fill="#cecece" d="M 214.5,114.5 C 213.22,115.931 211.553,116.598 209.5,116.5C 210.78,115.069 212.447,114.402 214.5,114.5 Z"/></g>
<g><path style="opacity:1" fill="#525556" d="M 554.5,116.5 C 550.852,119.66 546.852,122.327 542.5,124.5C 542.967,119.753 545.633,117.587 550.5,118C 549.833,117.333 549.167,116.667 548.5,116C 550.488,115.82 552.488,115.986 554.5,116.5 Z"/></g>
<g><path style="opacity:1" fill="#9c9c9c" d="M 209.5,116.5 C 208.365,118.213 206.698,118.88 204.5,118.5C 205.78,117.069 207.447,116.402 209.5,116.5 Z"/></g>
<g><path style="opacity:1" fill="#b5b5b6" d="M 511.5,116.5 C 508.912,118.625 505.912,119.958 502.5,120.5C 505.088,118.375 508.088,117.042 511.5,116.5 Z"/></g>
<g><path style="opacity:1" fill="#d2d4d5" d="M 530.5,117.5 C 530.369,118.239 530.536,118.906 531,119.5C 532.33,118.418 533.83,117.751 535.5,117.5C 532.534,119.988 529.201,121.988 525.5,123.5C 526.419,120.911 528.086,118.911 530.5,117.5 Z"/></g>
<g><path style="opacity:1" fill="#c2c4c4" d="M 204.5,118.5 C 204.027,119.906 203.027,120.573 201.5,120.5C 201.973,119.094 202.973,118.427 204.5,118.5 Z"/></g>
<g><path style="opacity:1" fill="#c3c5c7" d="M 465.5,118.5 C 467.5,119.833 469.167,121.5 470.5,123.5C 467.833,122.833 466.167,121.167 465.5,118.5 Z"/></g>
<g><path style="opacity:1" fill="#afb0b2" d="M 201.5,120.5 C 199.5,123.167 197.167,125.5 194.5,127.5C 195.833,124.167 198.167,121.833 201.5,120.5 Z"/></g>
<g><path style="opacity:1" fill="#c5c7d1" d="M 477.5,123.5 C 477.209,124.649 476.376,125.316 475,125.5C 473.93,125.472 473.097,125.139 472.5,124.5C 474.292,124.634 475.958,124.301 477.5,123.5 Z"/></g>
<g><path style="opacity:1" fill="#bebebf" d="M 484.5,122.5 C 484.97,123.693 485.97,124.36 487.5,124.5C 490.802,123.62 494.135,122.954 497.5,122.5C 493.51,124.576 489.177,125.909 484.5,126.5C 482.312,125.426 482.312,124.092 484.5,122.5 Z"/></g>
<g><path style="opacity:1" fill="#a1a4a3" d="M 96.5,123.5 C 96.2624,125.404 95.2624,126.738 93.5,127.5C 93.7376,125.596 94.7376,124.262 96.5,123.5 Z"/></g>
<g><path style="opacity:1" fill="#c3c4c5" d="M 116.5,125.5 C 119.34,124.083 122.007,124.416 124.5,126.5C 121.833,126.167 119.167,125.833 116.5,125.5 Z"/></g>
<g><path style="opacity:1" fill="#9c9d9d" d="M 445.5,92.5 C 445.833,92.5 446.167,92.5 446.5,92.5C 447.429,119.161 447.596,145.828 447,172.5C 446.814,175.036 446.314,177.369 445.5,179.5C 446.64,150.508 446.64,121.508 445.5,92.5 Z"/></g>
<g><path style="opacity:1" fill="#c4c5c7" d="M 542.5,124.5 C 541.713,126.104 540.38,126.771 538.5,126.5C 539.514,125.326 540.847,124.66 542.5,124.5 Z"/></g>
<g><path style="opacity:1" fill="#8d8e8f" d="M 23.5,93.5 C 23.7786,106.857 23.4453,120.19 22.5,133.5C 23.1168,139.529 23.7835,145.529 24.5,151.5C 24.1667,151.5 23.8333,151.5 23.5,151.5C 22.3187,145.704 21.652,139.704 21.5,133.5C 21.9927,119.43 22.6594,106.096 23.5,93.5 Z"/></g>
<g><path style="opacity:1" fill="#787878" d="M 109.5,127.5 C 108.101,128.89 106.434,129.89 104.5,130.5C 105.344,128.241 107.011,127.241 109.5,127.5 Z"/></g>
<g><path style="opacity:1" fill="#b1b1b1" d="M 124.5,126.5 C 125.609,126.557 126.609,126.89 127.5,127.5C 127.5,127.833 127.5,128.167 127.5,128.5C 125.973,128.573 124.973,127.906 124.5,126.5 Z"/></g>
<g><path style="opacity:1" fill="#9f9fa4" d="M 93.5,127.5 C 93.573,129.027 92.9063,130.027 91.5,130.5C 91.427,128.973 92.0937,127.973 93.5,127.5 Z"/></g>
<g><path style="opacity:1" fill="#9d9fa0" d="M 194.5,127.5 C 194.573,129.027 193.906,130.027 192.5,130.5C 192.427,128.973 193.094,127.973 194.5,127.5 Z"/></g>
<g><path style="opacity:1" fill="#505254" d="M 532.5,129.5 C 527.618,132.464 522.285,134.464 516.5,135.5C 516.167,135.5 515.833,135.5 515.5,135.5C 515.389,134.883 515.056,134.383 514.5,134C 516.577,133.808 518.577,133.308 520.5,132.5C 521.668,129.531 523.001,129.198 524.5,131.5C 524.489,130.559 524.989,129.892 526,129.5C 528.607,130.79 529.94,129.79 530,126.5C 530.236,128.119 531.069,129.119 532.5,129.5 Z"/></g>
<g><path style="opacity:1" fill="#4c4d50" d="M 279.5,129.5 C 279.154,133.852 277.488,137.519 274.5,140.5C 274.423,139.25 273.756,138.417 272.5,138C 273.308,137.692 273.975,137.192 274.5,136.5C 273.907,134.618 273.24,132.785 272.5,131C 274.92,130.71 277.254,130.21 279.5,129.5 Z"/></g>
<g><path style="opacity:1" fill="#5e5f62" d="M 104.5,130.5 C 102.909,132.633 100.909,134.299 98.5,135.5C 98.9601,132.043 100.96,130.377 104.5,130.5 Z"/></g>
<g><path style="opacity:1" fill="#9e9e9f" d="M 91.5,130.5 C 91.573,132.027 90.9063,133.027 89.5,133.5C 89.427,131.973 90.0937,130.973 91.5,130.5 Z"/></g>
<g><path style="opacity:1" fill="#b8b8be" d="M 192.5,130.5 C 192.573,132.027 191.906,133.027 190.5,133.5C 190.427,131.973 191.094,130.973 192.5,130.5 Z"/></g>
<g><path style="opacity:1" fill="#d2d3d3" d="M 9.5,115.5 C 9.39506,132.511 9.72839,149.511 10.5,166.5C 8.97458,156.713 8.30791,146.713 8.5,136.5C 8.50035,129.325 8.83368,122.325 9.5,115.5 Z"/></g>
<g><path style="opacity:1" fill="#a2a2a5" d="M 89.5,133.5 C 89.573,135.027 88.9063,136.027 87.5,136.5C 87.427,134.973 88.0937,133.973 89.5,133.5 Z"/></g>
<g><path style="opacity:1" fill="#bebebe" d="M 515.5,135.5 C 515.833,135.5 516.167,135.5 516.5,135.5C 514.786,136.738 512.786,137.405 510.5,137.5C 511.78,136.069 513.447,135.402 515.5,135.5 Z"/></g>
<g><path style="opacity:1" fill="#5f6161" d="M 97.5,136.5 C 95.6459,139.51 93.3126,142.176 90.5,144.5C 90.4802,142.857 91.1468,141.524 92.5,140.5C 92.2907,139.914 91.9574,139.414 91.5,139C 93.3699,137.865 95.3699,137.032 97.5,136.5 Z"/></g>
<g><path style="opacity:1" fill="#c3c5c5" d="M 87.5,136.5 C 87.573,138.027 86.9063,139.027 85.5,139.5C 85.427,137.973 86.0937,136.973 87.5,136.5 Z"/></g>
<g><path style="opacity:1" fill="#7d7e7f" d="M 274.5,140.5 C 273.66,142.853 272.326,144.853 270.5,146.5C 271.15,144.565 271.483,142.565 271.5,140.5C 272.5,140.5 273.5,140.5 274.5,140.5 Z"/></g>
<g><path style="opacity:1" fill="#797b7c" d="M 504.5,142.5 C 502.337,144.083 500.004,145.416 497.5,146.5C 498.234,145.292 498.567,143.959 498.5,142.5C 500.5,142.5 502.5,142.5 504.5,142.5 Z"/></g>
<g><path style="opacity:1" fill="#737475" d="M 345.5,142.5 C 345.799,144.604 345.466,146.604 344.5,148.5C 343.525,151.152 342.192,153.486 340.5,155.5C 341.599,150.856 343.266,146.522 345.5,142.5 Z"/></g>
<g><path style="opacity:1" fill="#424346" d="M 85.5,139.5 C 87.2479,142.176 86.5812,144.009 83.5,145C 84.0465,145.925 84.7132,146.758 85.5,147.5C 86.2042,145.899 87.3708,144.565 89,143.5C 89.3826,144.056 89.8826,144.389 90.5,144.5C 89.3307,147.511 87.664,150.178 85.5,152.5C 84.2347,151.521 82.9014,150.521 81.5,149.5C 80.3044,149.846 80.3044,150.346 81.5,151C 80.9056,151.464 80.2389,151.631 79.5,151.5C 79.5,151.167 79.5,150.833 79.5,150.5C 79.3284,149.508 79.6618,148.842 80.5,148.5C 81.9063,148.027 82.573,147.027 82.5,145.5C 82.9925,143.181 83.9925,141.181 85.5,139.5 Z"/></g>
<g><path style="opacity:1" fill="#bfbfc0" d="M 352.5,146.5 C 352.88,148.698 352.213,150.365 350.5,151.5C 350.796,149.597 351.463,147.93 352.5,146.5 Z"/></g>
<g><path style="opacity:1" fill="#cfd1d1" d="M 495.5,147.5 C 494.713,149.104 493.38,149.771 491.5,149.5C 492.514,148.326 493.847,147.66 495.5,147.5 Z"/></g>
<g><path style="opacity:1" fill="#68696e" d="M 188.5,138.5 C 187.987,142.879 187.153,147.213 186,151.5C 185.241,153.063 184.074,154.063 182.5,154.5C 184.722,149.158 186.722,143.825 188.5,138.5 Z"/></g>
<g><path style="opacity:1" fill="#868689" d="M 266.5,150.5 C 265.101,151.89 263.434,152.89 261.5,153.5C 262.344,151.241 264.011,150.241 266.5,150.5 Z"/></g>
<g><path style="opacity:1" fill="#d2d4d4" d="M 461.5,151.5 C 460.662,151.842 460.328,152.508 460.5,153.5C 459.402,152.399 459.235,151.066 460,149.5C 460.717,150.044 461.217,150.711 461.5,151.5 Z"/></g>
<g><path style="opacity:1" fill="#c0c0c1" d="M 488.5,150.5 C 486.485,151.924 484.152,152.59 481.5,152.5C 483.515,151.076 485.848,150.41 488.5,150.5 Z"/></g>
<g><path style="opacity:1" fill="#6d6e6f" d="M 461.5,151.5 C 465.04,151.753 468.373,152.419 471.5,153.5C 469.901,153.232 468.568,153.566 467.5,154.5C 465.25,153.87 463.25,152.87 461.5,151.5 Z"/></g>
<g><path style="opacity:1" fill="#25292a" d="M 23.5,93.5 C 22.6594,106.096 21.9927,119.43 21.5,133.5C 21.652,139.704 22.3187,145.704 23.5,151.5C 23.9908,158.649 27.6575,162.982 34.5,164.5C 39.9695,164.754 45.3028,164.087 50.5,162.5C 52.0269,162.573 53.0269,161.906 53.5,160.5C 56.5,159.5 58.5,157.5 59.5,154.5C 61.2624,153.738 62.2624,152.404 62.5,150.5C 63.9063,150.027 64.573,149.027 64.5,147.5C 66.9029,147.448 69.2362,147.781 71.5,148.5C 72.7095,148.932 73.7095,149.599 74.5,150.5C 75.8786,152.597 77.5453,152.93 79.5,151.5C 80.2389,151.631 80.9056,151.464 81.5,151C 80.3044,150.346 80.3044,149.846 81.5,149.5C 82.9014,150.521 84.2347,151.521 85.5,152.5C 84.596,153.209 84.2627,154.209 84.5,155.5C 90.69,155.823 96.69,155.49 102.5,154.5C 106.244,154.315 109.911,153.648 113.5,152.5C 115.175,152.132 116.175,151.132 116.5,149.5C 117.847,150.028 119.181,150.195 120.5,150C 120.167,149.667 119.833,149.333 119.5,149C 120.381,148.292 121.047,147.458 121.5,146.5C 123.027,146.573 124.027,145.906 124.5,144.5C 126.048,144.821 126.715,145.821 126.5,147.5C 130.912,148.616 131.246,150.282 127.5,152.5C 128.127,153.417 128.461,154.417 128.5,155.5C 128.672,156.492 128.338,157.158 127.5,157.5C 126.185,158.476 124.852,159.476 123.5,160.5C 122.914,160.291 122.414,159.957 122,159.5C 121.805,160.819 121.972,162.153 122.5,163.5C 122.5,164.833 121.833,165.5 120.5,165.5C 117.636,165.064 115.303,165.897 113.5,168C 114.167,168.333 114.833,168.667 115.5,169C 114.167,169.333 112.833,169.667 111.5,170C 112.252,170.671 112.586,171.504 112.5,172.5C 112.158,173.338 111.492,173.672 110.5,173.5C 108.088,173.331 105.921,173.997 104,175.5C 103.228,175.355 102.561,175.022 102,174.5C 101.52,176.133 100.687,177.466 99.5,178.5C 97.1016,178.259 95.1016,178.926 93.5,180.5C 87.1667,181.833 80.8333,181.833 74.5,180.5C 73.3646,178.787 71.698,178.12 69.5,178.5C 69.0269,177.094 68.0269,176.427 66.5,176.5C 66.0269,175.094 65.0269,174.427 63.5,174.5C 61.9982,171.978 60.6649,171.978 59.5,174.5C 59.1667,175.5 58.5,176.167 57.5,176.5C 55.9902,177.728 54.4902,177.728 53,176.5C 52.7398,178.618 51.7398,180.284 50,181.5C 49.6667,181.167 49.3333,180.833 49,180.5C 48.2564,182.9 47.4231,185.233 46.5,187.5C 39.7444,193.243 32.0777,194.743 23.5,192C 22.0577,191.623 21.0577,190.79 20.5,189.5C 20.1667,188.5 19.5,187.833 18.5,187.5C 16.1782,186.198 14.8449,184.198 14.5,181.5C 14.7709,179.62 14.1042,178.287 12.5,177.5C 11.3254,173.958 10.6587,170.291 10.5,166.5C 9.72839,149.511 9.39506,132.511 9.5,115.5C 9.42245,105.14 9.92245,94.8067 11,84.5C 11.2415,80.5698 12.0749,76.9032 13.5,73.5C 15.1628,71.5615 15.8294,69.2282 15.5,66.5C 16.1174,66.3893 16.6174,66.056 17,65.5C 17.9445,61.506 18.7779,57.506 19.5,53.5C 19.3501,49.8388 20.8501,48.8388 24,50.5C 24.8275,65.0059 24.6608,79.3393 23.5,93.5 Z"/></g>
<g><path style="opacity:1" fill="#a8aaaa" d="M 62.5,150.5 C 62.2624,152.404 61.2624,153.738 59.5,154.5C 59.7376,152.596 60.7376,151.262 62.5,150.5 Z"/></g>
<g><path style="opacity:1" fill="#868888" d="M 116.5,149.5 C 116.175,151.132 115.175,152.132 113.5,152.5C 109.911,153.648 106.244,154.315 102.5,154.5C 107.081,152.86 111.748,151.193 116.5,149.5 Z"/></g>
<g><path style="opacity:1" fill="#cdcdce" d="M 74.5,150.5 C 76.2341,151.562 77.9008,151.562 79.5,150.5C 79.5,150.833 79.5,151.167 79.5,151.5C 77.5453,152.93 75.8786,152.597 74.5,150.5 Z"/></g>
<g><path style="opacity:1" fill="#747577" d="M 121.5,146.5 C 121.047,147.458 120.381,148.292 119.5,149C 119.833,149.333 120.167,149.667 120.5,150C 119.181,150.195 117.847,150.028 116.5,149.5C 117.899,148.11 119.566,147.11 121.5,146.5 Z"/></g>
<g><path style="opacity:1" fill="#b9b9bb" d="M 64.5,147.5 C 64.573,149.027 63.9063,150.027 62.5,150.5C 62.427,148.973 63.0937,147.973 64.5,147.5 Z"/></g>
<g><path style="opacity:1" fill="#babdba" d="M 82.5,145.5 C 82.573,147.027 81.9063,148.027 80.5,148.5C 80.427,146.973 81.0937,145.973 82.5,145.5 Z"/></g>
<g><path style="opacity:1" fill="#98989a" d="M 71.5,148.5 C 69.2362,147.781 66.9029,147.448 64.5,147.5C 64.811,146.522 65.4777,145.855 66.5,145.5C 68.5976,145.957 70.2642,146.957 71.5,148.5 Z"/></g>
<g><path style="opacity:1" fill="#b1b6b6" d="M 124.5,144.5 C 124.027,145.906 123.027,146.573 121.5,146.5C 121.973,145.094 122.973,144.427 124.5,144.5 Z"/></g>
<g><path style="opacity:1" fill="#d6d7d7" d="M 481.5,152.5 C 480.737,153.268 479.737,153.768 478.5,154C 474.848,154.499 471.182,154.665 467.5,154.5C 468.568,153.566 469.901,153.232 471.5,153.5C 474.833,153.167 478.167,152.833 481.5,152.5 Z"/></g>
<g><path style="opacity:1" fill="#e1e1e2" d="M 85.5,152.5 C 90.7351,154.45 96.4018,155.117 102.5,154.5C 96.69,155.49 90.69,155.823 84.5,155.5C 84.2627,154.209 84.596,153.209 85.5,152.5 Z"/></g>
<g><path style="opacity:1" fill="#a8aaaa" d="M 182.5,154.5 C 182.573,156.027 181.906,157.027 180.5,157.5C 180.427,155.973 181.094,154.973 182.5,154.5 Z"/></g>
<g><path style="opacity:1" fill="#dadbdb" d="M 258.5,154.5 C 253.071,156.012 247.404,156.679 241.5,156.5C 246.944,155.116 252.611,154.45 258.5,154.5 Z"/></g>
<g><path style="opacity:1" fill="#dadadc" d="M 241.5,156.5 C 234.536,158.225 227.536,158.559 220.5,157.5C 227.485,156.911 234.485,156.578 241.5,156.5 Z"/></g>
<g><path style="opacity:1" fill="#898a8a" d="M 349.5,155.5 C 349.31,158.855 348.31,161.855 346.5,164.5C 346.528,161.084 347.528,158.084 349.5,155.5 Z"/></g>
<g><path style="opacity:1" fill="#898c8c" d="M 59.5,154.5 C 58.5,157.5 56.5,159.5 53.5,160.5C 55.1667,158.167 57.1667,156.167 59.5,154.5 Z"/></g>
<g><path style="opacity:1" fill="#919597" d="M 23.5,151.5 C 23.8333,151.5 24.1667,151.5 24.5,151.5C 25.5694,157.57 28.9027,161.903 34.5,164.5C 27.6575,162.982 23.9908,158.649 23.5,151.5 Z"/></g>
<g><path style="opacity:1" fill="#7b7b7b" d="M 127.5,157.5 C 126.581,160.089 124.914,162.089 122.5,163.5C 121.972,162.153 121.805,160.819 122,159.5C 122.414,159.957 122.914,160.291 123.5,160.5C 124.852,159.476 126.185,158.476 127.5,157.5 Z"/></g>
<g><path style="opacity:1" fill="#c3c3c3" d="M 459.5,155.5 C 459.751,158.29 459.751,161.29 459.5,164.5C 458.539,162.735 458.205,160.735 458.5,158.5C 458.263,157.209 458.596,156.209 459.5,155.5 Z"/></g>
<g><path style="opacity:1" fill="#9c9c9c" d="M 53.5,160.5 C 53.0269,161.906 52.0269,162.573 50.5,162.5C 50.9731,161.094 51.9731,160.427 53.5,160.5 Z"/></g>
<g><path style="opacity:1" fill="#abacad" d="M 180.5,157.5 C 177.833,162.167 174.167,165.833 169.5,168.5C 172.833,164.5 176.5,160.833 180.5,157.5 Z"/></g>
<g><path style="opacity:1" fill="#b9b9bd" d="M 192.5,157.5 C 192.59,160.152 191.924,162.485 190.5,164.5C 190.41,161.848 191.076,159.515 192.5,157.5 Z"/></g>
<g><path style="opacity:1" fill="#999b9c" d="M 338.5,162.5 C 338.472,165.916 337.472,168.916 335.5,171.5C 335.928,168.215 336.928,165.215 338.5,162.5 Z"/></g>
<g><path style="opacity:1" fill="#4d4e50" d="M 120.5,165.5 C 118.451,168.55 115.784,170.883 112.5,172.5C 112.586,171.504 112.252,170.671 111.5,170C 112.833,169.667 114.167,169.333 115.5,169C 114.833,168.667 114.167,168.333 113.5,168C 115.303,165.897 117.636,165.064 120.5,165.5 Z"/></g>
<g><path style="opacity:1" fill="#979a9a" d="M 346.5,164.5 C 346.59,167.152 345.924,169.485 344.5,171.5C 344.41,168.848 345.076,166.515 346.5,164.5 Z"/></g>
<g><path style="opacity:1" fill="#abadad" d="M 169.5,168.5 C 168.738,170.262 167.404,171.262 165.5,171.5C 166.262,169.738 167.596,168.738 169.5,168.5 Z"/></g>
<g><path style="opacity:1" fill="#5b5b60" d="M 190.5,164.5 C 190.128,168.297 188.794,171.63 186.5,174.5C 186.714,172.856 186.38,171.356 185.5,170C 186.471,168.796 187.471,168.296 188.5,168.5C 187.572,167.232 187.405,165.899 188,164.5C 188.77,165.598 189.603,165.598 190.5,164.5 Z"/></g>
<g><path style="opacity:1" fill="#838586" d="M 458.5,158.5 C 458.205,160.735 458.539,162.735 459.5,164.5C 458.49,167.924 457.49,171.257 456.5,174.5C 456.527,168.949 457.194,163.616 458.5,158.5 Z"/></g>
<g><path style="opacity:1" fill="#c8c8c9" d="M 63.5,174.5 C 62.0357,173.595 60.7024,173.595 59.5,174.5C 60.7024,173.595 62.0357,173.595 63.5,174.5 Z"/></g>
<g><path style="opacity:1" fill="#9b9b9b" d="M 165.5,171.5 C 165.027,172.906 164.027,173.573 162.5,173.5C 162.973,172.094 163.973,171.427 165.5,171.5 Z"/></g>
<g><path style="opacity:1" fill="#2a2d2f" d="M 573.5,172.5 C 575.109,173.771 576.942,174.771 579,175.5C 579.49,176.793 579.657,178.127 579.5,179.5C 577.735,182.709 575.735,185.709 573.5,188.5C 572.094,188.973 571.427,189.973 571.5,191.5C 563.732,194.226 557.565,191.893 553,184.5C 552.762,175.969 556.096,168.969 563,163.5C 566.103,167.114 569.603,170.114 573.5,172.5 Z"/></g>
<g><path style="opacity:1" fill="#a1a1a2" d="M 573.5,172.5 C 577.139,172.422 579.806,173.922 581.5,177C 580.934,177.995 580.267,178.828 579.5,179.5C 579.657,178.127 579.49,176.793 579,175.5C 576.942,174.771 575.109,173.771 573.5,172.5 Z"/></g>
<g><path style="opacity:1" fill="#a2a2a2" d="M 162.5,173.5 C 162.027,174.906 161.027,175.573 159.5,175.5C 159.973,174.094 160.973,173.427 162.5,173.5 Z"/></g>
<g><path style="opacity:1" fill="#25292b" d="M 239.5,1.5 C 241.117,2.038 242.784,2.37133 244.5,2.5C 245.245,5.38965 245.912,8.38965 246.5,11.5C 245.482,14.3768 245.649,17.3768 247,20.5C 247.417,21.756 248.25,22.4226 249.5,22.5C 249.5,22.8333 249.5,23.1667 249.5,23.5C 248.957,23.56 248.624,23.8933 248.5,24.5C 248.994,26.0255 249.661,27.3588 250.5,28.5C 250.402,30.5529 251.069,32.2196 252.5,33.5C 254.096,37.3568 255.096,41.3568 255.5,45.5C 256.5,45.5 257.5,45.5 258.5,45.5C 259.674,46.5137 260.34,47.847 260.5,49.5C 260.75,51.674 261.75,53.3406 263.5,54.5C 265.341,56.8485 266.674,59.5152 267.5,62.5C 267.427,64.0269 268.094,65.0269 269.5,65.5C 269.707,68.2406 270.707,70.5739 272.5,72.5C 274.008,74.1815 275.008,76.1815 275.5,78.5C 276.353,81.2619 276.353,83.9285 275.5,86.5C 277.64,89.289 279.306,92.289 280.5,95.5C 282.445,103.597 282.945,111.931 282,120.5C 281.796,123.797 280.963,126.797 279.5,129.5C 277.254,130.21 274.92,130.71 272.5,131C 273.24,132.785 273.907,134.618 274.5,136.5C 273.975,137.192 273.308,137.692 272.5,138C 273.756,138.417 274.423,139.25 274.5,140.5C 273.5,140.5 272.5,140.5 271.5,140.5C 271.483,142.565 271.15,144.565 270.5,146.5C 269.5,148.167 268.167,149.5 266.5,150.5C 264.011,150.241 262.344,151.241 261.5,153.5C 260.791,154.404 259.791,154.737 258.5,154.5C 252.611,154.45 246.944,155.116 241.5,156.5C 234.485,156.578 227.485,156.911 220.5,157.5C 220.5,155.833 220.5,154.167 220.5,152.5C 222.38,152.771 223.713,152.104 224.5,150.5C 227.836,148.269 231.503,146.603 235.5,145.5C 237.674,145.25 239.341,144.25 240.5,142.5C 240.842,141.662 241.508,141.328 242.5,141.5C 244.027,141.573 245.027,140.906 245.5,139.5C 247.404,139.262 248.738,138.262 249.5,136.5C 252.089,135.581 254.089,133.914 255.5,131.5C 256.5,129.833 257.833,128.5 259.5,127.5C 261.587,126.415 262.92,124.749 263.5,122.5C 264.906,122.027 265.573,121.027 265.5,119.5C 265.5,118.833 265.833,118.5 266.5,118.5C 268.086,117.852 269.753,117.352 271.5,117C 269.043,115.488 269.043,114.154 271.5,113C 270.748,112.329 270.414,111.496 270.5,110.5C 273.365,107.587 274.699,103.921 274.5,99.5C 275.569,96.8044 274.569,94.8044 271.5,93.5C 270.833,93.5 270.5,93.1667 270.5,92.5C 270.573,90.9731 269.906,89.9731 268.5,89.5C 267.864,87.2054 266.531,85.5387 264.5,84.5C 264.573,82.9731 263.906,81.9731 262.5,81.5C 262.573,79.9731 261.906,78.9731 260.5,78.5C 260.573,76.9731 259.906,75.9731 258.5,75.5C 257.094,75.0269 256.427,74.0269 256.5,72.5C 256.034,70.7988 256.034,69.2988 256.5,68C 255.874,67.2496 255.374,66.4162 255,65.5C 254.23,66.5981 253.397,66.5981 252.5,65.5C 252.573,63.9731 251.906,62.9731 250.5,62.5C 248.326,59.4846 246.659,56.1513 245.5,52.5C 244.955,50.4068 244.122,48.4068 243,46.5C 242.536,47.0944 242.369,47.7611 242.5,48.5C 241.167,59.5 241.167,70.5 242.5,81.5C 241.897,82.6348 241.564,83.6348 241.5,84.5C 239.753,90.9605 238.419,97.6271 237.5,104.5C 237.59,107.152 236.924,109.485 235.5,111.5C 233.98,113.89 232.98,116.557 232.5,119.5C 231.492,121.544 230.492,123.544 229.5,125.5C 229.565,125.062 229.399,124.728 229,124.5C 227.961,125.244 227.461,126.244 227.5,127.5C 225.057,131.276 221.724,133.943 217.5,135.5C 215.447,135.402 213.78,136.069 212.5,137.5C 210.064,138.871 207.397,139.871 204.5,140.5C 202.447,140.402 200.78,141.069 199.5,142.5C 197.863,141.782 196.197,141.616 194.5,142C 195.167,142.333 195.833,142.667 196.5,143C 194.7,145.094 193.7,147.594 193.5,150.5C 193.543,151.416 193.876,152.083 194.5,152.5C 194.204,154.403 193.537,156.07 192.5,157.5C 191.076,159.515 190.41,161.848 190.5,164.5C 189.603,165.598 188.77,165.598 188,164.5C 187.405,165.899 187.572,167.232 188.5,168.5C 187.471,168.296 186.471,168.796 185.5,170C 186.38,171.356 186.714,172.856 186.5,174.5C 186.672,175.492 186.338,176.158 185.5,176.5C 182.27,177.728 180.604,180.061 180.5,183.5C 180.5,184.167 180.167,184.5 179.5,184.5C 178.167,185.167 177.167,186.167 176.5,187.5C 176.5,188.167 176.167,188.5 175.5,188.5C 173.326,188.75 171.659,189.75 170.5,191.5C 169.833,191.5 169.167,191.5 168.5,191.5C 161.595,191.207 154.928,191.874 148.5,193.5C 145.5,194.833 142.5,194.833 139.5,193.5C 138.85,191.565 138.517,189.565 138.5,187.5C 139.514,186.326 140.847,185.66 142.5,185.5C 144.027,185.573 145.027,184.906 145.5,183.5C 148.24,181.44 151.24,179.774 154.5,178.5C 156.027,178.573 157.027,177.906 157.5,176.5C 157.842,175.662 158.508,175.328 159.5,175.5C 161.027,175.573 162.027,174.906 162.5,173.5C 164.027,173.573 165.027,172.906 165.5,171.5C 167.404,171.262 168.738,170.262 169.5,168.5C 174.167,165.833 177.833,162.167 180.5,157.5C 181.906,157.027 182.573,156.027 182.5,154.5C 184.074,154.063 185.241,153.063 186,151.5C 187.153,147.213 187.987,142.879 188.5,138.5C 188.796,136.597 189.463,134.93 190.5,133.5C 191.906,133.027 192.573,132.027 192.5,130.5C 193.906,130.027 194.573,129.027 194.5,127.5C 197.167,125.5 199.5,123.167 201.5,120.5C 203.027,120.573 204.027,119.906 204.5,118.5C 206.698,118.88 208.365,118.213 209.5,116.5C 211.553,116.598 213.22,115.931 214.5,114.5C 217.931,114.955 220.264,113.621 221.5,110.5C 223.833,110.167 225.167,108.833 225.5,106.5C 226.772,103.652 227.605,100.652 228,97.5C 228.168,78.3289 228.668,59.3289 229.5,40.5C 230.493,34.628 231.493,28.628 232.5,22.5C 232.5,22.1667 232.5,21.8333 232.5,21.5C 233.931,20.0975 235.098,18.4308 236,16.5C 237.073,17.2797 238.24,17.113 239.5,16C 237.686,13.5185 237.02,10.6852 237.5,7.5C 237.595,5.2143 238.262,3.2143 239.5,1.5 Z"/></g>
<g><path style="opacity:1" fill="#7a7b7a" d="M 224.5,150.5 C 223.713,152.104 222.38,152.771 220.5,152.5C 220.5,154.167 220.5,155.833 220.5,157.5C 217.289,152.991 218.622,150.657 224.5,150.5 Z"/></g>
<g><path style="opacity:1" fill="#d2d3d5" d="M 240.5,142.5 C 239.341,144.25 237.674,145.25 235.5,145.5C 236.659,143.75 238.326,142.75 240.5,142.5 Z"/></g>
<g><path style="opacity:1" fill="#646468" d="M 199.5,142.5 C 196.317,145.033 194.651,148.366 194.5,152.5C 193.876,152.083 193.543,151.416 193.5,150.5C 193.7,147.594 194.7,145.094 196.5,143C 195.833,142.667 195.167,142.333 194.5,142C 196.197,141.616 197.863,141.782 199.5,142.5 Z"/></g>
<g><path style="opacity:1" fill="#a0a4a3" d="M 245.5,139.5 C 245.027,140.906 244.027,141.573 242.5,141.5C 242.973,140.094 243.973,139.427 245.5,139.5 Z"/></g>
<g><path style="opacity:1" fill="#cfd0d0" d="M 204.5,140.5 C 203.22,141.931 201.553,142.598 199.5,142.5C 200.78,141.069 202.447,140.402 204.5,140.5 Z"/></g>
<g><path style="opacity:1" fill="#b0b0b3" d="M 249.5,136.5 C 248.738,138.262 247.404,139.262 245.5,139.5C 246.262,137.738 247.596,136.738 249.5,136.5 Z"/></g>
<g><path style="opacity:1" fill="#97969a" d="M 255.5,131.5 C 254.089,133.914 252.089,135.581 249.5,136.5C 250.911,134.086 252.911,132.419 255.5,131.5 Z"/></g>
<g><path style="opacity:1" fill="#d9d9d9" d="M 217.5,135.5 C 216.22,136.931 214.553,137.598 212.5,137.5C 213.78,136.069 215.447,135.402 217.5,135.5 Z"/></g>
<g><path style="opacity:1" fill="#a3a5a6" d="M 263.5,122.5 C 262.92,124.749 261.587,126.415 259.5,127.5C 260.08,125.251 261.413,123.585 263.5,122.5 Z"/></g>
<g><path style="opacity:1" fill="#d8d9d9" d="M 229.5,125.5 C 229.167,126.5 228.5,127.167 227.5,127.5C 227.461,126.244 227.961,125.244 229,124.5C 229.399,124.728 229.565,125.062 229.5,125.5 Z"/></g>
<g><path style="opacity:1" fill="#b5bab6" d="M 265.5,119.5 C 265.573,121.027 264.906,122.027 263.5,122.5C 263.427,120.973 264.094,119.973 265.5,119.5 Z"/></g>
<g><path style="opacity:1" fill="#5f6060" d="M 270.5,110.5 C 270.414,111.496 270.748,112.329 271.5,113C 269.043,114.154 269.043,115.488 271.5,117C 269.753,117.352 268.086,117.852 266.5,118.5C 267.326,115.515 268.659,112.849 270.5,110.5 Z"/></g>
<g><path style="opacity:1" fill="#c5c6c6" d="M 235.5,111.5 C 235.585,114.649 234.585,117.316 232.5,119.5C 232.98,116.557 233.98,113.89 235.5,111.5 Z"/></g>
<g><path style="opacity:1" fill="#858588" d="M 274.5,99.5 C 274.699,103.921 273.365,107.587 270.5,110.5C 271.605,106.648 272.938,102.982 274.5,99.5 Z"/></g>
<g><path style="opacity:1" fill="#c4c4c7" d="M 271.5,93.5 C 274.569,94.8044 275.569,96.8044 274.5,99.5C 273.5,97.5 272.5,95.5 271.5,93.5 Z"/></g>
<g><path style="opacity:1" fill="#d4d4d4" d="M 268.5,89.5 C 269.906,89.9731 270.573,90.9731 270.5,92.5C 269.094,92.0269 268.427,91.0269 268.5,89.5 Z"/></g>
<g><path style="opacity:1" fill="#a1a2a1" d="M 241.5,84.5 C 241.162,89.7022 240.495,94.8689 239.5,100C 239.475,101.876 238.809,103.376 237.5,104.5C 238.419,97.6271 239.753,90.9605 241.5,84.5 Z"/></g>
<g><path style="opacity:1" fill="#9d9d9f" d="M 264.5,84.5 C 266.531,85.5387 267.864,87.2054 268.5,89.5C 266.457,88.4206 265.124,86.754 264.5,84.5 Z"/></g>
<g><path style="opacity:1" fill="#d8d8d9" d="M 262.5,81.5 C 263.906,81.9731 264.573,82.9731 264.5,84.5C 263.094,84.0269 262.427,83.0269 262.5,81.5 Z"/></g>
<g><path style="opacity:1" fill="#cdcece" d="M 260.5,78.5 C 261.906,78.9731 262.573,79.9731 262.5,81.5C 261.094,81.0269 260.427,80.0269 260.5,78.5 Z"/></g>
<g><path style="opacity:1" fill="#cbcbcb" d="M 258.5,75.5 C 259.906,75.9731 260.573,76.9731 260.5,78.5C 259.094,78.0269 258.427,77.0269 258.5,75.5 Z"/></g>
<g><path style="opacity:1" fill="#6a6b6d" d="M 252.5,65.5 C 253.397,66.5981 254.23,66.5981 255,65.5C 255.374,66.4162 255.874,67.2496 256.5,68C 256.034,69.2988 256.034,70.7988 256.5,72.5C 254.412,70.6644 253.079,68.3311 252.5,65.5 Z"/></g>
<g><path style="opacity:1" fill="#5a5b5c" d="M 242.5,48.5 C 242.175,55.6866 242.509,62.6866 243.5,69.5C 242.881,73.2032 242.548,77.2032 242.5,81.5C 241.167,70.5 241.167,59.5 242.5,48.5 Z"/></g>
<g><path style="opacity:1" fill="#c8c9c9" d="M 250.5,62.5 C 251.906,62.9731 252.573,63.9731 252.5,65.5C 251.094,65.0269 250.427,64.0269 250.5,62.5 Z"/></g>
<g><path style="opacity:1" fill="#dadddd" d="M 245.5,52.5 C 244.883,52.3893 244.383,52.056 244,51.5C 243.501,57.4908 243.334,63.4908 243.5,69.5C 242.509,62.6866 242.175,55.6866 242.5,48.5C 242.369,47.7611 242.536,47.0944 243,46.5C 244.122,48.4068 244.955,50.4068 245.5,52.5 Z"/></g>
<g><path style="opacity:1" fill="#a4a5a6" d="M 63.5,174.5 C 65.0269,174.427 66.0269,175.094 66.5,176.5C 64.9731,176.573 63.9731,175.906 63.5,174.5 Z"/></g>
<g><path style="opacity:1" fill="#68696a" d="M 110.5,173.5 C 107.249,175.957 103.582,177.624 99.5,178.5C 100.687,177.466 101.52,176.133 102,174.5C 102.561,175.022 103.228,175.355 104,175.5C 105.921,173.997 108.088,173.331 110.5,173.5 Z"/></g>
<g><path style="opacity:1" fill="#959698" d="M 335.5,172.5 C 335.741,174.898 335.074,176.898 333.5,178.5C 333.595,176.214 334.262,174.214 335.5,172.5 Z"/></g>
<g><path style="opacity:1" fill="#c1c1c1" d="M 66.5,176.5 C 68.0269,176.427 69.0269,177.094 69.5,178.5C 67.9731,178.573 66.9731,177.906 66.5,176.5 Z"/></g>
<g><path style="opacity:1" fill="#aaadb1" d="M 157.5,176.5 C 157.027,177.906 156.027,178.573 154.5,178.5C 154.973,177.094 155.973,176.427 157.5,176.5 Z"/></g>
<g><path style="opacity:1" fill="#96989a" d="M 69.5,178.5 C 71.698,178.12 73.3646,178.787 74.5,180.5C 72.4471,180.598 70.7804,179.931 69.5,178.5 Z"/></g>
<g><path style="opacity:1" fill="#cbcbcb" d="M 12.5,177.5 C 14.1042,178.287 14.7709,179.62 14.5,181.5C 13.3263,180.486 12.6596,179.153 12.5,177.5 Z"/></g>
<g><path style="opacity:1" fill="#4a4d4e" d="M 57.5,176.5 C 54.8333,181.167 51.1667,184.833 46.5,187.5C 47.4231,185.233 48.2564,182.9 49,180.5C 49.3333,180.833 49.6667,181.167 50,181.5C 51.7398,180.284 52.7398,178.618 53,176.5C 54.4902,177.728 55.9902,177.728 57.5,176.5 Z"/></g>
<g><path style="opacity:1" fill="#c6c6c6" d="M 99.5,178.5 C 97.7857,179.738 95.7857,180.405 93.5,180.5C 95.1016,178.926 97.1016,178.259 99.5,178.5 Z"/></g>
<g><path style="opacity:1" fill="#5d5f62" d="M 185.5,176.5 C 184.567,179.37 182.9,181.704 180.5,183.5C 180.604,180.061 182.27,177.728 185.5,176.5 Z"/></g>
<g><path style="opacity:1" fill="#adadb0" d="M 145.5,183.5 C 145.027,184.906 144.027,185.573 142.5,185.5C 142.973,184.094 143.973,183.427 145.5,183.5 Z"/></g>
<g><path style="opacity:1" fill="#999b9b" d="M 445.5,179.5 C 445.889,182.553 445.223,185.22 443.5,187.5C 443.802,184.627 444.469,181.961 445.5,179.5 Z"/></g>
<g><path style="opacity:1" fill="#66686a" d="M 455.5,180.5 C 455.37,184.525 454.37,188.191 452.5,191.5C 452.12,187.342 453.12,183.675 455.5,180.5 Z"/></g>
<g><path style="opacity:1" fill="#d7d7d8" d="M 179.5,184.5 C 179.5,186.5 178.5,187.5 176.5,187.5C 177.167,186.167 178.167,185.167 179.5,184.5 Z"/></g>
<g><path style="opacity:1" fill="#9d9d9f" d="M 333.5,179.5 C 333.58,182.781 332.913,185.781 331.5,188.5C 331.42,185.219 332.087,182.219 333.5,179.5 Z"/></g>
<g><path style="opacity:1" fill="#a4a6a8" d="M 343.5,177.5 C 342.668,186.185 342.335,195.185 342.5,204.5C 341.345,201.737 340.678,198.737 340.5,195.5C 341.127,189.845 341.627,184.179 342,178.5C 342.383,177.944 342.883,177.611 343.5,177.5 Z"/></g>
<g><path style="opacity:1" fill="#d3d3d3" d="M 18.5,187.5 C 19.5,187.833 20.1667,188.5 20.5,189.5C 19.1667,189.5 18.5,188.833 18.5,187.5 Z"/></g>
<g><path style="opacity:1" fill="#bebfbf" d="M 175.5,188.5 C 174.341,190.25 172.674,191.25 170.5,191.5C 171.659,189.75 173.326,188.75 175.5,188.5 Z"/></g>
<g><path style="opacity:1" fill="#e0e2e2" d="M 573.5,188.5 C 573.573,190.027 572.906,191.027 571.5,191.5C 571.427,189.973 572.094,188.973 573.5,188.5 Z"/></g>
<g><path style="opacity:1" fill="#d9d9da" d="M 138.5,187.5 C 138.517,189.565 138.85,191.565 139.5,193.5C 138.053,192.866 137.387,191.699 137.5,190C 137.528,188.93 137.861,188.097 138.5,187.5 Z"/></g>
<g><path style="opacity:1" fill="#dadadb" d="M 168.5,191.5 C 162.041,192.813 155.374,193.479 148.5,193.5C 154.928,191.874 161.595,191.207 168.5,191.5 Z"/></g>
<g><path style="opacity:1" fill="#b6b7b7" d="M 452.5,192.5 C 452.938,192.435 453.272,192.601 453.5,193C 452.418,194.33 451.751,195.83 451.5,197.5C 450.322,195.662 450.655,193.995 452.5,192.5 Z"/></g>
<g><path style="opacity:1" fill="#5b5c5d" d="M 443.5,188.5 C 443.453,191.568 442.953,194.568 442,197.5C 441.28,199.056 440.113,200.056 438.5,200.5C 440.195,196.452 441.861,192.452 443.5,188.5 Z"/></g>
<g><path style="opacity:1" fill="#b9b9b9" d="M 450.5,198.5 C 450.448,201.346 449.448,203.68 447.5,205.5C 447.971,203.421 448.637,201.421 449.5,199.5C 449.5,198.833 449.833,198.5 450.5,198.5 Z"/></g>
<g><path style="opacity:1" fill="#222628" d="M 352.5,146.5 C 351.463,147.93 350.796,149.597 350.5,151.5C 350.768,153.099 350.434,154.432 349.5,155.5C 347.528,158.084 346.528,161.084 346.5,164.5C 345.076,166.515 344.41,168.848 344.5,171.5C 344.675,173.621 344.341,175.621 343.5,177.5C 342.883,177.611 342.383,177.944 342,178.5C 341.627,184.179 341.127,189.845 340.5,195.5C 340.678,198.737 341.345,201.737 342.5,204.5C 342.5,204.833 342.5,205.167 342.5,205.5C 342.259,207.898 342.926,209.898 344.5,211.5C 344.149,213.869 343.982,216.203 344,218.5C 344.308,217.692 344.808,217.025 345.5,216.5C 346.324,218.421 347.657,219.754 349.5,220.5C 351.5,221.833 353.167,223.5 354.5,225.5C 355.884,228.37 358.218,230.037 361.5,230.5C 362.251,231.376 362.751,232.376 363,233.5C 363.893,232.919 364.893,232.585 366,232.5C 375.981,235.122 385.815,235.122 395.5,232.5C 400.446,232.738 404.779,231.404 408.5,228.5C 411.967,226.264 415.634,224.264 419.5,222.5C 421.404,222.262 422.738,221.262 423.5,219.5C 424.833,217.5 426.5,215.833 428.5,214.5C 430.679,216.164 432.512,215.83 434,213.5C 436.042,215.436 438.209,217.103 440.5,218.5C 439.559,220.05 438.893,221.716 438.5,223.5C 438.068,224.71 437.401,225.71 436.5,226.5C 435.094,226.973 434.427,227.973 434.5,229.5C 432.889,233.051 430.556,236.051 427.5,238.5C 425.413,239.585 424.08,241.251 423.5,243.5C 422.5,245.167 421.167,246.5 419.5,247.5C 417.973,247.427 416.973,248.094 416.5,249.5C 416.167,250.5 415.5,251.167 414.5,251.5C 412.973,251.427 411.973,252.094 411.5,253.5C 411.027,254.906 410.027,255.573 408.5,255.5C 406.973,255.427 405.973,256.094 405.5,257.5C 403.819,259.008 401.819,260.008 399.5,260.5C 386.424,264.536 373.091,265.536 359.5,263.5C 357.151,261.659 354.485,260.326 351.5,259.5C 351.027,258.094 350.027,257.427 348.5,257.5C 346.5,254.833 344.167,252.5 341.5,250.5C 339.738,249.738 338.738,248.404 338.5,246.5C 337.674,243.515 336.341,240.849 334.5,238.5C 333.069,237.22 332.402,235.553 332.5,233.5C 332.58,230.219 331.913,227.219 330.5,224.5C 330.358,212.482 330.691,200.482 331.5,188.5C 332.913,185.781 333.58,182.781 333.5,179.5C 333.5,179.167 333.5,178.833 333.5,178.5C 335.074,176.898 335.741,174.898 335.5,172.5C 335.5,172.167 335.5,171.833 335.5,171.5C 337.472,168.916 338.472,165.916 338.5,162.5C 338.767,160.035 339.434,157.701 340.5,155.5C 342.192,153.486 343.525,151.152 344.5,148.5C 345.466,146.604 345.799,144.604 345.5,142.5C 346.134,139.063 347.467,135.896 349.5,133C 351.471,132.986 353.471,133.319 355.5,134C 356.022,134.561 356.355,135.228 356.5,136C 355.433,139.716 354.099,143.216 352.5,146.5 Z"/></g>
<g><path style="opacity:1" fill="#858585" d="M 342.5,205.5 C 343.738,207.214 344.405,209.214 344.5,211.5C 342.926,209.898 342.259,207.898 342.5,205.5 Z"/></g>
<g><path style="opacity:1" fill="#8b8c8e" d="M 331.5,188.5 C 330.691,200.482 330.358,212.482 330.5,224.5C 328.036,212.453 328.369,200.453 331.5,188.5 Z"/></g>
<g><path style="opacity:1" fill="#36383a" d="M 449.5,199.5 C 448.637,201.421 447.971,203.421 447.5,205.5C 446.284,210.262 444.284,214.595 441.5,218.5C 441.167,218.5 440.833,218.5 440.5,218.5C 438.209,217.103 436.042,215.436 434,213.5C 432.512,215.83 430.679,216.164 428.5,214.5C 432.254,210.088 435.587,205.422 438.5,200.5C 438.708,202.92 438.374,205.253 437.5,207.5C 438.025,208.192 438.692,208.692 439.5,209C 438.692,209.308 438.025,209.808 437.5,210.5C 439.35,211.242 440.016,212.242 439.5,213.5C 440.831,212.408 441.664,211.074 442,209.5C 442.667,210.167 443.333,210.833 444,211.5C 444.995,208.23 445.828,204.897 446.5,201.5C 447.265,200.388 448.265,199.721 449.5,199.5 Z"/></g>
<g><path style="opacity:1" fill="#57595d" d="M 344.5,211.5 C 346.417,214.331 348.083,217.331 349.5,220.5C 347.657,219.754 346.324,218.421 345.5,216.5C 344.808,217.025 344.308,217.692 344,218.5C 343.982,216.203 344.149,213.869 344.5,211.5 Z"/></g>
<g><path style="opacity:1" fill="#a0a0a0" d="M 423.5,219.5 C 422.738,221.262 421.404,222.262 419.5,222.5C 420.262,220.738 421.596,219.738 423.5,219.5 Z"/></g>
<g><path style="opacity:1" fill="#d4d4d5" d="M 440.5,218.5 C 440.833,218.5 441.167,218.5 441.5,218.5C 441.25,220.674 440.25,222.341 438.5,223.5C 438.893,221.716 439.559,220.05 440.5,218.5 Z"/></g>
<g><path style="opacity:1" fill="#bdbdbe" d="M 330.5,224.5 C 331.913,227.219 332.58,230.219 332.5,233.5C 331.087,230.781 330.42,227.781 330.5,224.5 Z"/></g>
<g><path style="opacity:1" fill="#cbcfd0" d="M 436.5,226.5 C 436.573,228.027 435.906,229.027 434.5,229.5C 434.427,227.973 435.094,226.973 436.5,226.5 Z"/></g>
<g><path style="opacity:1" fill="#8b8d91" d="M 408.5,228.5 C 404.779,231.404 400.446,232.738 395.5,232.5C 399.733,231.203 404.067,229.869 408.5,228.5 Z"/></g>
<g><path style="opacity:1" fill="#a7a8a9" d="M 354.5,225.5 C 367.205,232.896 380.872,235.229 395.5,232.5C 385.815,235.122 375.981,235.122 366,232.5C 364.893,232.585 363.893,232.919 363,233.5C 362.751,232.376 362.251,231.376 361.5,230.5C 358.218,230.037 355.884,228.37 354.5,225.5 Z"/></g>
<g><path style="opacity:1" fill="#c6c7cd" d="M 334.5,238.5 C 336.341,240.849 337.674,243.515 338.5,246.5C 336.127,244.421 334.794,241.754 334.5,238.5 Z"/></g>
<g><path style="opacity:1" fill="#bdc5c6" d="M 427.5,238.5 C 426.92,240.749 425.587,242.415 423.5,243.5C 424.08,241.251 425.413,239.585 427.5,238.5 Z"/></g>
<g><path style="opacity:1" fill="#d6d8d8" d="M 419.5,247.5 C 419.027,248.906 418.027,249.573 416.5,249.5C 416.973,248.094 417.973,247.427 419.5,247.5 Z"/></g>
<g><path style="opacity:1" fill="#d4d4d4" d="M 341.5,250.5 C 344.167,252.5 346.5,254.833 348.5,257.5C 345.167,256.167 342.833,253.833 341.5,250.5 Z"/></g>
<g><path style="opacity:1" fill="#dbdfe0" d="M 414.5,251.5 C 414.027,252.906 413.027,253.573 411.5,253.5C 411.973,252.094 412.973,251.427 414.5,251.5 Z"/></g>
<g><path style="opacity:1" fill="#e6e7e6" d="M 408.5,255.5 C 408.027,256.906 407.027,257.573 405.5,257.5C 405.973,256.094 406.973,255.427 408.5,255.5 Z"/></g>
<g><path style="opacity:1" fill="#c0c2c2" d="M 348.5,257.5 C 350.027,257.427 351.027,258.094 351.5,259.5C 349.973,259.573 348.973,258.906 348.5,257.5 Z"/></g>
<g><path style="opacity:1" fill="#e0e1e2" d="M 351.5,259.5 C 354.485,260.326 357.151,261.659 359.5,263.5C 356.246,263.206 353.579,261.873 351.5,259.5 Z"/></g>
<g><path style="opacity:1" fill="#cfd0d1" d="M 399.5,260.5 C 391.858,264.118 383.691,266.118 375,266.5C 369.591,266.04 364.425,265.04 359.5,263.5C 373.091,265.536 386.424,264.536 399.5,260.5 Z"/></g>
</svg>
