<?xml version="1.0" encoding="UTF-8"?>
<!DOCTYPE svg PUBLIC "-//W3C//DTD SVG 1.1//EN" "http://www.w3.org/Graphics/SVG/1.1/DTD/svg11.dtd">
<svg xmlns="http://www.w3.org/2000/svg" version="1.1" width="593px" height="269px" style="shape-rendering:geometricPrecision; text-rendering:geometricPrecision; image-rendering:optimizeQuality; fill-rule:evenodd; clip-rule:evenodd" xmlns:xlink="http://www.w3.org/1999/xlink">
<g><path style="opacity:1" fill="#3d3d3a" d="M 239.5,1.5 C 241.338,0.321671 243.005,0.655004 244.5,2.5C 242.784,2.37133 241.117,2.038 239.5,1.5 Z"/></g>
<g><path style="opacity:1" fill="#d0cbca" d="M 239.5,1.5 C 241.117,2.038 242.784,2.37133 244.5,2.5C 244.335,5.8499 244.502,9.18323 245,12.5C 245.232,13.7375 245.732,14.7375 246.5,15.5C 247.167,15.5 247.5,15.8333 247.5,16.5C 246.801,20.7721 247.801,24.7721 250.5,28.5C 250.402,30.5529 251.069,32.2196 252.5,33.5C 252.755,35.9674 253.755,37.9674 255.5,39.5C 260.326,47.1458 264.659,55.1458 268.5,63.5C 268.924,66.9181 270.258,69.9181 272.5,72.5C 274.008,74.1815 275.008,76.1815 275.5,78.5C 275.643,80.2624 275.309,81.9291 274.5,83.5C 278.305,86.9454 279.305,91.1121 277.5,96C 278.167,96.3333 278.833,96.6667 279.5,97C 277.803,97.3845 276.137,97.2178 274.5,96.5C 273.833,95.1667 272.833,94.1667 271.5,93.5C 271.174,91.3393 270.174,89.5059 268.5,88C 269.863,85.8707 269.529,85.3707 267.5,86.5C 266.735,85.3881 265.735,84.7214 264.5,84.5C 264.573,82.9731 263.906,81.9731 262.5,81.5C 262.573,79.9731 261.906,78.9731 260.5,78.5C 259.094,78.0269 258.427,77.0269 258.5,75.5C 257.17,72.2956 256.004,68.9622 255,65.5C 254.23,66.5981 253.397,66.5981 252.5,65.5C 249.407,61.6528 247.074,57.3195 245.5,52.5C 244.955,50.4068 244.122,48.4068 243,46.5C 242.501,50.8206 242.334,55.1539 242.5,59.5C 241.734,70.3818 240.734,81.3818 239.5,92.5C 238.833,96.5 238.167,100.5 237.5,104.5C 237.5,104.833 237.5,105.167 237.5,105.5C 235.955,106.23 235.122,107.563 235,109.5C 234.333,108.167 233.667,106.833 233,105.5C 232,106.833 231,106.833 230,105.5C 229.493,106.996 229.993,108.163 231.5,109C 230.167,109.667 230.167,110.333 231.5,111C 231,111.167 230.5,111.333 230,111.5C 228.433,110.144 226.6,109.477 224.5,109.5C 225.11,108.609 225.443,107.609 225.5,106.5C 226.772,103.652 227.605,100.652 228,97.5C 228.333,78.5 228.667,59.5 229,40.5C 229.24,36.7481 229.74,33.0814 230.5,29.5C 232.277,26.4954 233.277,23.1621 233.5,19.5C 233.5,19.1667 233.5,18.8333 233.5,18.5C 234.683,17.4955 236.016,16.6622 237.5,16C 236.709,13.2501 236.709,10.4168 237.5,7.5C 237.595,5.2143 238.262,3.2143 239.5,1.5 Z"/></g>
<g><path style="opacity:1" fill="#919191" d="M 500.5,5.5 C 499.167,5.5 497.833,5.5 496.5,5.5C 496.663,7.85684 496.497,10.1902 496,12.5C 494.855,11.3157 493.688,11.3157 492.5,12.5C 493.42,9.49199 494.754,6.65865 496.5,4C 498.352,3.2274 499.686,3.7274 500.5,5.5 Z"/></g>
<g><path style="opacity:1" fill="#696866" d="M 244.5,2.5 C 245.563,6.63913 246.23,10.9725 246.5,15.5C 245.732,14.7375 245.232,13.7375 245,12.5C 244.502,9.18323 244.335,5.8499 244.5,2.5 Z"/></g>
<g><path style="opacity:1" fill="#93918e" d="M 237.5,7.5 C 236.709,10.4168 236.709,13.2501 237.5,16C 236.016,16.6622 234.683,17.4955 233.5,18.5C 234.462,14.6052 235.796,10.9385 237.5,7.5 Z"/></g>
<g><path style="opacity:1" fill="#3e3838" d="M 492.5,13.5 C 492.573,15.0269 491.906,16.0269 490.5,16.5C 490.427,14.9731 491.094,13.9731 492.5,13.5 Z"/></g>
<g><path style="opacity:1" fill="#504f4f" d="M 247.5,16.5 C 248.905,20.3852 249.905,24.3852 250.5,28.5C 247.801,24.7721 246.801,20.7721 247.5,16.5 Z"/></g>
<g><path style="opacity:1" fill="#d5d0cf" d="M 460.5,62.5 C 460.333,76.504 460.5,90.504 461,104.5C 461.383,103.944 461.883,103.611 462.5,103.5C 462.5,104.167 462.5,104.833 462.5,105.5C 461.385,109.397 462.052,113.063 464.5,116.5C 465.338,116.842 465.672,117.508 465.5,118.5C 466.167,121.167 467.833,122.833 470.5,123.5C 471.817,123.821 473.151,124.154 474.5,124.5C 476.038,124.547 477.038,123.88 477.5,122.5C 480.092,121.341 481.759,119.341 482.5,116.5C 482.272,118.298 482.606,120.298 483.5,122.5C 483.461,123.583 483.127,124.583 482.5,125.5C 485.451,126.224 488.451,126.057 491.5,125C 492.056,124.617 492.389,124.117 492.5,123.5C 495.817,122.503 499.15,121.503 502.5,120.5C 505.393,120.969 507.393,119.969 508.5,117.5C 509.609,117.443 510.609,117.11 511.5,116.5C 515.001,114.95 518.501,114.284 522,114.5C 524.134,116.578 523.968,118.412 521.5,120C 522.5,121 523.5,122 524.5,123C 523.833,123.667 523.167,124.333 522.5,125C 523.716,126.74 525.382,127.74 527.5,128C 525.893,129.049 525.227,130.549 525.5,132.5C 523.549,132.773 522.049,132.107 521,130.5C 520.517,131.448 520.351,132.448 520.5,133.5C 518.234,133.859 516.401,133.192 515,131.5C 513.176,132.749 513.343,133.915 515.5,135C 514.128,135.402 512.795,135.902 511.5,136.5C 509.253,135.626 506.92,135.292 504.5,135.5C 504.44,138.341 503.774,141.007 502.5,143.5C 500.069,142.503 497.902,142.503 496,143.5C 495.383,144.449 495.549,145.282 496.5,146C 494.874,145.805 493.207,145.805 491.5,146C 490.663,147.011 490.33,148.178 490.5,149.5C 487.364,148.979 485.03,149.979 483.5,152.5C 477.982,154.377 472.315,154.877 466.5,154C 464.509,153.626 462.842,152.793 461.5,151.5C 460.698,150.115 460.031,150.282 459.5,152C 459.57,152.765 459.903,153.265 460.5,153.5C 460.672,154.492 460.338,155.158 459.5,155.5C 457.884,161.608 456.884,167.941 456.5,174.5C 455.755,184.351 453.421,193.351 449.5,201.5C 448.326,202.514 447.66,203.847 447.5,205.5C 445.952,205.179 445.285,204.179 445.5,202.5C 443.549,202.227 442.049,202.893 441,204.5C 440.342,202.892 440.842,201.725 442.5,201C 441.177,200.184 440.511,199.017 440.5,197.5C 441.501,194.162 442.501,190.829 443.5,187.5C 445.223,185.22 445.889,182.553 445.5,179.5C 446.314,177.369 446.814,175.036 447,172.5C 447.911,145.647 447.411,118.98 445.5,92.5C 445.5,89.5 445.5,86.5 445.5,83.5C 445.189,67.1136 445.856,50.7802 447.5,34.5C 449.074,32.8984 449.741,30.8984 449.5,28.5C 450.314,24.884 451.648,21.5507 453.5,18.5C 455.429,17.9937 457.095,16.9937 458.5,15.5C 459.167,31.3281 459.833,46.9948 460.5,62.5 Z"/></g>
<g><path style="opacity:1" fill="#656462" d="M 233.5,19.5 C 233.277,23.1621 232.277,26.4954 230.5,29.5C 230.723,25.8379 231.723,22.5046 233.5,19.5 Z"/></g>
<g><path style="opacity:1" fill="#565554" d="M 488.5,23.5 C 488.59,26.1522 487.924,28.4855 486.5,30.5C 486.41,27.8478 487.076,25.5145 488.5,23.5 Z"/></g>
<g><path style="opacity:1" fill="#4e4d4d" d="M 250.5,28.5 C 251.931,29.7804 252.598,31.4471 252.5,33.5C 251.069,32.2196 250.402,30.5529 250.5,28.5 Z"/></g>
<g><path style="opacity:1" fill="#a3a29e" d="M 461.5,17.5 C 460.504,32.324 460.171,47.324 460.5,62.5C 459.833,46.9948 459.167,31.3281 458.5,15.5C 457.095,16.9937 455.429,17.9937 453.5,18.5C 455.382,12.2082 458.049,11.8749 461.5,17.5 Z"/></g>
<g><path style="opacity:1" fill="#6a6966" d="M 449.5,28.5 C 449.741,30.8984 449.074,32.8984 447.5,34.5C 447.259,32.1016 447.926,30.1016 449.5,28.5 Z"/></g>
<g><path style="opacity:1" fill="#2f2727" d="M 252.5,33.5 C 254.245,35.0326 255.245,37.0326 255.5,39.5C 253.755,37.9674 252.755,35.9674 252.5,33.5 Z"/></g>
<g><path style="opacity:1" fill="#5a5a59" d="M 447.5,34.5 C 445.856,50.7802 445.189,67.1136 445.5,83.5C 444.34,70.6732 444.173,57.6732 445,44.5C 445.149,40.8675 445.982,37.5341 447.5,34.5 Z"/></g>
<g><path style="opacity:1" fill="#393937" d="M 569.5,43.5 C 569.573,45.0269 568.906,46.0269 567.5,46.5C 567.427,44.9731 568.094,43.9731 569.5,43.5 Z"/></g>
<g><path style="opacity:1" fill="#9a9998" d="M 126.5,50.5 C 124.45,50.0388 122.45,49.3721 120.5,48.5C 118.21,49.4671 116.21,50.8004 114.5,52.5C 116.098,49.5637 118.098,46.8971 120.5,44.5C 122.854,46.1878 124.854,48.1878 126.5,50.5 Z"/></g>
<g><path style="opacity:1" fill="#2a2a2a" d="M 461.5,17.5 C 461.175,46.2405 461.509,74.9072 462.5,103.5C 461.883,103.611 461.383,103.944 461,104.5C 460.5,90.504 460.333,76.504 460.5,62.5C 460.171,47.324 460.504,32.324 461.5,17.5 Z"/></g>
<g><path style="opacity:1" fill="#1e1c1c" d="M 245.5,52.5 C 244.883,52.3893 244.383,52.056 244,51.5C 243.501,57.4908 243.334,63.4908 243.5,69.5C 242.521,66.3752 242.187,63.0419 242.5,59.5C 242.334,55.1539 242.501,50.8206 243,46.5C 244.122,48.4068 244.955,50.4068 245.5,52.5 Z"/></g>
<g><path style="opacity:1" fill="#585454" d="M 20.5,50.5 C 19.9431,55.1646 18.6098,59.4979 16.5,63.5C 17.0569,58.8354 18.3902,54.5021 20.5,50.5 Z"/></g>
<g><path style="opacity:1" fill="#d8d5d3" d="M 126.5,50.5 C 127.56,53.8877 129.893,55.8877 133.5,56.5C 134.833,57.8333 134.833,59.1667 133.5,60.5C 131.625,59.1639 130.292,59.6639 129.5,62C 129.957,62.414 130.291,62.914 130.5,63.5C 129.5,64.1667 128.5,64.8333 127.5,65.5C 127.389,67.1086 127.722,68.7753 128.5,70.5C 125.059,70.6989 121.726,70.1989 118.5,69C 118.335,67.8831 118.002,66.7164 117.5,65.5C 116.386,64.2241 115.386,64.2241 114.5,65.5C 113.778,65.0825 113.278,64.4158 113,63.5C 112.503,60.854 112.336,58.1873 112.5,55.5C 113.906,55.0269 114.573,54.0269 114.5,52.5C 116.21,50.8004 118.21,49.4671 120.5,48.5C 122.45,49.3721 124.45,50.0388 126.5,50.5 Z"/></g>
<g><path style="opacity:1" fill="#484646" d="M 114.5,52.5 C 114.573,54.0269 113.906,55.0269 112.5,55.5C 112.427,53.9731 113.094,52.9731 114.5,52.5 Z"/></g>
<g><path style="opacity:1" fill="#595655" d="M 112.5,55.5 C 112.336,58.1873 112.503,60.854 113,63.5C 113.278,64.4158 113.778,65.0825 114.5,65.5C 114.5,66.1667 114.5,66.8333 114.5,67.5C 112.233,65.4074 110.9,62.7407 110.5,59.5C 110.668,57.8295 111.335,56.4961 112.5,55.5 Z"/></g>
<g><path style="opacity:1" fill="#a5a4a2" d="M 126.5,50.5 C 129.353,51.9528 132.353,53.1194 135.5,54C 136.357,54.6891 137.023,55.5224 137.5,56.5C 134.974,61.5713 131.974,66.238 128.5,70.5C 127.722,68.7753 127.389,67.1086 127.5,65.5C 128.5,64.8333 129.5,64.1667 130.5,63.5C 130.291,62.914 129.957,62.414 129.5,62C 130.292,59.6639 131.625,59.1639 133.5,60.5C 134.833,59.1667 134.833,57.8333 133.5,56.5C 129.893,55.8877 127.56,53.8877 126.5,50.5 Z"/></g>
<g><path style="opacity:1" fill="#999896" d="M 128.5,70.5 C 123.288,72.2619 118.622,71.2619 114.5,67.5C 114.5,66.8333 114.5,66.1667 114.5,65.5C 115.386,64.2241 116.386,64.2241 117.5,65.5C 118.002,66.7164 118.335,67.8831 118.5,69C 121.726,70.1989 125.059,70.6989 128.5,70.5 Z"/></g>
<g><path style="opacity:1" fill="#3c3a39" d="M 536.5,67.5 C 532.215,66.7051 527.881,66.3718 523.5,66.5C 522.833,66.5 522.167,66.5 521.5,66.5C 526.706,63.5398 531.706,63.8732 536.5,67.5 Z"/></g>
<g><path style="opacity:1" fill="#63615f" d="M 16.5,63.5 C 16.9465,66.0101 16.2798,68.0101 14.5,69.5C 14.595,67.2143 15.2616,65.2143 16.5,63.5 Z"/></g>
<g><path style="opacity:1" fill="#6c6c69" d="M 268.5,63.5 C 270.625,66.0878 271.958,69.0878 272.5,72.5C 270.258,69.9181 268.924,66.9181 268.5,63.5 Z"/></g>
<g><path style="opacity:1" fill="#222222" d="M 536.5,67.5 C 538.027,67.427 539.027,68.0937 539.5,69.5C 537.973,69.573 536.973,68.9063 536.5,67.5 Z"/></g>
<g><path style="opacity:1" fill="#d2cdcc" d="M 500.5,5.5 C 500.817,27.5357 500.817,49.8691 500.5,72.5C 499.235,73.5145 498.569,75.0145 498.5,77C 498.508,78.7067 498.842,80.2067 499.5,81.5C 499.5,81.8333 499.5,82.1667 499.5,82.5C 499.19,83.7383 498.69,83.7383 498,82.5C 497.333,83.8333 497.333,85.1667 498,86.5C 499.802,85.2107 500.969,83.5441 501.5,81.5C 501.833,80.5 502.5,79.8333 503.5,79.5C 506.284,77.6041 509.284,75.9374 512.5,74.5C 513.251,73.624 513.751,72.624 514,71.5C 514.333,72.1667 514.667,72.8333 515,73.5C 515.667,72.1667 516.333,70.8333 517,69.5C 517.333,69.8333 517.667,70.1667 518,70.5C 519.685,68.8953 521.518,67.562 523.5,66.5C 527.881,66.3718 532.215,66.7051 536.5,67.5C 536.973,68.9063 537.973,69.573 539.5,69.5C 539.616,71.575 540.116,73.575 541,75.5C 541.333,75.1667 541.667,74.8333 542,74.5C 543.351,80.0716 543.851,85.7383 543.5,91.5C 543.768,93.099 543.434,94.4324 542.5,95.5C 541.463,96.9303 540.796,98.597 540.5,100.5C 540.5,100.833 540.5,101.167 540.5,101.5C 538.373,102.398 537.206,104.064 537,106.5C 536.259,105.359 535.425,105.359 534.5,106.5C 533.795,108.672 532.795,110.672 531.5,112.5C 531.863,113.183 532.196,113.85 532.5,114.5C 530.801,114.66 529.134,114.494 527.5,114C 528.167,113.333 528.833,112.667 529.5,112C 527.423,111.808 525.423,111.308 523.5,110.5C 524.524,109.148 525.524,107.815 526.5,106.5C 529.731,104.78 532.564,102.447 535,99.5C 535.78,97.6131 535.613,95.9464 534.5,94.5C 529.894,86.2178 523.227,83.8845 514.5,87.5C 510.774,87.1774 507.107,87.5108 503.5,88.5C 503.723,89.9667 504.056,91.4667 504.5,93C 502.413,92.7821 500.413,92.9488 498.5,93.5C 499.028,95.3361 499.694,97.0028 500.5,98.5C 499.833,99.8333 498.833,100.833 497.5,101.5C 496.448,101.351 495.448,101.517 494.5,102C 493.387,104.205 492.387,106.038 491.5,107.5C 489.058,107.354 488.391,108.187 489.5,110C 488.975,110.692 488.308,111.192 487.5,111.5C 486.968,109.924 486.635,107.924 486.5,105.5C 486.5,81.5 486.5,57.5 486.5,33.5C 486.5,32.5 486.5,31.5 486.5,30.5C 487.924,28.4855 488.59,26.1522 488.5,23.5C 488.767,21.0347 489.434,18.7014 490.5,16.5C 491.906,16.0269 492.573,15.0269 492.5,13.5C 492.5,13.1667 492.5,12.8333 492.5,12.5C 493.688,11.3157 494.855,11.3157 496,12.5C 496.497,10.1902 496.663,7.85684 496.5,5.5C 497.833,5.5 499.167,5.5 500.5,5.5 Z"/></g>
<g><path style="opacity:1" fill="#7b7978" d="M 252.5,65.5 C 253.397,66.5981 254.23,66.5981 255,65.5C 256.004,68.9622 257.17,72.2956 258.5,75.5C 256,72.5063 254,69.173 252.5,65.5 Z"/></g>
<g><path style="opacity:1" fill="#a5a2a1" d="M 521.5,66.5 C 522.167,66.5 522.833,66.5 523.5,66.5C 521.518,67.562 519.685,68.8953 518,70.5C 517.667,70.1667 517.333,69.8333 517,69.5C 516.333,70.8333 515.667,72.1667 515,73.5C 514.667,72.8333 514.333,72.1667 514,71.5C 513.751,72.624 513.251,73.624 512.5,74.5C 509.284,75.9374 506.284,77.6041 503.5,79.5C 508.078,73.2099 514.078,68.8766 521.5,66.5 Z"/></g>
<g><path style="opacity:1" fill="#686868" d="M 14.5,70.5 C 14.8294,73.2282 14.1628,75.5615 12.5,77.5C 12.4095,74.8478 13.0762,72.5145 14.5,70.5 Z"/></g>
<g><path style="opacity:1" fill="#3a3a3a" d="M 500.5,72.5 C 499.701,75.4299 499.368,78.4299 499.5,81.5C 498.842,80.2067 498.508,78.7067 498.5,77C 498.569,75.0145 499.235,73.5145 500.5,72.5 Z"/></g>
<g><path style="opacity:1" fill="#2c2a2a" d="M 260.5,78.5 C 261.906,78.9731 262.573,79.9731 262.5,81.5C 261.094,81.0269 260.427,80.0269 260.5,78.5 Z"/></g>
<g><path style="opacity:1" fill="#c7c4c1" d="M 573.5,87.5 C 571.903,88.0905 570.569,89.0905 569.5,90.5C 568.522,90.0233 567.689,89.3567 567,88.5C 566.064,90.7085 564.398,92.0418 562,92.5C 561.5,82.172 561.334,71.8387 561.5,61.5C 562.141,55.8943 564.141,50.8943 567.5,46.5C 568.906,46.0269 569.573,45.0269 569.5,43.5C 570.636,39.2871 572.803,38.6204 576,41.5C 576.667,52.1667 576.667,62.8333 576,73.5C 575.778,78.4122 574.945,83.0789 573.5,87.5 Z"/></g>
<g><path style="opacity:1" fill="#82817f" d="M 539.5,69.5 C 543.204,72.7437 545.204,76.9104 545.5,82C 544.95,85.3242 544.283,88.4909 543.5,91.5C 543.851,85.7383 543.351,80.0716 542,74.5C 541.667,74.8333 541.333,75.1667 541,75.5C 540.116,73.575 539.616,71.575 539.5,69.5 Z"/></g>
<g><path style="opacity:1" fill="#888786" d="M 242.5,59.5 C 242.187,63.0419 242.521,66.3752 243.5,69.5C 242.716,77.2257 241.716,84.8924 240.5,92.5C 240.167,92.5 239.833,92.5 239.5,92.5C 240.734,81.3818 241.734,70.3818 242.5,59.5 Z"/></g>
<g><path style="opacity:1" fill="#222221" d="M 262.5,81.5 C 263.906,81.9731 264.573,82.9731 264.5,84.5C 263.094,84.0269 262.427,83.0269 262.5,81.5 Z"/></g>
<g><path style="opacity:1" fill="#383837" d="M 501.5,81.5 C 500.969,83.5441 499.802,85.2107 498,86.5C 497.333,85.1667 497.333,83.8333 498,82.5C 498.69,83.7383 499.19,83.7383 499.5,82.5C 500.167,82.1667 500.833,81.8333 501.5,81.5 Z"/></g>
<g><path style="opacity:1" fill="#898988" d="M 264.5,84.5 C 265.735,84.7214 266.735,85.3881 267.5,86.5C 269.529,85.3707 269.863,85.8707 268.5,88C 270.174,89.5059 271.174,91.3393 271.5,93.5C 268.815,90.8103 266.482,87.8103 264.5,84.5 Z"/></g>
<g><path style="opacity:1" fill="#61605d" d="M 486.5,33.5 C 486.5,57.5 486.5,81.5 486.5,105.5C 485.833,106.167 485.167,106.833 484.5,107.5C 485.139,82.6932 485.805,58.0265 486.5,33.5 Z"/></g>
<g><path style="opacity:1" fill="#afacab" d="M 561.5,61.5 C 561.334,71.8387 561.5,82.172 562,92.5C 564.398,92.0418 566.064,90.7085 567,88.5C 567.689,89.3567 568.522,90.0233 569.5,90.5C 570.569,89.0905 571.903,88.0905 573.5,87.5C 570.954,96.2674 566.621,103.934 560.5,110.5C 560.142,107.407 559.142,104.741 557.5,102.5C 555.736,104.278 553.736,105.611 551.5,106.5C 554.498,103.333 557.331,99.9997 560,96.5C 560.169,84.6595 560.669,72.9928 561.5,61.5 Z"/></g>
<g><path style="opacity:1" fill="#aeabaa" d="M 514.5,87.5 C 509.259,90.404 504.593,94.0706 500.5,98.5C 499.694,97.0028 499.028,95.3361 498.5,93.5C 500.413,92.9488 502.413,92.7821 504.5,93C 504.056,91.4667 503.723,89.9667 503.5,88.5C 507.107,87.5108 510.774,87.1774 514.5,87.5 Z"/></g>
<g><path style="opacity:1" fill="#20201e" d="M 271.5,93.5 C 272.833,94.1667 273.833,95.1667 274.5,96.5C 274.5,96.8333 274.5,97.1667 274.5,97.5C 272.738,96.7377 271.738,95.4044 271.5,93.5 Z"/></g>
<g><path style="opacity:1" fill="#969593" d="M 275.5,78.5 C 281.162,91.4685 283.495,105.135 282.5,119.5C 281.876,112.91 280.876,106.244 279.5,99.5C 277.671,98.7176 276.171,99.3843 275,101.5C 274.5,103 274,104.5 273.5,106C 273.905,106.945 274.572,107.612 275.5,108C 273.548,108.366 271.882,109.199 270.5,110.5C 272.121,106.258 273.454,101.925 274.5,97.5C 274.5,97.1667 274.5,96.8333 274.5,96.5C 276.137,97.2178 277.803,97.3845 279.5,97C 278.833,96.6667 278.167,96.3333 277.5,96C 279.305,91.1121 278.305,86.9454 274.5,83.5C 275.309,81.9291 275.643,80.2624 275.5,78.5 Z"/></g>
<g><path style="opacity:1" fill="#4b4a4a" d="M 239.5,92.5 C 239.833,92.5 240.167,92.5 240.5,92.5C 240.498,96.8741 239.498,100.874 237.5,104.5C 238.167,100.5 238.833,96.5 239.5,92.5 Z"/></g>
<g><path style="opacity:1" fill="#d3cfcd" d="M 282.5,119.5 C 281.92,123.041 280.92,126.374 279.5,129.5C 276.495,127.974 275.828,128.807 277.5,132C 276.387,133.394 275.053,134.561 273.5,135.5C 273.389,137.109 273.722,138.775 274.5,140.5C 274.573,142.027 273.906,143.027 272.5,143.5C 271.094,143.973 270.427,144.973 270.5,146.5C 268.363,149.973 265.363,152.306 261.5,153.5C 250.896,155.1 240.229,156.1 229.5,156.5C 227.158,156.225 227.158,155.392 229.5,154C 226.833,153 226.833,152 229.5,151C 229.167,150.667 228.833,150.333 228.5,150C 231.272,148.943 233.605,147.443 235.5,145.5C 237.027,145.573 238.027,144.906 238.5,143.5C 239.514,142.326 240.847,141.66 242.5,141.5C 244.027,141.573 245.027,140.906 245.5,139.5C 247.404,139.262 248.738,138.262 249.5,136.5C 252.089,135.581 254.089,133.914 255.5,131.5C 257.942,128.271 260.608,125.271 263.5,122.5C 264.906,122.027 265.573,121.027 265.5,119.5C 265.5,118.833 265.833,118.5 266.5,118.5C 267.931,117.918 269.264,117.085 270.5,116C 270.146,114.374 270.146,112.541 270.5,110.5C 271.882,109.199 273.548,108.366 275.5,108C 274.572,107.612 273.905,106.945 273.5,106C 274,104.5 274.5,103 275,101.5C 276.171,99.3843 277.671,98.7176 279.5,99.5C 280.876,106.244 281.876,112.91 282.5,119.5 Z"/></g>
<g><path style="opacity:1" fill="#4d4c4b" d="M 534.5,94.5 C 535.613,95.9464 535.78,97.6131 535,99.5C 532.564,102.447 529.731,104.78 526.5,106.5C 528.795,103.703 531.295,101.036 534,98.5C 534.49,97.2068 534.657,95.8734 534.5,94.5 Z"/></g>
<g><path style="opacity:1" fill="#4e4e4d" d="M 542.5,95.5 C 542.88,97.698 542.213,99.3646 540.5,100.5C 540.796,98.597 541.463,96.9303 542.5,95.5 Z"/></g>
<g><path style="opacity:1" fill="#5e5e5c" d="M 131.5,106.5 C 126.833,106.5 122.167,106.5 117.5,106.5C 122.184,103.924 126.851,103.924 131.5,106.5 Z"/></g>
<g><path style="opacity:1" fill="#282423" d="M 117.5,106.5 C 115.819,108.008 113.819,109.008 111.5,109.5C 112.911,107.461 114.911,106.461 117.5,106.5 Z"/></g>
<g><path style="opacity:1" fill="#9f9d9a" d="M 540.5,101.5 C 538.618,106.368 535.952,110.701 532.5,114.5C 532.196,113.85 531.863,113.183 531.5,112.5C 532.795,110.672 533.795,108.672 534.5,106.5C 535.425,105.359 536.259,105.359 537,106.5C 537.206,104.064 538.373,102.398 540.5,101.5 Z"/></g>
<g><path style="opacity:1" fill="#21201f" d="M 134.5,108.5 C 135.833,108.5 136.5,109.167 136.5,110.5C 135.5,110.167 134.833,109.5 134.5,108.5 Z"/></g>
<g><path style="opacity:1" fill="#4c4b48" d="M 225.5,106.5 C 225.443,107.609 225.11,108.609 224.5,109.5C 223.609,110.11 222.609,110.443 221.5,110.5C 222.5,108.833 223.833,107.5 225.5,106.5 Z"/></g>
<g><path style="opacity:1" fill="#cbc7c5" d="M 237.5,105.5 C 237.233,107.965 236.566,110.299 235.5,112.5C 234.069,113.78 233.402,115.447 233.5,117.5C 233.672,118.492 233.338,119.158 232.5,119.5C 230.241,120.344 229.241,122.011 229.5,124.5C 227.876,124.36 226.71,125.027 226,126.5C 225.282,125.549 224.449,125.383 223.5,126C 224.38,127.356 224.714,128.856 224.5,130.5C 222.599,132.796 220.266,134.629 217.5,136C 211.421,138.137 205.421,140.471 199.5,143C 198.333,144.167 197.167,145.333 196,146.5C 195.136,150.384 193.97,154.051 192.5,157.5C 191.076,159.515 190.41,161.848 190.5,164.5C 188.894,172.386 185.227,179.052 179.5,184.5C 178.167,185.167 177.167,186.167 176.5,187.5C 174.634,190.27 171.968,191.77 168.5,192C 158.85,193.266 149.184,193.932 139.5,194C 136.21,189.6 137.21,186.767 142.5,185.5C 144.027,185.573 145.027,184.906 145.5,183.5C 146.514,182.326 147.847,181.66 149.5,181.5C 151.027,181.573 152.027,180.906 152.5,179.5C 152.842,178.662 153.508,178.328 154.5,178.5C 156.848,178.408 158.514,177.408 159.5,175.5C 161.027,175.573 162.027,174.906 162.5,173.5C 162.973,172.094 163.973,171.427 165.5,171.5C 167.404,171.262 168.738,170.262 169.5,168.5C 174.167,165.833 177.833,162.167 180.5,157.5C 181.906,157.027 182.573,156.027 182.5,154.5C 185.341,152.36 186.674,149.36 186.5,145.5C 186.926,141.098 188.26,137.098 190.5,133.5C 191.906,133.027 192.573,132.027 192.5,130.5C 192.427,128.973 193.094,127.973 194.5,127.5C 197.167,125.5 199.5,123.167 201.5,120.5C 203.027,120.573 204.027,119.906 204.5,118.5C 205.78,117.069 207.447,116.402 209.5,116.5C 213.236,116.459 216.236,115.126 218.5,112.5C 220.027,112.573 221.027,111.906 221.5,110.5C 222.609,110.443 223.609,110.11 224.5,109.5C 226.6,109.477 228.433,110.144 230,111.5C 230.5,111.333 231,111.167 231.5,111C 230.167,110.333 230.167,109.667 231.5,109C 229.993,108.163 229.493,106.996 230,105.5C 231,106.833 232,106.833 233,105.5C 233.667,106.833 234.333,108.167 235,109.5C 235.122,107.563 235.955,106.23 237.5,105.5 Z"/></g>
<g><path style="opacity:1" fill="#515150" d="M 462.5,105.5 C 463.008,109.197 463.674,112.864 464.5,116.5C 462.052,113.063 461.385,109.397 462.5,105.5 Z"/></g>
<g><path style="opacity:1" fill="#444343" d="M 111.5,109.5 C 110.738,111.262 109.404,112.262 107.5,112.5C 108.262,110.738 109.596,109.738 111.5,109.5 Z"/></g>
<g><path style="opacity:1" fill="#3c3633" d="M 221.5,110.5 C 221.027,111.906 220.027,112.573 218.5,112.5C 218.973,111.094 219.973,110.427 221.5,110.5 Z"/></g>
<g><path style="opacity:1" fill="#b0adab" d="M 497.5,101.5 C 492.739,108.255 488.406,115.255 484.5,122.5C 484.167,122.5 483.833,122.5 483.5,122.5C 482.606,120.298 482.272,118.298 482.5,116.5C 481.759,119.341 480.092,121.341 477.5,122.5C 479.597,117.311 481.93,112.311 484.5,107.5C 485.167,106.833 485.833,106.167 486.5,105.5C 486.635,107.924 486.968,109.924 487.5,111.5C 488.308,111.192 488.975,110.692 489.5,110C 488.391,108.187 489.058,107.354 491.5,107.5C 492.387,106.038 493.387,104.205 494.5,102C 495.448,101.517 496.448,101.351 497.5,101.5 Z"/></g>
<g><path style="opacity:1" fill="#6c6c6b" d="M 218.5,112.5 C 216.236,115.126 213.236,116.459 209.5,116.5C 212.256,114.796 215.256,113.463 218.5,112.5 Z"/></g>
<g><path style="opacity:1" fill="#595855" d="M 107.5,112.5 C 106.089,114.914 104.089,116.581 101.5,117.5C 102.911,115.086 104.911,113.419 107.5,112.5 Z"/></g>
<g><path style="opacity:1" fill="#3a3939" d="M 235.5,112.5 C 235.598,114.553 234.931,116.22 233.5,117.5C 233.402,115.447 234.069,113.78 235.5,112.5 Z"/></g>
<g><path style="opacity:1" fill="#8b8a89" d="M 270.5,110.5 C 270.146,112.541 270.146,114.374 270.5,116C 269.264,117.085 267.931,117.918 266.5,118.5C 267.326,115.515 268.659,112.849 270.5,110.5 Z"/></g>
<g><path style="opacity:1" fill="#585753" d="M 101.5,117.5 C 100.581,120.089 98.914,122.089 96.5,123.5C 97.4194,120.911 99.086,118.911 101.5,117.5 Z"/></g>
<g><path style="opacity:1" fill="#343232" d="M 204.5,118.5 C 204.027,119.906 203.027,120.573 201.5,120.5C 201.973,119.094 202.973,118.427 204.5,118.5 Z"/></g>
<g><path style="opacity:1" fill="#767675" d="M 508.5,117.5 C 507.393,119.969 505.393,120.969 502.5,120.5C 504.181,118.992 506.181,117.992 508.5,117.5 Z"/></g>
<g><path style="opacity:1" fill="#333331" d="M 465.5,118.5 C 467.5,119.833 469.167,121.5 470.5,123.5C 467.833,122.833 466.167,121.167 465.5,118.5 Z"/></g>
<g><path style="opacity:1" fill="#423e41" d="M 265.5,119.5 C 265.573,121.027 264.906,122.027 263.5,122.5C 263.427,120.973 264.094,119.973 265.5,119.5 Z"/></g>
<g><path style="opacity:1" fill="#474644" d="M 201.5,120.5 C 199.5,123.167 197.167,125.5 194.5,127.5C 195.833,124.167 198.167,121.833 201.5,120.5 Z"/></g>
<g><path style="opacity:1" fill="#393938" d="M 483.5,122.5 C 483.833,122.5 484.167,122.5 484.5,122.5C 484.97,123.693 485.97,124.36 487.5,124.5C 489.207,124.272 490.874,123.938 492.5,123.5C 492.389,124.117 492.056,124.617 491.5,125C 488.451,126.057 485.451,126.224 482.5,125.5C 483.127,124.583 483.461,123.583 483.5,122.5 Z"/></g>
<g><path style="opacity:1" fill="#c7c4c2" d="M 560.5,110.5 C 555.633,116.603 549.633,121.269 542.5,124.5C 540.847,124.66 539.514,125.326 538.5,126.5C 534.595,129.284 530.262,131.284 525.5,132.5C 525.227,130.549 525.893,129.049 527.5,128C 525.382,127.74 523.716,126.74 522.5,125C 523.167,124.333 523.833,123.667 524.5,123C 523.5,122 522.5,121 521.5,120C 523.968,118.412 524.134,116.578 522,114.5C 518.501,114.284 515.001,114.95 511.5,116.5C 516.32,112.922 521.32,109.588 526.5,106.5C 525.524,107.815 524.524,109.148 523.5,110.5C 525.423,111.308 527.423,111.808 529.5,112C 528.833,112.667 528.167,113.333 527.5,114C 529.134,114.494 530.801,114.66 532.5,114.5C 532.573,116.027 531.906,117.027 530.5,117.5C 527.927,118.879 526.427,120.879 526,123.5C 529.485,121.85 532.651,119.85 535.5,117.5C 536.899,116.11 538.566,115.11 540.5,114.5C 542.027,114.573 543.027,113.906 543.5,112.5C 545.404,112.262 546.738,111.262 547.5,109.5C 549.404,109.262 550.738,108.262 551.5,106.5C 553.736,105.611 555.736,104.278 557.5,102.5C 559.142,104.741 560.142,107.407 560.5,110.5 Z"/></g>
<g><path style="opacity:1" fill="#262423" d="M 530.5,117.5 C 530.369,118.239 530.536,118.906 531,119.5C 532.33,118.418 533.83,117.751 535.5,117.5C 532.651,119.85 529.485,121.85 526,123.5C 526.427,120.879 527.927,118.879 530.5,117.5 Z"/></g>
<g><path style="opacity:1" fill="#545453" d="M 543.5,112.5 C 543.027,113.906 542.027,114.573 540.5,114.5C 540.973,113.094 541.973,112.427 543.5,112.5 Z"/></g>
<g><path style="opacity:1" fill="#545352" d="M 547.5,109.5 C 546.738,111.262 545.404,112.262 543.5,112.5C 544.262,110.738 545.596,109.738 547.5,109.5 Z"/></g>
<g><path style="opacity:1" fill="#524e4e" d="M 551.5,106.5 C 550.738,108.262 549.404,109.262 547.5,109.5C 548.262,107.738 549.596,106.738 551.5,106.5 Z"/></g>
<g><path style="opacity:1" fill="#51504f" d="M 96.5,123.5 C 96.2624,125.404 95.2624,126.738 93.5,127.5C 93.7376,125.596 94.7376,124.262 96.5,123.5 Z"/></g>
<g><path style="opacity:1" fill="#8f8f8d" d="M 232.5,119.5 C 231.403,124.27 228.737,127.936 224.5,130.5C 224.714,128.856 224.38,127.356 223.5,126C 224.449,125.383 225.282,125.549 226,126.5C 226.71,125.027 227.876,124.36 229.5,124.5C 229.241,122.011 230.241,120.344 232.5,119.5 Z"/></g>
<g><path style="opacity:1" fill="#333231" d="M 542.5,124.5 C 541.713,126.104 540.38,126.771 538.5,126.5C 539.514,125.326 540.847,124.66 542.5,124.5 Z"/></g>
<g><path style="opacity:1" fill="#555551" d="M 93.5,127.5 C 93.573,129.027 92.9063,130.027 91.5,130.5C 91.427,128.973 92.0937,127.973 93.5,127.5 Z"/></g>
<g><path style="opacity:1" fill="#3d3d39" d="M 192.5,130.5 C 192.573,132.027 191.906,133.027 190.5,133.5C 190.427,131.973 191.094,130.973 192.5,130.5 Z"/></g>
<g><path style="opacity:1" fill="#4a4a49" d="M 255.5,131.5 C 254.089,133.914 252.089,135.581 249.5,136.5C 250.911,134.086 252.911,132.419 255.5,131.5 Z"/></g>
<g><path style="opacity:1" fill="#9a9998" d="M 279.5,129.5 C 279.154,133.852 277.488,137.519 274.5,140.5C 273.722,138.775 273.389,137.109 273.5,135.5C 275.053,134.561 276.387,133.394 277.5,132C 275.828,128.807 276.495,127.974 279.5,129.5 Z"/></g>
<g><path style="opacity:1" fill="#6d6d6a" d="M 349.5,133.5 C 349.56,132.957 349.893,132.624 350.5,132.5C 352.336,133.028 354.003,133.694 355.5,134.5C 353.856,134.286 352.356,134.62 351,135.5C 350.722,134.584 350.222,133.918 349.5,133.5 Z"/></g>
<g><path style="opacity:1" fill="#787875" d="M 355.5,134.5 C 356.484,136.598 356.151,138.598 354.5,140.5C 354.325,138.379 354.659,136.379 355.5,134.5 Z"/></g>
<g><path style="opacity:1" fill="#a3a29e" d="M 525.5,132.5 C 520.714,134.599 515.714,136.432 510.5,138C 507.935,140.08 505.268,141.913 502.5,143.5C 503.774,141.007 504.44,138.341 504.5,135.5C 506.92,135.292 509.253,135.626 511.5,136.5C 512.795,135.902 514.128,135.402 515.5,135C 513.343,133.915 513.176,132.749 515,131.5C 516.401,133.192 518.234,133.859 520.5,133.5C 520.351,132.448 520.517,131.448 521,130.5C 522.049,132.107 523.549,132.773 525.5,132.5 Z"/></g>
<g><path style="opacity:1" fill="#464543" d="M 249.5,136.5 C 248.738,138.262 247.404,139.262 245.5,139.5C 246.262,137.738 247.596,136.738 249.5,136.5 Z"/></g>
<g><path style="opacity:1" fill="#515051" d="M 245.5,139.5 C 245.027,140.906 244.027,141.573 242.5,141.5C 242.973,140.094 243.973,139.427 245.5,139.5 Z"/></g>
<g><path style="opacity:1" fill="#b3b0ae" d="M 91.5,130.5 C 90.6103,132.782 90.4436,135.115 91,137.5C 91.7096,138.973 92.8762,139.64 94.5,139.5C 91.7438,144.016 88.7438,148.349 85.5,152.5C 85.4142,151.504 85.7476,150.671 86.5,150C 86,149.833 85.5,149.667 85,149.5C 83.7651,150.615 82.5984,150.615 81.5,149.5C 80.3044,149.846 80.3044,150.346 81.5,151C 77.1793,153.497 73.846,152.664 71.5,148.5C 73.7035,149.946 76.0369,150.78 78.5,151C 82.2334,143.679 86.5668,136.846 91.5,130.5 Z"/></g>
<g><path style="opacity:1" fill="#7c7a75" d="M 354.5,141.5 C 353.572,144.454 352.739,147.454 352,150.5C 351.617,151.056 351.117,151.389 350.5,151.5C 351.137,148.544 351.637,145.544 352,142.5C 352.671,141.748 353.504,141.414 354.5,141.5 Z"/></g>
<g><path style="opacity:1" fill="#2d2b28" d="M 238.5,143.5 C 238.027,144.906 237.027,145.573 235.5,145.5C 235.973,144.094 236.973,143.427 238.5,143.5 Z"/></g>
<g><path style="opacity:1" fill="#262625" d="M 272.5,143.5 C 272.573,145.027 271.906,146.027 270.5,146.5C 270.427,144.973 271.094,143.973 272.5,143.5 Z"/></g>
<g><path style="opacity:1" fill="#424141" d="M 124.5,144.5 C 124.027,145.906 123.027,146.573 121.5,146.5C 121.973,145.094 122.973,144.427 124.5,144.5 Z"/></g>
<g><path style="opacity:1" fill="#7f7e7d" d="M 345.5,142.5 C 345.712,146.546 344.379,149.88 341.5,152.5C 342.321,148.873 343.654,145.54 345.5,142.5 Z"/></g>
<g><path style="opacity:1" fill="#5a5a59" d="M 71.5,148.5 C 69.2362,147.781 66.9029,147.448 64.5,147.5C 64.811,146.522 65.4777,145.855 66.5,145.5C 68.5976,145.957 70.2642,146.957 71.5,148.5 Z"/></g>
<g><path style="opacity:1" fill="#3d3d3b" d="M 64.5,147.5 C 64.573,149.027 63.9063,150.027 62.5,150.5C 62.427,148.973 63.0937,147.973 64.5,147.5 Z"/></g>
<g><path style="opacity:1" fill="#7b7a78" d="M 121.5,146.5 C 121.047,147.458 120.381,148.292 119.5,149C 119.833,149.333 120.167,149.667 120.5,150C 119.181,150.195 117.847,150.028 116.5,149.5C 117.899,148.11 119.566,147.11 121.5,146.5 Z"/></g>
<g><path style="opacity:1" fill="#8f8d8c" d="M 502.5,143.5 C 497.087,148.206 490.753,151.206 483.5,152.5C 485.03,149.979 487.364,148.979 490.5,149.5C 490.33,148.178 490.663,147.011 491.5,146C 493.207,145.805 494.874,145.805 496.5,146C 495.549,145.282 495.383,144.449 496,143.5C 497.902,142.503 500.069,142.503 502.5,143.5 Z"/></g>
<g><path style="opacity:1" fill="#d2cecc" d="M 117.5,106.5 C 122.167,106.5 126.833,106.5 131.5,106.5C 133.027,106.427 134.027,107.094 134.5,108.5C 134.833,109.5 135.5,110.167 136.5,110.5C 138.136,111.749 139.303,113.416 140,115.5C 141.347,131.279 137.181,145.279 127.5,157.5C 126.094,157.973 125.427,158.973 125.5,160.5C 123.94,160.481 122.44,160.148 121,159.5C 119.946,160.482 119.446,161.649 119.5,163C 117.377,163.815 115.377,164.815 113.5,166C 116.149,168.437 115.483,169.77 111.5,170C 112.252,170.671 112.586,171.504 112.5,172.5C 101.215,180.407 88.8818,183.074 75.5,180.5C 73.8984,178.926 71.8984,178.259 69.5,178.5C 69.0269,177.094 68.0269,176.427 66.5,176.5C 66.0269,175.094 65.0269,174.427 63.5,174.5C 62.0749,170.741 59.4083,168.408 55.5,167.5C 54.7437,165.387 54.5771,163.387 55,161.5C 54.1757,163.921 53.0091,165.921 51.5,167.5C 49.889,166.821 48.2223,165.821 46.5,164.5C 48.4832,164.843 49.8166,164.176 50.5,162.5C 53.4744,159.862 56.4744,157.195 59.5,154.5C 61.2624,153.738 62.2624,152.404 62.5,150.5C 63.9063,150.027 64.573,149.027 64.5,147.5C 66.9029,147.448 69.2362,147.781 71.5,148.5C 73.846,152.664 77.1793,153.497 81.5,151C 80.3044,150.346 80.3044,149.846 81.5,149.5C 82.5984,150.615 83.7651,150.615 85,149.5C 85.5,149.667 86,149.833 86.5,150C 85.7476,150.671 85.4142,151.504 85.5,152.5C 85.5,152.833 85.5,153.167 85.5,153.5C 84.9569,153.56 84.6236,153.893 84.5,154.5C 89.9864,155.815 95.3197,155.815 100.5,154.5C 101.167,154.5 101.833,154.5 102.5,154.5C 105.228,154.829 107.562,154.163 109.5,152.5C 112.577,152.821 114.91,151.821 116.5,149.5C 117.847,150.028 119.181,150.195 120.5,150C 120.167,149.667 119.833,149.333 119.5,149C 120.381,148.292 121.047,147.458 121.5,146.5C 123.027,146.573 124.027,145.906 124.5,144.5C 128.58,141.019 130.413,136.686 130,131.5C 129.302,130.309 128.469,129.309 127.5,128.5C 127.047,127.542 126.381,126.708 125.5,126C 122.568,125.047 119.568,124.547 116.5,124.5C 113.989,124.838 111.655,124.838 109.5,124.5C 108.913,125.233 108.913,126.233 109.5,127.5C 104.317,131.26 99.3175,135.26 94.5,139.5C 92.8762,139.64 91.7096,138.973 91,137.5C 90.4436,135.115 90.6103,132.782 91.5,130.5C 92.9063,130.027 93.573,129.027 93.5,127.5C 95.2624,126.738 96.2624,125.404 96.5,123.5C 98.914,122.089 100.581,120.089 101.5,117.5C 104.089,116.581 106.089,114.914 107.5,112.5C 109.404,112.262 110.738,111.262 111.5,109.5C 113.819,109.008 115.819,108.008 117.5,106.5 Z"/></g>
<g><path style="opacity:1" fill="#4f4e4c" d="M 116.5,125.5 C 116.5,125.167 116.5,124.833 116.5,124.5C 119.568,124.547 122.568,125.047 125.5,126C 126.381,126.708 127.047,127.542 127.5,128.5C 124.103,126.733 120.436,125.733 116.5,125.5 Z"/></g>
<g><path style="opacity:1" fill="#969594" d="M 116.5,124.5 C 116.5,124.833 116.5,125.167 116.5,125.5C 114.343,126.407 112.01,127.073 109.5,127.5C 108.913,126.233 108.913,125.233 109.5,124.5C 111.655,124.838 113.989,124.838 116.5,124.5 Z"/></g>
<g><path style="opacity:1" fill="#b1aeae" d="M 235.5,145.5 C 233.605,147.443 231.272,148.943 228.5,150C 228.833,150.333 229.167,150.667 229.5,151C 226.833,152 226.833,153 229.5,154C 227.158,155.392 227.158,156.225 229.5,156.5C 226.713,157.477 223.713,157.81 220.5,157.5C 218.595,155.951 218.261,154.118 219.5,152C 224.741,149.544 230.075,147.377 235.5,145.5 Z"/></g>
<g><path style="opacity:1" fill="#1c1c1c" d="M 461.5,151.5 C 460.662,151.842 460.328,152.508 460.5,153.5C 459.903,153.265 459.57,152.765 459.5,152C 460.031,150.282 460.698,150.115 461.5,151.5 Z"/></g>
<g><path style="opacity:1" fill="#6c6c6b" d="M 116.5,149.5 C 114.91,151.821 112.577,152.821 109.5,152.5C 111.649,151.264 113.982,150.264 116.5,149.5 Z"/></g>
<g><path style="opacity:1" fill="#8a8785" d="M 186.5,145.5 C 186.674,149.36 185.341,152.36 182.5,154.5C 183.597,151.314 184.93,148.314 186.5,145.5 Z"/></g>
<g><path style="opacity:1" fill="#4d4a49" d="M 62.5,150.5 C 62.2624,152.404 61.2624,153.738 59.5,154.5C 59.7376,152.596 60.7376,151.262 62.5,150.5 Z"/></g>
<g><path style="opacity:1" fill="#c6c2c1" d="M 24.5,151.5 C 23.4659,154.128 23.7992,156.795 25.5,159.5C 27.1667,160.5 28.5,161.833 29.5,163.5C 31.0453,164.452 32.712,164.785 34.5,164.5C 37.8333,164.5 41.1667,164.5 44.5,164.5C 45.1667,164.5 45.8333,164.5 46.5,164.5C 48.2223,165.821 49.889,166.821 51.5,167.5C 53.0091,165.921 54.1757,163.921 55,161.5C 54.5771,163.387 54.7437,165.387 55.5,167.5C 59.4083,168.408 62.0749,170.741 63.5,174.5C 62.5041,174.586 61.6708,174.252 61,173.5C 55.7439,180.758 49.2439,186.591 41.5,191C 35.6144,193.766 29.6144,194.099 23.5,192C 22.0577,191.623 21.0577,190.79 20.5,189.5C 20.1436,187.81 19.1436,186.81 17.5,186.5C 17.7593,184.011 16.7593,182.344 14.5,181.5C 14.7709,179.62 14.1042,178.287 12.5,177.5C 9.15285,164.084 7.81952,150.417 8.5,136.5C 8.63525,123.153 9.13525,109.82 10,96.5C 10.2339,89.944 11.0672,83.6107 12.5,77.5C 14.1628,75.5615 14.8294,73.2282 14.5,70.5C 14.5,70.1667 14.5,69.8333 14.5,69.5C 16.2798,68.0101 16.9465,66.0101 16.5,63.5C 18.6098,59.4979 19.9431,55.1646 20.5,50.5C 21.5417,49.2089 22.7083,49.2089 24,50.5C 24.5459,78.1908 24.0459,105.857 22.5,133.5C 23.1168,139.529 23.7835,145.529 24.5,151.5 Z"/></g>
<g><path style="opacity:1" fill="#454443" d="M 109.5,152.5 C 107.562,154.163 105.228,154.829 102.5,154.5C 104.599,153.388 106.933,152.721 109.5,152.5 Z"/></g>
<g><path style="opacity:1" fill="#0f0f0f" d="M 85.5,153.5 C 90.3054,154.487 95.3054,154.821 100.5,154.5C 95.3197,155.815 89.9864,155.815 84.5,154.5C 84.6236,153.893 84.9569,153.56 85.5,153.5 Z"/></g>
<g><path style="opacity:1" fill="#4c4b4b" d="M 182.5,154.5 C 182.573,156.027 181.906,157.027 180.5,157.5C 180.427,155.973 181.094,154.973 182.5,154.5 Z"/></g>
<g><path style="opacity:1" fill="#4b4a4a" d="M 445.5,92.5 C 447.411,118.98 447.911,145.647 447,172.5C 446.814,175.036 446.314,177.369 445.5,179.5C 446.64,150.508 446.64,121.508 445.5,92.5 Z"/></g>
<g><path style="opacity:1" fill="#252524" d="M 261.5,153.5 C 260.737,154.268 259.737,154.768 258.5,155C 245.724,157.118 233.057,157.951 220.5,157.5C 223.713,157.81 226.713,157.477 229.5,156.5C 240.229,156.1 250.896,155.1 261.5,153.5 Z"/></g>
<g><path style="opacity:1" fill="#6a6969" d="M 349.5,155.5 C 349.31,158.855 348.31,161.855 346.5,164.5C 346.528,161.084 347.528,158.084 349.5,155.5 Z"/></g>
<g><path style="opacity:1" fill="#212020" d="M 127.5,157.5 C 127.573,159.027 126.906,160.027 125.5,160.5C 125.427,158.973 126.094,157.973 127.5,157.5 Z"/></g>
<g><path style="opacity:1" fill="#3b3a34" d="M 192.5,157.5 C 192.59,160.152 191.924,162.485 190.5,164.5C 190.41,161.848 191.076,159.515 192.5,157.5 Z"/></g>
<g><path style="opacity:1" fill="#adacab" d="M 125.5,160.5 C 121.82,165.179 117.486,169.179 112.5,172.5C 112.586,171.504 112.252,170.671 111.5,170C 115.483,169.77 116.149,168.437 113.5,166C 115.377,164.815 117.377,163.815 119.5,163C 119.446,161.649 119.946,160.482 121,159.5C 122.44,160.148 123.94,160.481 125.5,160.5 Z"/></g>
<g><path style="opacity:1" fill="#494848" d="M 180.5,157.5 C 177.833,162.167 174.167,165.833 169.5,168.5C 172.833,164.5 176.5,160.833 180.5,157.5 Z"/></g>
<g><path style="opacity:1" fill="#676463" d="M 339.5,159.5 C 338.943,164.165 337.61,168.498 335.5,172.5C 336.057,167.835 337.39,163.502 339.5,159.5 Z"/></g>
<g><path style="opacity:1" fill="#747170" d="M 24.5,151.5 C 25.5694,157.57 28.9027,161.903 34.5,164.5C 32.712,164.785 31.0453,164.452 29.5,163.5C 28.5,161.833 27.1667,160.5 25.5,159.5C 23.7992,156.795 23.4659,154.128 24.5,151.5 Z"/></g>
<g><path style="opacity:1" fill="#70706f" d="M 50.5,162.5 C 49.8166,164.176 48.4832,164.843 46.5,164.5C 45.8333,164.5 45.1667,164.5 44.5,164.5C 46.3024,163.542 48.3024,162.875 50.5,162.5 Z"/></g>
<g><path style="opacity:1" fill="#585656" d="M 459.5,155.5 C 459.898,161.957 458.898,168.29 456.5,174.5C 456.884,167.941 457.884,161.608 459.5,155.5 Z"/></g>
<g><path style="opacity:1" fill="#5a5857" d="M 346.5,164.5 C 346.59,167.152 345.924,169.485 344.5,171.5C 344.41,168.848 345.076,166.515 346.5,164.5 Z"/></g>
<g><path style="opacity:1" fill="#4a4847" d="M 169.5,168.5 C 168.738,170.262 167.404,171.262 165.5,171.5C 166.262,169.738 167.596,168.738 169.5,168.5 Z"/></g>
<g><path style="opacity:1" fill="#c6c2c1" d="M 579.5,174.5 C 578.032,176.916 577.365,179.583 577.5,182.5C 576.525,184.795 575.192,186.795 573.5,188.5C 572.094,188.973 571.427,189.973 571.5,191.5C 563.732,194.226 557.565,191.893 553,184.5C 552.762,175.969 556.096,168.969 563,163.5C 567.344,169.076 572.844,172.743 579.5,174.5 Z"/></g>
<g><path style="opacity:1" fill="#535353" d="M 162.5,173.5 C 162.027,174.906 161.027,175.573 159.5,175.5C 159.973,174.094 160.973,173.427 162.5,173.5 Z"/></g>
<g><path style="opacity:1" fill="#525150" d="M 63.5,174.5 C 65.0269,174.427 66.0269,175.094 66.5,176.5C 64.9731,176.573 63.9731,175.906 63.5,174.5 Z"/></g>
<g><path style="opacity:1" fill="#363636" d="M 66.5,176.5 C 68.0269,176.427 69.0269,177.094 69.5,178.5C 67.9731,178.573 66.9731,177.906 66.5,176.5 Z"/></g>
<g><path style="opacity:1" fill="#5e5d59" d="M 159.5,175.5 C 158.514,177.408 156.848,178.408 154.5,178.5C 155.659,176.75 157.326,175.75 159.5,175.5 Z"/></g>
<g><path style="opacity:1" fill="#8a8786" d="M 579.5,174.5 C 580.267,175.172 580.934,176.005 581.5,177C 580.303,179.015 578.97,180.849 577.5,182.5C 577.365,179.583 578.032,176.916 579.5,174.5 Z"/></g>
<g><path style="opacity:1" fill="#2d2d2d" d="M 12.5,177.5 C 14.1042,178.287 14.7709,179.62 14.5,181.5C 13.3263,180.486 12.6596,179.153 12.5,177.5 Z"/></g>
<g><path style="opacity:1" fill="#5d5b5b" d="M 69.5,178.5 C 71.8984,178.259 73.8984,178.926 75.5,180.5C 73.1016,180.741 71.1016,180.074 69.5,178.5 Z"/></g>
<g><path style="opacity:1" fill="#4c4c48" d="M 152.5,179.5 C 152.027,180.906 151.027,181.573 149.5,181.5C 149.973,180.094 150.973,179.427 152.5,179.5 Z"/></g>
<g><path style="opacity:1" fill="#666665" d="M 14.5,181.5 C 16.7593,182.344 17.7593,184.011 17.5,186.5C 15.7497,185.341 14.7497,183.674 14.5,181.5 Z"/></g>
<g><path style="opacity:1" fill="#464646" d="M 145.5,183.5 C 145.027,184.906 144.027,185.573 142.5,185.5C 142.973,184.094 143.973,183.427 145.5,183.5 Z"/></g>
<g><path style="opacity:1" fill="#595756" d="M 445.5,179.5 C 445.889,182.553 445.223,185.22 443.5,187.5C 443.802,184.627 444.469,181.961 445.5,179.5 Z"/></g>
<g><path style="opacity:1" fill="#232322" d="M 179.5,184.5 C 179.5,186.5 178.5,187.5 176.5,187.5C 177.167,186.167 178.167,185.167 179.5,184.5 Z"/></g>
<g><path style="opacity:1" fill="#565654" d="M 333.5,179.5 C 333.58,182.781 332.913,185.781 331.5,188.5C 331.42,185.219 332.087,182.219 333.5,179.5 Z"/></g>
<g><path style="opacity:1" fill="#4d4c4a" d="M 343.5,177.5 C 342.676,185.852 342.343,194.519 342.5,203.5C 341.408,200.895 340.741,198.062 340.5,195C 341.153,189.515 341.653,184.015 342,178.5C 342.383,177.944 342.883,177.611 343.5,177.5 Z"/></g>
<g><path style="opacity:1" fill="#4e4d4d" d="M 17.5,186.5 C 19.1436,186.81 20.1436,187.81 20.5,189.5C 18.8564,189.19 17.8564,188.19 17.5,186.5 Z"/></g>
<g><path style="opacity:1" fill="#1c1818" d="M 573.5,188.5 C 573.573,190.027 572.906,191.027 571.5,191.5C 571.427,189.973 572.094,188.973 573.5,188.5 Z"/></g>
<g><path style="opacity:1" fill="#b7b4b1" d="M 440.5,197.5 C 440.511,199.017 441.177,200.184 442.5,201C 440.842,201.725 440.342,202.892 441,204.5C 442.049,202.893 443.549,202.227 445.5,202.5C 445.285,204.179 445.952,205.179 447.5,205.5C 446.284,210.262 444.284,214.595 441.5,218.5C 441.167,218.5 440.833,218.5 440.5,218.5C 439.782,216.863 439.616,215.197 440,213.5C 440.414,213.957 440.914,214.291 441.5,214.5C 442.583,213.635 442.749,212.635 442,211.5C 440.56,209.954 438.727,209.121 436.5,209C 438.167,208.667 439.833,208.333 441.5,208C 439.19,207.503 436.857,207.337 434.5,207.5C 436,203.827 438,200.494 440.5,197.5 Z"/></g>
<g><path style="opacity:1" fill="#3d3d3d" d="M 449.5,201.5 C 449.771,203.38 449.104,204.713 447.5,205.5C 447.66,203.847 448.326,202.514 449.5,201.5 Z"/></g>
<g><path style="opacity:1" fill="#d4cfce" d="M 349.5,133.5 C 350.222,133.918 350.722,134.584 351,135.5C 352.356,134.62 353.856,134.286 355.5,134.5C 354.659,136.379 354.325,138.379 354.5,140.5C 354.5,140.833 354.5,141.167 354.5,141.5C 353.504,141.414 352.671,141.748 352,142.5C 351.637,145.544 351.137,148.544 350.5,151.5C 350.768,153.099 350.434,154.432 349.5,155.5C 347.528,158.084 346.528,161.084 346.5,164.5C 345.076,166.515 344.41,168.848 344.5,171.5C 344.675,173.621 344.341,175.621 343.5,177.5C 342.883,177.611 342.383,177.944 342,178.5C 341.653,184.015 341.153,189.515 340.5,195C 340.741,198.062 341.408,200.895 342.5,203.5C 343.636,207.574 344.969,211.574 346.5,215.5C 346.241,217.989 347.241,219.656 349.5,220.5C 354.307,224.98 359.64,228.647 365.5,231.5C 371.98,234.373 378.646,235.039 385.5,233.5C 386.167,233.5 386.833,233.5 387.5,233.5C 395.207,234.155 402.207,232.489 408.5,228.5C 411.313,228.975 413.313,227.975 414.5,225.5C 414.842,224.662 415.508,224.328 416.5,224.5C 417.496,224.414 418.329,224.748 419,225.5C 420.332,223.34 421.832,221.34 423.5,219.5C 427.195,215.474 430.862,211.474 434.5,207.5C 436.857,207.337 439.19,207.503 441.5,208C 439.833,208.333 438.167,208.667 436.5,209C 438.727,209.121 440.56,209.954 442,211.5C 442.749,212.635 442.583,213.635 441.5,214.5C 440.914,214.291 440.414,213.957 440,213.5C 439.616,215.197 439.782,216.863 440.5,218.5C 439.952,220.532 438.619,221.532 436.5,221.5C 436.5,223.167 436.5,224.833 436.5,226.5C 434.262,231.071 431.262,235.071 427.5,238.5C 426.094,238.973 425.427,239.973 425.5,241.5C 423.833,243.833 421.833,245.833 419.5,247.5C 417.973,247.427 416.973,248.094 416.5,249.5C 414.557,252.471 411.891,254.471 408.5,255.5C 406.973,255.427 405.973,256.094 405.5,257.5C 403.819,259.008 401.819,260.008 399.5,260.5C 395.195,261.235 391.195,262.568 387.5,264.5C 387.167,264.5 386.833,264.5 386.5,264.5C 377.472,264.68 368.472,264.347 359.5,263.5C 358.22,262.069 356.553,261.402 354.5,261.5C 354.027,260.094 353.027,259.427 351.5,259.5C 351.027,258.094 350.027,257.427 348.5,257.5C 346.5,254.833 344.167,252.5 341.5,250.5C 339.738,249.738 338.738,248.404 338.5,246.5C 337.674,243.515 336.341,240.849 334.5,238.5C 333.069,237.22 332.402,235.553 332.5,233.5C 332.58,230.219 331.913,227.219 330.5,224.5C 330.358,212.482 330.691,200.482 331.5,188.5C 332.913,185.781 333.58,182.781 333.5,179.5C 333.41,176.848 334.076,174.515 335.5,172.5C 337.61,168.498 338.943,164.165 339.5,159.5C 339.767,157.035 340.434,154.701 341.5,152.5C 344.379,149.88 345.712,146.546 345.5,142.5C 346.042,139.088 347.375,136.088 349.5,133.5 Z"/></g>
<g><path style="opacity:1" fill="#696865" d="M 331.5,188.5 C 330.691,200.482 330.358,212.482 330.5,224.5C 328.036,212.453 328.369,200.453 331.5,188.5 Z"/></g>
<g><path style="opacity:1" fill="#6d6a69" d="M 346.5,215.5 C 347.89,216.899 348.89,218.566 349.5,220.5C 347.241,219.656 346.241,217.989 346.5,215.5 Z"/></g>
<g><path style="opacity:1" fill="#706c6c" d="M 440.5,218.5 C 440.833,218.5 441.167,218.5 441.5,218.5C 440.617,221.704 438.95,224.371 436.5,226.5C 436.5,224.833 436.5,223.167 436.5,221.5C 438.619,221.532 439.952,220.532 440.5,218.5 Z"/></g>
<g><path style="opacity:1" fill="#908f8f" d="M 423.5,219.5 C 421.832,221.34 420.332,223.34 419,225.5C 418.329,224.748 417.496,224.414 416.5,224.5C 418.55,222.453 420.883,220.786 423.5,219.5 Z"/></g>
<g><path style="opacity:1" fill="#3a3938" d="M 330.5,224.5 C 331.913,227.219 332.58,230.219 332.5,233.5C 331.087,230.781 330.42,227.781 330.5,224.5 Z"/></g>
<g><path style="opacity:1" fill="#6b6b6b" d="M 414.5,225.5 C 413.313,227.975 411.313,228.975 408.5,228.5C 410.456,227.508 412.456,226.508 414.5,225.5 Z"/></g>
<g><path style="opacity:1" fill="#5a5957" d="M 408.5,228.5 C 402.207,232.489 395.207,234.155 387.5,233.5C 394.535,232.489 401.535,230.822 408.5,228.5 Z"/></g>
<g><path style="opacity:1" fill="#3e3d3c" d="M 365.5,231.5 C 372.095,232.821 378.761,233.488 385.5,233.5C 378.646,235.039 371.98,234.373 365.5,231.5 Z"/></g>
<g><path style="opacity:1" fill="#242222" d="M 427.5,238.5 C 427.573,240.027 426.906,241.027 425.5,241.5C 425.427,239.973 426.094,238.973 427.5,238.5 Z"/></g>
<g><path style="opacity:1" fill="#2a2927" d="M 334.5,238.5 C 336.341,240.849 337.674,243.515 338.5,246.5C 336.127,244.421 334.794,241.754 334.5,238.5 Z"/></g>
<g><path style="opacity:1" fill="#232323" d="M 419.5,247.5 C 419.027,248.906 418.027,249.573 416.5,249.5C 416.973,248.094 417.973,247.427 419.5,247.5 Z"/></g>
<g><path style="opacity:1" fill="#262625" d="M 341.5,250.5 C 344.167,252.5 346.5,254.833 348.5,257.5C 345.167,256.167 342.833,253.833 341.5,250.5 Z"/></g>
<g><path style="opacity:1" fill="#161616" d="M 408.5,255.5 C 408.027,256.906 407.027,257.573 405.5,257.5C 405.973,256.094 406.973,255.427 408.5,255.5 Z"/></g>
<g><path style="opacity:1" fill="#333333" d="M 348.5,257.5 C 350.027,257.427 351.027,258.094 351.5,259.5C 349.973,259.573 348.973,258.906 348.5,257.5 Z"/></g>
<g><path style="opacity:1" fill="#1f1b1b" d="M 351.5,259.5 C 353.027,259.427 354.027,260.094 354.5,261.5C 352.973,261.573 351.973,260.906 351.5,259.5 Z"/></g>
<g><path style="opacity:1" fill="#121212" d="M 354.5,261.5 C 356.553,261.402 358.22,262.069 359.5,263.5C 357.447,263.598 355.78,262.931 354.5,261.5 Z"/></g>
<g><path style="opacity:1" fill="#1c1b1b" d="M 399.5,260.5 C 395.902,262.74 391.902,264.074 387.5,264.5C 391.195,262.568 395.195,261.235 399.5,260.5 Z"/></g>
<g><path style="opacity:1" fill="#282726" d="M 359.5,263.5 C 368.472,264.347 377.472,264.68 386.5,264.5C 377.435,266.96 368.435,266.626 359.5,263.5 Z"/></g>
</svg>
