<?xml version="1.0" encoding="UTF-8"?>
<!DOCTYPE svg PUBLIC "-//W3C//DTD SVG 1.1//EN" "http://www.w3.org/Graphics/SVG/1.1/DTD/svg11.dtd">
<svg xmlns="http://www.w3.org/2000/svg" version="1.1" width="590px" height="256px" style="shape-rendering:geometricPrecision; text-rendering:geometricPrecision; image-rendering:optimizeQuality; fill-rule:evenodd; clip-rule:evenodd" xmlns:xlink="http://www.w3.org/1999/xlink">
<g><path style="opacity:1" fill="#2b2b29" d="M 245.5,3.5 C 245.34,5.15298 244.674,6.48631 243.5,7.5C 243.229,5.6203 243.896,4.28696 245.5,3.5 Z"/></g>
<g><path style="opacity:1" fill="#6a6967" d="M 245.5,3.5 C 246.935,2.90353 248.602,2.90353 250.5,3.5C 250.5,4.5 250.5,5.5 250.5,6.5C 250.649,7.55198 250.483,8.55198 250,9.5C 249.506,7.86586 249.34,6.19919 249.5,4.5C 248.041,4.56745 246.708,4.23411 245.5,3.5 Z"/></g>
<g><path style="opacity:1" fill="#4c4b4a" d="M 251.5,10.5 C 252.167,14.5 252.833,18.5 253.5,22.5C 251.822,19.6754 250.822,16.5087 250.5,13C 250.528,11.9302 250.861,11.0968 251.5,10.5 Z"/></g>
<g><path style="opacity:1" fill="#514f4e" d="M 241.5,13.5 C 240.943,18.1646 239.61,22.4979 237.5,26.5C 238.057,21.8354 239.39,17.5021 241.5,13.5 Z"/></g>
<g><path style="opacity:1" fill="#555555" d="M 253.5,23.5 C 255.074,25.1016 255.741,27.1016 255.5,29.5C 253.926,27.8984 253.259,25.8984 253.5,23.5 Z"/></g>
<g><path style="opacity:1" fill="#7f7f7f" d="M 237.5,26.5 C 238.055,30.0122 237.388,33.0122 235.5,35.5C 235.42,32.2186 236.087,29.2186 237.5,26.5 Z"/></g>
<g><path style="opacity:1" fill="#848484" d="M 255.5,29.5 C 257.204,32.2558 258.537,35.2558 259.5,38.5C 256.531,36.3799 255.198,33.3799 255.5,29.5 Z"/></g>
<g><path style="opacity:1" fill="#373735" d="M 441.5,40.5 C 442.947,39.1148 443.947,39.4482 444.5,41.5C 443.609,40.8902 442.609,40.5569 441.5,40.5 Z"/></g>
<g><path style="opacity:1" fill="#727171" d="M 259.5,38.5 C 261.008,40.1815 262.008,42.1815 262.5,44.5C 260.087,43.3202 259.087,41.3202 259.5,38.5 Z"/></g>
<g><path style="opacity:1" fill="#4e4e4e" d="M 444.5,41.5 C 445.492,43.4561 446.492,45.4561 447.5,47.5C 445.025,46.3126 444.025,44.3126 444.5,41.5 Z"/></g>
<g><path style="opacity:1" fill="#4c4a4a" d="M 152.5,43.5 C 152.88,45.698 152.213,47.3646 150.5,48.5C 150.796,46.597 151.463,44.9303 152.5,43.5 Z"/></g>
<g><path style="opacity:1" fill="#696766" d="M 439.5,43.5 C 439.408,45.8477 438.408,47.5144 436.5,48.5C 436.75,46.326 437.75,44.6594 439.5,43.5 Z"/></g>
<g><path style="opacity:1" fill="#979391" d="M 496.5,44.5 C 496.104,47.0444 496.771,49.2111 498.5,51C 496.519,51.6054 496.185,52.6054 497.5,54C 496.551,54.6172 495.718,54.4506 495,53.5C 493.907,56.3093 492.74,58.976 491.5,61.5C 492.592,55.5671 494.259,49.9005 496.5,44.5 Z"/></g>
<g><path style="opacity:1" fill="#2a2a2a" d="M 264.5,48.5 C 265.906,48.9731 266.573,49.9731 266.5,51.5C 265.094,51.0269 264.427,50.0269 264.5,48.5 Z"/></g>
<g><path style="opacity:1" fill="#2f2e2d" d="M 399.5,56.5 C 388.123,54.1687 376.79,54.502 365.5,57.5C 367.148,56.0735 369.148,55.2401 371.5,55C 380.176,53.1096 388.843,53.1096 397.5,55C 398.416,55.2784 399.082,55.7784 399.5,56.5 Z"/></g>
<g><path style="opacity:1" fill="#d3cecd" d="M 441.5,40.5 C 442.609,40.5569 443.609,40.8902 444.5,41.5C 444.025,44.3126 445.025,46.3126 447.5,47.5C 453.087,50.79 458.087,54.79 462.5,59.5C 462.427,61.0269 463.094,62.0269 464.5,62.5C 465.968,67.4196 465.301,72.0862 462.5,76.5C 460.241,77.344 459.241,79.0107 459.5,81.5C 457.8,81.3739 456.3,80.7073 455,79.5C 453.278,79.6107 453.112,80.1107 454.5,81C 452.235,82.1178 449.901,82.9512 447.5,83.5C 443.102,83.2051 438.769,82.5385 434.5,81.5C 433.146,82.8543 431.812,84.1877 430.5,85.5C 429.153,84.9717 427.819,84.805 426.5,85C 425.129,88.3801 422.962,91.2134 420,93.5C 419.282,92.5494 418.449,92.3828 417.5,93C 418.833,94.8402 418.666,95.3402 417,94.5C 415.489,95.564 415.323,96.8974 416.5,98.5C 416.5,99.1667 416.167,99.5 415.5,99.5C 413.135,100.051 410.801,100.884 408.5,102C 407.663,103.011 407.33,104.178 407.5,105.5C 401.281,107.006 394.948,107.673 388.5,107.5C 387.508,107.672 386.842,107.338 386.5,106.5C 386.027,105.094 385.027,104.427 383.5,104.5C 380.775,101.468 379.275,102.135 379,106.5C 378.667,106.167 378.333,105.833 378,105.5C 376.195,107.32 374.028,108.486 371.5,109C 373.037,110.11 373.703,111.61 373.5,113.5C 371.5,112.833 369.5,112.167 367.5,111.5C 367.926,109.861 367.926,108.528 367.5,107.5C 368.11,106.609 368.443,105.609 368.5,104.5C 370.587,103.415 371.92,101.749 372.5,99.5C 375.449,97.735 376.115,95.4017 374.5,92.5C 373.326,91.4863 372.66,90.153 372.5,88.5C 372.771,86.6203 372.104,85.287 370.5,84.5C 366.132,78.1551 360.466,76.8217 353.5,80.5C 349.623,80.5175 348.957,79.3508 351.5,77C 350.663,75.9887 350.33,74.8221 350.5,73.5C 352.408,72.5144 353.408,70.8477 353.5,68.5C 355.5,64.5 358.5,61.5 362.5,59.5C 364.027,59.573 365.027,58.9063 365.5,57.5C 376.79,54.502 388.123,54.1687 399.5,56.5C 406.845,59.8669 409.345,65.5336 407,73.5C 406.768,74.7375 406.268,75.7375 405.5,76.5C 402.051,79.8406 399.718,83.8406 398.5,88.5C 398.068,89.7095 397.401,90.7095 396.5,91.5C 395.624,91.3691 394.957,91.7025 394.5,92.5C 397.309,93.8003 399.976,93.8003 402.5,92.5C 404.527,92.6621 406.527,92.4955 408.5,92C 409.056,91.6174 409.389,91.1174 409.5,90.5C 411.404,90.2624 412.738,89.2624 413.5,87.5C 415.372,84.4181 417.705,81.7514 420.5,79.5C 421.906,79.0269 422.573,78.0269 422.5,76.5C 424.262,75.7377 425.262,74.4044 425.5,72.5C 428.167,70.5 430.5,68.1667 432.5,65.5C 432.578,59.4253 433.911,53.7587 436.5,48.5C 438.408,47.5144 439.408,45.8477 439.5,43.5C 439.427,41.9731 440.094,40.9731 441.5,40.5 Z"/></g>
<g><path style="opacity:1" fill="#666362" d="M 118.5,50.5 C 119.919,49.5489 121.585,49.2155 123.5,49.5C 123.5,54.1667 123.5,58.8333 123.5,63.5C 122.515,59.3656 122.182,55.0323 122.5,50.5C 121.167,50.5 119.833,50.5 118.5,50.5 Z"/></g>
<g><path style="opacity:1" fill="#423e3c" d="M 365.5,57.5 C 365.027,58.9063 364.027,59.573 362.5,59.5C 362.973,58.0937 363.973,57.427 365.5,57.5 Z"/></g>
<g><path style="opacity:1" fill="#2d2928" d="M 269.5,57.5 C 270.906,57.9731 271.573,58.9731 271.5,60.5C 270.094,60.0269 269.427,59.0269 269.5,57.5 Z"/></g>
<g><path style="opacity:1" fill="#4a4a49" d="M 502.5,35.5 C 503.993,36.3121 504.66,37.6455 504.5,39.5C 503.57,50.1413 503.237,60.8079 503.5,71.5C 502.539,69.7354 502.205,67.7354 502.5,65.5C 502.5,55.5 502.5,45.5 502.5,35.5 Z"/></g>
<g><path style="opacity:1" fill="#393938" d="M 462.5,59.5 C 463.906,59.9731 464.573,60.9731 464.5,62.5C 463.094,62.0269 462.427,61.0269 462.5,59.5 Z"/></g>
<g><path style="opacity:1" fill="#333231" d="M 432.5,65.5 C 430.5,68.1667 428.167,70.5 425.5,72.5C 426.833,69.1667 429.167,66.8333 432.5,65.5 Z"/></g>
<g><path style="opacity:1" fill="#50504f" d="M 502.5,65.5 C 502.205,67.7354 502.539,69.7354 503.5,71.5C 502.949,84.9901 502.283,98.3234 501.5,111.5C 501.5,111.167 501.5,110.833 501.5,110.5C 501.171,95.324 501.504,80.324 502.5,65.5 Z"/></g>
<g><path style="opacity:1" fill="#777773" d="M 353.5,68.5 C 353.408,70.8477 352.408,72.5144 350.5,73.5C 350.75,71.326 351.75,69.6594 353.5,68.5 Z"/></g>
<g><path style="opacity:1" fill="#b7b4b2" d="M 272.5,62.5 C 276.615,69.0665 279.949,76.0665 282.5,83.5C 282.723,87.1621 283.723,90.4954 285.5,93.5C 286.856,96.5767 287.689,99.9101 288,103.5C 288.819,109.681 288.653,115.681 287.5,121.5C 287.663,114.453 287.163,107.453 286,100.5C 285,100.167 284,99.8333 283,99.5C 282.784,97.6161 282.117,95.9494 281,94.5C 280.333,95.8333 279.667,95.8333 279,94.5C 278.536,95.0944 278.369,95.7611 278.5,96.5C 276.457,95.4206 275.124,93.754 274.5,91.5C 274.204,89.597 273.537,87.9303 272.5,86.5C 272.351,85.448 272.517,84.448 273,83.5C 273.333,83.8333 273.667,84.1667 274,84.5C 274.5,83.5 275,82.5 275.5,81.5C 274.167,80.1667 274.167,78.8333 275.5,77.5C 274.726,76.2888 273.893,76.2888 273,77.5C 270.985,75.5217 271.152,73.6884 273.5,72C 273.374,70.0257 273.208,67.859 273,65.5C 272.346,66.6956 271.846,66.6956 271.5,65.5C 272.127,64.5832 272.461,63.5832 272.5,62.5 Z"/></g>
<g><path style="opacity:1" fill="#434341" d="M 425.5,72.5 C 425.262,74.4044 424.262,75.7377 422.5,76.5C 422.738,74.5956 423.738,73.2623 425.5,72.5 Z"/></g>
<g><path style="opacity:1" fill="#666666" d="M 350.5,73.5 C 350.33,74.8221 350.663,75.9887 351.5,77C 348.957,79.3508 349.623,80.5175 353.5,80.5C 349,82.1632 347.5,80.4965 349,75.5C 349.278,74.5842 349.778,73.9175 350.5,73.5 Z"/></g>
<g><path style="opacity:1" fill="#3b3b38" d="M 422.5,76.5 C 422.573,78.0269 421.906,79.0269 420.5,79.5C 420.427,77.9731 421.094,76.9731 422.5,76.5 Z"/></g>
<g><path style="opacity:1" fill="#7e7d7d" d="M 447.5,83.5 C 447.5,83.8333 447.5,84.1667 447.5,84.5C 444.781,84.6025 442.115,84.2692 439.5,83.5C 436.521,84.3284 433.521,84.9951 430.5,85.5C 431.812,84.1877 433.146,82.8543 434.5,81.5C 438.769,82.5385 443.102,83.2051 447.5,83.5 Z"/></g>
<g><path style="opacity:1" fill="#b1b0ad" d="M 462.5,76.5 C 461.353,81.1374 458.853,84.8041 455,87.5C 452.433,86.4131 449.933,85.4131 447.5,84.5C 447.5,84.1667 447.5,83.8333 447.5,83.5C 449.901,82.9512 452.235,82.1178 454.5,81C 453.112,80.1107 453.278,79.6107 455,79.5C 456.3,80.7073 457.8,81.3739 459.5,81.5C 459.241,79.0107 460.241,77.344 462.5,76.5 Z"/></g>
<g><path style="opacity:1" fill="#737271" d="M 405.5,76.5 C 404.191,81.1208 401.858,85.1208 398.5,88.5C 399.718,83.8406 402.051,79.8406 405.5,76.5 Z"/></g>
<g><path style="opacity:1" fill="#3e3d3c" d="M 490.5,67.5 C 490.281,78.3471 489.615,89.0137 488.5,99.5C 488.144,88.6173 488.81,77.9506 490.5,67.5 Z"/></g>
<g><path style="opacity:1" fill="#81807f" d="M 267.5,82.5 C 268.922,82.7086 270.255,83.2086 271.5,84C 270.434,85.159 270.767,85.9924 272.5,86.5C 273.537,87.9303 274.204,89.597 274.5,91.5C 271.815,88.8103 269.482,85.8103 267.5,82.5 Z"/></g>
<g><path style="opacity:1" fill="#515050" d="M 282.5,83.5 C 284.277,86.5046 285.277,89.8379 285.5,93.5C 283.723,90.4954 282.723,87.1621 282.5,83.5 Z"/></g>
<g><path style="opacity:1" fill="#232323" d="M 370.5,84.5 C 372.104,85.287 372.771,86.6203 372.5,88.5C 371.326,87.4863 370.66,86.153 370.5,84.5 Z"/></g>
<g><path style="opacity:1" fill="#828281" d="M 430.5,85.5 C 425.859,89.8052 421.193,94.1386 416.5,98.5C 415.323,96.8974 415.489,95.564 417,94.5C 418.666,95.3402 418.833,94.8402 417.5,93C 418.449,92.3828 419.282,92.5494 420,93.5C 422.962,91.2134 425.129,88.3801 426.5,85C 427.819,84.805 429.153,84.9717 430.5,85.5 Z"/></g>
<g><path style="opacity:1" fill="#424241" d="M 413.5,87.5 C 412.738,89.2624 411.404,90.2624 409.5,90.5C 410.262,88.7376 411.596,87.7376 413.5,87.5 Z"/></g>
<g><path style="opacity:1" fill="#41413f" d="M 110.5,73.5 C 110.831,95.673 110.497,117.673 109.5,139.5C 109.737,122.32 109.403,105.153 108.5,88C 108.65,82.9535 109.316,78.1202 110.5,73.5 Z"/></g>
<g><path style="opacity:1" fill="#464544" d="M 208.5,93.5 C 203.5,92.1667 198.5,92.1667 193.5,93.5C 195.634,91.9666 198.134,91.2999 201,91.5C 203.866,91.2999 206.366,91.9666 208.5,93.5 Z"/></g>
<g><path style="opacity:1" fill="#534f4f" d="M 409.5,90.5 C 409.389,91.1174 409.056,91.6174 408.5,92C 406.527,92.4955 404.527,92.6621 402.5,92.5C 404.599,91.3882 406.933,90.7215 409.5,90.5 Z"/></g>
<g><path style="opacity:1" fill="#3d3938" d="M 396.5,91.5 C 398.265,92.4614 400.265,92.7947 402.5,92.5C 399.976,93.8003 397.309,93.8003 394.5,92.5C 394.957,91.7025 395.624,91.3691 396.5,91.5 Z"/></g>
<g><path style="opacity:1" fill="#d1cdcc" d="M 245.5,3.5 C 246.708,4.23411 248.041,4.56745 249.5,4.5C 249.34,6.19919 249.506,7.86586 250,9.5C 250.483,8.55198 250.649,7.55198 250.5,6.5C 251.434,7.56764 251.768,8.90097 251.5,10.5C 250.861,11.0968 250.528,11.9302 250.5,13C 250.822,16.5087 251.822,19.6754 253.5,22.5C 253.5,22.8333 253.5,23.1667 253.5,23.5C 253.259,25.8984 253.926,27.8984 255.5,29.5C 255.198,33.3799 256.531,36.3799 259.5,38.5C 259.087,41.3202 260.087,43.3202 262.5,44.5C 263.674,45.5137 264.34,46.847 264.5,48.5C 264.427,50.0269 265.094,51.0269 266.5,51.5C 268.008,53.1815 269.008,55.1815 269.5,57.5C 269.427,59.0269 270.094,60.0269 271.5,60.5C 272.338,60.8417 272.672,61.5084 272.5,62.5C 272.461,63.5832 272.127,64.5832 271.5,65.5C 271.846,66.6956 272.346,66.6956 273,65.5C 273.208,67.859 273.374,70.0257 273.5,72C 271.152,73.6884 270.985,75.5217 273,77.5C 273.893,76.2888 274.726,76.2888 275.5,77.5C 274.167,78.8333 274.167,80.1667 275.5,81.5C 275,82.5 274.5,83.5 274,84.5C 273.667,84.1667 273.333,83.8333 273,83.5C 272.517,84.448 272.351,85.448 272.5,86.5C 270.767,85.9924 270.434,85.159 271.5,84C 270.255,83.2086 268.922,82.7086 267.5,82.5C 261.745,74.6639 256.745,66.3306 252.5,57.5C 252.159,54.4842 250.993,51.8175 249,49.5C 247.621,60.4451 247.121,71.4451 247.5,82.5C 247.562,87.0758 246.895,91.4091 245.5,95.5C 244.076,97.5145 243.41,99.8478 243.5,102.5C 240.792,112.257 235.792,120.59 228.5,127.5C 226.973,127.427 225.973,128.094 225.5,129.5C 224.167,128.833 222.833,128.167 221.5,127.5C 220.833,129.5 220.167,131.5 219.5,133.5C 217.837,135.438 217.171,137.772 217.5,140.5C 216.602,145.534 214.935,150.201 212.5,154.5C 209.334,156.834 206.667,159.667 204.5,163C 204.957,163.414 205.291,163.914 205.5,164.5C 204.271,165.281 202.938,165.781 201.5,166C 202.668,167.871 202.168,169.371 200,170.5C 199.085,169.672 198.419,168.672 198,167.5C 197.503,170.146 197.336,172.813 197.5,175.5C 195.485,176.924 193.152,177.59 190.5,177.5C 182.515,178.331 174.515,178.998 166.5,179.5C 165.751,178.469 165.085,177.302 164.5,176C 167.379,173.065 170.712,170.898 174.5,169.5C 176.674,169.25 178.341,168.25 179.5,166.5C 179.842,165.662 180.508,165.328 181.5,165.5C 183.027,165.573 184.027,164.906 184.5,163.5C 184.842,162.662 185.508,162.328 186.5,162.5C 188.027,162.573 189.027,161.906 189.5,160.5C 189.842,159.662 190.508,159.328 191.5,159.5C 193.027,159.573 194.027,158.906 194.5,157.5C 196.027,157.573 197.027,156.906 197.5,155.5C 199.027,155.573 200.027,154.906 200.5,153.5C 202.404,153.262 203.738,152.262 204.5,150.5C 207.167,149.833 208.833,148.167 209.5,145.5C 211.441,143.989 211.941,141.989 211,139.5C 210.076,137.505 208.91,137.172 207.5,138.5C 202.042,142.383 196.042,143.383 189.5,141.5C 189.027,140.094 188.027,139.427 186.5,139.5C 183.379,138.712 181.712,136.712 181.5,133.5C 181.437,128.797 181.771,124.13 182.5,119.5C 184.655,117.383 185.655,114.716 185.5,111.5C 185.5,111.167 185.5,110.833 185.5,110.5C 186.718,109.269 188.051,108.102 189.5,107C 188.864,104.606 188.864,102.106 189.5,99.5C 190.674,98.4863 191.34,97.153 191.5,95.5C 191.5,94.1667 192.167,93.5 193.5,93.5C 198.5,92.1667 203.5,92.1667 208.5,93.5C 208.973,94.9063 209.973,95.573 211.5,95.5C 211.427,97.0269 212.094,98.0269 213.5,98.5C 213.427,100.027 214.094,101.027 215.5,101.5C 215.986,103.807 215.986,105.973 215.5,108C 216.814,108.985 217.814,110.152 218.5,111.5C 219.053,113.552 220.053,113.885 221.5,112.5C 221.842,111.662 222.508,111.328 223.5,111.5C 226.5,110.5 228.5,108.5 229.5,105.5C 232.341,103.36 233.674,100.36 233.5,96.5C 234.13,76.143 234.796,55.8097 235.5,35.5C 237.388,33.0122 238.055,30.0122 237.5,26.5C 239.61,22.4979 240.943,18.1646 241.5,13.5C 241.595,11.2143 242.262,9.2143 243.5,7.5C 244.674,6.48631 245.34,5.15298 245.5,3.5 Z"/></g>
<g><path style="opacity:1" fill="#3a3938" d="M 252.5,57.5 C 251.442,56.3998 250.608,55.0664 250,53.5C 249.667,54.8333 249.333,56.1667 249,57.5C 248.829,66.0101 248.329,74.3434 247.5,82.5C 247.121,71.4451 247.621,60.4451 249,49.5C 250.993,51.8175 252.159,54.4842 252.5,57.5 Z"/></g>
<g><path style="opacity:1" fill="#1c1c1b" d="M 208.5,93.5 C 210.027,93.427 211.027,94.0937 211.5,95.5C 209.973,95.573 208.973,94.9063 208.5,93.5 Z"/></g>
<g><path style="opacity:1" fill="#cfcbca" d="M 502.5,35.5 C 502.5,45.5 502.5,55.5 502.5,65.5C 501.504,80.324 501.171,95.324 501.5,110.5C 500.167,115.5 500.167,120.5 501.5,125.5C 502.25,130.493 503.083,135.493 504,140.5C 505.84,143.897 508.34,146.564 511.5,148.5C 512.947,149.885 513.947,149.552 514.5,147.5C 514.263,146.209 514.596,145.209 515.5,144.5C 517.61,140.498 518.943,136.165 519.5,131.5C 521.31,128.855 522.31,125.855 522.5,122.5C 523.878,116.74 526.545,111.74 530.5,107.5C 532.5,106.167 534.167,104.5 535.5,102.5C 537.027,102.573 538.027,101.906 538.5,100.5C 543.384,99.0976 548.384,98.431 553.5,98.5C 557.491,100.606 561.824,101.939 566.5,102.5C 570.167,102.5 573.833,102.5 577.5,102.5C 579.167,102.5 580.833,102.5 582.5,102.5C 583.234,103.708 583.567,105.041 583.5,106.5C 583.5,107.167 583.167,107.5 582.5,107.5C 581.167,107.5 579.833,107.5 578.5,107.5C 578.5,108.5 578.5,109.5 578.5,110.5C 577.022,110.238 575.689,110.571 574.5,111.5C 574.709,112.086 575.043,112.586 575.5,113C 574.151,113.772 573.318,114.939 573,116.5C 572.282,115.549 571.449,115.383 570.5,116C 571.728,117.49 571.728,118.99 570.5,120.5C 569.341,124.151 567.674,127.485 565.5,130.5C 564.178,130.67 563.011,130.337 562,129.5C 562.443,132.426 562.276,135.426 561.5,138.5C 561.672,139.492 561.338,140.158 560.5,140.5C 556.971,140.906 555.971,142.573 557.5,145.5C 552.964,153.374 547.297,160.374 540.5,166.5C 538.139,166.674 535.806,167.007 533.5,167.5C 533.5,168.833 533.5,170.167 533.5,171.5C 533.158,172.338 532.492,172.672 531.5,172.5C 528.562,172.273 526.229,173.273 524.5,175.5C 521.933,175.721 519.599,176.388 517.5,177.5C 512.934,178.797 508.267,178.797 503.5,177.5C 503.027,176.094 502.027,175.427 500.5,175.5C 499.811,174.293 499.645,172.959 500,171.5C 498.22,170.361 496.386,169.361 494.5,168.5C 492.707,166.574 491.707,164.241 491.5,161.5C 491.435,158.572 490.768,155.905 489.5,153.5C 487.334,135.407 487.001,117.407 488.5,99.5C 489.615,89.0137 490.281,78.3471 490.5,67.5C 490.205,65.2646 490.539,63.2646 491.5,61.5C 492.74,58.976 493.907,56.3093 495,53.5C 495.718,54.4506 496.551,54.6172 497.5,54C 496.185,52.6054 496.519,51.6054 498.5,51C 496.771,49.2111 496.104,47.0444 496.5,44.5C 497.022,41.4318 497.855,38.4318 499,35.5C 500.292,34.2089 501.458,34.2089 502.5,35.5 Z M 551.5,117.5 C 553.599,118.612 555.933,119.279 558.5,119.5C 558.833,119.5 559.167,119.5 559.5,119.5C 560.11,120.391 560.443,121.391 560.5,122.5C 558.738,123.262 557.738,124.596 557.5,126.5C 554.195,130.141 550.862,133.808 547.5,137.5C 544.911,138.419 542.911,140.086 541.5,142.5C 538.996,143.584 536.663,144.917 534.5,146.5C 530.469,148.371 526.469,148.704 522.5,147.5C 525.059,140.57 527.559,133.57 530,126.5C 532.473,122.694 535.639,119.527 539.5,117C 543.689,116.188 547.689,116.355 551.5,117.5 Z"/></g>
<g><path style="opacity:1" fill="#2a2827" d="M 191.5,95.5 C 191.34,97.153 190.674,98.4863 189.5,99.5C 189.229,97.6203 189.896,96.287 191.5,95.5 Z"/></g>
<g><path style="opacity:1" fill="#2d2d2a" d="M 211.5,95.5 C 212.906,95.9731 213.573,96.9731 213.5,98.5C 212.094,98.0269 211.427,97.0269 211.5,95.5 Z"/></g>
<g><path style="opacity:1" fill="#2d2d2d" d="M 245.5,95.5 C 245.59,98.1522 244.924,100.485 243.5,102.5C 243.41,99.8478 244.076,97.5145 245.5,95.5 Z"/></g>
<g><path style="opacity:1" fill="#1f1e1f" d="M 278.5,96.5 C 279.993,97.3121 280.66,98.6455 280.5,100.5C 280.48,101.726 280.147,102.726 279.5,103.5C 279.552,101.097 279.219,98.7638 278.5,96.5 Z"/></g>
<g><path style="opacity:1" fill="#3a3735" d="M 374.5,92.5 C 376.115,95.4017 375.449,97.735 372.5,99.5C 373.933,97.4418 374.6,95.1085 374.5,92.5 Z"/></g>
<g><path style="opacity:1" fill="#282826" d="M 553.5,98.5 C 558.16,99.0091 562.493,100.342 566.5,102.5C 561.824,101.939 557.491,100.606 553.5,98.5 Z"/></g>
<g><path style="opacity:1" fill="#343433" d="M 553.5,98.5 C 548.384,98.431 543.384,99.0976 538.5,100.5C 543.261,97.6387 548.261,96.972 553.5,98.5 Z"/></g>
<g><path style="opacity:1" fill="#2e2e2e" d="M 213.5,98.5 C 214.906,98.9731 215.573,99.9731 215.5,101.5C 214.094,101.027 213.427,100.027 213.5,98.5 Z"/></g>
<g><path style="opacity:1" fill="#383838" d="M 538.5,100.5 C 538.027,101.906 537.027,102.573 535.5,102.5C 535.973,101.094 536.973,100.427 538.5,100.5 Z"/></g>
<g><path style="opacity:1" fill="#4d4d4b" d="M 582.5,102.5 C 580.833,102.5 579.167,102.5 577.5,102.5C 579.286,100.078 580.952,100.078 582.5,102.5 Z"/></g>
<g><path style="opacity:1" fill="#7a7977" d="M 233.5,96.5 C 233.674,100.36 232.341,103.36 229.5,105.5C 230.597,102.314 231.93,99.3135 233.5,96.5 Z"/></g>
<g><path style="opacity:1" fill="#444441" d="M 372.5,99.5 C 371.92,101.749 370.587,103.415 368.5,104.5C 369.08,102.251 370.413,100.585 372.5,99.5 Z"/></g>
<g><path style="opacity:1" fill="#2f2f2f" d="M 582.5,102.5 C 583.586,102.62 584.253,103.287 584.5,104.5C 584.457,105.416 584.124,106.083 583.5,106.5C 583.567,105.041 583.234,103.708 582.5,102.5 Z"/></g>
<g><path style="opacity:1" fill="#3f3b3b" d="M 383.5,104.5 C 385.027,104.427 386.027,105.094 386.5,106.5C 384.973,106.573 383.973,105.906 383.5,104.5 Z"/></g>
<g><path style="opacity:1" fill="#797979" d="M 415.5,99.5 C 408.282,108.181 399.282,110.848 388.5,107.5C 394.948,107.673 401.281,107.006 407.5,105.5C 407.33,104.178 407.663,103.011 408.5,102C 410.801,100.884 413.135,100.051 415.5,99.5 Z"/></g>
<g><path style="opacity:1" fill="#817f7f" d="M 189.5,99.5 C 188.864,102.106 188.864,104.606 189.5,107C 188.051,108.102 186.718,109.269 185.5,110.5C 186.462,106.605 187.796,102.939 189.5,99.5 Z"/></g>
<g><path style="opacity:1" fill="#424141" d="M 368.5,104.5 C 368.443,105.609 368.11,106.609 367.5,107.5C 367.167,107.5 366.833,107.5 366.5,107.5C 366.427,105.973 367.094,104.973 368.5,104.5 Z"/></g>
<g><path style="opacity:1" fill="#4f4c4c" d="M 535.5,102.5 C 534.167,104.5 532.5,106.167 530.5,107.5C 531.167,104.833 532.833,103.167 535.5,102.5 Z"/></g>
<g><path style="opacity:1" fill="#8c8c87" d="M 215.5,101.5 C 217.472,104.084 218.472,107.084 218.5,110.5C 218.5,110.833 218.5,111.167 218.5,111.5C 217.814,110.152 216.814,108.985 215.5,108C 215.986,105.973 215.986,103.807 215.5,101.5 Z"/></g>
<g><path style="opacity:1" fill="#a3a19d" d="M 383.5,104.5 C 380.167,107.5 376.833,110.5 373.5,113.5C 373.703,111.61 373.037,110.11 371.5,109C 374.028,108.486 376.195,107.32 378,105.5C 378.333,105.833 378.667,106.167 379,106.5C 379.275,102.135 380.775,101.468 383.5,104.5 Z"/></g>
<g><path style="opacity:1" fill="#3c3c39" d="M 229.5,105.5 C 228.5,108.5 226.5,110.5 223.5,111.5C 225.167,109.167 227.167,107.167 229.5,105.5 Z"/></g>
<g><path style="opacity:1" fill="#080605" d="M 218.5,110.5 C 219.222,111.551 220.222,112.218 221.5,112.5C 220.053,113.885 219.053,113.552 218.5,111.5C 218.5,111.167 218.5,110.833 218.5,110.5 Z"/></g>
<g><path style="opacity:1" fill="#767573" d="M 279.5,103.5 C 279.765,107.653 278.431,110.987 275.5,113.5C 276.658,110.011 277.991,106.678 279.5,103.5 Z"/></g>
<g><path style="opacity:1" fill="#a19e9b" d="M 366.5,107.5 C 366.833,107.5 367.167,107.5 367.5,107.5C 367.926,108.528 367.926,109.861 367.5,111.5C 369.5,112.167 371.5,112.833 373.5,113.5C 370.547,118.45 367.214,123.117 363.5,127.5C 363.227,125.549 363.893,124.049 365.5,123C 363.233,121.919 363.066,120.419 365,118.5C 367.173,121.277 367.673,121.11 366.5,118C 371.35,116.708 371.683,114.875 367.5,112.5C 366.353,112.818 365.519,113.484 365,114.5C 364.329,113.748 363.496,113.414 362.5,113.5C 363.34,111.147 364.674,109.147 366.5,107.5 Z"/></g>
<g><path style="opacity:1" fill="#6a6967" d="M 50.5,113.5 C 46.1667,113.5 41.8333,113.5 37.5,113.5C 41.8145,110.939 46.1479,110.939 50.5,113.5 Z"/></g>
<g><path style="opacity:1" fill="#a5a2a1" d="M 582.5,107.5 C 579.887,113.113 575.887,117.446 570.5,120.5C 571.728,118.99 571.728,117.49 570.5,116C 571.449,115.383 572.282,115.549 573,116.5C 573.318,114.939 574.151,113.772 575.5,113C 575.043,112.586 574.709,112.086 574.5,111.5C 575.689,110.571 577.022,110.238 578.5,110.5C 578.5,109.5 578.5,108.5 578.5,107.5C 579.833,107.5 581.167,107.5 582.5,107.5 Z"/></g>
<g><path style="opacity:1" fill="#474744" d="M 35.5,114.5 C 35.0269,115.906 34.0269,116.573 32.5,116.5C 32.9731,115.094 33.9731,114.427 35.5,114.5 Z"/></g>
<g><path style="opacity:1" fill="#494948" d="M 362.5,113.5 C 362.573,115.027 361.906,116.027 360.5,116.5C 360.427,114.973 361.094,113.973 362.5,113.5 Z"/></g>
<g><path style="opacity:1" fill="#777674" d="M 501.5,110.5 C 501.5,110.833 501.5,111.167 501.5,111.5C 501.808,116.375 501.808,121.042 501.5,125.5C 500.167,120.5 500.167,115.5 501.5,110.5 Z"/></g>
<g><path style="opacity:1" fill="#5b5251" d="M 53.5,115.5 C 56.1667,116.167 57.8333,117.833 58.5,120.5C 56.1667,119.5 54.5,117.833 53.5,115.5 Z"/></g>
<g><path style="opacity:1" fill="#6b6b68" d="M 185.5,111.5 C 185.655,114.716 184.655,117.383 182.5,119.5C 182.98,116.557 183.98,113.89 185.5,111.5 Z"/></g>
<g><path style="opacity:1" fill="#4a4846" d="M 274.5,115.5 C 274.262,117.404 273.262,118.738 271.5,119.5C 271.738,117.596 272.738,116.262 274.5,115.5 Z"/></g>
<g><path style="opacity:1" fill="#454545" d="M 551.5,117.5 C 554.228,117.171 556.562,117.837 558.5,119.5C 555.933,119.279 553.599,118.612 551.5,117.5 Z"/></g>
<g><path style="opacity:1" fill="#141413" d="M 559.5,119.5 C 561.552,120.053 561.885,121.053 560.5,122.5C 560.443,121.391 560.11,120.391 559.5,119.5 Z"/></g>
<g><path style="opacity:1" fill="#474542" d="M 271.5,119.5 C 270.92,121.749 269.587,123.415 267.5,124.5C 268.08,122.251 269.413,120.585 271.5,119.5 Z"/></g>
<g><path style="opacity:1" fill="#4e4e4e" d="M 560.5,122.5 C 560.262,124.404 559.262,125.738 557.5,126.5C 557.738,124.596 558.738,123.262 560.5,122.5 Z"/></g>
<g><path style="opacity:1" fill="#616161" d="M 59.5,122.5 C 62.1667,125.167 62.1667,127.833 59.5,130.5C 59.5,127.833 59.5,125.167 59.5,122.5 Z"/></g>
<g><path style="opacity:1" fill="#706e6b" d="M 522.5,122.5 C 522.31,125.855 521.31,128.855 519.5,131.5C 519.528,128.084 520.528,125.084 522.5,122.5 Z"/></g>
<g><path style="opacity:1" fill="#595858" d="M 182.5,119.5 C 181.771,124.13 181.437,128.797 181.5,133.5C 178.86,128.688 179.193,124.021 182.5,119.5 Z"/></g>
<g><path style="opacity:1" fill="#444444" d="M 228.5,127.5 C 228.027,128.906 227.027,129.573 225.5,129.5C 225.973,128.094 226.973,127.427 228.5,127.5 Z"/></g>
<g><path style="opacity:1" fill="#787876" d="M 26.5,125.5 C 26.7083,129.085 25.375,131.751 22.5,133.5C 23.3257,130.515 24.659,127.849 26.5,125.5 Z"/></g>
<g><path style="opacity:1" fill="#8f8e8d" d="M 225.5,129.5 C 223.853,131.326 221.853,132.66 219.5,133.5C 220.167,131.5 220.833,129.5 221.5,127.5C 222.833,128.167 224.167,128.833 225.5,129.5 Z"/></g>
<g><path style="opacity:1" fill="#434342" d="M 264.5,127.5 C 263.089,129.914 261.089,131.581 258.5,132.5C 259.911,130.086 261.911,128.419 264.5,127.5 Z"/></g>
<g><path style="opacity:1" fill="#393736" d="M 286.5,127.5 C 286.598,129.553 285.931,131.22 284.5,132.5C 284.402,130.447 285.069,128.78 286.5,127.5 Z"/></g>
<g><path style="opacity:1" fill="#918f8c" d="M 565.5,130.5 C 564.674,133.485 563.341,136.151 561.5,138.5C 562.276,135.426 562.443,132.426 562,129.5C 563.011,130.337 564.178,130.67 565.5,130.5 Z"/></g>
<g><path style="opacity:1" fill="#3c3c3c" d="M 258.5,132.5 C 257.738,134.262 256.404,135.262 254.5,135.5C 255.262,133.738 256.596,132.738 258.5,132.5 Z"/></g>
<g><path style="opacity:1" fill="#d0cccb" d="M 287.5,121.5 C 287.675,123.621 287.341,125.621 286.5,127.5C 285.069,128.78 284.402,130.447 284.5,132.5C 284.509,134.308 284.009,135.975 283,137.5C 281.629,140.266 279.796,142.599 277.5,144.5C 276.094,144.973 275.427,145.973 275.5,147.5C 269.951,153.629 262.951,156.295 254.5,155.5C 246.233,155.989 238.233,157.322 230.5,159.5C 227.048,161.257 225.048,160.09 224.5,156C 225.039,152.629 227.039,150.796 230.5,150.5C 232.027,150.573 233.027,149.906 233.5,148.5C 234.496,148.414 235.329,148.748 236,149.5C 237.193,147.503 238.693,145.836 240.5,144.5C 242.027,144.573 243.027,143.906 243.5,142.5C 243.842,141.662 244.508,141.328 245.5,141.5C 247.027,141.573 248.027,140.906 248.5,139.5C 250.027,139.573 251.027,138.906 251.5,137.5C 253.027,137.573 254.027,136.906 254.5,135.5C 256.404,135.262 257.738,134.262 258.5,132.5C 261.089,131.581 263.089,129.914 264.5,127.5C 265.167,126.167 266.167,125.167 267.5,124.5C 269.587,123.415 270.92,121.749 271.5,119.5C 273.262,118.738 274.262,117.404 274.5,115.5C 274.328,114.508 274.662,113.842 275.5,113.5C 278.431,110.987 279.765,107.653 279.5,103.5C 280.147,102.726 280.48,101.726 280.5,100.5C 280.66,98.6455 279.993,97.3121 278.5,96.5C 278.369,95.7611 278.536,95.0944 279,94.5C 279.667,95.8333 280.333,95.8333 281,94.5C 282.117,95.9494 282.784,97.6161 283,99.5C 284,99.8333 285,100.167 286,100.5C 287.163,107.453 287.663,114.453 287.5,121.5 Z"/></g>
<g><path style="opacity:1" fill="#666362" d="M 519.5,131.5 C 518.943,136.165 517.61,140.498 515.5,144.5C 516.057,139.835 517.39,135.502 519.5,131.5 Z"/></g>
<g><path style="opacity:1" fill="#383736" d="M 219.5,133.5 C 219.279,136.067 218.612,138.401 217.5,140.5C 217.171,137.772 217.837,135.438 219.5,133.5 Z"/></g>
<g><path style="opacity:1" fill="#393936" d="M 254.5,135.5 C 254.027,136.906 253.027,137.573 251.5,137.5C 251.973,136.094 252.973,135.427 254.5,135.5 Z"/></g>
<g><path style="opacity:1" fill="#c3c0bd" d="M 363.5,127.5 C 361.084,132.667 358.418,137.667 355.5,142.5C 354.103,144.379 352.437,146.046 350.5,147.5C 350.846,148.696 351.346,148.696 352,147.5C 352.483,148.448 352.649,149.448 352.5,150.5C 351.372,155.473 350.372,160.473 349.5,165.5C 349.167,165.5 348.833,165.5 348.5,165.5C 348.664,160.999 347.331,156.999 344.5,153.5C 344.236,155.498 342.903,157.165 340.5,158.5C 345.069,143.367 351.736,129.367 360.5,116.5C 361.906,116.027 362.573,115.027 362.5,113.5C 363.496,113.414 364.329,113.748 365,114.5C 365.519,113.484 366.353,112.818 367.5,112.5C 371.683,114.875 371.35,116.708 366.5,118C 367.673,121.11 367.173,121.277 365,118.5C 363.066,120.419 363.233,121.919 365.5,123C 363.893,124.049 363.227,125.549 363.5,127.5 Z"/></g>
<g><path style="opacity:1" fill="#3c3b39" d="M 207.5,138.5 C 208.91,137.172 210.076,137.505 211,139.5C 211.941,141.989 211.441,143.989 209.5,145.5C 209.421,144.07 209.754,142.736 210.5,141.5C 210.121,139.787 209.121,138.787 207.5,138.5 Z"/></g>
<g><path style="opacity:1" fill="#2e2b2b" d="M 251.5,137.5 C 251.027,138.906 250.027,139.573 248.5,139.5C 248.973,138.094 249.973,137.427 251.5,137.5 Z"/></g>
<g><path style="opacity:1" fill="#272627" d="M 186.5,139.5 C 188.027,139.427 189.027,140.094 189.5,141.5C 187.973,141.573 186.973,140.906 186.5,139.5 Z"/></g>
<g><path style="opacity:1" fill="#3a3a36" d="M 248.5,139.5 C 248.027,140.906 247.027,141.573 245.5,141.5C 245.973,140.094 246.973,139.427 248.5,139.5 Z"/></g>
<g><path style="opacity:1" fill="#565654" d="M 547.5,137.5 C 546.089,139.914 544.089,141.581 541.5,142.5C 542.911,140.086 544.911,138.419 547.5,137.5 Z"/></g>
<g><path style="opacity:1" fill="#2c2c2c" d="M 29.5,139.5 C 30.9063,139.973 31.573,140.973 31.5,142.5C 30.0937,142.027 29.427,141.027 29.5,139.5 Z"/></g>
<g><path style="opacity:1" fill="#4e4e4e" d="M 71.5,140.5 C 67.8333,141.167 64.1667,141.833 60.5,142.5C 63.9626,140.109 67.6292,139.442 71.5,140.5 Z"/></g>
<g><path style="opacity:1" fill="#7a7a76" d="M 560.5,140.5 C 559.89,142.434 558.89,144.101 557.5,145.5C 555.971,142.573 556.971,140.906 560.5,140.5 Z"/></g>
<g><path style="opacity:1" fill="#2f2d2d" d="M 243.5,142.5 C 243.027,143.906 242.027,144.573 240.5,144.5C 240.973,143.094 241.973,142.427 243.5,142.5 Z"/></g>
<g><path style="opacity:1" fill="#d2cecc" d="M 37.5,113.5 C 41.8333,113.5 46.1667,113.5 50.5,113.5C 52.0269,113.427 53.0269,114.094 53.5,115.5C 54.5,117.833 56.1667,119.5 58.5,120.5C 59.3382,120.842 59.6716,121.508 59.5,122.5C 59.5,125.167 59.5,127.833 59.5,130.5C 58.625,132.806 57.2916,133.473 55.5,132.5C 55.1667,130.167 53.8333,128.833 51.5,128.5C 49.4214,128.029 47.4214,127.363 45.5,126.5C 42.0242,125.357 38.3575,125.19 34.5,126C 35.5981,126.77 35.5981,127.603 34.5,128.5C 30.9823,131.209 29.3156,134.876 29.5,139.5C 29.427,141.027 30.0937,142.027 31.5,142.5C 32.3602,144.614 34.0268,145.78 36.5,146C 40.1516,146.499 43.8183,146.665 47.5,146.5C 51.5272,145.861 55.5272,145.028 59.5,144C 60.056,143.617 60.3893,143.117 60.5,142.5C 64.1667,141.833 67.8333,141.167 71.5,140.5C 69.8686,142.228 68.202,144.062 66.5,146C 67.7073,147.3 68.3739,148.8 68.5,150.5C 66.3513,152.797 63.5179,155.13 60,157.5C 58.4842,154.949 57.6509,155.282 57.5,158.5C 55.0194,158.677 53.1861,157.677 52,155.5C 51.102,157.388 50.602,159.388 50.5,161.5C 50.1583,162.338 49.4916,162.672 48.5,162.5C 46.8561,162.714 45.3561,162.38 44,161.5C 42.6012,162.227 41.1012,162.727 39.5,163C 40.2524,163.671 40.5858,164.504 40.5,165.5C 37.6533,165.782 34.9866,165.782 32.5,165.5C 31.5713,166.689 31.238,168.022 31.5,169.5C 31.1583,170.338 30.4916,170.672 29.5,170.5C 27.5,170.5 25.5,170.5 23.5,170.5C 23.5,171.5 23.5,172.5 23.5,173.5C 19.8965,175.64 16.2299,177.807 12.5,180C 10.9343,180.765 9.60093,180.598 8.5,179.5C 7.962,177.883 7.62867,176.216 7.5,174.5C 8.5,172.833 9.83333,171.5 11.5,170.5C 13.1667,169.5 14.5,168.167 15.5,166.5C 18.0892,165.581 20.0892,163.914 21.5,161.5C 24.1357,159.079 23.469,157.412 19.5,156.5C 18.6618,156.158 18.3284,155.492 18.5,154.5C 18.4126,149.463 18.746,144.463 19.5,139.5C 19.9925,137.181 20.9925,135.181 22.5,133.5C 25.375,131.751 26.7083,129.085 26.5,125.5C 27.7232,121.951 29.7232,118.951 32.5,116.5C 34.0269,116.573 35.0269,115.906 35.5,114.5C 35.8417,113.662 36.5084,113.328 37.5,113.5 Z"/></g>
<g><path style="opacity:1" fill="#575553" d="M 60.5,142.5 C 60.3893,143.117 60.056,143.617 59.5,144C 55.5272,145.028 51.5272,145.861 47.5,146.5C 47.5,146.167 47.5,145.833 47.5,145.5C 51.8631,144.627 56.1965,143.627 60.5,142.5 Z"/></g>
<g><path style="opacity:1" fill="#454545" d="M 51.5,128.5 C 53.8333,128.833 55.1667,130.167 55.5,132.5C 53.8333,131.5 52.5,130.167 51.5,128.5 Z"/></g>
<g><path style="opacity:1" fill="#6c6c6b" d="M 45.5,126.5 C 41.6331,126.242 37.9664,126.908 34.5,128.5C 35.5981,127.603 35.5981,126.77 34.5,126C 38.3575,125.19 42.0242,125.357 45.5,126.5 Z"/></g>
<g><path style="opacity:1" fill="#8c8c87" d="M 152.5,143.5 C 151.958,146.912 150.625,149.912 148.5,152.5C 148.768,149.881 148.435,147.381 147.5,145C 148.784,144.316 149.951,144.483 151,145.5C 151.278,144.584 151.778,143.918 152.5,143.5 Z"/></g>
<g><path style="opacity:1" fill="#1e1e1d" d="M 31.5,142.5 C 36.485,145.07 41.8183,146.07 47.5,145.5C 47.5,145.833 47.5,146.167 47.5,146.5C 43.8183,146.665 40.1516,146.499 36.5,146C 34.0268,145.78 32.3602,144.614 31.5,142.5 Z"/></g>
<g><path style="opacity:1" fill="#a6a3a2" d="M 71.5,140.5 C 72.1786,144.149 71.1786,147.483 68.5,150.5C 68.3739,148.8 67.7073,147.3 66.5,146C 68.202,144.062 69.8686,142.228 71.5,140.5 Z"/></g>
<g><path style="opacity:1" fill="#242424" d="M 277.5,144.5 C 277.573,146.027 276.906,147.027 275.5,147.5C 275.427,145.973 276.094,144.973 277.5,144.5 Z"/></g>
<g><path style="opacity:1" fill="#8d8a8a" d="M 355.5,142.5 C 354.494,145.21 353.494,147.876 352.5,150.5C 352.649,149.448 352.483,148.448 352,147.5C 351.346,148.696 350.846,148.696 350.5,147.5C 352.437,146.046 354.103,144.379 355.5,142.5 Z"/></g>
<g><path style="opacity:1" fill="#747271" d="M 541.5,142.5 C 540.223,145.552 537.89,146.885 534.5,146.5C 536.663,144.917 538.996,143.584 541.5,142.5 Z"/></g>
<g><path style="opacity:1" fill="#686766" d="M 19.5,139.5 C 18.746,144.463 18.4126,149.463 18.5,154.5C 16.0438,149.398 16.3771,144.398 19.5,139.5 Z"/></g>
<g><path style="opacity:1" fill="#565655" d="M 108.5,144.5 C 108.59,147.152 107.924,149.485 106.5,151.5C 106.41,148.848 107.076,146.515 108.5,144.5 Z"/></g>
<g><path style="opacity:1" fill="#c9c5c3" d="M 152.5,143.5 C 151.778,143.918 151.278,144.584 151,145.5C 149.951,144.483 148.784,144.316 147.5,145C 148.435,147.381 148.768,149.881 148.5,152.5C 147.696,155.442 146.362,158.109 144.5,160.5C 143.292,161.234 141.959,161.567 140.5,161.5C 140.5,162.5 140.5,163.5 140.5,164.5C 139.448,164.351 138.448,164.517 137.5,165C 138.337,166.011 138.67,167.178 138.5,168.5C 135.104,173.528 130.437,176.528 124.5,177.5C 118.333,177.329 112.333,176.329 106.5,174.5C 106.027,173.094 105.027,172.427 103.5,172.5C 103.027,171.094 102.027,170.427 100.5,170.5C 99.7377,168.738 98.4044,167.738 96.5,167.5C 92.8972,165.077 91.3972,161.744 92,157.5C 96.1206,156.861 100.287,156.195 104.5,155.5C 104.994,153.974 105.661,152.641 106.5,151.5C 107.924,149.485 108.59,147.152 108.5,144.5C 108.216,142.585 108.549,140.919 109.5,139.5C 110.497,117.673 110.831,95.673 110.5,73.5C 111.6,65.1972 114.266,57.5305 118.5,50.5C 119.833,50.5 121.167,50.5 122.5,50.5C 122.182,55.0323 122.515,59.3656 123.5,63.5C 124.653,82.4267 124.82,101.427 124,120.5C 122.365,132.389 119.198,143.722 114.5,154.5C 113.957,154.56 113.624,154.893 113.5,155.5C 115.299,156.788 116.965,156.788 118.5,155.5C 123.205,154.377 127.872,153.044 132.5,151.5C 134.086,150.587 135.586,150.587 137,151.5C 138.044,150.377 138.71,149.044 139,147.5C 139.667,146.167 140.333,146.167 141,147.5C 142.368,146.007 142.535,144.507 141.5,143C 145.482,140.864 146.816,137.697 145.5,133.5C 145.982,130.698 146.316,127.865 146.5,125C 145.677,108.172 145.011,91.3388 144.5,74.5C 144.19,71.2869 144.523,68.2869 145.5,65.5C 147.483,62.2006 148.483,58.5339 148.5,54.5C 148.971,52.4214 149.637,50.4214 150.5,48.5C 152.213,47.3646 152.88,45.698 152.5,43.5C 153.932,41.3531 155.765,41.0198 158,42.5C 158.667,65.8333 158.667,89.1667 158,112.5C 157.406,123.19 155.573,133.523 152.5,143.5 Z"/></g>
<g><path style="opacity:1" fill="#9f9d9a" d="M 144.5,133.5 C 144.833,133.5 145.167,133.5 145.5,133.5C 146.816,137.697 145.482,140.864 141.5,143C 142.535,144.507 142.368,146.007 141,147.5C 140.333,146.167 139.667,146.167 139,147.5C 138.71,149.044 138.044,150.377 137,151.5C 135.586,150.587 134.086,150.587 132.5,151.5C 138.499,146.835 142.499,140.835 144.5,133.5 Z"/></g>
<g><path style="opacity:1" fill="#4a4847" d="M 144.5,74.5 C 145.011,91.3388 145.677,108.172 146.5,125C 146.316,127.865 145.982,130.698 145.5,133.5C 145.167,133.5 144.833,133.5 144.5,133.5C 144.31,113.7 144.31,94.0329 144.5,74.5 Z"/></g>
<g><path style="opacity:1" fill="#525150" d="M 148.5,54.5 C 148.483,58.5339 147.483,62.2006 145.5,65.5C 145.926,61.5732 146.926,57.9065 148.5,54.5 Z"/></g>
<g><path style="opacity:1" fill="#696866" d="M 240.5,144.5 C 238.693,145.836 237.193,147.503 236,149.5C 235.329,148.748 234.496,148.414 233.5,148.5C 235.336,146.412 237.669,145.079 240.5,144.5 Z"/></g>
<g><path style="opacity:1" fill="#201f1f" d="M 514.5,147.5 C 513.947,149.552 512.947,149.885 511.5,148.5C 512.609,148.443 513.609,148.11 514.5,147.5 Z"/></g>
<g><path style="opacity:1" fill="#606060" d="M 209.5,145.5 C 208.833,148.167 207.167,149.833 204.5,150.5C 205.833,148.5 207.5,146.833 209.5,145.5 Z"/></g>
<g><path style="opacity:1" fill="#4a4444" d="M 233.5,148.5 C 233.027,149.906 232.027,150.573 230.5,150.5C 230.973,149.094 231.973,148.427 233.5,148.5 Z"/></g>
<g><path style="opacity:1" fill="#42403e" d="M 534.5,146.5 C 533.653,147.966 532.32,148.8 530.5,149C 527.487,149.502 524.487,150.002 521.5,150.5C 521.263,149.209 521.596,148.209 522.5,147.5C 526.469,148.704 530.469,148.371 534.5,146.5 Z"/></g>
<g><path style="opacity:1" fill="#423f3f" d="M 204.5,150.5 C 203.738,152.262 202.404,153.262 200.5,153.5C 201.262,151.738 202.596,150.738 204.5,150.5 Z"/></g>
<g><path style="opacity:1" fill="#42413e" d="M 200.5,153.5 C 200.027,154.906 199.027,155.573 197.5,155.5C 197.973,154.094 198.973,153.427 200.5,153.5 Z"/></g>
<g><path style="opacity:1" fill="#22211f" d="M 114.5,154.5 C 115.568,155.434 116.901,155.768 118.5,155.5C 116.965,156.788 115.299,156.788 113.5,155.5C 113.624,154.893 113.957,154.56 114.5,154.5 Z"/></g>
<g><path style="opacity:1" fill="#484544" d="M 19.5,156.5 C 23.469,157.412 24.1357,159.079 21.5,161.5C 21.6107,160.883 21.944,160.383 22.5,160C 21.2899,158.961 20.2899,157.794 19.5,156.5 Z"/></g>
<g><path style="opacity:1" fill="#989796" d="M 68.5,150.5 C 68.528,152.582 67.8613,154.416 66.5,156C 61.2436,158.141 55.9103,159.974 50.5,161.5C 50.602,159.388 51.102,157.388 52,155.5C 53.1861,157.677 55.0194,158.677 57.5,158.5C 57.6509,155.282 58.4842,154.949 60,157.5C 63.5179,155.13 66.3513,152.797 68.5,150.5 Z"/></g>
<g><path style="opacity:1" fill="#454545" d="M 197.5,155.5 C 197.027,156.906 196.027,157.573 194.5,157.5C 194.973,156.094 195.973,155.427 197.5,155.5 Z"/></g>
<g><path style="opacity:1" fill="#232222" d="M 489.5,153.5 C 490.768,155.905 491.435,158.572 491.5,161.5C 489.96,159.162 489.294,156.495 489.5,153.5 Z"/></g>
<g><path style="opacity:1" fill="#252423" d="M 254.5,155.5 C 246.767,157.678 238.767,159.011 230.5,159.5C 238.233,157.322 246.233,155.989 254.5,155.5 Z"/></g>
<g><path style="opacity:1" fill="#4c4c4a" d="M 194.5,157.5 C 194.027,158.906 193.027,159.573 191.5,159.5C 191.973,158.094 192.973,157.427 194.5,157.5 Z"/></g>
<g><path style="opacity:1" fill="#b9b6b4" d="M 477.5,157.5 C 477.041,160.877 476.374,164.211 475.5,167.5C 474.241,174.003 471.907,180.003 468.5,185.5C 468.565,182.529 467.731,179.862 466,177.5C 463.965,177.606 462.132,178.606 460.5,180.5C 464.415,171.672 468.582,163.005 473,154.5C 474.878,155.053 476.378,156.053 477.5,157.5 Z"/></g>
<g><path style="opacity:1" fill="#444141" d="M 189.5,160.5 C 189.027,161.906 188.027,162.573 186.5,162.5C 186.973,161.094 187.973,160.427 189.5,160.5 Z"/></g>
<g><path style="opacity:1" fill="#888683" d="M 48.5,162.5 C 46.1098,164.02 43.4432,165.02 40.5,165.5C 40.5858,164.504 40.2524,163.671 39.5,163C 41.1012,162.727 42.6012,162.227 44,161.5C 45.3561,162.38 46.8561,162.714 48.5,162.5 Z"/></g>
<g><path style="opacity:1" fill="#464646" d="M 477.5,157.5 C 478.239,157.369 478.906,157.536 479.5,158C 478.636,161.443 477.303,164.61 475.5,167.5C 476.374,164.211 477.041,160.877 477.5,157.5 Z"/></g>
<g><path style="opacity:1" fill="#6f6e6e" d="M 21.5,161.5 C 20.0892,163.914 18.0892,165.581 15.5,166.5C 16.9108,164.086 18.9108,162.419 21.5,161.5 Z"/></g>
<g><path style="opacity:1" fill="#918e8d" d="M 144.5,160.5 C 142.984,163.533 140.984,166.2 138.5,168.5C 138.67,167.178 138.337,166.011 137.5,165C 138.448,164.517 139.448,164.351 140.5,164.5C 140.5,163.5 140.5,162.5 140.5,161.5C 141.959,161.567 143.292,161.234 144.5,160.5 Z"/></g>
<g><path style="opacity:1" fill="#434141" d="M 184.5,163.5 C 184.027,164.906 183.027,165.573 181.5,165.5C 181.973,164.094 182.973,163.427 184.5,163.5 Z"/></g>
<g><path style="opacity:1" fill="#817f7e" d="M 40.5,165.5 C 37.7442,167.204 34.7442,168.537 31.5,169.5C 31.238,168.022 31.5713,166.689 32.5,165.5C 34.9866,165.782 37.6533,165.782 40.5,165.5 Z"/></g>
<g><path style="opacity:1" fill="#a09f9e" d="M 212.5,154.5 C 210.456,160.255 207.623,165.588 204,170.5C 202.223,172.79 200.056,174.457 197.5,175.5C 197.336,172.813 197.503,170.146 198,167.5C 198.419,168.672 199.085,169.672 200,170.5C 202.168,169.371 202.668,167.871 201.5,166C 202.938,165.781 204.271,165.281 205.5,164.5C 205.291,163.914 204.957,163.414 204.5,163C 206.667,159.667 209.334,156.834 212.5,154.5 Z"/></g>
<g><path style="opacity:1" fill="#585858" d="M 340.5,160.5 C 340.59,163.152 339.924,165.485 338.5,167.5C 338.41,164.848 339.076,162.515 340.5,160.5 Z"/></g>
<g><path style="opacity:1" fill="#575654" d="M 15.5,166.5 C 14.5,168.167 13.1667,169.5 11.5,170.5C 11.8333,168.167 13.1667,166.833 15.5,166.5 Z"/></g>
<g><path style="opacity:1" fill="#434342" d="M 96.5,167.5 C 98.4044,167.738 99.7377,168.738 100.5,170.5C 98.5956,170.262 97.2623,169.262 96.5,167.5 Z"/></g>
<g><path style="opacity:1" fill="#888886" d="M 540.5,166.5 C 538.469,168.522 536.135,170.189 533.5,171.5C 533.5,170.167 533.5,168.833 533.5,167.5C 535.806,167.007 538.139,166.674 540.5,166.5 Z"/></g>
<g><path style="opacity:1" fill="#424040" d="M 179.5,166.5 C 178.341,168.25 176.674,169.25 174.5,169.5C 175.659,167.75 177.326,166.75 179.5,166.5 Z"/></g>
<g><path style="opacity:1" fill="#8f8c89" d="M 494.5,168.5 C 496.386,169.361 498.22,170.361 500,171.5C 499.645,172.959 499.811,174.293 500.5,175.5C 497.348,174.221 495.348,171.888 494.5,168.5 Z"/></g>
<g><path style="opacity:1" fill="#737170" d="M 29.5,170.5 C 27.7496,171.87 25.7496,172.87 23.5,173.5C 23.5,172.5 23.5,171.5 23.5,170.5C 25.5,170.5 27.5,170.5 29.5,170.5 Z"/></g>
<g><path style="opacity:1" fill="#3d3d3a" d="M 100.5,170.5 C 102.027,170.427 103.027,171.094 103.5,172.5C 101.973,172.573 100.973,171.906 100.5,170.5 Z"/></g>
<g><path style="opacity:1" fill="#747171" d="M 531.5,172.5 C 529.819,174.008 527.819,175.008 525.5,175.5C 525.167,175.5 524.833,175.5 524.5,175.5C 526.229,173.273 528.562,172.273 531.5,172.5 Z"/></g>
<g><path style="opacity:1" fill="#1f1f1f" d="M 103.5,172.5 C 105.027,172.427 106.027,173.094 106.5,174.5C 104.973,174.573 103.973,173.906 103.5,172.5 Z"/></g>
<g><path style="opacity:1" fill="#444342" d="M 106.5,174.5 C 112.333,176.329 118.333,177.329 124.5,177.5C 118.138,179.081 112.138,178.081 106.5,174.5 Z"/></g>
<g><path style="opacity:1" fill="#393838" d="M 7.5,174.5 C 7.62867,176.216 7.962,177.883 8.5,179.5C 6.40309,178.121 6.06975,176.455 7.5,174.5 Z"/></g>
<g><path style="opacity:1" fill="#525251" d="M 348.5,165.5 C 348.833,165.5 349.167,165.5 349.5,165.5C 348.385,172.179 348.385,178.846 349.5,185.5C 348.281,182.579 347.614,179.412 347.5,176C 347.999,172.51 348.332,169.01 348.5,165.5 Z"/></g>
<g><path style="opacity:1" fill="#252524" d="M 500.5,175.5 C 502.027,175.427 503.027,176.094 503.5,177.5C 501.973,177.573 500.973,176.906 500.5,175.5 Z"/></g>
<g><path style="opacity:1" fill="#1a1a1a" d="M 524.5,175.5 C 524.833,175.5 525.167,175.5 525.5,175.5C 523.162,177.04 520.495,177.706 517.5,177.5C 519.599,176.388 521.933,175.721 524.5,175.5 Z"/></g>
<g><path style="opacity:1" fill="#d4d0ce" d="M 348.5,165.5 C 348.332,169.01 347.999,172.51 347.5,176C 347.614,179.412 348.281,182.579 349.5,185.5C 349.993,187.806 350.326,190.139 350.5,192.5C 349.038,195.642 349.705,197.642 352.5,198.5C 352.678,201.216 353.178,203.883 354,206.5C 354.77,205.402 355.603,205.402 356.5,206.5C 356.427,208.027 357.094,209.027 358.5,209.5C 359.833,210.167 360.833,211.167 361.5,212.5C 361.973,213.906 362.973,214.573 364.5,214.5C 367.448,216.362 370.448,218.029 373.5,219.5C 375.635,221.369 378.302,222.036 381.5,221.5C 388.989,222.656 396.655,222.822 404.5,222C 405.737,221.768 406.737,221.268 407.5,220.5C 410.228,220.829 412.562,220.163 414.5,218.5C 417.874,218.326 421.207,217.826 424.5,217C 425.305,215.887 425.972,214.721 426.5,213.5C 428.663,211.917 430.996,210.584 433.5,209.5C 435.027,209.573 436.027,208.906 436.5,207.5C 439.089,206.581 441.089,204.914 442.5,202.5C 446.195,198.474 449.862,194.474 453.5,190.5C 455.262,189.738 456.262,188.404 456.5,186.5C 457.906,186.027 458.573,185.027 458.5,183.5C 459.906,183.027 460.573,182.027 460.5,180.5C 462.132,178.606 463.965,177.606 466,177.5C 467.731,179.862 468.565,182.529 468.5,185.5C 467.207,190.753 464.874,195.419 461.5,199.5C 457.549,198.777 456.215,200.11 457.5,203.5C 457.518,205.373 457.018,205.706 456,204.5C 455.506,206.134 455.34,207.801 455.5,209.5C 455.672,210.492 455.338,211.158 454.5,211.5C 453.094,211.973 452.427,212.973 452.5,214.5C 451.094,214.973 450.427,215.973 450.5,217.5C 450.167,218.5 449.5,219.167 448.5,219.5C 447.094,219.973 446.427,220.973 446.5,222.5C 445.5,224.167 444.167,225.5 442.5,226.5C 441.094,226.973 440.427,227.973 440.5,229.5C 440.5,230.167 440.167,230.5 439.5,230.5C 437.973,230.427 436.973,231.094 436.5,232.5C 435.5,234.167 434.167,235.5 432.5,236.5C 430.596,236.738 429.262,237.738 428.5,239.5C 427.167,239.5 425.833,239.5 424.5,239.5C 424.5,240.5 424.5,241.5 424.5,242.5C 424.158,243.338 423.492,243.672 422.5,243.5C 420.973,243.427 419.973,244.094 419.5,245.5C 415.414,246.255 411.747,247.921 408.5,250.5C 405.848,250.41 403.515,251.076 401.5,252.5C 391.852,253.245 382.185,253.578 372.5,253.5C 370.562,251.837 368.228,251.171 365.5,251.5C 363.819,249.992 361.819,248.992 359.5,248.5C 359.027,247.094 358.027,246.427 356.5,246.5C 355.089,244.086 353.089,242.419 350.5,241.5C 349.5,241.167 348.833,240.5 348.5,239.5C 348.573,237.973 347.906,236.973 346.5,236.5C 346.573,234.973 345.906,233.973 344.5,233.5C 342.659,231.151 341.326,228.485 340.5,225.5C 341.914,222.884 341.248,220.884 338.5,219.5C 338.741,217.102 338.074,215.102 336.5,213.5C 334.631,205.406 334.298,197.406 335.5,189.5C 336.626,184.281 337.959,179.114 339.5,174C 338.577,171.959 338.244,169.792 338.5,167.5C 339.924,165.485 340.59,163.152 340.5,160.5C 340.5,159.833 340.5,159.167 340.5,158.5C 342.903,157.165 344.236,155.498 344.5,153.5C 347.331,156.999 348.664,160.999 348.5,165.5 Z"/></g>
<g><path style="opacity:1" fill="#31312f" d="M 190.5,177.5 C 183.506,179.052 176.34,180.386 169,181.5C 167.699,181.361 166.866,180.695 166.5,179.5C 174.515,178.998 182.515,178.331 190.5,177.5 Z"/></g>
<g><path style="opacity:1" fill="#535151" d="M 460.5,180.5 C 460.573,182.027 459.906,183.027 458.5,183.5C 458.427,181.973 459.094,180.973 460.5,180.5 Z"/></g>
<g><path style="opacity:1" fill="#9b9a99" d="M 338.5,167.5 C 338.244,169.792 338.577,171.959 339.5,174C 337.959,179.114 336.626,184.281 335.5,189.5C 335.221,181.861 336.221,174.527 338.5,167.5 Z"/></g>
<g><path style="opacity:1" fill="#504f4c" d="M 458.5,183.5 C 458.573,185.027 457.906,186.027 456.5,186.5C 456.427,184.973 457.094,183.973 458.5,183.5 Z"/></g>
<g><path style="opacity:1" fill="#464645" d="M 456.5,186.5 C 456.262,188.404 455.262,189.738 453.5,190.5C 453.738,188.596 454.738,187.262 456.5,186.5 Z"/></g>
<g><path style="opacity:1" fill="#787574" d="M 350.5,192.5 C 351.458,194.302 352.125,196.302 352.5,198.5C 349.705,197.642 349.038,195.642 350.5,192.5 Z"/></g>
<g><path style="opacity:1" fill="#93928e" d="M 461.5,199.5 C 460.502,203.505 458.502,206.839 455.5,209.5C 455.34,207.801 455.506,206.134 456,204.5C 457.018,205.706 457.518,205.373 457.5,203.5C 456.215,200.11 457.549,198.777 461.5,199.5 Z"/></g>
<g><path style="opacity:1" fill="#84807e" d="M 352.5,198.5 C 354.341,200.849 355.674,203.515 356.5,206.5C 355.603,205.402 354.77,205.402 354,206.5C 353.178,203.883 352.678,201.216 352.5,198.5 Z"/></g>
<g><path style="opacity:1" fill="#61615f" d="M 442.5,202.5 C 441.089,204.914 439.089,206.581 436.5,207.5C 437.911,205.086 439.911,203.419 442.5,202.5 Z"/></g>
<g><path style="opacity:1" fill="#484646" d="M 356.5,206.5 C 357.906,206.973 358.573,207.973 358.5,209.5C 357.094,209.027 356.427,208.027 356.5,206.5 Z"/></g>
<g><path style="opacity:1" fill="#564e4e" d="M 436.5,207.5 C 436.027,208.906 435.027,209.573 433.5,209.5C 433.973,208.094 434.973,207.427 436.5,207.5 Z"/></g>
<g><path style="opacity:1" fill="#9d9b98" d="M 552.5,213.5 C 550.914,212.587 549.414,212.587 548,213.5C 546.415,212.624 545.415,211.291 545,209.5C 544.292,210.381 543.458,211.047 542.5,211.5C 542.818,209.182 544.152,207.848 546.5,207.5C 548.827,209.161 550.827,211.161 552.5,213.5 Z"/></g>
<g><path style="opacity:1" fill="#1b1a1a" d="M 361.5,212.5 C 363.027,212.427 364.027,213.094 364.5,214.5C 362.973,214.573 361.973,213.906 361.5,212.5 Z"/></g>
<g><path style="opacity:1" fill="#1f1e1e" d="M 454.5,211.5 C 454.573,213.027 453.906,214.027 452.5,214.5C 452.427,212.973 453.094,211.973 454.5,211.5 Z"/></g>
<g><path style="opacity:1" fill="#cecac8" d="M 552.5,213.5 C 554.153,213.66 555.486,214.326 556.5,215.5C 558.608,216.735 560.608,218.235 562.5,220C 561.552,220.483 560.552,220.649 559.5,220.5C 559.5,222.833 559.5,225.167 559.5,227.5C 558.66,229.853 557.326,231.853 555.5,233.5C 552.838,235.268 549.838,235.935 546.5,235.5C 545.486,234.326 544.153,233.66 542.5,233.5C 535.266,229.475 533.766,223.808 538,216.5C 539.049,214.382 540.549,212.716 542.5,211.5C 543.458,211.047 544.292,210.381 545,209.5C 545.415,211.291 546.415,212.624 548,213.5C 549.414,212.587 550.914,212.587 552.5,213.5 Z"/></g>
<g><path style="opacity:1" fill="#181817" d="M 452.5,214.5 C 452.573,216.027 451.906,217.027 450.5,217.5C 450.427,215.973 451.094,214.973 452.5,214.5 Z"/></g>
<g><path style="opacity:1" fill="#3a3a39" d="M 336.5,213.5 C 338.074,215.102 338.741,217.102 338.5,219.5C 337.262,217.786 336.595,215.786 336.5,213.5 Z"/></g>
<g><path style="opacity:1" fill="#7d7d7b" d="M 426.5,213.5 C 425.972,214.721 425.305,215.887 424.5,217C 421.207,217.826 417.874,218.326 414.5,218.5C 418.452,216.861 422.452,215.195 426.5,213.5 Z"/></g>
<g><path style="opacity:1" fill="#464646" d="M 414.5,218.5 C 412.562,220.163 410.228,220.829 407.5,220.5C 409.599,219.388 411.933,218.721 414.5,218.5 Z"/></g>
<g><path style="opacity:1" fill="#646363" d="M 373.5,219.5 C 376.373,219.802 379.039,220.469 381.5,221.5C 378.302,222.036 375.635,221.369 373.5,219.5 Z"/></g>
<g><path style="opacity:1" fill="#252524" d="M 448.5,219.5 C 448.573,221.027 447.906,222.027 446.5,222.5C 446.427,220.973 447.094,219.973 448.5,219.5 Z"/></g>
<g><path style="opacity:1" fill="#949494" d="M 556.5,215.5 C 566.06,217.192 567.06,221.192 559.5,227.5C 559.5,225.167 559.5,222.833 559.5,220.5C 560.552,220.649 561.552,220.483 562.5,220C 560.608,218.235 558.608,216.735 556.5,215.5 Z"/></g>
<g><path style="opacity:1" fill="#746d6d" d="M 338.5,219.5 C 341.248,220.884 341.914,222.884 340.5,225.5C 339.262,223.786 338.595,221.786 338.5,219.5 Z"/></g>
<g><path style="opacity:1" fill="#3a3939" d="M 407.5,220.5 C 406.737,221.268 405.737,221.768 404.5,222C 396.655,222.822 388.989,222.656 381.5,221.5C 390.195,221.673 398.862,221.34 407.5,220.5 Z"/></g>
<g><path style="opacity:1" fill="#292928" d="M 442.5,226.5 C 442.573,228.027 441.906,229.027 440.5,229.5C 440.427,227.973 441.094,226.973 442.5,226.5 Z"/></g>
<g><path style="opacity:1" fill="#181818" d="M 439.5,230.5 C 439.027,231.906 438.027,232.573 436.5,232.5C 436.973,231.094 437.973,230.427 439.5,230.5 Z"/></g>
<g><path style="opacity:1" fill="#1e1b1d" d="M 344.5,233.5 C 345.906,233.973 346.573,234.973 346.5,236.5C 345.094,236.027 344.427,235.027 344.5,233.5 Z"/></g>
<g><path style="opacity:1" fill="#2d2c2c" d="M 542.5,233.5 C 544.153,233.66 545.486,234.326 546.5,235.5C 544.62,235.771 543.287,235.104 542.5,233.5 Z"/></g>
<g><path style="opacity:1" fill="#32312e" d="M 555.5,233.5 C 555.586,234.496 555.252,235.329 554.5,236C 551.633,236.801 548.966,236.634 546.5,235.5C 549.838,235.935 552.838,235.268 555.5,233.5 Z"/></g>
<g><path style="opacity:1" fill="#212020" d="M 346.5,236.5 C 347.906,236.973 348.573,237.973 348.5,239.5C 347.094,239.027 346.427,238.027 346.5,236.5 Z"/></g>
<g><path style="opacity:1" fill="#1b1b1a" d="M 432.5,236.5 C 431.738,238.262 430.404,239.262 428.5,239.5C 429.262,237.738 430.596,236.738 432.5,236.5 Z"/></g>
<g><path style="opacity:1" fill="#686868" d="M 428.5,239.5 C 427.564,240.974 426.23,241.974 424.5,242.5C 424.5,241.5 424.5,240.5 424.5,239.5C 425.833,239.5 427.167,239.5 428.5,239.5 Z"/></g>
<g><path style="opacity:1" fill="#3e3d3c" d="M 350.5,241.5 C 353.089,242.419 355.089,244.086 356.5,246.5C 353.911,245.581 351.911,243.914 350.5,241.5 Z"/></g>
<g><path style="opacity:1" fill="#141414" d="M 422.5,243.5 C 422.027,244.906 421.027,245.573 419.5,245.5C 419.973,244.094 420.973,243.427 422.5,243.5 Z"/></g>
<g><path style="opacity:1" fill="#211e1d" d="M 356.5,246.5 C 358.027,246.427 359.027,247.094 359.5,248.5C 357.973,248.573 356.973,247.906 356.5,246.5 Z"/></g>
<g><path style="opacity:1" fill="#363432" d="M 419.5,245.5 C 416.249,247.957 412.582,249.624 408.5,250.5C 411.747,247.921 415.414,246.255 419.5,245.5 Z"/></g>
<g><path style="opacity:1" fill="#171615" d="M 359.5,248.5 C 361.819,248.992 363.819,249.992 365.5,251.5C 362.911,251.539 360.911,250.539 359.5,248.5 Z"/></g>
<g><path style="opacity:1" fill="#141314" d="M 408.5,250.5 C 406.485,251.924 404.152,252.59 401.5,252.5C 403.515,251.076 405.848,250.41 408.5,250.5 Z"/></g>
<g><path style="opacity:1" fill="#272525" d="M 365.5,251.5 C 368.228,251.171 370.562,251.837 372.5,253.5C 369.848,253.59 367.515,252.924 365.5,251.5 Z"/></g>
<g><path style="opacity:1" fill="#282827" d="M 401.5,252.5 C 398.22,253.712 394.887,254.712 391.5,255.5C 387.167,255.5 382.833,255.5 378.5,255.5C 376.5,254.833 374.5,254.167 372.5,253.5C 382.185,253.578 391.852,253.245 401.5,252.5 Z"/></g>
</svg>
