<?xml version="1.0" encoding="UTF-8"?>
<!DOCTYPE svg PUBLIC "-//W3C//DTD SVG 1.1//EN" "http://www.w3.org/Graphics/SVG/1.1/DTD/svg11.dtd">
<svg xmlns="http://www.w3.org/2000/svg" version="1.1" width="590px" height="256px" style="shape-rendering:geometricPrecision; text-rendering:geometricPrecision; image-rendering:optimizeQuality; fill-rule:evenodd; clip-rule:evenodd" xmlns:xlink="http://www.w3.org/1999/xlink">
<g><path style="opacity:1" fill="#b3b5b5" d="M 245.5,3.5 C 246.935,2.90353 248.602,2.90353 250.5,3.5C 250.5,4.5 250.5,5.5 250.5,6.5C 249.58,7.06744 249.246,6.40078 249.5,4.5C 248.041,4.56745 246.708,4.23411 245.5,3.5 Z"/></g>
<g><path style="opacity:1" fill="#cacbcb" d="M 245.5,3.5 C 245.34,5.15298 244.674,6.48631 243.5,7.5C 243.229,5.6203 243.896,4.28696 245.5,3.5 Z"/></g>
<g><path style="opacity:1" fill="#6a6b6c" d="M 243.5,7.5 C 243.664,10.1873 243.497,12.854 243,15.5C 242.667,15.1667 242.333,14.8333 242,14.5C 241.722,15.4158 241.222,16.0825 240.5,16.5C 240.928,13.2154 241.928,10.2154 243.5,7.5 Z"/></g>
<g><path style="opacity:1" fill="#acaeae" d="M 251.5,9.5 C 252.059,13.8526 252.725,18.186 253.5,22.5C 251.759,19.5184 250.759,16.185 250.5,12.5C 250.52,11.2739 250.853,10.2739 251.5,9.5 Z"/></g>
<g><path style="opacity:1" fill="#949696" d="M 240.5,16.5 C 240.605,20.2583 239.605,23.5917 237.5,26.5C 237.723,22.8379 238.723,19.5046 240.5,16.5 Z"/></g>
<g><path style="opacity:1" fill="#d3d3d3" d="M 253.5,23.5 C 254.931,24.7804 255.598,26.4471 255.5,28.5C 254.069,27.2196 253.402,25.5529 253.5,23.5 Z"/></g>
<g><path style="opacity:1" fill="#d0d0d0" d="M 237.5,26.5 C 237.706,29.4951 237.04,32.1617 235.5,34.5C 235.565,31.5718 236.232,28.9052 237.5,26.5 Z"/></g>
<g><path style="opacity:1" fill="#7c8082" d="M 499.5,35.5 C 499.139,39.9155 497.806,43.9155 495.5,47.5C 496.261,43.2157 497.595,39.2157 499.5,35.5 Z"/></g>
<g><path style="opacity:1" fill="#c1c1c1" d="M 441.5,40.5 C 442.947,39.1148 443.947,39.4482 444.5,41.5C 443.609,40.8902 442.609,40.5569 441.5,40.5 Z"/></g>
<g><path style="opacity:1" fill="#717172" d="M 258.5,36.5 C 260.341,38.8485 261.674,41.5152 262.5,44.5C 258.976,42.6032 257.643,39.9365 258.5,36.5 Z"/></g>
<g><path style="opacity:1" fill="#a7abaa" d="M 152.5,43.5 C 152.5,43.8333 152.5,44.1667 152.5,44.5C 152.771,46.3797 152.104,47.713 150.5,48.5C 150.796,46.597 151.463,44.9303 152.5,43.5 Z"/></g>
<g><path style="opacity:1" fill="#858888" d="M 439.5,43.5 C 439.408,45.8477 438.408,47.5144 436.5,48.5C 436.75,46.326 437.75,44.6594 439.5,43.5 Z"/></g>
<g><path style="opacity:1" fill="#69696d" d="M 444.5,41.5 C 446.368,46.0399 449.368,49.7065 453.5,52.5C 450.946,51.3944 448.279,50.561 445.5,50C 445.833,49.6667 446.167,49.3333 446.5,49C 445.133,46.6985 444.466,44.1985 444.5,41.5 Z"/></g>
<g><path style="opacity:1" fill="#cdcdcd" d="M 264.5,48.5 C 265.906,48.9731 266.573,49.9731 266.5,51.5C 265.094,51.0269 264.427,50.0269 264.5,48.5 Z"/></g>
<g><path style="opacity:1" fill="#97999c" d="M 495.5,47.5 C 495.15,52.5395 493.816,57.2062 491.5,61.5C 492.259,56.5695 493.592,51.9029 495.5,47.5 Z"/></g>
<g><path style="opacity:1" fill="#d9d9de" d="M 453.5,52.5 C 455.027,52.427 456.027,53.0937 456.5,54.5C 454.973,54.573 453.973,53.9063 453.5,52.5 Z"/></g>
<g><path style="opacity:1" fill="#cccdcd" d="M 399.5,56.5 C 386.848,53.7581 374.515,54.7581 362.5,59.5C 363.749,57.8639 365.416,56.6972 367.5,56C 377.434,53.3382 387.434,53.0049 397.5,55C 398.416,55.2784 399.082,55.7784 399.5,56.5 Z"/></g>
<g><path style="opacity:1" fill="#d5d5d5" d="M 456.5,54.5 C 458.027,54.427 459.027,55.0937 459.5,56.5C 457.973,56.573 456.973,55.9063 456.5,54.5 Z"/></g>
<g><path style="opacity:1" fill="#cbcfd0" d="M 269.5,57.5 C 270.906,57.9731 271.573,58.9731 271.5,60.5C 270.094,60.0269 269.427,59.0269 269.5,57.5 Z"/></g>
<g><path style="opacity:1" fill="#909191" d="M 115.5,57.5 C 114.744,61.767 113.411,65.767 111.5,69.5C 111.861,65.0845 113.194,61.0845 115.5,57.5 Z"/></g>
<g><path style="opacity:1" fill="#686b72" d="M 155.5,129.5 C 155.663,127.143 155.497,124.81 155,122.5C 154.346,123.696 153.846,123.696 153.5,122.5C 153.919,121.328 154.585,120.328 155.5,119.5C 156.666,94.5067 156.833,69.5067 156,44.5C 155.014,45.1712 153.847,45.1712 152.5,44.5C 152.5,44.1667 152.5,43.8333 152.5,43.5C 153.932,41.3531 155.765,41.0198 158,42.5C 158.667,65.8333 158.667,89.1667 158,112.5C 157.685,118.384 156.851,124.051 155.5,129.5 Z"/></g>
<g><path style="opacity:1" fill="#919497" d="M 118.5,50.5 C 119.919,49.5489 121.585,49.2155 123.5,49.5C 123.5,54.1667 123.5,58.8333 123.5,63.5C 122.515,59.3656 122.182,55.0323 122.5,50.5C 121.167,50.5 119.833,50.5 118.5,50.5 Z"/></g>
<g><path style="opacity:1" fill="#75787a" d="M 362.5,59.5 C 361.089,61.914 359.089,63.5806 356.5,64.5C 357.911,62.086 359.911,60.4194 362.5,59.5 Z"/></g>
<g><path style="opacity:1" fill="#232729" d="M 441.5,40.5 C 442.609,40.5569 443.609,40.8902 444.5,41.5C 444.466,44.1985 445.133,46.6985 446.5,49C 446.167,49.3333 445.833,49.6667 445.5,50C 448.279,50.561 450.946,51.3944 453.5,52.5C 453.973,53.9063 454.973,54.573 456.5,54.5C 456.973,55.9063 457.973,56.573 459.5,56.5C 465.152,59.8654 466.819,64.5321 464.5,70.5C 463.262,72.2143 462.595,74.2143 462.5,76.5C 461.353,81.1374 458.853,84.8041 455,87.5C 452.433,86.4131 449.933,85.4131 447.5,84.5C 441.659,81.6388 435.993,81.9721 430.5,85.5C 428.565,86.1495 426.565,86.4828 424.5,86.5C 424.378,89.2921 423.044,91.2921 420.5,92.5C 420.565,92.0618 420.399,91.7284 420,91.5C 418.352,92.717 416.519,93.5503 414.5,94C 415.337,95.0113 415.67,96.1779 415.5,97.5C 413.567,97.7286 411.9,98.5619 410.5,100C 412.932,101.087 412.598,101.587 409.5,101.5C 409.5,102.5 409.5,103.5 409.5,104.5C 409.027,105.906 408.027,106.573 406.5,106.5C 400.536,107.307 394.536,107.64 388.5,107.5C 387.508,107.672 386.842,107.338 386.5,106.5C 386.027,105.094 385.027,104.427 383.5,104.5C 380.905,104.04 379.238,105.374 378.5,108.5C 377.167,110.5 375.5,112.167 373.5,113.5C 372.07,113.579 370.736,113.246 369.5,112.5C 369.167,113 368.833,113.5 368.5,114C 368.892,115.011 369.559,115.511 370.5,115.5C 369.478,116.354 368.645,117.354 368,118.5C 366.506,117.253 365.006,117.253 363.5,118.5C 363.338,121.49 363.338,124.49 363.5,127.5C 362.883,127.611 362.383,127.944 362,128.5C 360.902,127.033 359.402,126.199 357.5,126C 359.014,124.561 359.347,123.061 358.5,121.5C 360.005,120.158 360.672,118.492 360.5,116.5C 361.906,116.027 362.573,115.027 362.5,113.5C 362.427,111.973 363.094,110.973 364.5,110.5C 365.906,110.027 366.573,109.027 366.5,107.5C 367.906,107.027 368.573,106.027 368.5,104.5C 370.587,103.415 371.92,101.749 372.5,99.5C 375.449,97.735 376.115,95.4017 374.5,92.5C 373.662,92.1583 373.328,91.4916 373.5,90.5C 373.293,87.7594 372.293,85.4261 370.5,83.5C 368.475,81.8036 366.475,80.137 364.5,78.5C 363.551,77.8476 362.385,77.5143 361,77.5C 358.779,77.3932 356.946,78.0598 355.5,79.5C 355.158,80.3382 354.492,80.6716 353.5,80.5C 349.623,80.5175 348.957,79.3508 351.5,77C 350.663,75.9887 350.33,74.8221 350.5,73.5C 351.723,69.9505 353.723,66.9505 356.5,64.5C 359.089,63.5806 361.089,61.914 362.5,59.5C 374.515,54.7581 386.848,53.7581 399.5,56.5C 401.749,57.0798 403.415,58.4131 404.5,60.5C 404.427,62.0269 405.094,63.0269 406.5,63.5C 407.16,64.964 407.493,66.6307 407.5,68.5C 407.618,71.4857 406.952,74.1524 405.5,76.5C 404.326,77.5137 403.66,78.847 403.5,80.5C 403.25,82.674 402.25,84.3406 400.5,85.5C 399.094,85.9731 398.427,86.9731 398.5,88.5C 398.5,89.1667 398.167,89.5 397.5,89.5C 393.123,92.241 393.623,93.5744 399,93.5C 402.207,93.2586 405.374,92.7586 408.5,92C 409.056,91.6174 409.389,91.1174 409.5,90.5C 411.466,89.5588 413.466,88.5588 415.5,87.5C 416.086,87.7093 416.586,88.0426 417,88.5C 417.195,87.1807 417.028,85.8474 416.5,84.5C 417.906,84.0269 418.573,83.0269 418.5,81.5C 418.833,80.5 419.5,79.8333 420.5,79.5C 421.906,79.0269 422.573,78.0269 422.5,76.5C 424.262,75.7377 425.262,74.4044 425.5,72.5C 428.167,70.5 430.5,68.1667 432.5,65.5C 432.578,59.4253 433.911,53.7587 436.5,48.5C 438.408,47.5144 439.408,45.8477 439.5,43.5C 439.427,41.9731 440.094,40.9731 441.5,40.5 Z"/></g>
<g><path style="opacity:1" fill="#9fa0a1" d="M 404.5,60.5 C 405.906,60.9731 406.573,61.9731 406.5,63.5C 405.094,63.0269 404.427,62.0269 404.5,60.5 Z"/></g>
<g><path style="opacity:1" fill="#bfc0c0" d="M 432.5,65.5 C 430.5,68.1667 428.167,70.5 425.5,72.5C 426.833,69.1667 429.167,66.8333 432.5,65.5 Z"/></g>
<g><path style="opacity:1" fill="#4d5051" d="M 273.5,64.5 C 276.008,68.1822 278.008,72.1822 279.5,76.5C 277.903,75.9095 276.569,74.9095 275.5,73.5C 274.914,73.7093 274.414,74.0426 274,74.5C 273.502,71.1832 273.335,67.8499 273.5,64.5 Z"/></g>
<g><path style="opacity:1" fill="#d0d3d6" d="M 464.5,70.5 C 464.741,72.8984 464.074,74.8984 462.5,76.5C 462.595,74.2143 463.262,72.2143 464.5,70.5 Z"/></g>
<g><path style="opacity:1" fill="#b3b3b5" d="M 425.5,72.5 C 425.262,74.4044 424.262,75.7377 422.5,76.5C 422.738,74.5956 423.738,73.2623 425.5,72.5 Z"/></g>
<g><path style="opacity:1" fill="#a4a4a5" d="M 502.5,35.5 C 503.993,36.3121 504.66,37.6455 504.5,39.5C 503.574,63.6552 502.574,87.6552 501.5,111.5C 501.5,111.167 501.5,110.833 501.5,110.5C 501.611,85.4964 501.945,60.4964 502.5,35.5 Z"/></g>
<g><path style="opacity:1" fill="#b8babb" d="M 364.5,78.5 C 361.455,78.5079 358.455,78.8413 355.5,79.5C 356.946,78.0598 358.779,77.3932 361,77.5C 362.385,77.5143 363.551,77.8476 364.5,78.5 Z"/></g>
<g><path style="opacity:1" fill="#d8dada" d="M 405.5,76.5 C 405.771,78.3797 405.104,79.713 403.5,80.5C 403.66,78.847 404.326,77.5137 405.5,76.5 Z"/></g>
<g><path style="opacity:1" fill="#8c8c8c" d="M 350.5,73.5 C 350.33,74.8221 350.663,75.9887 351.5,77C 348.957,79.3508 349.623,80.5175 353.5,80.5C 349,82.1632 347.5,80.4965 349,75.5C 349.278,74.5842 349.778,73.9175 350.5,73.5 Z"/></g>
<g><path style="opacity:1" fill="#bcbcbf" d="M 422.5,76.5 C 422.573,78.0269 421.906,79.0269 420.5,79.5C 420.427,77.9731 421.094,76.9731 422.5,76.5 Z"/></g>
<g><path style="opacity:1" fill="#bababb" d="M 110.5,73.5 C 110.831,95.673 110.497,117.673 109.5,139.5C 109.737,122.32 109.403,105.153 108.5,88C 108.65,82.9535 109.316,78.1202 110.5,73.5 Z"/></g>
<g><path style="opacity:1" fill="#babebe" d="M 418.5,81.5 C 418.573,83.0269 417.906,84.0269 416.5,84.5C 416.427,82.9731 417.094,81.9731 418.5,81.5 Z"/></g>
<g><path style="opacity:1" fill="#7e7f7f" d="M 281.5,81.5 C 282.931,82.7804 283.598,84.4471 283.5,86.5C 281.787,85.3646 281.12,83.698 281.5,81.5 Z"/></g>
<g><path style="opacity:1" fill="#c4c4c5" d="M 370.5,83.5 C 372.293,85.4261 373.293,87.7594 373.5,90.5C 371.707,88.5739 370.707,86.2406 370.5,83.5 Z"/></g>
<g><path style="opacity:1" fill="#afafaf" d="M 447.5,84.5 C 444.781,84.6025 442.115,84.2692 439.5,83.5C 436.521,84.3284 433.521,84.9951 430.5,85.5C 435.993,81.9721 441.659,81.6388 447.5,84.5 Z"/></g>
<g><path style="opacity:1" fill="#cececf" d="M 400.5,85.5 C 400.573,87.0269 399.906,88.0269 398.5,88.5C 398.427,86.9731 399.094,85.9731 400.5,85.5 Z"/></g>
<g><path style="opacity:1" fill="#636566" d="M 416.5,84.5 C 417.028,85.8474 417.195,87.1807 417,88.5C 416.586,88.0426 416.086,87.7093 415.5,87.5C 413.466,88.5588 411.466,89.5588 409.5,90.5C 411.607,88.2733 413.94,86.2733 416.5,84.5 Z"/></g>
<g><path style="opacity:1" fill="#b0b1b2" d="M 208.5,93.5 C 203.5,92.1667 198.5,92.1667 193.5,93.5C 195.634,91.9666 198.134,91.2999 201,91.5C 203.866,91.2999 206.366,91.9666 208.5,93.5 Z"/></g>
<g><path style="opacity:1" fill="#95969a" d="M 283.5,86.5 C 284.924,88.5145 285.59,90.8478 285.5,93.5C 283.837,91.5615 283.171,89.2282 283.5,86.5 Z"/></g>
<g><path style="opacity:1" fill="#b5b8b9" d="M 397.5,89.5 C 397.586,90.4959 397.252,91.3292 396.5,92C 400.91,92.3167 405.243,91.8167 409.5,90.5C 409.389,91.1174 409.056,91.6174 408.5,92C 405.374,92.7586 402.207,93.2586 399,93.5C 393.623,93.5744 393.123,92.241 397.5,89.5 Z"/></g>
<g><path style="opacity:1" fill="#99999a" d="M 430.5,85.5 C 427.192,88.4715 423.859,91.4715 420.5,94.5C 420.5,93.8333 420.5,93.1667 420.5,92.5C 423.044,91.2921 424.378,89.2921 424.5,86.5C 426.565,86.4828 428.565,86.1495 430.5,85.5 Z"/></g>
<g><path style="opacity:1" fill="#25292a" d="M 245.5,3.5 C 246.708,4.23411 248.041,4.56745 249.5,4.5C 249.246,6.40078 249.58,7.06744 250.5,6.5C 251.404,7.20895 251.737,8.20895 251.5,9.5C 250.853,10.2739 250.52,11.2739 250.5,12.5C 250.759,16.185 251.759,19.5184 253.5,22.5C 253.5,22.8333 253.5,23.1667 253.5,23.5C 253.402,25.5529 254.069,27.2196 255.5,28.5C 256.892,31.0067 257.892,33.6733 258.5,36.5C 257.643,39.9365 258.976,42.6032 262.5,44.5C 263.674,45.5137 264.34,46.847 264.5,48.5C 264.427,50.0269 265.094,51.0269 266.5,51.5C 268.008,53.1815 269.008,55.1815 269.5,57.5C 269.427,59.0269 270.094,60.0269 271.5,60.5C 272.674,61.5137 273.34,62.847 273.5,64.5C 273.335,67.8499 273.502,71.1832 274,74.5C 274.414,74.0426 274.914,73.7093 275.5,73.5C 276.569,74.9095 277.903,75.9095 279.5,76.5C 280.931,77.7804 281.598,79.4471 281.5,81.5C 281.12,83.698 281.787,85.3646 283.5,86.5C 283.171,89.2282 283.837,91.5615 285.5,93.5C 289.006,104.654 289.34,115.987 286.5,127.5C 285.069,128.78 284.402,130.447 284.5,132.5C 284.509,134.308 284.009,135.975 283,137.5C 281.629,140.266 279.796,142.599 277.5,144.5C 275.833,145.5 274.5,146.833 273.5,148.5C 273.167,149.5 272.5,150.167 271.5,150.5C 269.973,150.427 268.973,151.094 268.5,152.5C 268.158,153.338 267.492,153.672 266.5,153.5C 254.231,154.656 242.231,156.656 230.5,159.5C 227.048,161.257 225.048,160.09 224.5,156C 225.039,152.629 227.039,150.796 230.5,150.5C 232.027,150.573 233.027,149.906 233.5,148.5C 233.842,147.662 234.508,147.328 235.5,147.5C 237.674,147.25 239.341,146.25 240.5,144.5C 242.674,144.25 244.341,143.25 245.5,141.5C 247.027,141.573 248.027,140.906 248.5,139.5C 250.027,139.573 251.027,138.906 251.5,137.5C 253.027,137.573 254.027,136.906 254.5,135.5C 256.404,135.262 257.738,134.262 258.5,132.5C 261.089,131.581 263.089,129.914 264.5,127.5C 265.167,126.167 266.167,125.167 267.5,124.5C 269.587,123.415 270.92,121.749 271.5,119.5C 273.262,118.738 274.262,117.404 274.5,115.5C 274.992,113.181 275.992,111.181 277.5,109.5C 279.245,107.967 280.245,105.967 280.5,103.5C 280.662,101.473 280.495,99.4727 280,97.5C 279.617,96.944 279.117,96.6107 278.5,96.5C 277.833,96.5 277.5,96.1667 277.5,95.5C 277.573,93.9731 276.906,92.9731 275.5,92.5C 274.5,92.1667 273.833,91.5 273.5,90.5C 273.573,88.9731 272.906,87.9731 271.5,87.5C 269.478,85.4687 267.811,83.1354 266.5,80.5C 265.394,77.946 264.561,75.2794 264,72.5C 263.23,73.5981 262.397,73.5981 261.5,72.5C 261.249,70.8297 260.582,69.3297 259.5,68C 260.167,66.6667 260.833,65.3333 261.5,64C 260.256,63.5439 259.423,64.0439 259,65.5C 258.355,64.354 257.522,63.354 256.5,62.5C 257.729,61.7189 259.062,61.2189 260.5,61C 259.638,58.2656 258.805,58.0989 258,60.5C 256.134,59.4734 254.3,58.4734 252.5,57.5C 252.159,54.4842 250.993,51.8175 249,49.5C 247.681,60.4562 247.181,71.4562 247.5,82.5C 247.562,87.0758 246.895,91.4091 245.5,95.5C 243.246,100.261 241.58,105.261 240.5,110.5C 240.672,111.492 240.338,112.158 239.5,112.5C 238.094,112.973 237.427,113.973 237.5,115.5C 235.6,119.732 232.933,123.399 229.5,126.5C 227.596,126.738 226.262,127.738 225.5,129.5C 224.564,130.974 223.23,131.974 221.5,132.5C 220.5,132.5 219.5,132.5 218.5,132.5C 217.908,135.127 217.575,137.794 217.5,140.5C 215.72,141.99 215.054,143.99 215.5,146.5C 213.681,147.094 211.681,148.261 209.5,150C 211.376,150.918 212.376,152.418 212.5,154.5C 210.087,155.68 209.087,157.68 209.5,160.5C 207.438,160.997 205.271,161.33 203,161.5C 202.289,163.367 202.789,164.867 204.5,166C 202.808,167.401 202.141,169.234 202.5,171.5C 199.621,175.58 195.621,177.58 190.5,177.5C 182.515,178.331 174.515,178.998 166.5,179.5C 167.199,177.005 168.199,174.672 169.5,172.5C 171.674,172.25 173.341,171.25 174.5,169.5C 176.674,169.25 178.341,168.25 179.5,166.5C 179.842,165.662 180.508,165.328 181.5,165.5C 183.027,165.573 184.027,164.906 184.5,163.5C 184.842,162.662 185.508,162.328 186.5,162.5C 188.674,162.25 190.341,161.25 191.5,159.5C 193.027,159.573 194.027,158.906 194.5,157.5C 196.027,157.573 197.027,156.906 197.5,155.5C 199.027,155.573 200.027,154.906 200.5,153.5C 202.404,153.262 203.738,152.262 204.5,150.5C 207.167,149.833 208.833,148.167 209.5,145.5C 213.005,139.057 211.005,136.557 203.5,138C 204.598,138.77 204.598,139.603 203.5,140.5C 199.05,142.676 194.383,143.01 189.5,141.5C 189.027,140.094 188.027,139.427 186.5,139.5C 186.027,138.094 185.027,137.427 183.5,137.5C 183.34,135.847 182.674,134.514 181.5,133.5C 180.566,132.432 180.232,131.099 180.5,129.5C 180.993,127.194 181.326,124.861 181.5,122.5C 182.117,122.389 182.617,122.056 183,121.5C 184.143,118.223 184.977,114.89 185.5,111.5C 185.928,108.215 186.928,105.215 188.5,102.5C 190.241,100.605 191.241,98.2718 191.5,95.5C 191.5,94.1667 192.167,93.5 193.5,93.5C 198.5,92.1667 203.5,92.1667 208.5,93.5C 209.833,95.5 211.5,97.1667 213.5,98.5C 213.427,100.027 214.094,101.027 215.5,101.5C 215.12,103.698 215.787,105.365 217.5,106.5C 216.908,109.641 217.908,111.974 220.5,113.5C 222.038,113.547 223.038,112.88 223.5,111.5C 226.5,110.5 228.5,108.5 229.5,105.5C 232.671,103.481 234.004,100.481 233.5,96.5C 234.142,75.8223 234.809,55.1556 235.5,34.5C 237.04,32.1617 237.706,29.4951 237.5,26.5C 239.605,23.5917 240.605,20.2583 240.5,16.5C 241.222,16.0825 241.722,15.4158 242,14.5C 242.333,14.8333 242.667,15.1667 243,15.5C 243.497,12.854 243.664,10.1873 243.5,7.5C 244.674,6.48631 245.34,5.15298 245.5,3.5 Z"/></g>
<g><path style="opacity:1" fill="#d3d3d3" d="M 271.5,87.5 C 272.906,87.9731 273.573,88.9731 273.5,90.5C 272.094,90.0269 271.427,89.0269 271.5,87.5 Z"/></g>
<g><path style="opacity:1" fill="#77787a" d="M 261.5,72.5 C 262.397,73.5981 263.23,73.5981 264,72.5C 264.561,75.2794 265.394,77.946 266.5,80.5C 264.05,78.3709 262.383,75.7043 261.5,72.5 Z"/></g>
<g><path style="opacity:1" fill="#c0c1c1" d="M 252.5,57.5 C 251.442,56.3998 250.608,55.0664 250,53.5C 249.667,54.8333 249.333,56.1667 249,57.5C 248.829,66.0101 248.329,74.3434 247.5,82.5C 247.181,71.4562 247.681,60.4562 249,49.5C 250.993,51.8175 252.159,54.4842 252.5,57.5 Z"/></g>
<g><path style="opacity:1" fill="#515353" d="M 252.5,57.5 C 254.3,58.4734 256.134,59.4734 258,60.5C 258.805,58.0989 259.638,58.2656 260.5,61C 259.062,61.2189 257.729,61.7189 256.5,62.5C 257.522,63.354 258.355,64.354 259,65.5C 259.423,64.0439 260.256,63.5439 261.5,64C 260.833,65.3333 260.167,66.6667 259.5,68C 260.582,69.3297 261.249,70.8297 261.5,72.5C 257.76,68.0333 254.76,63.0333 252.5,57.5 Z"/></g>
<g><path style="opacity:1" fill="#d0d0d3" d="M 208.5,93.5 C 211.167,94.1667 212.833,95.8333 213.5,98.5C 211.5,97.1667 209.833,95.5 208.5,93.5 Z"/></g>
<g><path style="opacity:1" fill="#d2d2d3" d="M 275.5,92.5 C 276.906,92.9731 277.573,93.9731 277.5,95.5C 276.094,95.0269 275.427,94.0269 275.5,92.5 Z"/></g>
<g><path style="opacity:1" fill="#484a4b" d="M 420.5,92.5 C 420.5,93.1667 420.5,93.8333 420.5,94.5C 417.437,98.5658 413.771,101.899 409.5,104.5C 409.5,103.5 409.5,102.5 409.5,101.5C 412.598,101.587 412.932,101.087 410.5,100C 411.9,98.5619 413.567,97.7286 415.5,97.5C 415.67,96.1779 415.337,95.0113 414.5,94C 416.519,93.5503 418.352,92.717 420,91.5C 420.399,91.7284 420.565,92.0618 420.5,92.5 Z"/></g>
<g><path style="opacity:1" fill="#262a2c" d="M 502.5,35.5 C 501.945,60.4964 501.611,85.4964 501.5,110.5C 500.167,116.167 500.167,121.833 501.5,127.5C 502.412,132.395 503.412,137.395 504.5,142.5C 504.738,144.404 505.738,145.738 507.5,146.5C 508.492,146.328 509.158,146.662 509.5,147.5C 511.296,150.048 512.962,150.048 514.5,147.5C 514.263,146.209 514.596,145.209 515.5,144.5C 518.149,139.21 519.816,133.543 520.5,127.5C 522.266,119.968 525.599,113.301 530.5,107.5C 532.5,106.167 534.167,104.5 535.5,102.5C 541.169,99.7227 547.169,98.3893 553.5,98.5C 557.491,100.606 561.824,101.939 566.5,102.5C 570.167,102.5 573.833,102.5 577.5,102.5C 579.167,102.5 580.833,102.5 582.5,102.5C 583.234,103.708 583.567,105.041 583.5,106.5C 583.5,107.167 583.167,107.5 582.5,107.5C 581.094,107.973 580.427,108.973 580.5,110.5C 579.488,111.872 578.488,113.205 577.5,114.5C 575.549,114.227 574.049,114.893 573,116.5C 572.282,115.549 571.449,115.383 570.5,116C 571.728,117.49 571.728,118.99 570.5,120.5C 568.896,121.287 568.229,122.62 568.5,124.5C 566.341,130.151 563.674,135.484 560.5,140.5C 559.094,140.973 558.427,141.973 558.5,143.5C 557.277,147.049 555.277,150.049 552.5,152.5C 550.914,152.693 549.247,153.027 547.5,153.5C 548.246,154.736 548.579,156.07 548.5,157.5C 547.094,157.973 546.427,158.973 546.5,160.5C 546.5,161.167 546.167,161.5 545.5,161.5C 541.648,161.682 539.315,163.682 538.5,167.5C 538.167,168.5 537.5,169.167 536.5,169.5C 533.541,170.536 530.374,170.536 527,169.5C 526.685,171.586 526.185,173.586 525.5,175.5C 522.572,175.565 519.905,176.232 517.5,177.5C 511.677,177.877 506.011,177.21 500.5,175.5C 499.5,173.833 498.167,172.5 496.5,171.5C 493.793,168.753 492.127,165.42 491.5,161.5C 491.247,157.96 490.581,154.627 489.5,151.5C 487.971,141.546 487.305,131.38 487.5,121C 487.682,106.489 488.182,91.9891 489,77.5C 489.249,71.9355 490.082,66.6022 491.5,61.5C 493.816,57.2062 495.15,52.5395 495.5,47.5C 497.806,43.9155 499.139,39.9155 499.5,35.5C 500.5,34.1667 501.5,34.1667 502.5,35.5 Z M 551.5,117.5 C 553.905,118.768 556.572,119.435 559.5,119.5C 560.11,120.391 560.443,121.391 560.5,122.5C 558.738,123.262 557.738,124.596 557.5,126.5C 555.738,127.262 554.738,128.596 554.5,130.5C 550.141,134.528 545.807,138.528 541.5,142.5C 537.461,144.519 533.461,146.519 529.5,148.5C 526.941,148.802 524.607,148.468 522.5,147.5C 525.283,139.83 528.283,132.163 531.5,124.5C 532.906,124.027 533.573,123.027 533.5,121.5C 538.875,117.871 544.875,116.538 551.5,117.5 Z"/></g>
<g><path style="opacity:1" fill="#dcdcdc" d="M 278.5,96.5 C 279.117,96.6107 279.617,96.944 280,97.5C 280.495,99.4727 280.662,101.473 280.5,103.5C 280.167,103.5 279.833,103.5 279.5,103.5C 279.552,101.097 279.219,98.7638 278.5,96.5 Z"/></g>
<g><path style="opacity:1" fill="#bdc0c0" d="M 374.5,92.5 C 376.115,95.4017 375.449,97.735 372.5,99.5C 373.933,97.4418 374.6,95.1085 374.5,92.5 Z"/></g>
<g><path style="opacity:1" fill="#d0d1d2" d="M 553.5,98.5 C 558.16,99.0091 562.493,100.342 566.5,102.5C 561.824,101.939 557.491,100.606 553.5,98.5 Z"/></g>
<g><path style="opacity:1" fill="#96999b" d="M 191.5,95.5 C 191.241,98.2718 190.241,100.605 188.5,102.5C 188.552,99.6538 189.552,97.3204 191.5,95.5 Z"/></g>
<g><path style="opacity:1" fill="#c9cbcb" d="M 213.5,98.5 C 214.906,98.9731 215.573,99.9731 215.5,101.5C 214.094,101.027 213.427,100.027 213.5,98.5 Z"/></g>
<g><path style="opacity:1" fill="#d3d4d4" d="M 553.5,98.5 C 547.169,98.3893 541.169,99.7227 535.5,102.5C 540.867,98.0386 546.867,96.7053 553.5,98.5 Z"/></g>
<g><path style="opacity:1" fill="#a6a6a7" d="M 582.5,102.5 C 580.833,102.5 579.167,102.5 577.5,102.5C 579.286,100.078 580.952,100.078 582.5,102.5 Z"/></g>
<g><path style="opacity:1" fill="#afafb1" d="M 372.5,99.5 C 371.92,101.749 370.587,103.415 368.5,104.5C 369.08,102.251 370.413,100.585 372.5,99.5 Z"/></g>
<g><path style="opacity:1" fill="#909294" d="M 215.5,101.5 C 216.931,102.78 217.598,104.447 217.5,106.5C 215.787,105.365 215.12,103.698 215.5,101.5 Z"/></g>
<g><path style="opacity:1" fill="#6c6e6e" d="M 233.5,96.5 C 234.004,100.481 232.671,103.481 229.5,105.5C 230.597,102.314 231.93,99.3135 233.5,96.5 Z"/></g>
<g><path style="opacity:1" fill="#898b8c" d="M 245.5,95.5 C 244.806,100.915 243.14,105.915 240.5,110.5C 241.58,105.261 243.246,100.261 245.5,95.5 Z"/></g>
<g><path style="opacity:1" fill="#d3d3d3" d="M 383.5,104.5 C 381.833,105.833 380.167,107.167 378.5,108.5C 379.238,105.374 380.905,104.04 383.5,104.5 Z"/></g>
<g><path style="opacity:1" fill="#cacaca" d="M 582.5,102.5 C 583.586,102.62 584.253,103.287 584.5,104.5C 584.457,105.416 584.124,106.083 583.5,106.5C 583.567,105.041 583.234,103.708 582.5,102.5 Z"/></g>
<g><path style="opacity:1" fill="#b8bdbd" d="M 383.5,104.5 C 385.027,104.427 386.027,105.094 386.5,106.5C 384.973,106.573 383.973,105.906 383.5,104.5 Z"/></g>
<g><path style="opacity:1" fill="#b1b1b2" d="M 368.5,104.5 C 368.573,106.027 367.906,107.027 366.5,107.5C 366.427,105.973 367.094,104.973 368.5,104.5 Z"/></g>
<g><path style="opacity:1" fill="#a6a9aa" d="M 535.5,102.5 C 534.167,104.5 532.5,106.167 530.5,107.5C 531.167,104.833 532.833,103.167 535.5,102.5 Z"/></g>
<g><path style="opacity:1" fill="#777777" d="M 279.5,103.5 C 279.833,103.5 280.167,103.5 280.5,103.5C 280.245,105.967 279.245,107.967 277.5,109.5C 277.595,107.214 278.262,105.214 279.5,103.5 Z"/></g>
<g><path style="opacity:1" fill="#c0c0c1" d="M 406.5,106.5 C 403.305,108.03 399.805,108.696 396,108.5C 393.31,108.497 390.81,108.164 388.5,107.5C 394.536,107.64 400.536,107.307 406.5,106.5 Z"/></g>
<g><path style="opacity:1" fill="#9c9c9c" d="M 366.5,107.5 C 366.573,109.027 365.906,110.027 364.5,110.5C 364.427,108.973 365.094,107.973 366.5,107.5 Z"/></g>
<g><path style="opacity:1" fill="#cbcdcd" d="M 582.5,107.5 C 582.573,109.027 581.906,110.027 580.5,110.5C 580.427,108.973 581.094,107.973 582.5,107.5 Z"/></g>
<g><path style="opacity:1" fill="#bbbbbc" d="M 229.5,105.5 C 228.5,108.5 226.5,110.5 223.5,111.5C 225.167,109.167 227.167,107.167 229.5,105.5 Z"/></g>
<g><path style="opacity:1" fill="#cacccd" d="M 217.5,106.5 C 218.199,108.556 219.199,110.556 220.5,112.5C 221.417,111.873 222.417,111.539 223.5,111.5C 223.038,112.88 222.038,113.547 220.5,113.5C 217.908,111.974 216.908,109.641 217.5,106.5 Z"/></g>
<g><path style="opacity:1" fill="#8d8e91" d="M 53.5,115.5 C 48.3561,113.736 43.0228,113.069 37.5,113.5C 41.5984,111.045 45.9317,110.878 50.5,113C 51.9423,113.377 52.9423,114.21 53.5,115.5 Z"/></g>
<g><path style="opacity:1" fill="#a3a6a7" d="M 239.5,112.5 C 239.573,114.027 238.906,115.027 237.5,115.5C 237.427,113.973 238.094,112.973 239.5,112.5 Z"/></g>
<g><path style="opacity:1" fill="#bbc1c1" d="M 53.5,115.5 C 56.1667,116.167 57.8333,117.833 58.5,120.5C 56.5,119.167 54.8333,117.5 53.5,115.5 Z"/></g>
<g><path style="opacity:1" fill="#acacac" d="M 362.5,113.5 C 362.573,115.027 361.906,116.027 360.5,116.5C 360.427,114.973 361.094,113.973 362.5,113.5 Z"/></g>
<g><path style="opacity:1" fill="#5b5d5e" d="M 577.5,114.5 C 575.761,117.243 573.427,119.243 570.5,120.5C 571.728,118.99 571.728,117.49 570.5,116C 571.449,115.383 572.282,115.549 573,116.5C 574.049,114.893 575.549,114.227 577.5,114.5 Z"/></g>
<g><path style="opacity:1" fill="#a2a2a4" d="M 185.5,111.5 C 184.977,114.89 184.143,118.223 183,121.5C 182.617,122.056 182.117,122.389 181.5,122.5C 182.065,118.463 183.399,114.797 185.5,111.5 Z"/></g>
<g><path style="opacity:1" fill="#abaeaf" d="M 274.5,115.5 C 274.262,117.404 273.262,118.738 271.5,119.5C 271.738,117.596 272.738,116.262 274.5,115.5 Z"/></g>
<g><path style="opacity:1" fill="#404345" d="M 373.5,113.5 C 370.547,118.45 367.214,123.117 363.5,127.5C 363.338,124.49 363.338,121.49 363.5,118.5C 365.006,117.253 366.506,117.253 368,118.5C 368.645,117.354 369.478,116.354 370.5,115.5C 369.559,115.511 368.892,115.011 368.5,114C 368.833,113.5 369.167,113 369.5,112.5C 370.736,113.246 372.07,113.579 373.5,113.5 Z"/></g>
<g><path style="opacity:1" fill="#a7a7a7" d="M 551.5,117.5 C 554.495,117.294 557.162,117.96 559.5,119.5C 556.572,119.435 553.905,118.768 551.5,117.5 Z"/></g>
<g><path style="opacity:1" fill="#a5a6a7" d="M 35.5,114.5 C 33.8333,116.833 31.8333,118.833 29.5,120.5C 30.5,117.5 32.5,115.5 35.5,114.5 Z"/></g>
<g><path style="opacity:1" fill="#e6e7e7" d="M 559.5,119.5 C 561.552,120.053 561.885,121.053 560.5,122.5C 560.443,121.391 560.11,120.391 559.5,119.5 Z"/></g>
<g><path style="opacity:1" fill="#7d7d80" d="M 501.5,110.5 C 501.5,110.833 501.5,111.167 501.5,111.5C 501.916,116.912 501.916,122.245 501.5,127.5C 500.167,121.833 500.167,116.167 501.5,110.5 Z"/></g>
<g><path style="opacity:1" fill="#afb1b3" d="M 271.5,119.5 C 270.92,121.749 269.587,123.415 267.5,124.5C 268.08,122.251 269.413,120.585 271.5,119.5 Z"/></g>
<g><path style="opacity:1" fill="#d0d0d0" d="M 533.5,121.5 C 533.573,123.027 532.906,124.027 531.5,124.5C 531.427,122.973 532.094,121.973 533.5,121.5 Z"/></g>
<g><path style="opacity:1" fill="#c5cac6" d="M 570.5,120.5 C 570.34,122.153 569.674,123.486 568.5,124.5C 568.229,122.62 568.896,121.287 570.5,120.5 Z"/></g>
<g><path style="opacity:1" fill="#a3a6a5" d="M 560.5,122.5 C 560.262,124.404 559.262,125.738 557.5,126.5C 557.738,124.596 558.738,123.262 560.5,122.5 Z"/></g>
<g><path style="opacity:1" fill="#919394" d="M 59.5,122.5 C 62.1667,125.167 62.1667,127.833 59.5,130.5C 59.5,127.833 59.5,125.167 59.5,122.5 Z"/></g>
<g><path style="opacity:1" fill="#b4b4b4" d="M 181.5,122.5 C 181.326,124.861 180.993,127.194 180.5,129.5C 179.355,127.047 179.688,124.713 181.5,122.5 Z"/></g>
<g><path style="opacity:1" fill="#404446" d="M 360.5,116.5 C 360.672,118.492 360.005,120.158 358.5,121.5C 359.347,123.061 359.014,124.561 357.5,126C 359.402,126.199 360.902,127.033 362,128.5C 362.383,127.944 362.883,127.611 363.5,127.5C 362.416,130.004 361.083,132.337 359.5,134.5C 358.949,132.135 358.116,129.801 357,127.5C 356.667,128.167 356.333,128.833 356,129.5C 355.329,128.748 354.496,128.414 353.5,128.5C 355.332,124.164 357.665,120.164 360.5,116.5 Z"/></g>
<g><path style="opacity:1" fill="#9b9d9f" d="M 557.5,126.5 C 557.262,128.404 556.262,129.738 554.5,130.5C 554.738,128.596 555.738,127.262 557.5,126.5 Z"/></g>
<g><path style="opacity:1" fill="#b4b6b4" d="M 229.5,126.5 C 228.738,128.262 227.404,129.262 225.5,129.5C 226.262,127.738 227.596,126.738 229.5,126.5 Z"/></g>
<g><path style="opacity:1" fill="#b2b2b4" d="M 264.5,127.5 C 263.089,129.914 261.089,131.581 258.5,132.5C 259.911,130.086 261.911,128.419 264.5,127.5 Z"/></g>
<g><path style="opacity:1" fill="#bec0c1" d="M 286.5,127.5 C 286.598,129.553 285.931,131.22 284.5,132.5C 284.402,130.447 285.069,128.78 286.5,127.5 Z"/></g>
<g><path style="opacity:1" fill="#6b6e6e" d="M 34.5,128.5 C 30.9823,131.209 29.3156,134.876 29.5,139.5C 28.79,137.107 28.1233,134.607 27.5,132C 28.448,131.517 29.448,131.351 30.5,131.5C 30.5,130.5 30.5,129.5 30.5,128.5C 31.8333,128.5 33.1667,128.5 34.5,128.5 Z"/></g>
<g><path style="opacity:1" fill="#878b8c" d="M 520.5,127.5 C 519.816,133.543 518.149,139.21 515.5,144.5C 516.592,138.567 518.259,132.9 520.5,127.5 Z"/></g>
<g><path style="opacity:1" fill="#d2d3d8" d="M 221.5,132.5 C 219.59,134.906 218.257,137.572 217.5,140.5C 217.575,137.794 217.908,135.127 218.5,132.5C 219.5,132.5 220.5,132.5 221.5,132.5 Z"/></g>
<g><path style="opacity:1" fill="#bbbbbb" d="M 258.5,132.5 C 257.738,134.262 256.404,135.262 254.5,135.5C 255.262,133.738 256.596,132.738 258.5,132.5 Z"/></g>
<g><path style="opacity:1" fill="#c2c2c2" d="M 181.5,133.5 C 182.674,134.514 183.34,135.847 183.5,137.5C 181.896,136.713 181.229,135.38 181.5,133.5 Z"/></g>
<g><path style="opacity:1" fill="#bfbfc2" d="M 254.5,135.5 C 254.027,136.906 253.027,137.573 251.5,137.5C 251.973,136.094 252.973,135.427 254.5,135.5 Z"/></g>
<g><path style="opacity:1" fill="#565859" d="M 353.5,128.5 C 352.587,130.086 352.587,131.586 353.5,133C 352.636,135.071 351.303,136.738 349.5,138C 349.616,139.268 349.949,140.602 350.5,142C 349.552,142.483 348.552,142.649 347.5,142.5C 347.127,146.524 345.46,149.857 342.5,152.5C 345.125,143.923 348.792,135.923 353.5,128.5 Z"/></g>
<g><path style="opacity:1" fill="#636566" d="M 26.5,125.5 C 26.6126,128.049 25.9459,130.382 24.5,132.5C 24.7093,133.086 25.0426,133.586 25.5,134C 23.7211,137.443 21.5544,140.61 19,143.5C 18.5014,147.152 18.3347,150.818 18.5,154.5C 16.0545,150.741 15.8878,146.741 18,142.5C 20.3365,136.494 23.1699,130.827 26.5,125.5 Z"/></g>
<g><path style="opacity:1" fill="#5d5f60" d="M 554.5,130.5 C 554.249,132.17 553.582,133.67 552.5,135C 553.34,136.666 552.84,136.833 551,135.5C 547.967,138.036 544.8,140.369 541.5,142.5C 545.807,138.528 550.141,134.528 554.5,130.5 Z"/></g>
<g><path style="opacity:1" fill="#a5a5a8" d="M 183.5,137.5 C 185.027,137.427 186.027,138.094 186.5,139.5C 184.973,139.573 183.973,138.906 183.5,137.5 Z"/></g>
<g><path style="opacity:1" fill="#cbcbcd" d="M 251.5,137.5 C 251.027,138.906 250.027,139.573 248.5,139.5C 248.973,138.094 249.973,137.427 251.5,137.5 Z"/></g>
<g><path style="opacity:1" fill="#cccccc" d="M 186.5,139.5 C 188.027,139.427 189.027,140.094 189.5,141.5C 187.973,141.573 186.973,140.906 186.5,139.5 Z"/></g>
<g><path style="opacity:1" fill="#a5a5a8" d="M 209.5,145.5 C 211.322,138.982 209.322,137.315 203.5,140.5C 204.598,139.603 204.598,138.77 203.5,138C 211.005,136.557 213.005,139.057 209.5,145.5 Z"/></g>
<g><path style="opacity:1" fill="#bdbdbd" d="M 248.5,139.5 C 248.027,140.906 247.027,141.573 245.5,141.5C 245.973,140.094 246.973,139.427 248.5,139.5 Z"/></g>
<g><path style="opacity:1" fill="#cecece" d="M 29.5,139.5 C 30.9063,139.973 31.573,140.973 31.5,142.5C 30.0937,142.027 29.427,141.027 29.5,139.5 Z"/></g>
<g><path style="opacity:1" fill="#757779" d="M 217.5,140.5 C 217.405,142.786 216.738,144.786 215.5,146.5C 215.054,143.99 215.72,141.99 217.5,140.5 Z"/></g>
<g><path style="opacity:1" fill="#cfcfd0" d="M 245.5,141.5 C 244.341,143.25 242.674,144.25 240.5,144.5C 241.659,142.75 243.326,141.75 245.5,141.5 Z"/></g>
<g><path style="opacity:1" fill="#bebfc2" d="M 560.5,140.5 C 560.573,142.027 559.906,143.027 558.5,143.5C 558.427,141.973 559.094,140.973 560.5,140.5 Z"/></g>
<g><path style="opacity:1" fill="#959698" d="M 71.5,140.5 C 63.6773,143.106 55.6773,145.106 47.5,146.5C 47.5,146.167 47.5,145.833 47.5,145.5C 53.958,144.182 60.2913,142.348 66.5,140C 68.3869,139.22 70.0536,139.387 71.5,140.5 Z"/></g>
<g><path style="opacity:1" fill="#b0b1b1" d="M 504.5,142.5 C 506.262,143.262 507.262,144.596 507.5,146.5C 505.738,145.738 504.738,144.404 504.5,142.5 Z"/></g>
<g><path style="opacity:1" fill="#cacacb" d="M 240.5,144.5 C 239.341,146.25 237.674,147.25 235.5,147.5C 236.659,145.75 238.326,144.75 240.5,144.5 Z"/></g>
<g><path style="opacity:1" fill="#c1c1c3" d="M 152.5,143.5 C 152.598,145.553 151.931,147.22 150.5,148.5C 150.402,146.447 151.069,144.78 152.5,143.5 Z"/></g>
<g><path style="opacity:1" fill="#d2d3d3" d="M 277.5,144.5 C 277.167,146.833 275.833,148.167 273.5,148.5C 274.5,146.833 275.833,145.5 277.5,144.5 Z"/></g>
<g><path style="opacity:1" fill="#9d9fa0" d="M 108.5,144.5 C 108.59,147.152 107.924,149.485 106.5,151.5C 106.41,148.848 107.076,146.515 108.5,144.5 Z"/></g>
<g><path style="opacity:1" fill="#5f6163" d="M 541.5,142.5 C 538.909,147.129 534.909,149.129 529.5,148.5C 533.461,146.519 537.461,144.519 541.5,142.5 Z"/></g>
<g><path style="opacity:1" fill="#222528" d="M 37.5,113.5 C 43.0228,113.069 48.3561,113.736 53.5,115.5C 54.8333,117.5 56.5,119.167 58.5,120.5C 59.3382,120.842 59.6716,121.508 59.5,122.5C 59.5,125.167 59.5,127.833 59.5,130.5C 58.625,132.806 57.2916,133.473 55.5,132.5C 55.1667,130.167 53.8333,128.833 51.5,128.5C 50.5084,128.672 49.8417,128.338 49.5,127.5C 47.7103,126.003 45.5437,125.336 43,125.5C 41.2933,125.508 39.7933,125.842 38.5,126.5C 37.4863,127.674 36.153,128.34 34.5,128.5C 33.1667,128.5 31.8333,128.5 30.5,128.5C 30.5,129.5 30.5,130.5 30.5,131.5C 29.448,131.351 28.448,131.517 27.5,132C 28.1233,134.607 28.79,137.107 29.5,139.5C 29.427,141.027 30.0937,142.027 31.5,142.5C 32.3602,144.614 34.0268,145.78 36.5,146C 40.1516,146.499 43.8183,146.665 47.5,146.5C 55.6773,145.106 63.6773,143.106 71.5,140.5C 72.1786,144.149 71.1786,147.483 68.5,150.5C 65.7205,153.014 62.3872,155.681 58.5,158.5C 55.6748,158.838 53.5082,157.838 52,155.5C 51.5,156 51,156.5 50.5,157C 51.731,158.183 51.731,159.349 50.5,160.5C 49.8333,160.167 49.1667,159.833 48.5,159.5C 47.6114,161.007 46.6114,162.34 45.5,163.5C 43.4471,163.402 41.7804,164.069 40.5,165.5C 38.4907,167.065 36.1573,168.065 33.5,168.5C 30.911,168.461 28.911,169.461 27.5,171.5C 26.3285,172.345 24.9952,173.011 23.5,173.5C 22.0413,173.433 20.7079,173.766 19.5,174.5C 19.1034,173.475 18.4368,173.308 17.5,174C 16.0107,175.468 14.6774,176.968 13.5,178.5C 13.5,179.167 13.1667,179.5 12.5,179.5C 9.16667,179.5 7.5,177.833 7.5,174.5C 8.5,172.833 9.83333,171.5 11.5,170.5C 13.1667,169.5 14.5,168.167 15.5,166.5C 18.0892,165.581 20.0892,163.914 21.5,161.5C 24.1357,159.079 23.469,157.412 19.5,156.5C 18.6618,156.158 18.3284,155.492 18.5,154.5C 18.3347,150.818 18.5014,147.152 19,143.5C 21.5544,140.61 23.7211,137.443 25.5,134C 25.0426,133.586 24.7093,133.086 24.5,132.5C 25.9459,130.382 26.6126,128.049 26.5,125.5C 26.7497,123.326 27.7497,121.659 29.5,120.5C 31.8333,118.833 33.8333,116.833 35.5,114.5C 35.8417,113.662 36.5084,113.328 37.5,113.5 Z"/></g>
<g><path style="opacity:1" fill="#dbdbdc" d="M 31.5,142.5 C 36.485,145.07 41.8183,146.07 47.5,145.5C 47.5,145.833 47.5,146.167 47.5,146.5C 43.8183,146.665 40.1516,146.499 36.5,146C 34.0268,145.78 32.3602,144.614 31.5,142.5 Z"/></g>
<g><path style="opacity:1" fill="#aeaeae" d="M 51.5,128.5 C 53.8333,128.833 55.1667,130.167 55.5,132.5C 53.8333,131.5 52.5,130.167 51.5,128.5 Z"/></g>
<g><path style="opacity:1" fill="#b9b9ba" d="M 38.5,126.5 C 39.7933,125.842 41.2933,125.508 43,125.5C 45.5437,125.336 47.7103,126.003 49.5,127.5C 45.8815,126.756 42.2148,126.423 38.5,126.5 Z"/></g>
<g><path style="opacity:1" fill="#212527" d="M 152.5,44.5 C 153.847,45.1712 155.014,45.1712 156,44.5C 156.833,69.5067 156.666,94.5067 155.5,119.5C 154.585,120.328 153.919,121.328 153.5,122.5C 153.846,123.696 154.346,123.696 155,122.5C 155.497,124.81 155.663,127.143 155.5,129.5C 155.419,134.477 154.419,139.143 152.5,143.5C 151.069,144.78 150.402,146.447 150.5,148.5C 148.478,149.507 147.145,151.174 146.5,153.5C 145.914,153.291 145.414,152.957 145,152.5C 143.788,155.216 143.621,157.883 144.5,160.5C 142.488,161.228 140.488,162.062 138.5,163C 140.878,163.974 140.544,164.641 137.5,165C 138.833,166.84 138.666,167.34 137,166.5C 136.51,167.793 136.343,169.127 136.5,170.5C 133.557,169.741 131.89,171.074 131.5,174.5C 128.982,175.264 126.649,176.264 124.5,177.5C 118.333,177.329 112.333,176.329 106.5,174.5C 106.027,173.094 105.027,172.427 103.5,172.5C 103.027,171.094 102.027,170.427 100.5,170.5C 99.7377,168.738 98.4044,167.738 96.5,167.5C 95.9,164.702 94.9,162.035 93.5,159.5C 97.3125,158.833 100.979,158.166 104.5,157.5C 106.074,155.898 106.741,153.898 106.5,151.5C 107.924,149.485 108.59,147.152 108.5,144.5C 108.216,142.585 108.549,140.919 109.5,139.5C 110.497,117.673 110.831,95.673 110.5,73.5C 110.232,71.901 110.566,70.5676 111.5,69.5C 113.411,65.767 114.744,61.767 115.5,57.5C 115.707,54.7594 116.707,52.4261 118.5,50.5C 119.833,50.5 121.167,50.5 122.5,50.5C 122.182,55.0323 122.515,59.3656 123.5,63.5C 123.5,63.8333 123.5,64.1667 123.5,64.5C 123.748,85.1843 123.415,105.851 122.5,126.5C 122.58,129.781 121.913,132.781 120.5,135.5C 119.394,136.149 118.394,136.483 117.5,136.5C 118.357,139.451 118.357,142.451 117.5,145.5C 117.405,147.786 116.738,149.786 115.5,151.5C 114.069,152.78 113.402,154.447 113.5,156.5C 120.579,156.817 126.912,155.15 132.5,151.5C 134.632,151.446 135.965,150.446 136.5,148.5C 137.864,146.809 139.197,145.142 140.5,143.5C 142.104,142.713 142.771,141.38 142.5,139.5C 144.28,138.01 144.946,136.01 144.5,133.5C 145.579,130.383 146.246,127.05 146.5,123.5C 145.125,104.165 144.791,84.8321 145.5,65.5C 145.232,63.901 145.566,62.5676 146.5,61.5C 148.163,59.5615 148.829,57.2282 148.5,54.5C 148.971,52.4214 149.637,50.4214 150.5,48.5C 152.104,47.713 152.771,46.3797 152.5,44.5 Z"/></g>
<g><path style="opacity:1" fill="#c5c5c5" d="M 142.5,139.5 C 142.771,141.38 142.104,142.713 140.5,143.5C 140.66,141.847 141.326,140.514 142.5,139.5 Z"/></g>
<g><path style="opacity:1" fill="#9b9b9d" d="M 144.5,133.5 C 144.946,136.01 144.28,138.01 142.5,139.5C 142.875,137.302 143.542,135.302 144.5,133.5 Z"/></g>
<g><path style="opacity:1" fill="#676969" d="M 120.5,135.5 C 120.41,139.214 119.41,142.548 117.5,145.5C 118.357,142.451 118.357,139.451 117.5,136.5C 118.394,136.483 119.394,136.149 120.5,135.5 Z"/></g>
<g><path style="opacity:1" fill="#b1b2b3" d="M 145.5,65.5 C 144.791,84.8321 145.125,104.165 146.5,123.5C 146.246,127.05 145.579,130.383 144.5,133.5C 144.912,117.194 144.579,100.86 143.5,84.5C 143.47,77.9476 144.136,71.6142 145.5,65.5 Z"/></g>
<g><path style="opacity:1" fill="#a1a3a3" d="M 123.5,64.5 C 124.662,82.9955 124.829,101.662 124,120.5C 123.809,122.708 123.309,124.708 122.5,126.5C 123.415,105.851 123.748,85.1843 123.5,64.5 Z"/></g>
<g><path style="opacity:1" fill="#9c9fa0" d="M 148.5,54.5 C 148.829,57.2282 148.163,59.5615 146.5,61.5C 146.721,58.9327 147.388,56.5994 148.5,54.5 Z"/></g>
<g><path style="opacity:1" fill="#d0d0d1" d="M 509.5,147.5 C 511.234,148.562 512.901,148.562 514.5,147.5C 512.962,150.048 511.296,150.048 509.5,147.5 Z"/></g>
<g><path style="opacity:1" fill="#d2d4d4" d="M 522.5,147.5 C 524.607,148.468 526.941,148.802 529.5,148.5C 527.039,149.531 524.373,150.198 521.5,150.5C 521.263,149.209 521.596,148.209 522.5,147.5 Z"/></g>
<g><path style="opacity:1" fill="#8f9292" d="M 209.5,145.5 C 208.833,148.167 207.167,149.833 204.5,150.5C 205.833,148.5 207.5,146.833 209.5,145.5 Z"/></g>
<g><path style="opacity:1" fill="#5e6061" d="M 215.5,146.5 C 215.267,149.542 214.267,152.208 212.5,154.5C 212.376,152.418 211.376,150.918 209.5,150C 211.681,148.261 213.681,147.094 215.5,146.5 Z"/></g>
<g><path style="opacity:1" fill="#aab0b0" d="M 233.5,148.5 C 233.027,149.906 232.027,150.573 230.5,150.5C 230.973,149.094 231.973,148.427 233.5,148.5 Z"/></g>
<g><path style="opacity:1" fill="#9a9d9e" d="M 136.5,148.5 C 135.965,150.446 134.632,151.446 132.5,151.5C 133.436,150.026 134.77,149.026 136.5,148.5 Z"/></g>
<g><path style="opacity:1" fill="#b3b6b7" d="M 204.5,150.5 C 203.738,152.262 202.404,153.262 200.5,153.5C 201.262,151.738 202.596,150.738 204.5,150.5 Z"/></g>
<g><path style="opacity:1" fill="#e1e3e3" d="M 271.5,150.5 C 271.027,151.906 270.027,152.573 268.5,152.5C 268.973,151.094 269.973,150.427 271.5,150.5 Z"/></g>
<g><path style="opacity:1" fill="#595a5b" d="M 552.5,152.5 C 551.92,154.749 550.587,156.415 548.5,157.5C 548.579,156.07 548.246,154.736 547.5,153.5C 549.247,153.027 550.914,152.693 552.5,152.5 Z"/></g>
<g><path style="opacity:1" fill="#676867" d="M 68.5,150.5 C 67.6133,155.971 64.28,158.638 58.5,158.5C 62.3872,155.681 65.7205,153.014 68.5,150.5 Z"/></g>
<g><path style="opacity:1" fill="#b9b9bb" d="M 115.5,151.5 C 115.67,152.822 115.337,153.989 114.5,155C 120.711,155.058 126.711,153.891 132.5,151.5C 126.912,155.15 120.579,156.817 113.5,156.5C 113.402,154.447 114.069,152.78 115.5,151.5 Z"/></g>
<g><path style="opacity:1" fill="#b6b6b9" d="M 200.5,153.5 C 200.027,154.906 199.027,155.573 197.5,155.5C 197.973,154.094 198.973,153.427 200.5,153.5 Z"/></g>
<g><path style="opacity:1" fill="#bdbdbe" d="M 489.5,151.5 C 490.581,154.627 491.247,157.96 491.5,161.5C 489.825,158.493 489.159,155.16 489.5,151.5 Z"/></g>
<g><path style="opacity:1" fill="#5d5f60" d="M 58.5,158.5 C 54.4656,160.737 50.1323,162.404 45.5,163.5C 46.6114,162.34 47.6114,161.007 48.5,159.5C 49.1667,159.833 49.8333,160.167 50.5,160.5C 51.731,159.349 51.731,158.183 50.5,157C 51,156.5 51.5,156 52,155.5C 53.5082,157.838 55.6748,158.838 58.5,158.5 Z"/></g>
<g><path style="opacity:1" fill="#4c4d4f" d="M 150.5,148.5 C 149.438,153.053 147.438,157.053 144.5,160.5C 143.621,157.883 143.788,155.216 145,152.5C 145.414,152.957 145.914,153.291 146.5,153.5C 147.145,151.174 148.478,149.507 150.5,148.5 Z"/></g>
<g><path style="opacity:1" fill="#797979" d="M 212.5,154.5 C 212.008,156.819 211.008,158.819 209.5,160.5C 209.087,157.68 210.087,155.68 212.5,154.5 Z"/></g>
<g><path style="opacity:1" fill="#c6c8c9" d="M 266.5,153.5 C 254.73,156.128 242.73,158.128 230.5,159.5C 242.231,156.656 254.231,154.656 266.5,153.5 Z"/></g>
<g><path style="opacity:1" fill="#ced0d1" d="M 106.5,151.5 C 106.741,153.898 106.074,155.898 104.5,157.5C 100.5,157.5 96.5,157.5 92.5,157.5C 96.3525,156.834 100.353,156.167 104.5,155.5C 104.994,153.974 105.661,152.641 106.5,151.5 Z"/></g>
<g><path style="opacity:1" fill="#b0b0b0" d="M 197.5,155.5 C 197.027,156.906 196.027,157.573 194.5,157.5C 194.973,156.094 195.973,155.427 197.5,155.5 Z"/></g>
<g><path style="opacity:1" fill="#8a8c8f" d="M 342.5,153.5 C 342.741,155.898 342.074,157.898 340.5,159.5C 340.595,157.214 341.262,155.214 342.5,153.5 Z"/></g>
<g><path style="opacity:1" fill="#555555" d="M 92.5,157.5 C 96.5,157.5 100.5,157.5 104.5,157.5C 100.979,158.166 97.3125,158.833 93.5,159.5C 94.9,162.035 95.9,164.702 96.5,167.5C 92.5459,164.977 91.2126,161.643 92.5,157.5 Z"/></g>
<g><path style="opacity:1" fill="#a6a6a7" d="M 194.5,157.5 C 194.027,158.906 193.027,159.573 191.5,159.5C 191.973,158.094 192.973,157.427 194.5,157.5 Z"/></g>
<g><path style="opacity:1" fill="#d5d5d5" d="M 548.5,157.5 C 548.573,159.027 547.906,160.027 546.5,160.5C 546.427,158.973 547.094,157.973 548.5,157.5 Z"/></g>
<g><path style="opacity:1" fill="#a8a9ab" d="M 19.5,156.5 C 23.469,157.412 24.1357,159.079 21.5,161.5C 21.6107,160.883 21.944,160.383 22.5,160C 21.2899,158.961 20.2899,157.794 19.5,156.5 Z"/></g>
<g><path style="opacity:1" fill="#a9acad" d="M 191.5,159.5 C 190.341,161.25 188.674,162.25 186.5,162.5C 187.659,160.75 189.326,159.75 191.5,159.5 Z"/></g>
<g><path style="opacity:1" fill="#25272a" d="M 477.5,157.5 C 477.44,160.341 476.774,163.007 475.5,165.5C 473.298,164.606 471.298,164.272 469.5,164.5C 470.785,161.979 471.452,159.313 471.5,156.5C 471.783,155.711 472.283,155.044 473,154.5C 474.878,155.053 476.378,156.053 477.5,157.5 Z"/></g>
<g><path style="opacity:1" fill="#b0b0b0" d="M 477.5,157.5 C 478.239,157.369 478.906,157.536 479.5,158C 478.636,161.443 477.303,164.61 475.5,167.5C 475.5,166.833 475.5,166.167 475.5,165.5C 476.774,163.007 477.44,160.341 477.5,157.5 Z"/></g>
<g><path style="opacity:1" fill="#717173" d="M 545.5,161.5 C 543.761,164.243 541.427,166.243 538.5,167.5C 539.315,163.682 541.648,161.682 545.5,161.5 Z"/></g>
<g><path style="opacity:1" fill="#838485" d="M 21.5,161.5 C 20.0892,163.914 18.0892,165.581 15.5,166.5C 16.9108,164.086 18.9108,162.419 21.5,161.5 Z"/></g>
<g><path style="opacity:1" fill="#b8b9bb" d="M 45.5,163.5 C 44.2196,164.931 42.5529,165.598 40.5,165.5C 41.7804,164.069 43.4471,163.402 45.5,163.5 Z"/></g>
<g><path style="opacity:1" fill="#585a5b" d="M 144.5,160.5 C 142.792,164.572 140.126,167.905 136.5,170.5C 136.343,169.127 136.51,167.793 137,166.5C 138.666,167.34 138.833,166.84 137.5,165C 140.544,164.641 140.878,163.974 138.5,163C 140.488,162.062 142.488,161.228 144.5,160.5 Z"/></g>
<g><path style="opacity:1" fill="#b3b5b5" d="M 184.5,163.5 C 184.027,164.906 183.027,165.573 181.5,165.5C 181.973,164.094 182.973,163.427 184.5,163.5 Z"/></g>
<g><path style="opacity:1" fill="#515455" d="M 471.5,156.5 C 471.452,159.313 470.785,161.979 469.5,164.5C 471.298,164.272 473.298,164.606 475.5,165.5C 475.5,166.167 475.5,166.833 475.5,167.5C 475.405,169.786 474.738,171.786 473.5,173.5C 474.161,167.016 471.827,165.349 466.5,168.5C 467.655,164.203 469.321,160.203 471.5,156.5 Z"/></g>
<g><path style="opacity:1" fill="#4f5053" d="M 209.5,160.5 C 207.913,164.683 205.579,168.35 202.5,171.5C 202.141,169.234 202.808,167.401 204.5,166C 202.789,164.867 202.289,163.367 203,161.5C 205.271,161.33 207.438,160.997 209.5,160.5 Z"/></g>
<g><path style="opacity:1" fill="#9b9b9b" d="M 340.5,160.5 C 340.59,163.152 339.924,165.485 338.5,167.5C 338.41,164.848 339.076,162.515 340.5,160.5 Z"/></g>
<g><path style="opacity:1" fill="#9fa1a3" d="M 15.5,166.5 C 14.5,168.167 13.1667,169.5 11.5,170.5C 11.8333,168.167 13.1667,166.833 15.5,166.5 Z"/></g>
<g><path style="opacity:1" fill="#c8c8c9" d="M 33.5,168.5 C 31.8185,170.008 29.8185,171.008 27.5,171.5C 28.911,169.461 30.911,168.461 33.5,168.5 Z"/></g>
<g><path style="opacity:1" fill="#b3b3b5" d="M 96.5,167.5 C 98.4044,167.738 99.7377,168.738 100.5,170.5C 98.5956,170.262 97.2623,169.262 96.5,167.5 Z"/></g>
<g><path style="opacity:1" fill="#b3b4b6" d="M 179.5,166.5 C 178.341,168.25 176.674,169.25 174.5,169.5C 175.659,167.75 177.326,166.75 179.5,166.5 Z"/></g>
<g><path style="opacity:1" fill="#5d5f60" d="M 136.5,170.5 C 135.415,172.587 133.749,173.92 131.5,174.5C 131.89,171.074 133.557,169.741 136.5,170.5 Z"/></g>
<g><path style="opacity:1" fill="#535659" d="M 536.5,169.5 C 533.322,172.258 529.655,174.258 525.5,175.5C 526.185,173.586 526.685,171.586 527,169.5C 530.374,170.536 533.541,170.536 536.5,169.5 Z"/></g>
<g><path style="opacity:1" fill="#b9b9ba" d="M 100.5,170.5 C 102.027,170.427 103.027,171.094 103.5,172.5C 101.973,172.573 100.973,171.906 100.5,170.5 Z"/></g>
<g><path style="opacity:1" fill="#9c9fa2" d="M 174.5,169.5 C 173.341,171.25 171.674,172.25 169.5,172.5C 170.659,170.75 172.326,169.75 174.5,169.5 Z"/></g>
<g><path style="opacity:1" fill="#c6c7ca" d="M 496.5,171.5 C 498.167,172.5 499.5,173.833 500.5,175.5C 498.167,175.167 496.833,173.833 496.5,171.5 Z"/></g>
<g><path style="opacity:1" fill="#5a5a5b" d="M 19.5,174.5 C 19.5,174.833 19.5,175.167 19.5,175.5C 17.8185,177.008 15.8185,178.008 13.5,178.5C 14.6774,176.968 16.0107,175.468 17.5,174C 18.4368,173.308 19.1034,173.475 19.5,174.5 Z"/></g>
<g><path style="opacity:1" fill="#d9d9d9" d="M 103.5,172.5 C 105.027,172.427 106.027,173.094 106.5,174.5C 104.973,174.573 103.973,173.906 103.5,172.5 Z"/></g>
<g><path style="opacity:1" fill="#8f9091" d="M 351.5,153.5 C 348.562,166.466 348.228,179.466 350.5,192.5C 348.744,187.285 347.744,181.785 347.5,176C 348.107,169.66 348.773,163.326 349.5,157C 349.608,155.319 350.275,154.152 351.5,153.5 Z"/></g>
<g><path style="opacity:1" fill="#dddddd" d="M 23.5,173.5 C 22.4863,174.674 21.153,175.34 19.5,175.5C 19.5,175.167 19.5,174.833 19.5,174.5C 20.7079,173.766 22.0413,173.433 23.5,173.5 Z"/></g>
<g><path style="opacity:1" fill="#adadb1" d="M 106.5,174.5 C 112.333,176.329 118.333,177.329 124.5,177.5C 118.138,179.081 112.138,178.081 106.5,174.5 Z"/></g>
<g><path style="opacity:1" fill="#b3b5b5" d="M 7.5,174.5 C 7.5,177.833 9.16667,179.5 12.5,179.5C 9.36098,181.194 7.36098,180.194 6.5,176.5C 6.54272,175.584 6.87605,174.917 7.5,174.5 Z"/></g>
<g><path style="opacity:1" fill="#585859" d="M 169.5,172.5 C 168.199,174.672 167.199,177.005 166.5,179.5C 163.843,176.048 164.843,173.715 169.5,172.5 Z"/></g>
<g><path style="opacity:1" fill="#cfcfcf" d="M 131.5,174.5 C 129.824,176.834 127.491,177.834 124.5,177.5C 126.649,176.264 128.982,175.264 131.5,174.5 Z"/></g>
<g><path style="opacity:1" fill="#e0e0e1" d="M 525.5,175.5 C 523.162,177.04 520.495,177.706 517.5,177.5C 519.905,176.232 522.572,175.565 525.5,175.5 Z"/></g>
<g><path style="opacity:1" fill="#e9e9e9" d="M 500.5,175.5 C 506.011,177.21 511.677,177.877 517.5,177.5C 513.354,178.647 509.02,178.814 504.5,178C 502.68,177.8 501.347,176.966 500.5,175.5 Z"/></g>
<g><path style="opacity:1" fill="#bcbdbf" d="M 190.5,177.5 C 183.506,179.052 176.34,180.386 169,181.5C 167.699,181.361 166.866,180.695 166.5,179.5C 174.515,178.998 182.515,178.331 190.5,177.5 Z"/></g>
<g><path style="opacity:1" fill="#676768" d="M 471.5,178.5 C 471.293,181.241 470.293,183.574 468.5,185.5C 468.426,183.589 467.426,182.422 465.5,182C 468.31,181.993 470.31,180.826 471.5,178.5 Z"/></g>
<g><path style="opacity:1" fill="#232729" d="M 359.5,134.5 C 356.803,140.955 354.136,147.288 351.5,153.5C 350.275,154.152 349.608,155.319 349.5,157C 348.773,163.326 348.107,169.66 347.5,176C 347.744,181.785 348.744,187.285 350.5,192.5C 353.102,199.7 356.768,206.366 361.5,212.5C 361.973,213.906 362.973,214.573 364.5,214.5C 363.458,215.791 362.292,215.791 361,214.5C 360.312,215.332 360.479,215.998 361.5,216.5C 364.51,217.269 367.51,218.103 370.5,219C 371.126,219.75 371.626,220.584 372,221.5C 373.356,220.62 374.856,220.286 376.5,220.5C 378.415,220.216 380.081,220.549 381.5,221.5C 389.323,222.656 397.323,222.823 405.5,222C 406.416,221.722 407.082,221.222 407.5,220.5C 410.228,220.829 412.562,220.163 414.5,218.5C 417.917,218.977 420.584,217.977 422.5,215.5C 422.833,215.5 423.167,215.5 423.5,215.5C 425.027,215.573 426.027,214.906 426.5,213.5C 427.514,212.326 428.847,211.66 430.5,211.5C 432.027,211.573 433.027,210.906 433.5,209.5C 435.027,209.573 436.027,208.906 436.5,207.5C 439.089,206.581 441.089,204.914 442.5,202.5C 444.833,199.5 447.5,196.833 450.5,194.5C 452.262,193.738 453.262,192.404 453.5,190.5C 455.262,189.738 456.262,188.404 456.5,186.5C 457.906,186.027 458.573,185.027 458.5,183.5C 459.906,183.027 460.573,182.027 460.5,180.5C 461.583,180.461 462.583,180.127 463.5,179.5C 464.308,177.577 464.808,175.577 465,173.5C 465.471,175.246 466.138,176.913 467,178.5C 466.632,175.025 466.465,171.692 466.5,168.5C 471.827,165.349 474.161,167.016 473.5,173.5C 473.598,175.553 472.931,177.22 471.5,178.5C 470.31,180.826 468.31,181.993 465.5,182C 467.426,182.422 468.426,183.589 468.5,185.5C 467.958,188.912 466.625,191.912 464.5,194.5C 463.5,194.833 462.833,195.5 462.5,196.5C 461.178,196.67 460.011,196.337 459,195.5C 458.626,196.416 458.126,197.25 457.5,198C 459.283,199.067 459.783,200.567 459,202.5C 458.667,202.167 458.333,201.833 458,201.5C 457.506,203.134 457.34,204.801 457.5,206.5C 457.672,207.492 457.338,208.158 456.5,208.5C 455.5,208.5 454.5,208.5 453.5,208.5C 453.483,210.565 453.15,212.565 452.5,214.5C 451.094,214.973 450.427,215.973 450.5,217.5C 450.167,218.5 449.5,219.167 448.5,219.5C 447.094,219.973 446.427,220.973 446.5,222.5C 445.5,224.167 444.167,225.5 442.5,226.5C 441.094,226.973 440.427,227.973 440.5,229.5C 440.5,230.167 440.167,230.5 439.5,230.5C 437.973,230.427 436.973,231.094 436.5,232.5C 435.5,234.167 434.167,235.5 432.5,236.5C 430.596,236.738 429.262,237.738 428.5,239.5C 428.027,240.906 427.027,241.573 425.5,241.5C 423.973,241.427 422.973,242.094 422.5,243.5C 419.669,244.079 417.336,245.412 415.5,247.5C 412.759,247.707 410.426,248.707 408.5,250.5C 394.226,254.013 379.892,254.346 365.5,251.5C 363.819,249.992 361.819,248.992 359.5,248.5C 359.027,247.094 358.027,246.427 356.5,246.5C 354.761,243.757 352.427,241.757 349.5,240.5C 349.262,238.596 348.262,237.262 346.5,236.5C 346.573,234.973 345.906,233.973 344.5,233.5C 343.326,232.486 342.66,231.153 342.5,229.5C 342.511,227.983 343.177,226.816 344.5,226C 343.551,225.383 342.718,225.549 342,226.5C 341.667,224.167 341.333,221.833 341,219.5C 340.722,220.416 340.222,221.082 339.5,221.5C 338.403,215.66 337.069,209.994 335.5,204.5C 334.2,199.4 334.2,194.4 335.5,189.5C 337.117,184.084 337.784,178.417 337.5,172.5C 337.216,170.585 337.549,168.919 338.5,167.5C 339.924,165.485 340.59,163.152 340.5,160.5C 340.5,160.167 340.5,159.833 340.5,159.5C 342.074,157.898 342.741,155.898 342.5,153.5C 342.5,153.167 342.5,152.833 342.5,152.5C 345.46,149.857 347.127,146.524 347.5,142.5C 348.552,142.649 349.552,142.483 350.5,142C 349.949,140.602 349.616,139.268 349.5,138C 351.303,136.738 352.636,135.071 353.5,133C 352.587,131.586 352.587,130.086 353.5,128.5C 354.496,128.414 355.329,128.748 356,129.5C 356.333,128.833 356.667,128.167 357,127.5C 358.116,129.801 358.949,132.135 359.5,134.5 Z"/></g>
<g><path style="opacity:1" fill="#9fa2a4" d="M 460.5,180.5 C 460.573,182.027 459.906,183.027 458.5,183.5C 458.427,181.973 459.094,180.973 460.5,180.5 Z"/></g>
<g><path style="opacity:1" fill="#48494a" d="M 466.5,168.5 C 466.465,171.692 466.632,175.025 467,178.5C 466.138,176.913 465.471,175.246 465,173.5C 464.808,175.577 464.308,177.577 463.5,179.5C 462.583,180.127 461.583,180.461 460.5,180.5C 461.992,176.182 463.992,172.182 466.5,168.5 Z"/></g>
<g><path style="opacity:1" fill="#a5a6a9" d="M 458.5,183.5 C 458.573,185.027 457.906,186.027 456.5,186.5C 456.427,184.973 457.094,183.973 458.5,183.5 Z"/></g>
<g><path style="opacity:1" fill="#727577" d="M 337.5,172.5 C 337.784,178.417 337.117,184.084 335.5,189.5C 335.216,183.583 335.883,177.916 337.5,172.5 Z"/></g>
<g><path style="opacity:1" fill="#afb0b1" d="M 456.5,186.5 C 456.262,188.404 455.262,189.738 453.5,190.5C 453.738,188.596 454.738,187.262 456.5,186.5 Z"/></g>
<g><path style="opacity:1" fill="#9f9f9f" d="M 453.5,190.5 C 453.262,192.404 452.262,193.738 450.5,194.5C 450.738,192.596 451.738,191.262 453.5,190.5 Z"/></g>
<g><path style="opacity:1" fill="#cccfcf" d="M 464.5,194.5 C 464.34,196.153 463.674,197.486 462.5,198.5C 462.5,197.833 462.5,197.167 462.5,196.5C 462.833,195.5 463.5,194.833 464.5,194.5 Z"/></g>
<g><path style="opacity:1" fill="#4d4e51" d="M 462.5,196.5 C 462.5,197.167 462.5,197.833 462.5,198.5C 461.32,201.54 459.653,204.206 457.5,206.5C 457.34,204.801 457.506,203.134 458,201.5C 458.333,201.833 458.667,202.167 459,202.5C 459.783,200.567 459.283,199.067 457.5,198C 458.126,197.25 458.626,196.416 459,195.5C 460.011,196.337 461.178,196.67 462.5,196.5 Z"/></g>
<g><path style="opacity:1" fill="#939396" d="M 442.5,202.5 C 441.089,204.914 439.089,206.581 436.5,207.5C 437.911,205.086 439.911,203.419 442.5,202.5 Z"/></g>
<g><path style="opacity:1" fill="#9fa6a6" d="M 436.5,207.5 C 436.027,208.906 435.027,209.573 433.5,209.5C 433.973,208.094 434.973,207.427 436.5,207.5 Z"/></g>
<g><path style="opacity:1" fill="#7f8081" d="M 456.5,208.5 C 455.649,210.882 454.316,212.882 452.5,214.5C 453.15,212.565 453.483,210.565 453.5,208.5C 454.5,208.5 455.5,208.5 456.5,208.5 Z"/></g>
<g><path style="opacity:1" fill="#9da0a1" d="M 433.5,209.5 C 433.027,210.906 432.027,211.573 430.5,211.5C 430.973,210.094 431.973,209.427 433.5,209.5 Z"/></g>
<g><path style="opacity:1" fill="#a7a9a9" d="M 544.5,208.5 C 544.573,210.027 543.906,211.027 542.5,211.5C 542.427,209.973 543.094,208.973 544.5,208.5 Z"/></g>
<g><path style="opacity:1" fill="#afafb0" d="M 335.5,204.5 C 337.069,209.994 338.403,215.66 339.5,221.5C 339.5,221.833 339.5,222.167 339.5,222.5C 336.894,216.903 335.561,210.903 335.5,204.5 Z"/></g>
<g><path style="opacity:1" fill="#e1e1e1" d="M 361.5,212.5 C 363.027,212.427 364.027,213.094 364.5,214.5C 362.973,214.573 361.973,213.906 361.5,212.5 Z"/></g>
<g><path style="opacity:1" fill="#a5a5a5" d="M 426.5,213.5 C 426.027,214.906 425.027,215.573 423.5,215.5C 423.973,214.094 424.973,213.427 426.5,213.5 Z"/></g>
<g><path style="opacity:1" fill="#272b2d" d="M 556.5,215.5 C 558.608,216.735 560.608,218.235 562.5,220C 561.833,220.333 561.167,220.667 560.5,221C 561.337,222.011 561.67,223.178 561.5,224.5C 560.66,226.853 559.326,228.853 557.5,230.5C 556.094,230.973 555.427,231.973 555.5,233.5C 552.838,235.268 549.838,235.935 546.5,235.5C 545.486,234.326 544.153,233.66 542.5,233.5C 541.5,231.167 539.833,229.5 537.5,228.5C 535.615,226.205 535.115,223.538 536,220.5C 537.643,217.039 539.81,214.039 542.5,211.5C 543.906,211.027 544.573,210.027 544.5,208.5C 545.708,207.218 547.042,207.218 548.5,208.5C 550.595,211.602 553.262,213.935 556.5,215.5 Z"/></g>
<g><path style="opacity:1" fill="#555859" d="M 364.5,214.5 C 368.451,216.699 372.451,218.699 376.5,220.5C 374.856,220.286 373.356,220.62 372,221.5C 371.626,220.584 371.126,219.75 370.5,219C 367.51,218.103 364.51,217.269 361.5,216.5C 360.479,215.998 360.312,215.332 361,214.5C 362.292,215.791 363.458,215.791 364.5,214.5 Z"/></g>
<g><path style="opacity:1" fill="#e4e4e5" d="M 452.5,214.5 C 452.573,216.027 451.906,217.027 450.5,217.5C 450.427,215.973 451.094,214.973 452.5,214.5 Z"/></g>
<g><path style="opacity:1" fill="#828383" d="M 422.5,215.5 C 420.584,217.977 417.917,218.977 414.5,218.5C 417.076,217.512 419.743,216.512 422.5,215.5 Z"/></g>
<g><path style="opacity:1" fill="#747474" d="M 556.5,215.5 C 559.306,215.822 561.806,216.822 564,218.5C 564.542,221.082 563.708,223.082 561.5,224.5C 561.67,223.178 561.337,222.011 560.5,221C 561.167,220.667 561.833,220.333 562.5,220C 560.608,218.235 558.608,216.735 556.5,215.5 Z"/></g>
<g><path style="opacity:1" fill="#5f6264" d="M 342.5,229.5 C 340.707,227.574 339.707,225.241 339.5,222.5C 339.5,222.167 339.5,221.833 339.5,221.5C 340.222,221.082 340.722,220.416 341,219.5C 341.333,221.833 341.667,224.167 342,226.5C 342.718,225.549 343.551,225.383 344.5,226C 343.177,226.816 342.511,227.983 342.5,229.5 Z"/></g>
<g><path style="opacity:1" fill="#adadad" d="M 414.5,218.5 C 412.562,220.163 410.228,220.829 407.5,220.5C 409.599,219.388 411.933,218.721 414.5,218.5 Z"/></g>
<g><path style="opacity:1" fill="#d5d5d7" d="M 448.5,219.5 C 448.573,221.027 447.906,222.027 446.5,222.5C 446.427,220.973 447.094,219.973 448.5,219.5 Z"/></g>
<g><path style="opacity:1" fill="#b3b4b4" d="M 407.5,220.5 C 407.082,221.222 406.416,221.722 405.5,222C 397.323,222.823 389.323,222.656 381.5,221.5C 390.195,221.673 398.862,221.34 407.5,220.5 Z"/></g>
<g><path style="opacity:1" fill="#d0d0d2" d="M 442.5,226.5 C 442.573,228.027 441.906,229.027 440.5,229.5C 440.427,227.973 441.094,226.973 442.5,226.5 Z"/></g>
<g><path style="opacity:1" fill="#898d8d" d="M 537.5,228.5 C 539.833,229.5 541.5,231.167 542.5,233.5C 539.833,232.833 538.167,231.167 537.5,228.5 Z"/></g>
<g><path style="opacity:1" fill="#e4e4e4" d="M 439.5,230.5 C 439.027,231.906 438.027,232.573 436.5,232.5C 436.973,231.094 437.973,230.427 439.5,230.5 Z"/></g>
<g><path style="opacity:1" fill="#cccece" d="M 557.5,230.5 C 557.573,232.027 556.906,233.027 555.5,233.5C 555.427,231.973 556.094,230.973 557.5,230.5 Z"/></g>
<g><path style="opacity:1" fill="#dddedd" d="M 344.5,233.5 C 345.906,233.973 346.573,234.973 346.5,236.5C 345.094,236.027 344.427,235.027 344.5,233.5 Z"/></g>
<g><path style="opacity:1" fill="#cacbcb" d="M 542.5,233.5 C 544.153,233.66 545.486,234.326 546.5,235.5C 544.62,235.771 543.287,235.104 542.5,233.5 Z"/></g>
<g><path style="opacity:1" fill="#c6c7c9" d="M 555.5,233.5 C 555.586,234.496 555.252,235.329 554.5,236C 551.633,236.801 548.966,236.634 546.5,235.5C 549.838,235.935 552.838,235.268 555.5,233.5 Z"/></g>
<g><path style="opacity:1" fill="#cfd0d1" d="M 346.5,236.5 C 348.262,237.262 349.262,238.596 349.5,240.5C 347.738,239.738 346.738,238.404 346.5,236.5 Z"/></g>
<g><path style="opacity:1" fill="#e0e1e2" d="M 432.5,236.5 C 431.738,238.262 430.404,239.262 428.5,239.5C 429.262,237.738 430.596,236.738 432.5,236.5 Z"/></g>
<g><path style="opacity:1" fill="#b1b3b3" d="M 349.5,240.5 C 352.427,241.757 354.761,243.757 356.5,246.5C 353.573,245.243 351.239,243.243 349.5,240.5 Z"/></g>
<g><path style="opacity:1" fill="#e1e2e3" d="M 425.5,241.5 C 425.027,242.906 424.027,243.573 422.5,243.5C 422.973,242.094 423.973,241.427 425.5,241.5 Z"/></g>
<g><path style="opacity:1" fill="#d5d6d6" d="M 422.5,243.5 C 420.664,245.588 418.331,246.921 415.5,247.5C 417.336,245.412 419.669,244.079 422.5,243.5 Z"/></g>
<g><path style="opacity:1" fill="#d9dcdd" d="M 356.5,246.5 C 358.027,246.427 359.027,247.094 359.5,248.5C 357.973,248.573 356.973,247.906 356.5,246.5 Z"/></g>
<g><path style="opacity:1" fill="#d7dadb" d="M 415.5,247.5 C 413.574,249.293 411.241,250.293 408.5,250.5C 410.426,248.707 412.759,247.707 415.5,247.5 Z"/></g>
<g><path style="opacity:1" fill="#e6e7e8" d="M 359.5,248.5 C 361.819,248.992 363.819,249.992 365.5,251.5C 362.911,251.539 360.911,250.539 359.5,248.5 Z"/></g>
<g><path style="opacity:1" fill="#cacccb" d="M 408.5,250.5 C 402.957,252.635 397.291,254.302 391.5,255.5C 387.167,255.5 382.833,255.5 378.5,255.5C 374.04,254.634 369.707,253.301 365.5,251.5C 379.892,254.346 394.226,254.013 408.5,250.5 Z"/></g>
</svg>
