<?xml version="1.0" encoding="UTF-8"?>
<!DOCTYPE svg PUBLIC "-//W3C//DTD SVG 1.1//EN" "http://www.w3.org/Graphics/SVG/1.1/DTD/svg11.dtd">
<svg xmlns="http://www.w3.org/2000/svg" version="1.1" width="566px" height="259px" style="shape-rendering:geometricPrecision; text-rendering:geometricPrecision; image-rendering:optimizeQuality; fill-rule:evenodd; clip-rule:evenodd" xmlns:xlink="http://www.w3.org/1999/xlink">
<g><path style="opacity:1" fill="#afb0b1" d="M 263.5,8.5 C 266.957,7.09173 268.624,8.42506 268.5,12.5C 267.596,11.791 267.263,10.791 267.5,9.5C 266.041,9.56745 264.708,9.23411 263.5,8.5 Z"/></g>
<g><path style="opacity:1" fill="#919293" d="M 260.5,15.5 C 259.473,21.9148 257.473,27.9148 254.5,33.5C 255.924,27.227 257.924,21.227 260.5,15.5 Z"/></g>
<g><path style="opacity:1" fill="#232729" d="M 263.5,8.5 C 264.708,9.23411 266.041,9.56745 267.5,9.5C 267.263,10.791 267.596,11.791 268.5,12.5C 269.425,16.7902 270.091,21.1235 270.5,25.5C 270.054,28.0101 270.72,30.0101 272.5,31.5C 273.537,32.9303 274.204,34.597 274.5,36.5C 274.077,38.7812 274.744,40.4479 276.5,41.5C 276.67,42.8221 276.337,43.9887 275.5,45C 276.448,45.4828 277.448,45.6495 278.5,45.5C 278.678,48.2165 279.178,50.8832 280,53.5C 280.77,52.4019 281.603,52.4019 282.5,53.5C 282.703,55.3904 282.037,56.8904 280.5,58C 282.98,58.9154 283.647,60.4154 282.5,62.5C 281.726,63.7112 280.893,63.7112 280,62.5C 278.379,64.4927 276.713,66.4927 275,68.5C 274.798,66.7444 274.298,65.0777 273.5,63.5C 272.817,63.8627 272.15,64.1961 271.5,64.5C 271.34,62.847 270.674,61.5137 269.5,60.5C 268.662,60.1583 268.328,59.4916 268.5,58.5C 268.585,57.0047 267.919,56.0047 266.5,55.5C 265.503,62.1335 265.17,68.8002 265.5,75.5C 265.605,79.5483 265.272,83.5483 264.5,87.5C 263.883,87.6107 263.383,87.944 263,88.5C 262.503,90.8098 262.337,93.1432 262.5,95.5C 261.049,97.0145 259.382,97.8478 257.5,98C 258.448,98.4828 259.448,98.6495 260.5,98.5C 260.5,99.8333 260.5,101.167 260.5,102.5C 258.287,101.395 256.12,101.395 254,102.5C 252.681,100.75 252.181,98.7505 252.5,96.5C 253.501,81.1766 253.501,65.8432 252.5,50.5C 252.21,44.6755 252.877,39.0088 254.5,33.5C 257.473,27.9148 259.473,21.9148 260.5,15.5C 260.552,12.6538 261.552,10.3204 263.5,8.5 Z"/></g>
<g><path style="opacity:1" fill="#848487" d="M 270.5,25.5 C 271.738,27.2143 272.405,29.2143 272.5,31.5C 270.72,30.0101 270.054,28.0101 270.5,25.5 Z"/></g>
<g><path style="opacity:1" fill="#707575" d="M 274.5,36.5 C 275.537,37.9303 276.204,39.597 276.5,41.5C 274.744,40.4479 274.077,38.7812 274.5,36.5 Z"/></g>
<g><path style="opacity:1" fill="#777777" d="M 276.5,41.5 C 277.674,42.5137 278.34,43.847 278.5,45.5C 278.34,43.847 277.674,42.5137 276.5,41.5 Z"/></g>
<g><path style="opacity:1" fill="#6c6d6e" d="M 278.5,45.5 C 280.341,47.8485 281.674,50.5152 282.5,53.5C 281.603,52.4019 280.77,52.4019 280,53.5C 279.178,50.8832 278.678,48.2165 278.5,45.5 Z"/></g>
<g><path style="opacity:1" fill="#c5c6c7" d="M 268.5,58.5 C 267.883,58.3893 267.383,58.056 267,57.5C 266.828,63.6807 266.328,69.6807 265.5,75.5C 265.17,68.8002 265.503,62.1335 266.5,55.5C 267.919,56.0047 268.585,57.0047 268.5,58.5 Z"/></g>
<g><path style="opacity:1" fill="#ccccce" d="M 284.5,57.5 C 285.906,57.9731 286.573,58.9731 286.5,60.5C 285.094,60.0269 284.427,59.0269 284.5,57.5 Z"/></g>
<g><path style="opacity:1" fill="#d8d8d9" d="M 269.5,60.5 C 270.674,61.5137 271.34,62.847 271.5,64.5C 269.896,63.713 269.229,62.3797 269.5,60.5 Z"/></g>
<g><path style="opacity:1" fill="#ccd0d0" d="M 288.5,64.5 C 289.906,64.9731 290.573,65.9731 290.5,67.5C 289.094,67.0269 288.427,66.0269 288.5,64.5 Z"/></g>
<g><path style="opacity:1" fill="#adaeae" d="M 252.5,50.5 C 253.501,65.8432 253.501,81.1766 252.5,96.5C 252.167,96.5 251.833,96.5 251.5,96.5C 252.046,81.0098 252.38,65.6765 252.5,50.5 Z"/></g>
<g><path style="opacity:1" fill="#656768" d="M 274.5,70.5 C 276.213,71.305 277.879,72.305 279.5,73.5C 278.948,75.0026 278.948,76.6693 279.5,78.5C 277.347,76.2063 275.68,73.5396 274.5,70.5 Z"/></g>
<g><path style="opacity:1" fill="#9c9fa5" d="M 282.5,83.5 C 284.446,84.0347 285.446,85.368 285.5,87.5C 284.026,86.5637 283.026,85.2303 282.5,83.5 Z"/></g>
<g><path style="opacity:1" fill="#86878c" d="M 298.5,84.5 C 300.065,86.5093 301.065,88.8427 301.5,91.5C 299.166,89.8243 298.166,87.491 298.5,84.5 Z"/></g>
<g><path style="opacity:1" fill="#838384" d="M 264.5,87.5 C 264.198,90.3725 263.531,93.0392 262.5,95.5C 262.337,93.1432 262.503,90.8098 263,88.5C 263.383,87.944 263.883,87.6107 264.5,87.5 Z"/></g>
<g><path style="opacity:1" fill="#cdcfd0" d="M 285.5,87.5 C 286.906,87.9731 287.573,88.9731 287.5,90.5C 286.094,90.0269 285.427,89.0269 285.5,87.5 Z"/></g>
<g><path style="opacity:1" fill="#4c4e4e" d="M 287.5,90.5 C 291.626,92.4887 295.292,94.3221 298.5,96C 297.328,96.4186 296.328,97.0853 295.5,98C 296.464,99.7255 297.131,101.559 297.5,103.5C 293.452,99.7465 290.118,95.4131 287.5,90.5 Z"/></g>
<g><path style="opacity:1" fill="#939496" d="M 301.5,92.5 C 302.738,94.2143 303.405,96.2143 303.5,98.5C 301.926,96.8984 301.259,94.8984 301.5,92.5 Z"/></g>
<g><path style="opacity:1" fill="#606263" d="M 262.5,95.5 C 262.706,98.4951 262.04,101.162 260.5,103.5C 260.5,103.167 260.5,102.833 260.5,102.5C 260.5,101.167 260.5,99.8333 260.5,98.5C 259.448,98.6495 258.448,98.4828 257.5,98C 259.382,97.8478 261.049,97.0145 262.5,95.5 Z"/></g>
<g><path style="opacity:1" fill="#404345" d="M 251.5,96.5 C 251.833,96.5 252.167,96.5 252.5,96.5C 252.181,98.7505 252.681,100.75 254,102.5C 256.12,101.395 258.287,101.395 260.5,102.5C 260.5,102.833 260.5,103.167 260.5,103.5C 259.84,109.136 257.84,114.136 254.5,118.5C 255.672,116.156 255.672,113.823 254.5,111.5C 256.435,110.932 257.768,109.765 258.5,108C 257.26,105.331 255.593,103.831 253.5,103.5C 251.408,104.825 249.741,106.491 248.5,108.5C 249.754,104.565 250.754,100.565 251.5,96.5 Z"/></g>
<g><path style="opacity:1" fill="#adb2b5" d="M 297.5,103.5 C 298.867,106.012 298.534,108.345 296.5,110.5C 296.993,108.194 297.326,105.861 297.5,103.5 Z"/></g>
<g><path style="opacity:1" fill="#7a7d7d" d="M 248.5,108.5 C 249.084,111.285 248.084,112.952 245.5,113.5C 246.263,111.632 247.263,109.965 248.5,108.5 Z"/></g>
<g><path style="opacity:1" fill="#cacacb" d="M 304.5,104.5 C 305.268,105.263 305.768,106.263 306,107.5C 306.499,113.157 306.666,118.824 306.5,124.5C 305.485,118.013 304.818,111.346 304.5,104.5 Z"/></g>
<g><path style="opacity:1" fill="#aaaaac" d="M 235.5,115.5 C 233.126,114.314 230.792,114.314 228.5,115.5C 230.756,111.61 233.089,111.61 235.5,115.5 Z"/></g>
<g><path style="opacity:1" fill="#262a2c" d="M 282.5,53.5 C 284.104,54.287 284.771,55.6203 284.5,57.5C 284.427,59.0269 285.094,60.0269 286.5,60.5C 287.674,61.5137 288.34,62.847 288.5,64.5C 288.427,66.0269 289.094,67.0269 290.5,67.5C 293.949,72.735 296.616,78.4017 298.5,84.5C 298.166,87.491 299.166,89.8243 301.5,91.5C 301.5,91.8333 301.5,92.1667 301.5,92.5C 301.259,94.8984 301.926,96.8984 303.5,98.5C 304.341,100.379 304.675,102.379 304.5,104.5C 304.818,111.346 305.485,118.013 306.5,124.5C 306.5,125.167 306.5,125.833 306.5,126.5C 305.307,126.97 304.64,127.97 304.5,129.5C 304.52,130.726 304.853,131.726 305.5,132.5C 304.976,134.306 304.309,135.972 303.5,137.5C 302.262,139.214 301.595,141.214 301.5,143.5C 300.59,146.992 298.924,149.992 296.5,152.5C 295.542,152.953 294.708,153.619 294,154.5C 293.667,153.833 293.333,153.167 293,152.5C 292.506,154.134 292.34,155.801 292.5,157.5C 290.973,157.427 289.973,158.094 289.5,159.5C 289.027,160.906 288.027,161.573 286.5,161.5C 283.123,161.068 280.123,161.735 277.5,163.5C 272.586,163.362 267.919,164.028 263.5,165.5C 259.21,165.198 255.21,165.864 251.5,167.5C 248.713,168.477 245.713,168.81 242.5,168.5C 242.238,167.022 242.571,165.689 243.5,164.5C 244.739,164.058 245.739,163.391 246.5,162.5C 252.001,159.249 257.667,156.249 263.5,153.5C 265.027,153.573 266.027,152.906 266.5,151.5C 268.404,151.262 269.738,150.262 270.5,148.5C 272.749,147.92 274.415,146.587 275.5,144.5C 277.167,142.167 279.167,140.167 281.5,138.5C 283.587,137.415 284.92,135.749 285.5,133.5C 289.317,131.824 290.984,129.157 290.5,125.5C 292.501,120.495 294.501,115.495 296.5,110.5C 298.534,108.345 298.867,106.012 297.5,103.5C 297.131,101.559 296.464,99.7255 295.5,98C 296.328,97.0853 297.328,96.4186 298.5,96C 295.292,94.3221 291.626,92.4887 287.5,90.5C 287.573,88.9731 286.906,87.9731 285.5,87.5C 285.446,85.368 284.446,84.0347 282.5,83.5C 281.263,82.0351 280.263,80.3684 279.5,78.5C 278.948,76.6693 278.948,75.0026 279.5,73.5C 277.879,72.305 276.213,71.305 274.5,70.5C 272.975,68.7837 271.975,66.7837 271.5,64.5C 272.15,64.1961 272.817,63.8627 273.5,63.5C 274.298,65.0777 274.798,66.7444 275,68.5C 276.713,66.4927 278.379,64.4927 280,62.5C 280.893,63.7112 281.726,63.7112 282.5,62.5C 283.647,60.4154 282.98,58.9154 280.5,58C 282.037,56.8904 282.703,55.3904 282.5,53.5 Z"/></g>
<g><path style="opacity:1" fill="#9c9e9e" d="M 560.5,124.5 C 559.539,122.735 559.205,120.735 559.5,118.5C 557.708,118.366 556.042,118.699 554.5,119.5C 554.75,118.078 555.583,117.078 557,116.5C 558.011,117.337 559.178,117.67 560.5,117.5C 560.5,119.833 560.5,122.167 560.5,124.5 Z"/></g>
<g><path style="opacity:1" fill="#6d6e6e" d="M 254.5,118.5 C 253.66,121.676 251.993,124.342 249.5,126.5C 249.586,125.504 249.252,124.671 248.5,124C 249.973,123.29 250.64,122.124 250.5,120.5C 252.199,120.473 253.533,119.806 254.5,118.5 Z"/></g>
<g><path style="opacity:1" fill="#ceced1" d="M 226.5,119.5 C 226.573,121.027 225.906,122.027 224.5,122.5C 224.427,120.973 225.094,119.973 226.5,119.5 Z"/></g>
<g><path style="opacity:1" fill="#a6a7a8" d="M 45.5,125.5 C 45.2624,127.404 44.2624,128.738 42.5,129.5C 42.7376,127.596 43.7376,126.262 45.5,125.5 Z"/></g>
<g><path style="opacity:1" fill="#6a6d6f" d="M 554.5,120.5 C 554.674,124.36 553.341,127.36 550.5,129.5C 551.597,126.314 552.93,123.314 554.5,120.5 Z"/></g>
<g><path style="opacity:1" fill="#ced1d1" d="M 96.5,128.5 C 92.4809,128.646 88.4809,128.979 84.5,129.5C 88.4023,127.511 92.4023,127.177 96.5,128.5 Z"/></g>
<g><path style="opacity:1" fill="#d3d3d7" d="M 96.5,128.5 C 98.698,128.12 100.365,128.787 101.5,130.5C 99.597,130.204 97.9303,129.537 96.5,128.5 Z"/></g>
<g><path style="opacity:1" fill="#c5c5cb" d="M 202.5,126.5 C 202.573,128.027 201.906,129.027 200.5,129.5C 200.427,127.973 201.094,126.973 202.5,126.5 Z"/></g>
<g><path style="opacity:1" fill="#b5b5b5" d="M 306.5,126.5 C 305.85,128.435 305.517,130.435 305.5,132.5C 304.853,131.726 304.52,130.726 304.5,129.5C 304.64,127.97 305.307,126.97 306.5,126.5 Z"/></g>
<g><path style="opacity:1" fill="#cfd0d0" d="M 101.5,130.5 C 103.5,130.5 104.5,131.5 104.5,133.5C 103.167,132.833 102.167,131.833 101.5,130.5 Z"/></g>
<g><path style="opacity:1" fill="#727578" d="M 290.5,125.5 C 290.984,129.157 289.317,131.824 285.5,133.5C 286.669,130.489 288.336,127.822 290.5,125.5 Z"/></g>
<g><path style="opacity:1" fill="#a3a4a6" d="M 22.5,129.5 C 21.9202,131.749 20.5869,133.415 18.5,134.5C 19.0798,132.251 20.4131,130.585 22.5,129.5 Z"/></g>
<g><path style="opacity:1" fill="#b0b1b1" d="M 80.5,131.5 C 79.7377,133.262 78.4044,134.262 76.5,134.5C 77.2623,132.738 78.5956,131.738 80.5,131.5 Z"/></g>
<g><path style="opacity:1" fill="#a1a3a4" d="M 559.5,125.5 C 559.101,129.116 558.101,132.45 556.5,135.5C 556.59,131.786 557.59,128.452 559.5,125.5 Z"/></g>
<g><path style="opacity:1" fill="#888989" d="M 199.5,131.5 C 199.167,133.833 197.833,135.167 195.5,135.5C 196.5,133.833 197.833,132.5 199.5,131.5 Z"/></g>
<g><path style="opacity:1" fill="#88898a" d="M 228.5,134.5 C 232.298,133.517 236.298,133.183 240.5,133.5C 236.767,135.751 232.767,136.084 228.5,134.5 Z"/></g>
<g><path style="opacity:1" fill="#25292b" d="M 560.5,124.5 C 560.5,125.167 560.167,125.5 559.5,125.5C 557.59,128.452 556.59,131.786 556.5,135.5C 554.273,137.229 553.273,139.562 553.5,142.5C 549.851,150.817 543.518,154.484 534.5,153.5C 533.094,153.973 532.427,154.973 532.5,156.5C 529.255,156.678 528.255,158.011 529.5,160.5C 528.089,162.914 526.089,164.581 523.5,165.5C 522.504,165.586 521.671,165.252 521,164.5C 519.968,166.027 518.801,167.36 517.5,168.5C 512.463,168.587 507.463,168.254 502.5,167.5C 502.083,166.876 501.416,166.543 500.5,166.5C 499.287,166.747 498.62,167.414 498.5,168.5C 497.557,171.109 495.89,173.109 493.5,174.5C 493.649,173.448 493.483,172.448 493,171.5C 491.853,172.458 490.853,172.125 490,170.5C 489.667,171.167 489.333,171.833 489,172.5C 487.333,171.167 485.667,171.167 484,172.5C 483.333,171.5 483.333,170.5 484,169.5C 487.991,170.594 488.491,169.594 485.5,166.5C 485.833,165.833 486.167,165.167 486.5,164.5C 487.5,162.833 488.833,161.5 490.5,160.5C 492.914,159.089 494.581,157.089 495.5,154.5C 497.353,151.305 499.353,148.139 501.5,145C 503.066,144.235 504.399,144.402 505.5,145.5C 506.221,147.382 507.221,147.715 508.5,146.5C 509.167,146.5 509.5,146.833 509.5,147.5C 512.771,149.862 516.104,149.862 519.5,147.5C 519.842,146.662 520.508,146.328 521.5,146.5C 524.5,145.5 526.5,143.5 527.5,140.5C 529.262,139.738 530.262,138.404 530.5,136.5C 532.625,128.13 535.958,127.463 540.5,134.5C 541.274,135.147 542.274,135.48 543.5,135.5C 545.03,135.36 546.03,134.693 546.5,133.5C 548.833,133.167 550.167,131.833 550.5,129.5C 553.341,127.36 554.674,124.36 554.5,120.5C 554.5,120.167 554.5,119.833 554.5,119.5C 556.042,118.699 557.708,118.366 559.5,118.5C 559.205,120.735 559.539,122.735 560.5,124.5 Z"/></g>
<g><path style="opacity:1" fill="#7f8081" d="M 550.5,129.5 C 550.167,131.833 548.833,133.167 546.5,133.5C 547.5,131.833 548.833,130.5 550.5,129.5 Z"/></g>
<g><path style="opacity:1" fill="#7b7c7e" d="M 546.5,133.5 C 546.03,134.693 545.03,135.36 543.5,135.5C 542.274,135.48 541.274,135.147 540.5,134.5C 542.565,134.483 544.565,134.15 546.5,133.5 Z"/></g>
<g><path style="opacity:1" fill="#262a2c" d="M 43.5,140.5 C 42.71,141.609 42.21,142.942 42,144.5C 40.7303,142.422 39.2303,142.088 37.5,143.5C 35.7686,146.615 33.7686,149.615 31.5,152.5C 29.1354,153.822 26.8021,153.822 24.5,152.5C 22.4504,150.453 20.117,148.786 17.5,147.5C 16.0277,145.883 15.361,143.883 15.5,141.5C 15.5108,139.955 15.8442,138.622 16.5,137.5C 17.9063,137.027 18.573,136.027 18.5,134.5C 20.5869,133.415 21.9202,131.749 22.5,129.5C 23.1451,128.188 24.1451,127.188 25.5,126.5C 27.5211,129.188 29.8544,131.521 32.5,133.5C 32.8634,135.777 33.8634,136.444 35.5,135.5C 41.9648,138.428 44.2981,136.428 42.5,129.5C 44.2624,128.738 45.2624,127.404 45.5,125.5C 46.8221,125.67 47.9887,125.337 49,124.5C 49.49,125.793 49.6567,127.127 49.5,128.5C 53.9561,128.393 54.9561,129.893 52.5,133C 53.3802,134.356 53.7135,135.856 53.5,137.5C 50.7375,137.796 48.2375,138.796 46,140.5C 44.6081,138.158 43.7748,138.158 43.5,140.5 Z"/></g>
<g><path style="opacity:1" fill="#4b4e51" d="M 42.5,129.5 C 44.2981,136.428 41.9648,138.428 35.5,135.5C 33.8634,136.444 32.8634,135.777 32.5,133.5C 34.4546,134.323 36.4546,134.49 38.5,134C 39.3281,132.008 40.6614,130.508 42.5,129.5 Z"/></g>
<g><path style="opacity:1" fill="#333738" d="M 45.5,147.5 C 43.8325,145.521 43.1658,143.188 43.5,140.5C 43.7748,138.158 44.6081,138.158 46,140.5C 48.2375,138.796 50.7375,137.796 53.5,137.5C 53.7135,135.856 53.3802,134.356 52.5,133C 54.9561,129.893 53.9561,128.393 49.5,128.5C 49.6567,127.127 49.49,125.793 49,124.5C 47.9887,125.337 46.8221,125.67 45.5,125.5C 46.1451,124.188 47.1451,123.188 48.5,122.5C 51.9127,127.383 56.5794,130.55 62.5,132C 63.3505,135.474 62.5172,138.64 60,141.5C 58.1877,144.28 56.021,146.78 53.5,149C 50.462,149.885 47.7954,149.385 45.5,147.5 Z"/></g>
<g><path style="opacity:1" fill="#b7b7b8" d="M 18.5,134.5 C 18.573,136.027 17.9063,137.027 16.5,137.5C 16.427,135.973 17.0937,134.973 18.5,134.5 Z"/></g>
<g><path style="opacity:1" fill="#bdbdbe" d="M 195.5,135.5 C 195.119,136.931 194.119,137.764 192.5,138C 184.142,137.745 175.808,137.911 167.5,138.5C 173.747,136.165 180.247,135.831 187,137.5C 190.024,137.519 192.858,136.853 195.5,135.5 Z"/></g>
<g><path style="opacity:1" fill="#d6d6d6" d="M 228.5,134.5 C 228.573,136.027 227.906,137.027 226.5,137.5C 226.427,135.973 227.094,134.973 228.5,134.5 Z"/></g>
<g><path style="opacity:1" fill="#a9a9aa" d="M 285.5,133.5 C 284.92,135.749 283.587,137.415 281.5,138.5C 282.08,136.251 283.413,134.585 285.5,133.5 Z"/></g>
<g><path style="opacity:1" fill="#848585" d="M 556.5,135.5 C 556.293,138.241 555.293,140.574 553.5,142.5C 553.273,139.562 554.273,137.229 556.5,135.5 Z"/></g>
<g><path style="opacity:1" fill="#abaeac" d="M 74.5,136.5 C 74.573,138.027 73.9063,139.027 72.5,139.5C 72.427,137.973 73.0937,136.973 74.5,136.5 Z"/></g>
<g><path style="opacity:1" fill="#24282a" d="M 254.5,118.5 C 253.533,119.806 252.199,120.473 250.5,120.5C 250.64,122.124 249.973,123.29 248.5,124C 249.252,124.671 249.586,125.504 249.5,126.5C 247.363,129.973 244.363,132.306 240.5,133.5C 236.298,133.183 232.298,133.517 228.5,134.5C 227.094,134.973 226.427,135.973 226.5,137.5C 222.353,146.733 215.353,149.733 205.5,146.5C 203.061,149.72 200.394,152.72 197.5,155.5C 196.417,155.539 195.417,155.873 194.5,156.5C 193.808,155.975 193.308,155.308 193,154.5C 192.02,156.059 191.187,157.726 190.5,159.5C 189.261,159.942 188.261,160.609 187.5,161.5C 179.5,161.5 171.5,161.5 163.5,161.5C 161.194,161.993 158.861,162.326 156.5,162.5C 156.634,164.292 156.301,165.958 155.5,167.5C 155.5,168.167 155.167,168.5 154.5,168.5C 152.413,169.585 151.08,171.251 150.5,173.5C 150.167,174.5 149.5,175.167 148.5,175.5C 147.527,174.209 146.527,174.209 145.5,175.5C 144.702,177.078 144.202,178.744 144,180.5C 143.586,180.043 143.086,179.709 142.5,179.5C 140.668,182.265 138.334,184.432 135.5,186C 137.192,187.401 137.859,189.234 137.5,191.5C 134.588,198.332 130.921,204.666 126.5,210.5C 125.094,210.973 124.427,211.973 124.5,213.5C 121.229,219.102 117.229,224.102 112.5,228.5C 109.285,230.197 107.285,229.197 106.5,225.5C 106.167,225.667 105.833,225.833 105.5,226C 107.459,228.316 107.459,230.316 105.5,232C 106.252,232.671 106.586,233.504 106.5,234.5C 105.5,234.833 104.833,235.5 104.5,236.5C 104.167,237.5 103.5,238.167 102.5,238.5C 100.973,238.427 99.9731,239.094 99.5,240.5C 99.5,241.167 99.1667,241.5 98.5,241.5C 96.8762,241.64 95.7096,240.973 95,239.5C 93.4111,241.869 91.9111,244.202 90.5,246.5C 89.2196,247.931 87.5529,248.598 85.5,248.5C 83.4471,248.402 81.7804,249.069 80.5,250.5C 75.8035,250.993 74.6368,249.326 77,245.5C 77.7175,246.451 78.5509,246.617 79.5,246C 78.4019,245.23 78.4019,244.397 79.5,243.5C 81.4044,243.262 82.7377,242.262 83.5,240.5C 85.0269,240.573 86.0269,239.906 86.5,238.5C 89.7642,236.906 92.4309,234.573 94.5,231.5C 97.1667,230.833 98.8333,229.167 99.5,226.5C 101.308,226.509 102.975,226.009 104.5,225C 104.167,224.667 103.833,224.333 103.5,224C 106.036,220.967 108.369,217.8 110.5,214.5C 111.786,211.883 113.453,209.55 115.5,207.5C 116.906,207.027 117.573,206.027 117.5,204.5C 118.906,204.027 119.573,203.027 119.5,201.5C 120.079,198.669 121.412,196.336 123.5,194.5C 124.906,194.027 125.573,193.027 125.5,191.5C 125.328,190.508 125.662,189.842 126.5,189.5C 128,188.412 129.333,187.079 130.5,185.5C 131.452,183.955 131.785,182.288 131.5,180.5C 132.906,180.027 133.573,179.027 133.5,177.5C 134.906,177.027 135.573,176.027 135.5,174.5C 135.66,172.847 136.326,171.514 137.5,170.5C 138.906,170.027 139.573,169.027 139.5,167.5C 140.906,167.027 141.573,166.027 141.5,164.5C 142.958,164.421 144.292,163.921 145.5,163C 145.043,162.586 144.709,162.086 144.5,161.5C 145.63,160.378 146.297,159.044 146.5,157.5C 147.906,157.027 148.573,156.027 148.5,154.5C 149.5,152.833 150.833,151.5 152.5,150.5C 155.167,149.833 156.833,148.167 157.5,145.5C 159.404,145.262 160.738,144.262 161.5,142.5C 161.973,141.094 162.973,140.427 164.5,140.5C 166.027,140.573 167.027,139.906 167.5,138.5C 175.808,137.911 184.142,137.745 192.5,138C 194.119,137.764 195.119,136.931 195.5,135.5C 197.833,135.167 199.167,133.833 199.5,131.5C 199.328,130.508 199.662,129.842 200.5,129.5C 201.906,129.027 202.573,128.027 202.5,126.5C 202.539,125.417 202.873,124.417 203.5,123.5C 205.299,122.212 206.965,122.212 208.5,123.5C 209.5,127.323 212,128.99 216,128.5C 217.986,128.431 219.486,127.765 220.5,126.5C 222.833,126.167 224.167,124.833 224.5,122.5C 225.906,122.027 226.573,121.027 226.5,119.5C 226.66,117.847 227.326,116.514 228.5,115.5C 230.792,114.314 233.126,114.314 235.5,115.5C 239.085,115.848 242.418,115.181 245.5,113.5C 248.084,112.952 249.084,111.285 248.5,108.5C 249.741,106.491 251.408,104.825 253.5,103.5C 255.593,103.831 257.26,105.331 258.5,108C 257.768,109.765 256.435,110.932 254.5,111.5C 255.672,113.823 255.672,116.156 254.5,118.5 Z"/></g>
<g><path style="opacity:1" fill="#a4a4a5" d="M 208.5,123.5 C 211.69,127.48 215.69,128.48 220.5,126.5C 219.486,127.765 217.986,128.431 216,128.5C 212,128.99 209.5,127.323 208.5,123.5 Z"/></g>
<g><path style="opacity:1" fill="#969797" d="M 224.5,122.5 C 224.167,124.833 222.833,126.167 220.5,126.5C 221.5,124.833 222.833,123.5 224.5,122.5 Z"/></g>
<g><path style="opacity:1" fill="#a5a7a8" d="M 412.5,136.5 C 414.359,136.461 415.692,137.294 416.5,139C 414.155,148.649 413.155,158.483 413.5,168.5C 412.28,159.612 412.614,150.612 414.5,141.5C 414.276,139.545 413.609,137.879 412.5,136.5 Z"/></g>
<g><path style="opacity:1" fill="#a1a3a5" d="M 530.5,136.5 C 530.262,138.404 529.262,139.738 527.5,140.5C 527.738,138.596 528.738,137.262 530.5,136.5 Z"/></g>
<g><path style="opacity:1" fill="#b7baba" d="M 167.5,138.5 C 167.027,139.906 166.027,140.573 164.5,140.5C 164.973,139.094 165.973,138.427 167.5,138.5 Z"/></g>
<g><path style="opacity:1" fill="#a2a2a4" d="M 104.5,133.5 C 106.533,134.898 107.533,136.898 107.5,139.5C 107.564,141.557 106.898,143.223 105.5,144.5C 105.677,140.766 105.344,137.099 104.5,133.5 Z"/></g>
<g><path style="opacity:1" fill="#838687" d="M 409.5,137.5 C 409.277,141.162 408.277,144.495 406.5,147.5C 406.723,143.838 407.723,140.505 409.5,137.5 Z"/></g>
<g><path style="opacity:1" fill="#a3a5a5" d="M 72.5,139.5 C 72.573,141.027 71.9063,142.027 70.5,142.5C 70.427,140.973 71.0937,139.973 72.5,139.5 Z"/></g>
<g><path style="opacity:1" fill="#a3a4a7" d="M 303.5,137.5 C 303.741,139.898 303.074,141.898 301.5,143.5C 301.595,141.214 302.262,139.214 303.5,137.5 Z"/></g>
<g><path style="opacity:1" fill="#adadb0" d="M 161.5,142.5 C 160.738,144.262 159.404,145.262 157.5,145.5C 158.262,143.738 159.596,142.738 161.5,142.5 Z"/></g>
<g><path style="opacity:1" fill="#56595b" d="M 43.5,140.5 C 43.1658,143.188 43.8325,145.521 45.5,147.5C 42.8333,146.167 40.1667,144.833 37.5,143.5C 39.2303,142.088 40.7303,142.422 42,144.5C 42.21,142.942 42.71,141.609 43.5,140.5 Z"/></g>
<g><path style="opacity:1" fill="#ababac" d="M 527.5,140.5 C 526.5,143.5 524.5,145.5 521.5,146.5C 523.167,144.167 525.167,142.167 527.5,140.5 Z"/></g>
<g><path style="opacity:1" fill="#b3b7b9" d="M 275.5,144.5 C 274.415,146.587 272.749,147.92 270.5,148.5C 271.585,146.413 273.251,145.08 275.5,144.5 Z"/></g>
<g><path style="opacity:1" fill="#cfd0d0" d="M 505.5,145.5 C 506.609,145.557 507.609,145.89 508.5,146.5C 507.221,147.715 506.221,147.382 505.5,145.5 Z"/></g>
<g><path style="opacity:1" fill="#a3a3a7" d="M 17.5,147.5 C 20.117,148.786 22.4504,150.453 24.5,152.5C 21.3567,152.031 19.0233,150.364 17.5,147.5 Z"/></g>
<g><path style="opacity:1" fill="#4b4e4e" d="M 84.5,143.5 C 80.9026,145.756 77.5693,148.423 74.5,151.5C 74.2436,149.208 74.5769,147.041 75.5,145C 77.3289,144.727 78.8289,143.893 80,142.5C 81.3561,143.38 82.8561,143.714 84.5,143.5 Z"/></g>
<g><path style="opacity:1" fill="#797a7b" d="M 157.5,145.5 C 156.833,148.167 155.167,149.833 152.5,150.5C 153.833,148.5 155.5,146.833 157.5,145.5 Z"/></g>
<g><path style="opacity:1" fill="#a8a8a8" d="M 509.5,147.5 C 512.753,148.247 516.086,148.247 519.5,147.5C 516.104,149.862 512.771,149.862 509.5,147.5 Z"/></g>
<g><path style="opacity:1" fill="#aeaeb0" d="M 270.5,148.5 C 269.738,150.262 268.404,151.262 266.5,151.5C 267.262,149.738 268.596,148.738 270.5,148.5 Z"/></g>
<g><path style="opacity:1" fill="#a7aaaa" d="M 266.5,151.5 C 266.027,152.906 265.027,153.573 263.5,153.5C 263.973,152.094 264.973,151.427 266.5,151.5 Z"/></g>
<g><path style="opacity:1" fill="#7a7c7b" d="M 296.5,152.5 C 295.92,154.749 294.587,156.415 292.5,157.5C 292.34,155.801 292.506,154.134 293,152.5C 293.333,153.167 293.667,153.833 294,154.5C 294.708,153.619 295.542,152.953 296.5,152.5 Z"/></g>
<g><path style="opacity:1" fill="#68696a" d="M 197.5,155.5 C 194.931,158.728 191.598,160.728 187.5,161.5C 188.261,160.609 189.261,159.942 190.5,159.5C 191.187,157.726 192.02,156.059 193,154.5C 193.308,155.308 193.808,155.975 194.5,156.5C 195.417,155.873 196.417,155.539 197.5,155.5 Z"/></g>
<g><path style="opacity:1" fill="#999a9f" d="M 406.5,147.5 C 406.706,150.495 406.04,153.162 404.5,155.5C 404.565,152.572 405.232,149.905 406.5,147.5 Z"/></g>
<g><path style="opacity:1" fill="#b7b7b8" d="M 109.5,152.5 C 110.815,155.627 110.482,158.627 108.5,161.5C 108.963,158.518 109.296,155.518 109.5,152.5 Z"/></g>
<g><path style="opacity:1" fill="#c3c4c6" d="M 534.5,153.5 C 534.573,155.027 533.906,156.027 532.5,156.5C 532.427,154.973 533.094,153.973 534.5,153.5 Z"/></g>
<g><path style="opacity:1" fill="#b2b2b6" d="M 148.5,154.5 C 148.573,156.027 147.906,157.027 146.5,157.5C 146.427,155.973 147.094,154.973 148.5,154.5 Z"/></g>
<g><path style="opacity:1" fill="#3c3e40" d="M 109.5,152.5 C 109.296,155.518 108.963,158.518 108.5,161.5C 108.333,165.673 107,169.34 104.5,172.5C 104.461,171.417 104.127,170.417 103.5,169.5C 104.5,168.167 105.5,166.833 106.5,165.5C 105.902,164.205 105.402,162.872 105,161.5C 103.385,162.386 101.885,163.386 100.5,164.5C 102.417,160.601 104.251,156.601 106,152.5C 107.292,151.209 108.458,151.209 109.5,152.5 Z"/></g>
<g><path style="opacity:1" fill="#9a9b9b" d="M 495.5,154.5 C 494.581,157.089 492.914,159.089 490.5,160.5C 491.419,157.911 493.086,155.911 495.5,154.5 Z"/></g>
<g><path style="opacity:1" fill="#808184" d="M 532.5,156.5 C 532.262,158.404 531.262,159.738 529.5,160.5C 528.255,158.011 529.255,156.678 532.5,156.5 Z"/></g>
<g><path style="opacity:1" fill="#cdcfcf" d="M 292.5,157.5 C 292.027,158.906 291.027,159.573 289.5,159.5C 289.973,158.094 290.973,157.427 292.5,157.5 Z"/></g>
<g><path style="opacity:1" fill="#afafb1" d="M 163.5,162.5 C 163.5,162.167 163.5,161.833 163.5,161.5C 171.5,161.5 179.5,161.5 187.5,161.5C 185.208,162.466 182.708,163.133 180,163.5C 174.537,162.622 169.037,162.288 163.5,162.5 Z"/></g>
<g><path style="opacity:1" fill="#a0a1a4" d="M 286.5,161.5 C 283.781,162.913 280.781,163.58 277.5,163.5C 280.123,161.735 283.123,161.068 286.5,161.5 Z"/></g>
<g><path style="opacity:1" fill="#5f6161" d="M 146.5,157.5 C 146.297,159.044 145.63,160.378 144.5,161.5C 144.709,162.086 145.043,162.586 145.5,163C 144.292,163.921 142.958,164.421 141.5,164.5C 142.433,161.63 144.1,159.296 146.5,157.5 Z"/></g>
<g><path style="opacity:1" fill="#5c6061" d="M 163.5,161.5 C 163.5,161.833 163.5,162.167 163.5,162.5C 160.841,164.164 158.175,165.83 155.5,167.5C 156.301,165.958 156.634,164.292 156.5,162.5C 158.861,162.326 161.194,161.993 163.5,161.5 Z"/></g>
<g><path style="opacity:1" fill="#949698" d="M 403.5,159.5 C 403.741,161.898 403.074,163.898 401.5,165.5C 401.595,163.214 402.262,161.214 403.5,159.5 Z"/></g>
<g><path style="opacity:1" fill="#acadb0" d="M 68.5,146.5 C 66.9691,152.962 65.3024,159.295 63.5,165.5C 63.7889,158.689 65.4555,152.355 68.5,146.5 Z"/></g>
<g><path style="opacity:1" fill="#d7d7d8" d="M 277.5,163.5 C 273.057,164.801 268.391,165.468 263.5,165.5C 267.919,164.028 272.586,163.362 277.5,163.5 Z"/></g>
<g><path style="opacity:1" fill="#9b9b9b" d="M 246.5,162.5 C 245.739,163.391 244.739,164.058 243.5,164.5C 242.571,165.689 242.238,167.022 242.5,168.5C 239.929,166.899 239.929,165.233 242.5,163.5C 243.736,162.754 245.07,162.421 246.5,162.5 Z"/></g>
<g><path style="opacity:1" fill="#99999b" d="M 486.5,164.5 C 486.167,165.167 485.833,165.833 485.5,166.5C 484.833,166.5 484.167,166.5 483.5,166.5C 483.973,165.094 484.973,164.427 486.5,164.5 Z"/></g>
<g><path style="opacity:1" fill="#858686" d="M 523.5,165.5 C 522.089,167.539 520.089,168.539 517.5,168.5C 518.801,167.36 519.968,166.027 521,164.5C 521.671,165.252 522.504,165.586 523.5,165.5 Z"/></g>
<g><path style="opacity:1" fill="#b9b9b9" d="M 141.5,164.5 C 141.573,166.027 140.906,167.027 139.5,167.5C 139.427,165.973 140.094,164.973 141.5,164.5 Z"/></g>
<g><path style="opacity:1" fill="#c4c6c6" d="M 263.5,165.5 C 259.733,166.795 255.733,167.461 251.5,167.5C 255.21,165.864 259.21,165.198 263.5,165.5 Z"/></g>
<g><path style="opacity:1" fill="#c3c4c5" d="M 502.5,167.5 C 501.041,167.433 499.708,167.766 498.5,168.5C 498.62,167.414 499.287,166.747 500.5,166.5C 501.416,166.543 502.083,166.876 502.5,167.5 Z"/></g>
<g><path style="opacity:1" fill="#ababab" d="M 502.5,167.5 C 507.463,168.254 512.463,168.587 517.5,168.5C 515.696,169.162 513.696,169.495 511.5,169.5C 508.186,169.657 505.186,168.991 502.5,167.5 Z"/></g>
<g><path style="opacity:1" fill="#242829" d="M 96.5,128.5 C 97.9303,129.537 99.597,130.204 101.5,130.5C 102.167,131.833 103.167,132.833 104.5,133.5C 105.344,137.099 105.677,140.766 105.5,144.5C 104.201,147.872 102.534,148.205 100.5,145.5C 100.649,144.448 100.483,143.448 100,142.5C 98.6439,143.38 97.1439,143.714 95.5,143.5C 91.8333,143.5 88.1667,143.5 84.5,143.5C 82.8561,143.714 81.3561,143.38 80,142.5C 78.8289,143.893 77.3289,144.727 75.5,145C 74.5769,147.041 74.2436,149.208 74.5,151.5C 71.9802,158.837 73.6468,164.837 79.5,169.5C 79.9867,170.473 80.4867,171.473 81,172.5C 85.0263,172.466 89.193,172.299 93.5,172C 94.056,171.617 94.3893,171.117 94.5,170.5C 96.0269,170.573 97.0269,169.906 97.5,168.5C 97.5,167.833 97.8333,167.5 98.5,167.5C 99.9063,167.027 100.573,166.027 100.5,164.5C 101.885,163.386 103.385,162.386 105,161.5C 105.402,162.872 105.902,164.205 106.5,165.5C 105.5,166.833 104.5,168.167 103.5,169.5C 104.127,170.417 104.461,171.417 104.5,172.5C 102.455,173.923 101.455,175.923 101.5,178.5C 100.11,179.899 99.1103,181.566 98.5,183.5C 98.6716,184.492 98.3382,185.158 97.5,185.5C 93.6246,184.874 91.7913,186.541 92,190.5C 91.6667,189.833 91.3333,189.167 91,188.5C 89.5549,191.09 88.3882,193.757 87.5,196.5C 82.8662,202.453 76.8662,206.453 69.5,208.5C 66.6275,208.802 63.9608,209.469 61.5,210.5C 58.5,211.833 55.5,211.833 52.5,210.5C 51.4863,209.326 50.153,208.66 48.5,208.5C 43.9516,204.189 38.9516,203.522 33.5,206.5C 30.4816,206.335 27.4816,206.502 24.5,207C 25.3081,207.308 25.9747,207.808 26.5,208.5C 25.6086,209.59 24.6086,209.59 23.5,208.5C 22.6376,209.766 21.9709,211.099 21.5,212.5C 17.7288,215.768 14.0622,219.268 10.5,223C 7.73834,224.077 6.07167,223.244 5.5,220.5C 7.25027,219.341 8.25027,217.674 8.5,215.5C 8.99249,213.181 9.99249,211.181 11.5,209.5C 12.9063,209.027 13.573,208.027 13.5,206.5C 15.2624,205.738 16.2624,204.404 16.5,202.5C 17.4194,199.911 19.086,197.911 21.5,196.5C 24.1667,194.5 26.5,192.167 28.5,189.5C 30.7488,188.92 32.4154,187.587 33.5,185.5C 35.0269,185.573 36.0269,184.906 36.5,183.5C 38.8477,183.408 40.5144,182.408 41.5,180.5C 43.698,180.88 45.3646,180.213 46.5,178.5C 51.1586,176.834 55.4919,177.5 59.5,180.5C 59.56,181.043 59.8933,181.376 60.5,181.5C 61.4519,179.955 61.7852,178.288 61.5,176.5C 61.5,176.167 61.5,175.833 61.5,175.5C 62.2216,175.082 62.7216,174.416 63,173.5C 63.4974,170.854 63.6641,168.187 63.5,165.5C 65.3024,159.295 66.9691,152.962 68.5,146.5C 68.6596,144.847 69.3263,143.514 70.5,142.5C 71.9063,142.027 72.573,141.027 72.5,139.5C 73.9063,139.027 74.573,138.027 74.5,136.5C 74.8333,135.5 75.5,134.833 76.5,134.5C 78.4044,134.262 79.7377,133.262 80.5,131.5C 81.5137,130.326 82.847,129.66 84.5,129.5C 88.4809,128.979 92.4809,128.646 96.5,128.5 Z"/></g>
<g><path style="opacity:1" fill="#acb0b0" d="M 100.5,164.5 C 100.573,166.027 99.9063,167.027 98.5,167.5C 98.427,165.973 99.0937,164.973 100.5,164.5 Z"/></g>
<g><path style="opacity:1" fill="#78797b" d="M 100.5,145.5 C 98.597,145.204 96.9303,144.537 95.5,143.5C 97.1439,143.714 98.6439,143.38 100,142.5C 100.483,143.448 100.649,144.448 100.5,145.5 Z"/></g>
<g><path style="opacity:1" fill="#acacb0" d="M 97.5,168.5 C 97.0269,169.906 96.0269,170.573 94.5,170.5C 94.9731,169.094 95.9731,168.427 97.5,168.5 Z"/></g>
<g><path style="opacity:1" fill="#bec0c0" d="M 139.5,167.5 C 139.573,169.027 138.906,170.027 137.5,170.5C 137.427,168.973 138.094,167.973 139.5,167.5 Z"/></g>
<g><path style="opacity:1" fill="#d5d5d5" d="M 154.5,168.5 C 153.92,170.749 152.587,172.415 150.5,173.5C 151.08,171.251 152.413,169.585 154.5,168.5 Z"/></g>
<g><path style="opacity:1" fill="#989899" d="M 79.5,169.5 C 84.3812,171.626 89.3812,171.959 94.5,170.5C 94.3893,171.117 94.056,171.617 93.5,172C 89.193,172.299 85.0263,172.466 81,172.5C 80.4867,171.473 79.9867,170.473 79.5,169.5 Z"/></g>
<g><path style="opacity:1" fill="#242729" d="M 412.5,136.5 C 413.609,137.879 414.276,139.545 414.5,141.5C 412.614,150.612 412.28,159.612 413.5,168.5C 413.077,170.781 413.744,172.448 415.5,173.5C 417.471,175.808 419.471,178.142 421.5,180.5C 422.842,181.793 424.509,182.626 426.5,183C 430.689,183.812 434.689,183.645 438.5,182.5C 442.416,183.039 445.416,181.706 447.5,178.5C 447.842,177.662 448.508,177.328 449.5,177.5C 452.427,176.243 454.761,174.243 456.5,171.5C 458.914,170.089 460.581,168.089 461.5,165.5C 462.261,164.609 463.261,163.942 464.5,163.5C 470.147,168.831 476.48,169.831 483.5,166.5C 484.167,166.5 484.833,166.5 485.5,166.5C 488.491,169.594 487.991,170.594 484,169.5C 483.333,170.5 483.333,171.5 484,172.5C 485.667,171.167 487.333,171.167 489,172.5C 489.333,171.833 489.667,171.167 490,170.5C 490.853,172.125 491.853,172.458 493,171.5C 493.483,172.448 493.649,173.448 493.5,174.5C 491.5,175.833 489.833,177.5 488.5,179.5C 488.167,180.5 487.5,181.167 486.5,181.5C 484.973,181.427 483.973,182.094 483.5,183.5C 476.251,188.324 468.751,188.657 461,184.5C 459.483,186.24 457.983,187.906 456.5,189.5C 455.094,189.973 454.427,190.973 454.5,192.5C 454.167,193.5 453.5,194.167 452.5,194.5C 451.094,194.973 450.427,195.973 450.5,197.5C 449.833,198.833 448.833,199.833 447.5,200.5C 443.905,201.492 440.572,202.825 437.5,204.5C 437.5,205.5 437.5,206.5 437.5,207.5C 435.143,207.337 432.81,207.503 430.5,208C 431.167,208.333 431.833,208.667 432.5,209C 431.263,209.232 430.263,209.732 429.5,210.5C 424.012,210.752 418.678,210.085 413.5,208.5C 413.027,207.094 412.027,206.427 410.5,206.5C 407.911,205.581 405.911,203.914 404.5,201.5C 404.573,199.973 403.906,198.973 402.5,198.5C 401.662,198.158 401.328,197.492 401.5,196.5C 401.262,194.355 400.262,192.688 398.5,191.5C 397.227,192.257 397.227,192.923 398.5,193.5C 395.901,198.428 392.568,202.761 388.5,206.5C 386.847,206.66 385.514,207.326 384.5,208.5C 380.267,208.539 376.267,209.205 372.5,210.5C 367.586,210.362 362.919,211.028 358.5,212.5C 357.167,213.833 355.833,213.833 354.5,212.5C 354.5,210.5 354.5,208.5 354.5,206.5C 357.406,205.892 359.74,204.559 361.5,202.5C 363.849,200.659 366.515,199.326 369.5,198.5C 371.674,198.25 373.341,197.25 374.5,195.5C 374.842,194.662 375.508,194.328 376.5,194.5C 378.027,194.573 379.027,193.906 379.5,192.5C 379.842,191.662 380.508,191.328 381.5,191.5C 383.027,191.573 384.027,190.906 384.5,189.5C 392.61,183.298 398.277,175.298 401.5,165.5C 403.074,163.898 403.741,161.898 403.5,159.5C 403.232,157.901 403.566,156.568 404.5,155.5C 406.04,153.162 406.706,150.495 406.5,147.5C 408.277,144.495 409.277,141.162 409.5,137.5C 410.209,136.596 411.209,136.263 412.5,136.5 Z"/></g>
<g><path style="opacity:1" fill="#a6a7a8" d="M 461.5,165.5 C 460.581,168.089 458.914,170.089 456.5,171.5C 457.419,168.911 459.086,166.911 461.5,165.5 Z"/></g>
<g><path style="opacity:1" fill="#979797" d="M 63.5,165.5 C 63.6641,168.187 63.4974,170.854 63,173.5C 62.7216,174.416 62.2216,175.082 61.5,175.5C 61.7526,171.96 62.4192,168.627 63.5,165.5 Z"/></g>
<g><path style="opacity:1" fill="#7f7f80" d="M 413.5,168.5 C 414.537,169.93 415.204,171.597 415.5,173.5C 413.744,172.448 413.077,170.781 413.5,168.5 Z"/></g>
<g><path style="opacity:1" fill="#929494" d="M 456.5,171.5 C 454.761,174.243 452.427,176.243 449.5,177.5C 451.239,174.757 453.573,172.757 456.5,171.5 Z"/></g>
<g><path style="opacity:1" fill="#7a7f7f" d="M 104.5,172.5 C 104.346,174.97 103.346,176.97 101.5,178.5C 101.455,175.923 102.455,173.923 104.5,172.5 Z"/></g>
<g><path style="opacity:1" fill="#e1e2e2" d="M 61.5,176.5 C 61.7852,178.288 61.4519,179.955 60.5,181.5C 59.8933,181.376 59.56,181.043 59.5,180.5C 60.1667,179.167 60.8333,177.833 61.5,176.5 Z"/></g>
<g><path style="opacity:1" fill="#a1a5a6" d="M 135.5,174.5 C 135.573,176.027 134.906,177.027 133.5,177.5C 133.427,175.973 134.094,174.973 135.5,174.5 Z"/></g>
<g><path style="opacity:1" fill="#d6d6d6" d="M 493.5,174.5 C 492.833,177.167 491.167,178.833 488.5,179.5C 489.833,177.5 491.5,175.833 493.5,174.5 Z"/></g>
<g><path style="opacity:1" fill="#8d8e91" d="M 46.5,178.5 C 45.3646,180.213 43.698,180.88 41.5,180.5C 42.7804,179.069 44.4471,178.402 46.5,178.5 Z"/></g>
<g><path style="opacity:1" fill="#babdbe" d="M 133.5,177.5 C 133.573,179.027 132.906,180.027 131.5,180.5C 131.427,178.973 132.094,177.973 133.5,177.5 Z"/></g>
<g><path style="opacity:1" fill="#828282" d="M 447.5,178.5 C 445.416,181.706 442.416,183.039 438.5,182.5C 441.457,181.177 444.457,179.843 447.5,178.5 Z"/></g>
<g><path style="opacity:1" fill="#b9bfbf" d="M 101.5,178.5 C 101.727,180.933 100.727,182.599 98.5,183.5C 99.1103,181.566 100.11,179.899 101.5,178.5 Z"/></g>
<g><path style="opacity:1" fill="#b5b6b7" d="M 421.5,180.5 C 427.03,182.125 432.697,182.791 438.5,182.5C 434.689,183.645 430.689,183.812 426.5,183C 424.509,182.626 422.842,181.793 421.5,180.5 Z"/></g>
<g><path style="opacity:1" fill="#9b9d9d" d="M 41.5,180.5 C 40.5144,182.408 38.8477,183.408 36.5,183.5C 37.6594,181.75 39.326,180.75 41.5,180.5 Z"/></g>
<g><path style="opacity:1" fill="#dcdcde" d="M 486.5,181.5 C 486.027,182.906 485.027,183.573 483.5,183.5C 483.973,182.094 484.973,181.427 486.5,181.5 Z"/></g>
<g><path style="opacity:1" fill="#717273" d="M 131.5,180.5 C 131.785,182.288 131.452,183.955 130.5,185.5C 129.333,187.079 128,188.412 126.5,189.5C 127.774,186.24 129.44,183.24 131.5,180.5 Z"/></g>
<g><path style="opacity:1" fill="#949898" d="M 36.5,183.5 C 36.0269,184.906 35.0269,185.573 33.5,185.5C 33.9731,184.094 34.9731,183.427 36.5,183.5 Z"/></g>
<g><path style="opacity:1" fill="#404242" d="M 148.5,175.5 C 145.324,181.189 141.658,186.523 137.5,191.5C 137.859,189.234 137.192,187.401 135.5,186C 138.334,184.432 140.668,182.265 142.5,179.5C 143.086,179.709 143.586,180.043 144,180.5C 144.202,178.744 144.702,177.078 145.5,175.5C 146.527,174.209 147.527,174.209 148.5,175.5 Z"/></g>
<g><path style="opacity:1" fill="#888888" d="M 33.5,185.5 C 32.4154,187.587 30.7488,188.92 28.5,189.5C 29.5846,187.413 31.2512,186.08 33.5,185.5 Z"/></g>
<g><path style="opacity:1" fill="#9b9b9e" d="M 384.5,189.5 C 384.027,190.906 383.027,191.573 381.5,191.5C 381.973,190.094 382.973,189.427 384.5,189.5 Z"/></g>
<g><path style="opacity:1" fill="#cfcfcf" d="M 456.5,189.5 C 456.573,191.027 455.906,192.027 454.5,192.5C 454.427,190.973 455.094,189.973 456.5,189.5 Z"/></g>
<g><path style="opacity:1" fill="#b0b0b2" d="M 28.5,189.5 C 26.5,192.167 24.1667,194.5 21.5,196.5C 22.8333,193.167 25.1667,190.833 28.5,189.5 Z"/></g>
<g><path style="opacity:1" fill="#4e5052" d="M 97.5,185.5 C 94.8769,189.791 91.5436,193.457 87.5,196.5C 88.3882,193.757 89.5549,191.09 91,188.5C 91.3333,189.167 91.6667,189.833 92,190.5C 91.7913,186.541 93.6246,184.874 97.5,185.5 Z"/></g>
<g><path style="opacity:1" fill="#bebfc2" d="M 125.5,191.5 C 125.573,193.027 124.906,194.027 123.5,194.5C 123.427,192.973 124.094,191.973 125.5,191.5 Z"/></g>
<g><path style="opacity:1" fill="#b5b8b8" d="M 379.5,192.5 C 379.027,193.906 378.027,194.573 376.5,194.5C 376.973,193.094 377.973,192.427 379.5,192.5 Z"/></g>
<g><path style="opacity:1" fill="#c9cacd" d="M 401.5,196.5 C 400.272,195.694 399.272,194.694 398.5,193.5C 397.227,192.923 397.227,192.257 398.5,191.5C 400.262,192.688 401.262,194.355 401.5,196.5 Z"/></g>
<g><path style="opacity:1" fill="#cccecf" d="M 452.5,194.5 C 452.573,196.027 451.906,197.027 450.5,197.5C 450.427,195.973 451.094,194.973 452.5,194.5 Z"/></g>
<g><path style="opacity:1" fill="#bbbcbc" d="M 374.5,195.5 C 373.341,197.25 371.674,198.25 369.5,198.5C 370.659,196.75 372.326,195.75 374.5,195.5 Z"/></g>
<g><path style="opacity:1" fill="#d5d5d7" d="M 402.5,198.5 C 403.906,198.973 404.573,199.973 404.5,201.5C 403.094,201.027 402.427,200.027 402.5,198.5 Z"/></g>
<g><path style="opacity:1" fill="#a4a6a9" d="M 119.5,201.5 C 119.573,203.027 118.906,204.027 117.5,204.5C 117.427,202.973 118.094,201.973 119.5,201.5 Z"/></g>
<g><path style="opacity:1" fill="#969797" d="M 16.5,202.5 C 16.2624,204.404 15.2624,205.738 13.5,206.5C 13.7376,204.596 14.7376,203.262 16.5,202.5 Z"/></g>
<g><path style="opacity:1" fill="#696b6d" d="M 447.5,200.5 C 444.725,203.605 441.392,205.938 437.5,207.5C 437.5,206.5 437.5,205.5 437.5,204.5C 440.572,202.825 443.905,201.492 447.5,200.5 Z"/></g>
<g><path style="opacity:1" fill="#767879" d="M 361.5,202.5 C 359.74,204.559 357.406,205.892 354.5,206.5C 356.336,204.412 358.669,203.079 361.5,202.5 Z"/></g>
<g><path style="opacity:1" fill="#6a6c6d" d="M 33.5,206.5 C 29.75,208.896 25.75,210.896 21.5,212.5C 21.9709,211.099 22.6376,209.766 23.5,208.5C 24.6086,209.59 25.6086,209.59 26.5,208.5C 25.9747,207.808 25.3081,207.308 24.5,207C 27.4816,206.502 30.4816,206.335 33.5,206.5 Z"/></g>
<g><path style="opacity:1" fill="#d7d7d9" d="M 48.5,208.5 C 45.7279,207.409 42.8946,206.409 40,205.5C 37.9011,206.287 35.7345,206.62 33.5,206.5C 38.9516,203.522 43.9516,204.189 48.5,208.5 Z"/></g>
<g><path style="opacity:1" fill="#a4a7a7" d="M 117.5,204.5 C 117.573,206.027 116.906,207.027 115.5,207.5C 115.427,205.973 116.094,204.973 117.5,204.5 Z"/></g>
<g><path style="opacity:1" fill="#8e9191" d="M 354.5,206.5 C 354.5,208.5 354.5,210.5 354.5,212.5C 353.694,211.003 353.028,209.336 352.5,207.5C 352.957,206.702 353.624,206.369 354.5,206.5 Z"/></g>
<g><path style="opacity:1" fill="#c4c4c4" d="M 388.5,206.5 C 387.713,208.104 386.38,208.771 384.5,208.5C 385.514,207.326 386.847,206.66 388.5,206.5 Z"/></g>
<g><path style="opacity:1" fill="#b5b5b5" d="M 410.5,206.5 C 412.027,206.427 413.027,207.094 413.5,208.5C 411.973,208.573 410.973,207.906 410.5,206.5 Z"/></g>
<g><path style="opacity:1" fill="#828283" d="M 437.5,207.5 C 435.316,209.585 432.649,210.585 429.5,210.5C 430.263,209.732 431.263,209.232 432.5,209C 431.833,208.667 431.167,208.333 430.5,208C 432.81,207.503 435.143,207.337 437.5,207.5 Z"/></g>
<g><path style="opacity:1" fill="#b9bbbb" d="M 13.5,206.5 C 13.573,208.027 12.9063,209.027 11.5,209.5C 11.427,207.973 12.0937,206.973 13.5,206.5 Z"/></g>
<g><path style="opacity:1" fill="#d0d1d2" d="M 48.5,208.5 C 50.153,208.66 51.4863,209.326 52.5,210.5C 50.6203,210.771 49.287,210.104 48.5,208.5 Z"/></g>
<g><path style="opacity:1" fill="#c6c6c7" d="M 69.5,208.5 C 67.22,210.223 64.5533,210.889 61.5,210.5C 63.9608,209.469 66.6275,208.802 69.5,208.5 Z"/></g>
<g><path style="opacity:1" fill="#d7d8d9" d="M 384.5,208.5 C 380.817,210.25 376.817,210.917 372.5,210.5C 376.267,209.205 380.267,208.539 384.5,208.5 Z"/></g>
<g><path style="opacity:1" fill="#b0b1b3" d="M 413.5,208.5 C 418.678,210.085 424.012,210.752 429.5,210.5C 426.024,211.643 422.358,211.81 418.5,211C 416.509,210.626 414.842,209.793 413.5,208.5 Z"/></g>
<g><path style="opacity:1" fill="#cfd0d1" d="M 372.5,210.5 C 368.057,211.801 363.391,212.468 358.5,212.5C 362.919,211.028 367.586,210.362 372.5,210.5 Z"/></g>
<g><path style="opacity:1" fill="#d7d7d8" d="M 126.5,210.5 C 126.573,212.027 125.906,213.027 124.5,213.5C 124.427,211.973 125.094,210.973 126.5,210.5 Z"/></g>
<g><path style="opacity:1" fill="#bcbfc1" d="M 8.5,215.5 C 8.25027,217.674 7.25027,219.341 5.5,220.5C 5.74973,218.326 6.74973,216.659 8.5,215.5 Z"/></g>
<g><path style="opacity:1" fill="#545558" d="M 110.5,214.5 C 108.369,217.8 106.036,220.967 103.5,224C 103.833,224.333 104.167,224.667 104.5,225C 102.975,226.009 101.308,226.509 99.5,226.5C 102.71,222.079 106.377,218.079 110.5,214.5 Z"/></g>
<g><path style="opacity:1" fill="#818383" d="M 475.5,224.5 C 473.602,223.266 471.935,223.599 470.5,225.5C 470.712,223.616 471.712,222.283 473.5,221.5C 474.919,222.005 475.585,223.005 475.5,224.5 Z"/></g>
<g><path style="opacity:1" fill="#515555" d="M 112.5,228.5 C 111.581,231.089 109.914,233.089 107.5,234.5C 107.167,234.5 106.833,234.5 106.5,234.5C 106.586,233.504 106.252,232.671 105.5,232C 107.459,230.316 107.459,228.316 105.5,226C 105.833,225.833 106.167,225.667 106.5,225.5C 107.285,229.197 109.285,230.197 112.5,228.5 Z"/></g>
<g><path style="opacity:1" fill="#707373" d="M 99.5,226.5 C 98.8333,229.167 97.1667,230.833 94.5,231.5C 95.8333,229.5 97.5,227.833 99.5,226.5 Z"/></g>
<g><path style="opacity:1" fill="#727276" d="M 475.5,224.5 C 478.365,226.761 481.365,228.761 484.5,230.5C 479.327,231.65 476.327,229.65 475.5,224.5 Z"/></g>
<g><path style="opacity:1" fill="#242729" d="M 475.5,224.5 C 476.327,229.65 479.327,231.65 484.5,230.5C 486.948,230.085 488.281,231.085 488.5,233.5C 487.6,236.716 485.933,239.382 483.5,241.5C 482.094,241.973 481.427,242.973 481.5,244.5C 481.5,245.167 481.167,245.5 480.5,245.5C 477.838,247.268 474.838,247.935 471.5,247.5C 471.027,246.094 470.027,245.427 468.5,245.5C 467.277,243.016 465.777,240.683 464,238.5C 463.49,241.005 461.99,242.505 459.5,243C 460.413,244.414 460.413,245.914 459.5,247.5C 458.118,248.801 456.452,249.634 454.5,250C 454.833,250.333 455.167,250.667 455.5,251C 453.527,251.495 451.527,251.662 449.5,251.5C 448.508,251.672 447.842,251.338 447.5,250.5C 447.027,249.094 446.027,248.427 444.5,248.5C 445.745,246.011 444.745,244.678 441.5,244.5C 440.244,242.059 440.244,239.726 441.5,237.5C 442.906,237.027 443.573,236.027 443.5,234.5C 443.427,232.973 444.094,231.973 445.5,231.5C 447.148,230.19 448.814,228.857 450.5,227.5C 451.424,229.39 452.757,230.89 454.5,232C 454.167,232.333 453.833,232.667 453.5,233C 456.168,233.567 458.834,234.067 461.5,234.5C 463.725,235.332 465.058,234.332 465.5,231.5C 466.443,228.891 468.11,226.891 470.5,225.5C 471.935,223.599 473.602,223.266 475.5,224.5 Z"/></g>
<g><path style="opacity:1" fill="#717375" d="M 461.5,234.5 C 458.834,234.067 456.168,233.567 453.5,233C 453.833,232.667 454.167,232.333 454.5,232C 452.757,230.89 451.424,229.39 450.5,227.5C 448.814,228.857 447.148,230.19 445.5,231.5C 446.396,228.931 448.062,226.931 450.5,225.5C 452.04,227.387 453.707,229.22 455.5,231C 457.727,231.941 459.727,233.108 461.5,234.5 Z"/></g>
<g><path style="opacity:1" fill="#9ba0a0" d="M 465.5,231.5 C 465.058,234.332 463.725,235.332 461.5,234.5C 462.833,233.5 464.167,232.5 465.5,231.5 Z"/></g>
<g><path style="opacity:1" fill="#9c9fa0" d="M 94.5,231.5 C 92.4309,234.573 89.7642,236.906 86.5,238.5C 88.5691,235.427 91.2358,233.094 94.5,231.5 Z"/></g>
<g><path style="opacity:1" fill="#d6d6d6" d="M 106.5,234.5 C 106.833,234.5 107.167,234.5 107.5,234.5C 107.027,235.906 106.027,236.573 104.5,236.5C 104.833,235.5 105.5,234.833 106.5,234.5 Z"/></g>
<g><path style="opacity:1" fill="#9c9ca1" d="M 443.5,234.5 C 443.573,236.027 442.906,237.027 441.5,237.5C 441.427,235.973 442.094,234.973 443.5,234.5 Z"/></g>
<g><path style="opacity:1" fill="#9e9e9e" d="M 86.5,238.5 C 86.0269,239.906 85.0269,240.573 83.5,240.5C 83.9731,239.094 84.9731,238.427 86.5,238.5 Z"/></g>
<g><path style="opacity:1" fill="#d5d5db" d="M 102.5,238.5 C 102.027,239.906 101.027,240.573 99.5,240.5C 99.9731,239.094 100.973,238.427 102.5,238.5 Z"/></g>
<g><path style="opacity:1" fill="#515656" d="M 468.5,245.5 C 466.629,245.141 465.129,244.141 464,242.5C 462.483,244.24 460.983,245.906 459.5,247.5C 460.413,245.914 460.413,244.414 459.5,243C 461.99,242.505 463.49,241.005 464,238.5C 465.777,240.683 467.277,243.016 468.5,245.5 Z"/></g>
<g><path style="opacity:1" fill="#a3a3a5" d="M 83.5,240.5 C 82.7377,242.262 81.4044,243.262 79.5,243.5C 80.2623,241.738 81.5956,240.738 83.5,240.5 Z"/></g>
<g><path style="opacity:1" fill="#dbdbdb" d="M 483.5,241.5 C 483.573,243.027 482.906,244.027 481.5,244.5C 481.427,242.973 482.094,241.973 483.5,241.5 Z"/></g>
<g><path style="opacity:1" fill="#6d7172" d="M 98.5,241.5 C 96.178,243.664 93.5113,245.331 90.5,246.5C 91.9111,244.202 93.4111,241.869 95,239.5C 95.7096,240.973 96.8762,241.64 98.5,241.5 Z"/></g>
<g><path style="opacity:1" fill="#76777a" d="M 441.5,244.5 C 444.745,244.678 445.745,246.011 444.5,248.5C 442.738,247.738 441.738,246.404 441.5,244.5 Z"/></g>
<g><path style="opacity:1" fill="#bfbfbf" d="M 468.5,245.5 C 470.027,245.427 471.027,246.094 471.5,247.5C 469.973,247.573 468.973,246.906 468.5,245.5 Z"/></g>
<g><path style="opacity:1" fill="#b3b3b6" d="M 480.5,245.5 C 480.586,246.496 480.252,247.329 479.5,248C 476.77,249.49 474.103,249.324 471.5,247.5C 474.838,247.935 477.838,247.268 480.5,245.5 Z"/></g>
<g><path style="opacity:1" fill="#666869" d="M 79.5,243.5 C 78.4019,244.397 78.4019,245.23 79.5,246C 78.5509,246.617 77.7175,246.451 77,245.5C 74.6368,249.326 75.8035,250.993 80.5,250.5C 78.086,251.933 75.4194,252.433 72.5,252C 71.1667,250.333 71.1667,248.667 72.5,247C 74.5766,245.295 76.91,244.128 79.5,243.5 Z"/></g>
<g><path style="opacity:1" fill="#c4c4c8" d="M 85.5,248.5 C 84.2196,249.931 82.5529,250.598 80.5,250.5C 81.7804,249.069 83.4471,248.402 85.5,248.5 Z"/></g>
<g><path style="opacity:1" fill="#b7b7b8" d="M 444.5,248.5 C 446.027,248.427 447.027,249.094 447.5,250.5C 445.973,250.573 444.973,249.906 444.5,248.5 Z"/></g>
<g><path style="opacity:1" fill="#a7a9aa" d="M 459.5,247.5 C 457.569,252.347 454.236,253.68 449.5,251.5C 451.527,251.662 453.527,251.495 455.5,251C 455.167,250.667 454.833,250.333 454.5,250C 456.452,249.634 458.118,248.801 459.5,247.5 Z"/></g>
</svg>
