<?xml version="1.0" encoding="UTF-8"?>
<!DOCTYPE svg PUBLIC "-//W3C//DTD SVG 1.1//EN" "http://www.w3.org/Graphics/SVG/1.1/DTD/svg11.dtd">
<svg xmlns="http://www.w3.org/2000/svg" version="1.1" width="566px" height="259px" style="shape-rendering:geometricPrecision; text-rendering:geometricPrecision; image-rendering:optimizeQuality; fill-rule:evenodd; clip-rule:evenodd" xmlns:xlink="http://www.w3.org/1999/xlink">
<g><path style="opacity:1" fill="#494848" d="M 263.5,8.5 C 266.957,7.09173 268.624,8.42506 268.5,12.5C 267.596,11.791 267.263,10.791 267.5,9.5C 266.041,9.56745 264.708,9.23411 263.5,8.5 Z"/></g>
<g><path style="opacity:1" fill="#949290" d="M 268.5,15.5 C 269.944,20.6935 271.277,26.0268 272.5,31.5C 271.466,30.3129 270.133,29.4796 268.5,29C 268.833,28.6667 269.167,28.3333 269.5,28C 268.643,27.3109 267.977,26.4776 267.5,25.5C 268.417,22.2423 268.751,18.909 268.5,15.5 Z"/></g>
<g><path style="opacity:1" fill="#d3cecd" d="M 263.5,8.5 C 264.708,9.23411 266.041,9.56745 267.5,9.5C 267.263,10.791 267.596,11.791 268.5,12.5C 268.5,13.5 268.5,14.5 268.5,15.5C 268.751,18.909 268.417,22.2423 267.5,25.5C 267.977,26.4776 268.643,27.3109 269.5,28C 269.167,28.3333 268.833,28.6667 268.5,29C 270.133,29.4796 271.466,30.3129 272.5,31.5C 273.537,32.9303 274.204,34.597 274.5,36.5C 275.053,38.9393 275.053,41.2727 274.5,43.5C 275.611,45.5522 277.277,46.8855 279.5,47.5C 281.696,50.5578 283.362,53.8911 284.5,57.5C 284.427,59.0269 285.094,60.0269 286.5,60.5C 287.674,61.5137 288.34,62.847 288.5,64.5C 288.427,66.0269 289.094,67.0269 290.5,67.5C 290.714,69.1439 290.38,70.6439 289.5,72C 290.708,72.9207 292.042,73.4207 293.5,73.5C 293.698,75.5753 293.865,77.5753 294,79.5C 291.778,76.9557 289.611,76.9557 287.5,79.5C 285.296,79.4731 284.462,78.4731 285,76.5C 285.718,77.4506 286.551,77.6172 287.5,77C 286.667,76.1667 285.833,75.3333 285,74.5C 283.887,75.7111 282.72,75.7111 281.5,74.5C 279.881,70.9009 277.548,67.9009 274.5,65.5C 273.817,65.8627 273.15,66.1961 272.5,66.5C 271.662,66.1583 271.328,65.4916 271.5,64.5C 271.34,62.847 270.674,61.5137 269.5,60.5C 268.662,60.1583 268.328,59.4916 268.5,58.5C 268.585,57.0047 267.919,56.0047 266.5,55.5C 265.503,62.1335 265.17,68.8002 265.5,75.5C 265.605,79.5483 265.272,83.5483 264.5,87.5C 260.553,90.2831 259.553,93.9498 261.5,98.5C 259.876,98.3601 258.71,99.0267 258,100.5C 257.667,99.8333 257.333,99.1667 257,98.5C 256,99.8333 255,101.167 254,102.5C 252.812,101.437 252.312,100.103 252.5,98.5C 253.548,82.508 253.548,66.508 252.5,50.5C 252.125,43.2647 253.125,36.2647 255.5,29.5C 257.655,27.3826 258.655,24.716 258.5,21.5C 259.213,16.6763 260.88,12.343 263.5,8.5 Z"/></g>
<g><path style="opacity:1" fill="#656363" d="M 258.5,21.5 C 258.655,24.716 257.655,27.3826 255.5,29.5C 255.98,26.5568 256.98,23.8902 258.5,21.5 Z"/></g>
<g><path style="opacity:1" fill="#838282" d="M 274.5,36.5 C 276.403,39.9789 278.07,43.6456 279.5,47.5C 277.277,46.8855 275.611,45.5522 274.5,43.5C 275.053,41.2727 275.053,38.9393 274.5,36.5 Z"/></g>
<g><path style="opacity:1" fill="#333231" d="M 268.5,58.5 C 267.883,58.3893 267.383,58.056 267,57.5C 266.828,63.6807 266.328,69.6807 265.5,75.5C 265.17,68.8002 265.503,62.1335 266.5,55.5C 267.919,56.0047 268.585,57.0047 268.5,58.5 Z"/></g>
<g><path style="opacity:1" fill="#2b2b29" d="M 284.5,57.5 C 285.906,57.9731 286.573,58.9731 286.5,60.5C 285.094,60.0269 284.427,59.0269 284.5,57.5 Z"/></g>
<g><path style="opacity:1" fill="#21211f" d="M 269.5,60.5 C 270.674,61.5137 271.34,62.847 271.5,64.5C 269.896,63.713 269.229,62.3797 269.5,60.5 Z"/></g>
<g><path style="opacity:1" fill="#2b2727" d="M 288.5,64.5 C 289.906,64.9731 290.573,65.9731 290.5,67.5C 289.094,67.0269 288.427,66.0269 288.5,64.5 Z"/></g>
<g><path style="opacity:1" fill="#737373" d="M 290.5,67.5 C 292.008,69.1815 293.008,71.1815 293.5,73.5C 292.042,73.4207 290.708,72.9207 289.5,72C 290.38,70.6439 290.714,69.1439 290.5,67.5 Z"/></g>
<g><path style="opacity:1" fill="#4b4a4a" d="M 252.5,50.5 C 253.548,66.508 253.548,82.508 252.5,98.5C 252.167,98.5 251.833,98.5 251.5,98.5C 252.125,82.341 252.458,66.341 252.5,50.5 Z"/></g>
<g><path style="opacity:1" fill="#c0bcba" d="M 293.5,73.5 C 296.397,78.1666 298.73,83.1666 300.5,88.5C 298.61,88.7035 297.11,88.0368 296,86.5C 293.966,89.859 291.632,90.1924 289,87.5C 290.349,89.8045 291.182,92.4712 291.5,95.5C 289.457,94.4206 288.124,92.754 287.5,90.5C 287.573,88.9731 286.906,87.9731 285.5,87.5C 280.418,81.011 276.085,74.011 272.5,66.5C 273.15,66.1961 273.817,65.8627 274.5,65.5C 277.548,67.9009 279.881,70.9009 281.5,74.5C 282.72,75.7111 283.887,75.7111 285,74.5C 285.833,75.3333 286.667,76.1667 287.5,77C 286.551,77.6172 285.718,77.4506 285,76.5C 284.462,78.4731 285.296,79.4731 287.5,79.5C 289.611,76.9557 291.778,76.9557 294,79.5C 293.865,77.5753 293.698,75.5753 293.5,73.5 Z"/></g>
<g><path style="opacity:1" fill="#282828" d="M 285.5,87.5 C 286.906,87.9731 287.573,88.9731 287.5,90.5C 286.094,90.0269 285.427,89.0269 285.5,87.5 Z"/></g>
<g><path style="opacity:1" fill="#51504b" d="M 302.5,95.5 C 303.768,97.9052 304.435,100.572 304.5,103.5C 302.96,101.162 302.294,98.4951 302.5,95.5 Z"/></g>
<g><path style="opacity:1" fill="#bbb9b6" d="M 264.5,87.5 C 263.448,94.2577 261.948,100.924 260,107.5C 258.648,111.538 256.814,115.205 254.5,118.5C 254.64,116.876 253.973,115.71 252.5,115C 253.614,113.43 254.947,112.097 256.5,111C 255.333,109.167 253.833,107.667 252,106.5C 252.341,110.678 250.174,113.011 245.5,113.5C 248.31,108.72 250.31,103.72 251.5,98.5C 251.833,98.5 252.167,98.5 252.5,98.5C 252.312,100.103 252.812,101.437 254,102.5C 255,101.167 256,99.8333 257,98.5C 257.333,99.1667 257.667,99.8333 258,100.5C 258.71,99.0267 259.876,98.3601 261.5,98.5C 259.553,93.9498 260.553,90.2831 264.5,87.5 Z"/></g>
<g><path style="opacity:1" fill="#494440" d="M 297.5,103.5 C 298.867,106.012 298.534,108.345 296.5,110.5C 296.993,108.194 297.326,105.861 297.5,103.5 Z"/></g>
<g><path style="opacity:1" fill="#d0ccca" d="M 300.5,88.5 C 301.566,90.7014 302.233,93.0347 302.5,95.5C 302.294,98.4951 302.96,101.162 304.5,103.5C 304.5,103.833 304.5,104.167 304.5,104.5C 305.005,111.324 305.671,117.991 306.5,124.5C 306.5,125.167 306.5,125.833 306.5,126.5C 305.307,126.97 304.64,127.97 304.5,129.5C 304.52,130.726 304.853,131.726 305.5,132.5C 304.976,134.306 304.309,135.972 303.5,137.5C 302.262,139.214 301.595,141.214 301.5,143.5C 299.21,141.967 298.544,142.3 299.5,144.5C 298.076,146.291 296.742,148.125 295.5,150C 295.833,150.333 296.167,150.667 296.5,151C 294.833,151.333 293.167,151.667 291.5,152C 292.833,153.84 292.666,154.34 291,153.5C 289.872,155.345 289.372,157.345 289.5,159.5C 289.027,160.906 288.027,161.573 286.5,161.5C 278.66,162.474 270.993,163.807 263.5,165.5C 256.766,167.453 249.766,168.453 242.5,168.5C 242.238,167.022 242.571,165.689 243.5,164.5C 244.739,164.058 245.739,163.391 246.5,162.5C 250.182,159.992 254.182,157.992 258.5,156.5C 260.839,155.363 263.172,155.196 265.5,156C 264.419,154.289 264.752,152.789 266.5,151.5C 268.404,151.262 269.738,150.262 270.5,148.5C 272.749,147.92 274.415,146.587 275.5,144.5C 277.167,142.167 279.167,140.167 281.5,138.5C 283.587,137.415 284.92,135.749 285.5,133.5C 289.317,131.824 290.984,129.157 290.5,125.5C 292.501,120.495 294.501,115.495 296.5,110.5C 298.534,108.345 298.867,106.012 297.5,103.5C 295.122,101.122 293.122,98.4549 291.5,95.5C 291.182,92.4712 290.349,89.8045 289,87.5C 291.632,90.1924 293.966,89.859 296,86.5C 297.11,88.0368 298.61,88.7035 300.5,88.5 Z"/></g>
<g><path style="opacity:1" fill="#4a4a48" d="M 235.5,115.5 C 233.126,114.314 230.792,114.314 228.5,115.5C 230.756,111.61 233.089,111.61 235.5,115.5 Z"/></g>
<g><path style="opacity:1" fill="#272725" d="M 304.5,104.5 C 305.268,105.263 305.768,106.263 306,107.5C 306.499,113.157 306.666,118.824 306.5,124.5C 305.671,117.991 305.005,111.324 304.5,104.5 Z"/></g>
<g><path style="opacity:1" fill="#292826" d="M 226.5,119.5 C 226.573,121.027 225.906,122.027 224.5,122.5C 224.427,120.973 225.094,119.973 226.5,119.5 Z"/></g>
<g><path style="opacity:1" fill="#7f7c7c" d="M 558.5,128.5 C 558.46,125.119 558.793,121.786 559.5,118.5C 557.708,118.366 556.042,118.699 554.5,119.5C 554.75,118.078 555.583,117.078 557,116.5C 558.011,117.337 559.178,117.67 560.5,117.5C 560.884,121.489 560.217,125.155 558.5,128.5 Z"/></g>
<g><path style="opacity:1" fill="#868584" d="M 62.5,135.5 C 62.5858,134.504 62.2524,133.671 61.5,133C 57.2806,131.891 53.2806,130.391 49.5,128.5C 49.6567,127.127 49.49,125.793 49,124.5C 47.1125,126.527 44.9458,128.194 42.5,129.5C 43.7341,126.593 45.7341,124.259 48.5,122.5C 51.9127,127.383 56.5794,130.55 62.5,132C 63.7911,133.292 63.7911,134.458 62.5,135.5 Z"/></g>
<g><path style="opacity:1" fill="#868382" d="M 554.5,120.5 C 554.674,124.36 553.341,127.36 550.5,129.5C 551.597,126.314 552.93,123.314 554.5,120.5 Z"/></g>
<g><path style="opacity:1" fill="#504e4e" d="M 96.5,128.5 C 91.7286,128.538 87.062,129.204 82.5,130.5C 86.9138,127.699 91.5804,127.032 96.5,128.5 Z"/></g>
<g><path style="opacity:1" fill="#cbc8c6" d="M 96.5,128.5 C 98.698,128.12 100.365,128.787 101.5,130.5C 102.167,131.833 103.167,132.833 104.5,133.5C 105.344,137.099 105.677,140.766 105.5,144.5C 104.878,145.627 104.045,146.627 103,147.5C 96.6168,143.54 89.7834,142.54 82.5,144.5C 81.3052,144.322 80.1385,143.989 79,143.5C 75.7974,148.519 72.9641,148.186 70.5,142.5C 71.5293,139.109 73.5293,136.443 76.5,134.5C 78.4044,134.262 79.7377,133.262 80.5,131.5C 80.8417,130.662 81.5084,130.328 82.5,130.5C 87.062,129.204 91.7286,128.538 96.5,128.5 Z"/></g>
<g><path style="opacity:1" fill="#404040" d="M 306.5,126.5 C 305.85,128.435 305.517,130.435 305.5,132.5C 304.853,131.726 304.52,130.726 304.5,129.5C 304.64,127.97 305.307,126.97 306.5,126.5 Z"/></g>
<g><path style="opacity:1" fill="#2a2a2a" d="M 101.5,130.5 C 103.5,130.5 104.5,131.5 104.5,133.5C 103.167,132.833 102.167,131.833 101.5,130.5 Z"/></g>
<g><path style="opacity:1" fill="#7b7a77" d="M 290.5,125.5 C 290.984,129.157 289.317,131.824 285.5,133.5C 286.669,130.489 288.336,127.822 290.5,125.5 Z"/></g>
<g><path style="opacity:1" fill="#504f4e" d="M 22.5,129.5 C 21.9202,131.749 20.5869,133.415 18.5,134.5C 19.0798,132.251 20.4131,130.585 22.5,129.5 Z"/></g>
<g><path style="opacity:1" fill="#464545" d="M 80.5,131.5 C 79.7377,133.262 78.4044,134.262 76.5,134.5C 77.2623,132.738 78.5956,131.738 80.5,131.5 Z"/></g>
<g><path style="opacity:1" fill="#cbc8c6" d="M 62.5,135.5 C 62.7709,137.38 62.1042,138.713 60.5,139.5C 59.0937,139.973 58.427,140.973 58.5,142.5C 56.6395,147.881 52.9728,150.048 47.5,149C 44.3681,147.365 41.3681,145.532 38.5,143.5C 35.925,146.319 33.5917,149.319 31.5,152.5C 29.1354,153.822 26.8021,153.822 24.5,152.5C 22.4504,150.453 20.117,148.786 17.5,147.5C 16.0277,145.883 15.361,143.883 15.5,141.5C 15.5108,139.955 15.8442,138.622 16.5,137.5C 17.9063,137.027 18.573,136.027 18.5,134.5C 20.5869,133.415 21.9202,131.749 22.5,129.5C 23.1451,128.188 24.1451,127.188 25.5,126.5C 28.0232,130.683 31.6899,133.35 36.5,134.5C 38.6994,133.139 40.6994,131.473 42.5,129.5C 44.9458,128.194 47.1125,126.527 49,124.5C 49.49,125.793 49.6567,127.127 49.5,128.5C 53.2806,130.391 57.2806,131.891 61.5,133C 62.2524,133.671 62.5858,134.504 62.5,135.5 Z"/></g>
<g><path style="opacity:1" fill="#696867" d="M 228.5,134.5 C 232.298,133.517 236.298,133.183 240.5,133.5C 236.767,135.751 232.767,136.084 228.5,134.5 Z"/></g>
<g><path style="opacity:1" fill="#cecac9" d="M 558.5,128.5 C 557.432,138.135 553.099,145.968 545.5,152C 541.94,153.237 538.273,153.737 534.5,153.5C 532.488,154.228 530.488,155.062 528.5,156C 529.517,157.049 529.684,158.216 529,159.5C 528.667,159.167 528.333,158.833 528,158.5C 527.667,159.5 527.333,160.5 527,161.5C 526.667,161.167 526.333,160.833 526,160.5C 525.517,161.448 525.351,162.448 525.5,163.5C 521.821,163.667 519.154,165.334 517.5,168.5C 512.463,168.587 507.463,168.254 502.5,167.5C 501.448,167.351 500.448,167.517 499.5,168C 498.002,170.664 496.002,172.83 493.5,174.5C 492.748,172.9 491.748,171.4 490.5,170C 492.658,168.688 492.991,167.022 491.5,165C 492.744,164.544 493.577,165.044 494,166.5C 494.49,165.207 494.657,163.873 494.5,162.5C 493.178,162.33 492.011,162.663 491,163.5C 490.208,165.587 489.041,167.421 487.5,169C 490.264,170.544 490.097,171.711 487,172.5C 486,171.167 485,171.167 484,172.5C 483.833,172.167 483.667,171.833 483.5,171.5C 484.376,170.749 485.376,170.249 486.5,170C 486.026,168.271 485.026,167.105 483.5,166.5C 490.358,160.134 496.358,152.967 501.5,145C 503.066,144.235 504.399,144.402 505.5,145.5C 506.221,147.382 507.221,147.715 508.5,146.5C 509.167,146.5 509.5,146.833 509.5,147.5C 512.771,149.862 516.104,149.862 519.5,147.5C 519.842,146.662 520.508,146.328 521.5,146.5C 524.5,145.5 526.5,143.5 527.5,140.5C 528.906,140.027 529.573,139.027 529.5,137.5C 530.693,134.948 532.027,132.448 533.5,130C 534.833,129.333 536.167,129.333 537.5,130C 538.386,131.615 539.386,133.115 540.5,134.5C 541.274,135.147 542.274,135.48 543.5,135.5C 545.03,135.36 546.03,134.693 546.5,133.5C 547.5,131.833 548.833,130.5 550.5,129.5C 553.341,127.36 554.674,124.36 554.5,120.5C 554.5,120.167 554.5,119.833 554.5,119.5C 556.042,118.699 557.708,118.366 559.5,118.5C 558.793,121.786 558.46,125.119 558.5,128.5 Z"/></g>
<g><path style="opacity:1" fill="#777675" d="M 546.5,133.5 C 546.03,134.693 545.03,135.36 543.5,135.5C 542.274,135.48 541.274,135.147 540.5,134.5C 542.565,134.483 544.565,134.15 546.5,133.5 Z"/></g>
<g><path style="opacity:1" fill="#3f3f3e" d="M 18.5,134.5 C 18.573,136.027 17.9063,137.027 16.5,137.5C 16.427,135.973 17.0937,134.973 18.5,134.5 Z"/></g>
<g><path style="opacity:1" fill="#343433" d="M 193.5,136.5 C 193.389,137.117 193.056,137.617 192.5,138C 190.5,138.167 188.5,138.333 186.5,138.5C 180.154,137.247 173.821,137.247 167.5,138.5C 170.382,137.087 173.549,136.421 177,136.5C 182.539,137.583 188.039,137.583 193.5,136.5 Z"/></g>
<g><path style="opacity:1" fill="#232322" d="M 228.5,134.5 C 228.573,136.027 227.906,137.027 226.5,137.5C 226.427,135.973 227.094,134.973 228.5,134.5 Z"/></g>
<g><path style="opacity:1" fill="#4d4d4a" d="M 285.5,133.5 C 284.92,135.749 283.587,137.415 281.5,138.5C 282.08,136.251 283.413,134.585 285.5,133.5 Z"/></g>
<g><path style="opacity:1" fill="#d1cdcb" d="M 254.5,118.5 C 251.93,125.405 247.263,130.405 240.5,133.5C 236.298,133.183 232.298,133.517 228.5,134.5C 227.094,134.973 226.427,135.973 226.5,137.5C 225.079,142.09 222.079,145.256 217.5,147C 213.091,147.532 208.757,147.532 204.5,147C 201.67,152.329 197.67,156.496 192.5,159.5C 190.62,159.229 189.287,159.896 188.5,161.5C 188.167,161.5 187.833,161.5 187.5,161.5C 179.316,161.174 171.316,161.508 163.5,162.5C 160.523,164.467 157.523,166.467 154.5,168.5C 153.542,168.953 152.708,169.619 152,170.5C 151.667,170.167 151.333,169.833 151,169.5C 150.517,170.448 150.351,171.448 150.5,172.5C 149.178,172.67 148.011,172.337 147,171.5C 147.143,172.865 147.643,174.198 148.5,175.5C 147.24,175.201 146.073,175.201 145,175.5C 144,178.167 143,180.833 142,183.5C 141.667,183.167 141.333,182.833 141,182.5C 140.51,183.793 140.343,185.127 140.5,186.5C 139.167,186.5 137.833,186.5 136.5,186.5C 136.64,188.124 135.973,189.29 134.5,190C 135.973,190.71 136.64,191.876 136.5,193.5C 135.416,196.004 134.083,198.337 132.5,200.5C 130.241,201.344 129.241,203.011 129.5,205.5C 125.041,214.095 119.375,221.762 112.5,228.5C 110.54,229.448 108.54,229.614 106.5,229C 107.167,230 107.833,231 108.5,232C 103.774,232.295 101.44,234.795 101.5,239.5C 96.779,243.529 91.4457,246.529 85.5,248.5C 83.3043,248.435 81.3043,247.768 79.5,246.5C 80.4671,244.21 81.8004,242.21 83.5,240.5C 85.0269,240.573 86.0269,239.906 86.5,238.5C 89.7642,236.906 92.4309,234.573 94.5,231.5C 97.5,227.833 100.833,224.5 104.5,221.5C 106.587,220.415 107.92,218.749 108.5,216.5C 110.482,213.19 112.815,210.19 115.5,207.5C 116.906,207.027 117.573,206.027 117.5,204.5C 118.906,204.027 119.573,203.027 119.5,201.5C 120.079,198.669 121.412,196.336 123.5,194.5C 124.815,193.524 126.148,192.524 127.5,191.5C 129.019,187.808 130.353,184.141 131.5,180.5C 132.906,180.027 133.573,179.027 133.5,177.5C 134.906,177.027 135.573,176.027 135.5,174.5C 136.239,174.631 136.906,174.464 137.5,174C 137.93,173.08 138.264,172.247 138.5,171.5C 140.677,172.504 141.011,171.838 139.5,169.5C 141.053,168.561 142.387,167.394 143.5,166C 144.127,162.966 145.127,160.132 146.5,157.5C 147.906,157.027 148.573,156.027 148.5,154.5C 151.167,151.167 154.167,148.167 157.5,145.5C 159.404,145.262 160.738,144.262 161.5,142.5C 161.973,141.094 162.973,140.427 164.5,140.5C 166.027,140.573 167.027,139.906 167.5,138.5C 173.821,137.247 180.154,137.247 186.5,138.5C 188.5,138.333 190.5,138.167 192.5,138C 193.056,137.617 193.389,137.117 193.5,136.5C 198.012,133.177 201.345,128.844 203.5,123.5C 205.299,122.212 206.965,122.212 208.5,123.5C 209.5,127.323 212,128.99 216,128.5C 217.986,128.431 219.486,127.765 220.5,126.5C 221.5,124.833 222.833,123.5 224.5,122.5C 225.906,122.027 226.573,121.027 226.5,119.5C 226.66,117.847 227.326,116.514 228.5,115.5C 230.792,114.314 233.126,114.314 235.5,115.5C 239.085,115.848 242.418,115.181 245.5,113.5C 250.174,113.011 252.341,110.678 252,106.5C 253.833,107.667 255.333,109.167 256.5,111C 254.947,112.097 253.614,113.43 252.5,115C 253.973,115.71 254.64,116.876 254.5,118.5 Z"/></g>
<g><path style="opacity:1" fill="#4f4e4d" d="M 208.5,123.5 C 211.69,127.48 215.69,128.48 220.5,126.5C 219.486,127.765 217.986,128.431 216,128.5C 212,128.99 209.5,127.323 208.5,123.5 Z"/></g>
<g><path style="opacity:1" fill="#51514f" d="M 104.5,133.5 C 106.533,134.898 107.533,136.898 107.5,139.5C 107.564,141.557 106.898,143.223 105.5,144.5C 105.677,140.766 105.344,137.099 104.5,133.5 Z"/></g>
<g><path style="opacity:1" fill="#514f4e" d="M 412.5,136.5 C 414.359,136.461 415.692,137.294 416.5,139C 414.155,148.649 413.155,158.483 413.5,168.5C 412.28,159.612 412.614,150.612 414.5,141.5C 414.276,139.545 413.609,137.879 412.5,136.5 Z"/></g>
<g><path style="opacity:1" fill="#3d3b39" d="M 167.5,138.5 C 167.027,139.906 166.027,140.573 164.5,140.5C 164.973,139.094 165.973,138.427 167.5,138.5 Z"/></g>
<g><path style="opacity:1" fill="#302f2f" d="M 529.5,137.5 C 529.573,139.027 528.906,140.027 527.5,140.5C 527.427,138.973 528.094,137.973 529.5,137.5 Z"/></g>
<g><path style="opacity:1" fill="#242424" d="M 60.5,139.5 C 60.573,141.027 59.9063,142.027 58.5,142.5C 58.427,140.973 59.0937,139.973 60.5,139.5 Z"/></g>
<g><path style="opacity:1" fill="#4c4b48" d="M 303.5,137.5 C 303.741,139.898 303.074,141.898 301.5,143.5C 301.595,141.214 302.262,139.214 303.5,137.5 Z"/></g>
<g><path style="opacity:1" fill="#494946" d="M 161.5,142.5 C 160.738,144.262 159.404,145.262 157.5,145.5C 158.262,143.738 159.596,142.738 161.5,142.5 Z"/></g>
<g><path style="opacity:1" fill="#4a4a48" d="M 527.5,140.5 C 526.5,143.5 524.5,145.5 521.5,146.5C 523.167,144.167 525.167,142.167 527.5,140.5 Z"/></g>
<g><path style="opacity:1" fill="#8d8b88" d="M 409.5,137.5 C 409.196,140.522 408.696,143.522 408,146.5C 407.617,147.056 407.117,147.389 406.5,147.5C 406.723,143.838 407.723,140.505 409.5,137.5 Z"/></g>
<g><path style="opacity:1" fill="#2a2929" d="M 505.5,145.5 C 506.609,145.557 507.609,145.89 508.5,146.5C 507.221,147.715 506.221,147.382 505.5,145.5 Z"/></g>
<g><path style="opacity:1" fill="#afabaa" d="M 70.5,142.5 C 72.9641,148.186 75.7974,148.519 79,143.5C 80.1385,143.989 81.3052,144.322 82.5,144.5C 79.8959,146.6 77.3959,148.933 75,151.5C 73.7633,155.06 73.2633,158.727 73.5,162.5C 72.4835,159.653 70.8168,157.153 68.5,155C 70.6857,154.396 70.8524,153.23 69,151.5C 68.2798,153.056 67.1132,154.056 65.5,154.5C 66.0966,149.983 67.7633,145.983 70.5,142.5 Z"/></g>
<g><path style="opacity:1" fill="#4e4e4c" d="M 17.5,147.5 C 20.117,148.786 22.4504,150.453 24.5,152.5C 21.3567,152.031 19.0233,150.364 17.5,147.5 Z"/></g>
<g><path style="opacity:1" fill="#4f4e4b" d="M 275.5,144.5 C 274.415,146.587 272.749,147.92 270.5,148.5C 271.585,146.413 273.251,145.08 275.5,144.5 Z"/></g>
<g><path style="opacity:1" fill="#4e4e4e" d="M 509.5,147.5 C 512.753,148.247 516.086,148.247 519.5,147.5C 516.104,149.862 512.771,149.862 509.5,147.5 Z"/></g>
<g><path style="opacity:1" fill="#484845" d="M 270.5,148.5 C 269.738,150.262 268.404,151.262 266.5,151.5C 267.262,149.738 268.596,148.738 270.5,148.5 Z"/></g>
<g><path style="opacity:1" fill="#a6a5a3" d="M 301.5,143.5 C 300.59,146.992 298.924,149.992 296.5,152.5C 295.094,152.973 294.427,153.973 294.5,155.5C 293.415,157.587 291.749,158.92 289.5,159.5C 289.372,157.345 289.872,155.345 291,153.5C 292.666,154.34 292.833,153.84 291.5,152C 293.167,151.667 294.833,151.333 296.5,151C 296.167,150.667 295.833,150.333 295.5,150C 296.742,148.125 298.076,146.291 299.5,144.5C 298.544,142.3 299.21,141.967 301.5,143.5 Z"/></g>
<g><path style="opacity:1" fill="#5b5b58" d="M 406.5,147.5 C 406.706,150.495 406.04,153.162 404.5,155.5C 404.565,152.572 405.232,149.905 406.5,147.5 Z"/></g>
<g><path style="opacity:1" fill="#2e282d" d="M 296.5,152.5 C 296.573,154.027 295.906,155.027 294.5,155.5C 294.427,153.973 295.094,152.973 296.5,152.5 Z"/></g>
<g><path style="opacity:1" fill="#898787" d="M 266.5,151.5 C 264.752,152.789 264.419,154.289 265.5,156C 263.172,155.196 260.839,155.363 258.5,156.5C 260.822,154.336 263.489,152.669 266.5,151.5 Z"/></g>
<g><path style="opacity:1" fill="#a3a2a0" d="M 105.5,170.5 C 106.008,167.824 106.175,165.157 106,162.5C 105.667,162.167 105.333,161.833 105,161.5C 103.729,162.883 102.229,163.883 100.5,164.5C 102.417,160.601 104.251,156.601 106,152.5C 107.333,151.167 108.667,151.167 110,152.5C 110.055,158.948 108.555,164.948 105.5,170.5 Z"/></g>
<g><path style="opacity:1" fill="#444440" d="M 148.5,154.5 C 148.573,156.027 147.906,157.027 146.5,157.5C 146.427,155.973 147.094,154.973 148.5,154.5 Z"/></g>
<g><path style="opacity:1" fill="#52504f" d="M 192.5,159.5 C 191.486,160.674 190.153,161.34 188.5,161.5C 189.287,159.896 190.62,159.229 192.5,159.5 Z"/></g>
<g><path style="opacity:1" fill="#8e8c8a" d="M 534.5,153.5 C 531.007,160.995 525.34,165.995 517.5,168.5C 519.154,165.334 521.821,163.667 525.5,163.5C 525.351,162.448 525.517,161.448 526,160.5C 526.333,160.833 526.667,161.167 527,161.5C 527.333,160.5 527.667,159.5 528,158.5C 528.333,158.833 528.667,159.167 529,159.5C 529.684,158.216 529.517,157.049 528.5,156C 530.488,155.062 532.488,154.228 534.5,153.5 Z"/></g>
<g><path style="opacity:1" fill="#282726" d="M 163.5,162.5 C 171.316,161.508 179.316,161.174 187.5,161.5C 185.208,162.466 182.708,163.133 180,163.5C 174.537,162.622 169.037,162.288 163.5,162.5 Z"/></g>
<g><path style="opacity:1" fill="#636363" d="M 403.5,159.5 C 403.59,162.152 402.924,164.485 401.5,166.5C 401.41,163.848 402.076,161.515 403.5,159.5 Z"/></g>
<g><path style="opacity:1" fill="#929190" d="M 146.5,157.5 C 145.127,160.132 144.127,162.966 143.5,166C 142.387,167.394 141.053,168.561 139.5,169.5C 141.011,171.838 140.677,172.504 138.5,171.5C 138.264,172.247 137.93,173.08 137.5,174C 136.906,174.464 136.239,174.631 135.5,174.5C 137.993,168.02 141.659,162.354 146.5,157.5 Z"/></g>
<g><path style="opacity:1" fill="#2c2c2b" d="M 286.5,161.5 C 279.151,163.935 271.485,165.268 263.5,165.5C 270.993,163.807 278.66,162.474 286.5,161.5 Z"/></g>
<g><path style="opacity:1" fill="#5a5a59" d="M 246.5,162.5 C 245.739,163.391 244.739,164.058 243.5,164.5C 242.571,165.689 242.238,167.022 242.5,168.5C 239.929,166.899 239.929,165.233 242.5,163.5C 243.736,162.754 245.07,162.421 246.5,162.5 Z"/></g>
<g><path style="opacity:1" fill="#5e5d5d" d="M 64.5,160.5 C 64.875,165.911 63.875,170.911 61.5,175.5C 61.9783,170.273 62.9783,165.273 64.5,160.5 Z"/></g>
<g><path style="opacity:1" fill="#d1cccb" d="M 73.5,162.5 C 74.7997,165.432 76.7997,167.766 79.5,169.5C 79.9867,170.473 80.4867,171.473 81,172.5C 84.5474,172.632 88.0474,172.298 91.5,171.5C 94.3297,171.306 96.9963,170.639 99.5,169.5C 99.6287,167.784 99.962,166.117 100.5,164.5C 102.229,163.883 103.729,162.883 105,161.5C 105.333,161.833 105.667,162.167 106,162.5C 106.175,165.157 106.008,167.824 105.5,170.5C 105.104,173.721 103.771,176.388 101.5,178.5C 100.326,179.514 99.6596,180.847 99.5,182.5C 92.2645,194.405 82.2645,203.072 69.5,208.5C 66.6275,208.802 63.9608,209.469 61.5,210.5C 58.5,211.833 55.5,211.833 52.5,210.5C 51.4863,209.326 50.153,208.66 48.5,208.5C 47.5084,208.672 46.8417,208.338 46.5,207.5C 45.3646,205.787 43.698,205.12 41.5,205.5C 34.3533,206.659 27.6866,208.992 21.5,212.5C 19.9397,212.481 18.4397,212.148 17,211.5C 15.1869,212.691 14.3535,214.024 14.5,215.5C 12.7489,213.936 11.7489,211.936 11.5,209.5C 12.9063,209.027 13.573,208.027 13.5,206.5C 15.2076,202.428 17.8743,199.095 21.5,196.5C 24.1667,194.5 26.5,192.167 28.5,189.5C 30.7488,188.92 32.4154,187.587 33.5,185.5C 33.9731,184.094 34.9731,183.427 36.5,183.5C 38.0269,183.573 39.0269,182.906 39.5,181.5C 46.0146,176.736 52.6813,176.402 59.5,180.5C 59.56,181.043 59.8933,181.376 60.5,181.5C 61.4519,179.955 61.7852,178.288 61.5,176.5C 61.5,176.167 61.5,175.833 61.5,175.5C 63.875,170.911 64.875,165.911 64.5,160.5C 64.3253,158.379 64.6586,156.379 65.5,154.5C 67.1132,154.056 68.2798,153.056 69,151.5C 70.8524,153.23 70.6857,154.396 68.5,155C 70.8168,157.153 72.4835,159.653 73.5,162.5 Z"/></g>
<g><path style="opacity:1" fill="#d3cfcd" d="M 412.5,136.5 C 413.609,137.879 414.276,139.545 414.5,141.5C 412.614,150.612 412.28,159.612 413.5,168.5C 415.149,173.117 417.815,177.117 421.5,180.5C 424.851,182.893 428.684,183.893 433,183.5C 435.167,183.333 437.333,183.167 439.5,183C 440.416,182.722 441.082,182.222 441.5,181.5C 444.313,181.975 446.313,180.975 447.5,178.5C 448.29,177.599 449.29,176.932 450.5,176.5C 453.089,175.581 455.089,173.914 456.5,171.5C 458.914,170.089 460.581,168.089 461.5,165.5C 462.261,164.609 463.261,163.942 464.5,163.5C 470.147,168.831 476.48,169.831 483.5,166.5C 485.026,167.105 486.026,168.271 486.5,170C 485.376,170.249 484.376,170.749 483.5,171.5C 483.667,171.833 483.833,172.167 484,172.5C 485,171.167 486,171.167 487,172.5C 490.097,171.711 490.264,170.544 487.5,169C 489.041,167.421 490.208,165.587 491,163.5C 492.011,162.663 493.178,162.33 494.5,162.5C 494.657,163.873 494.49,165.207 494,166.5C 493.577,165.044 492.744,164.544 491.5,165C 492.991,167.022 492.658,168.688 490.5,170C 491.748,171.4 492.748,172.9 493.5,174.5C 491.5,175.833 489.833,177.5 488.5,179.5C 488.167,180.5 487.5,181.167 486.5,181.5C 484.973,181.427 483.973,182.094 483.5,183.5C 482.486,184.674 481.153,185.34 479.5,185.5C 477.738,185.643 476.071,185.309 474.5,184.5C 473.304,184.846 473.304,185.346 474.5,186C 471.518,186.498 468.518,186.665 465.5,186.5C 463.847,186.34 462.514,185.674 461.5,184.5C 458.427,180.157 456.927,180.491 457,185.5C 455.853,184.542 454.853,184.875 454,186.5C 453.503,188.81 453.337,191.143 453.5,193.5C 453.5,194.167 453.167,194.5 452.5,194.5C 451.094,194.973 450.427,195.973 450.5,197.5C 449.833,198.833 448.833,199.833 447.5,200.5C 444.602,199.281 442.602,200.281 441.5,203.5C 439.577,204.308 437.577,204.808 435.5,205C 436.756,205.417 437.423,206.25 437.5,207.5C 435.316,209.585 432.649,210.585 429.5,210.5C 424.012,210.752 418.678,210.085 413.5,208.5C 413.027,207.094 412.027,206.427 410.5,206.5C 410.027,205.094 409.027,204.427 407.5,204.5C 406.5,204.167 405.833,203.5 405.5,202.5C 405.342,200.179 404.342,198.346 402.5,197C 402.833,196.667 403.167,196.333 403.5,196C 401.833,195 400.5,193.667 399.5,192C 398.668,191.312 398.002,191.479 397.5,192.5C 397.624,193.107 397.957,193.44 398.5,193.5C 397.488,194.872 396.488,196.205 395.5,197.5C 393.648,198.089 391.815,198.756 390,199.5C 389.316,200.784 389.483,201.951 390.5,203C 388.574,203.422 387.574,204.589 387.5,206.5C 386.5,206.833 385.833,207.5 385.5,208.5C 385.167,208.5 384.833,208.5 384.5,208.5C 380.316,208.851 376.316,209.518 372.5,210.5C 368.151,210.585 363.818,210.918 359.5,211.5C 357.215,211.324 355.215,210.657 353.5,209.5C 352.318,207.439 352.985,205.939 355.5,205C 362.553,201.473 369.553,197.973 376.5,194.5C 378.027,194.573 379.027,193.906 379.5,192.5C 384.908,189.354 389.741,185.354 394,180.5C 396.797,175.899 399.297,171.232 401.5,166.5C 402.924,164.485 403.59,162.152 403.5,159.5C 403.232,157.901 403.566,156.568 404.5,155.5C 406.04,153.162 406.706,150.495 406.5,147.5C 407.117,147.389 407.617,147.056 408,146.5C 408.696,143.522 409.196,140.522 409.5,137.5C 410.209,136.596 411.209,136.263 412.5,136.5 Z"/></g>
<g><path style="opacity:1" fill="#4f4e4d" d="M 461.5,165.5 C 460.581,168.089 458.914,170.089 456.5,171.5C 457.419,168.911 459.086,166.911 461.5,165.5 Z"/></g>
<g><path style="opacity:1" fill="#4b4a4a" d="M 502.5,167.5 C 507.463,168.254 512.463,168.587 517.5,168.5C 515.696,169.162 513.696,169.495 511.5,169.5C 508.186,169.657 505.186,168.991 502.5,167.5 Z"/></g>
<g><path style="opacity:1" fill="#726f6e" d="M 100.5,164.5 C 99.962,166.117 99.6287,167.784 99.5,169.5C 96.9963,170.639 94.3297,171.306 91.5,171.5C 95.0463,169.891 98.0463,167.557 100.5,164.5 Z"/></g>
<g><path style="opacity:1" fill="#515150" d="M 79.5,169.5 C 83.3425,171.002 87.3425,171.668 91.5,171.5C 88.0474,172.298 84.5474,172.632 81,172.5C 80.4867,171.473 79.9867,170.473 79.5,169.5 Z"/></g>
<g><path style="opacity:1" fill="#7e7c7b" d="M 154.5,168.5 C 153.243,171.427 151.243,173.761 148.5,175.5C 147.643,174.198 147.143,172.865 147,171.5C 148.011,172.337 149.178,172.67 150.5,172.5C 150.351,171.448 150.517,170.448 151,169.5C 151.333,169.833 151.667,170.167 152,170.5C 152.708,169.619 153.542,168.953 154.5,168.5 Z"/></g>
<g><path style="opacity:1" fill="#585656" d="M 456.5,171.5 C 455.089,173.914 453.089,175.581 450.5,176.5C 451.911,174.086 453.911,172.419 456.5,171.5 Z"/></g>
<g><path style="opacity:1" fill="#999897" d="M 148.5,175.5 C 144.885,181.777 140.885,187.777 136.5,193.5C 136.64,191.876 135.973,190.71 134.5,190C 135.973,189.29 136.64,188.124 136.5,186.5C 137.833,186.5 139.167,186.5 140.5,186.5C 140.343,185.127 140.51,183.793 141,182.5C 141.333,182.833 141.667,183.167 142,183.5C 143,180.833 144,178.167 145,175.5C 146.073,175.201 147.24,175.201 148.5,175.5 Z"/></g>
<g><path style="opacity:1" fill="#1b1919" d="M 61.5,176.5 C 61.7852,178.288 61.4519,179.955 60.5,181.5C 59.8933,181.376 59.56,181.043 59.5,180.5C 60.1667,179.167 60.8333,177.833 61.5,176.5 Z"/></g>
<g><path style="opacity:1" fill="#51504f" d="M 135.5,174.5 C 135.573,176.027 134.906,177.027 133.5,177.5C 133.427,175.973 134.094,174.973 135.5,174.5 Z"/></g>
<g><path style="opacity:1" fill="#242424" d="M 493.5,174.5 C 492.833,177.167 491.167,178.833 488.5,179.5C 489.833,177.5 491.5,175.833 493.5,174.5 Z"/></g>
<g><path style="opacity:1" fill="#3c3a38" d="M 133.5,177.5 C 133.573,179.027 132.906,180.027 131.5,180.5C 131.427,178.973 132.094,177.973 133.5,177.5 Z"/></g>
<g><path style="opacity:1" fill="#6a696a" d="M 447.5,178.5 C 446.313,180.975 444.313,181.975 441.5,181.5C 443.456,180.508 445.456,179.508 447.5,178.5 Z"/></g>
<g><path style="opacity:1" fill="#342e2d" d="M 101.5,178.5 C 101.771,180.38 101.104,181.713 99.5,182.5C 99.6596,180.847 100.326,179.514 101.5,178.5 Z"/></g>
<g><path style="opacity:1" fill="#3f3f3f" d="M 39.5,181.5 C 39.0269,182.906 38.0269,183.573 36.5,183.5C 36.9731,182.094 37.9731,181.427 39.5,181.5 Z"/></g>
<g><path style="opacity:1" fill="#403f3d" d="M 421.5,180.5 C 428.072,182.643 434.738,182.976 441.5,181.5C 441.082,182.222 440.416,182.722 439.5,183C 437.333,183.167 435.167,183.333 433,183.5C 428.684,183.893 424.851,182.893 421.5,180.5 Z"/></g>
<g><path style="opacity:1" fill="#1e1e1c" d="M 486.5,181.5 C 486.027,182.906 485.027,183.573 483.5,183.5C 483.973,182.094 484.973,181.427 486.5,181.5 Z"/></g>
<g><path style="opacity:1" fill="#5e5e5e" d="M 33.5,185.5 C 32.4154,187.587 30.7488,188.92 28.5,189.5C 29.5846,187.413 31.2512,186.08 33.5,185.5 Z"/></g>
<g><path style="opacity:1" fill="#747272" d="M 479.5,185.5 C 476.983,186.973 474.15,187.64 471,187.5C 468.967,187.494 467.134,187.161 465.5,186.5C 468.518,186.665 471.518,186.498 474.5,186C 473.304,185.346 473.304,184.846 474.5,184.5C 476.071,185.309 477.738,185.643 479.5,185.5 Z"/></g>
<g><path style="opacity:1" fill="#9f9e9d" d="M 461.5,184.5 C 458.833,187.5 456.167,190.5 453.5,193.5C 453.337,191.143 453.503,188.81 454,186.5C 454.853,184.875 455.853,184.542 457,185.5C 456.927,180.491 458.427,180.157 461.5,184.5 Z"/></g>
<g><path style="opacity:1" fill="#888685" d="M 131.5,180.5 C 130.353,184.141 129.019,187.808 127.5,191.5C 126.148,192.524 124.815,193.524 123.5,194.5C 125.664,189.5 128.331,184.833 131.5,180.5 Z"/></g>
<g><path style="opacity:1" fill="#454545" d="M 28.5,189.5 C 26.5,192.167 24.1667,194.5 21.5,196.5C 22.8333,193.167 25.1667,190.833 28.5,189.5 Z"/></g>
<g><path style="opacity:1" fill="#403d3b" d="M 379.5,192.5 C 379.027,193.906 378.027,194.573 376.5,194.5C 376.973,193.094 377.973,192.427 379.5,192.5 Z"/></g>
<g><path style="opacity:1" fill="#6f6d6b" d="M 405.5,202.5 C 402.925,199.681 400.592,196.681 398.5,193.5C 397.957,193.44 397.624,193.107 397.5,192.5C 398.002,191.479 398.668,191.312 399.5,192C 400.5,193.667 401.833,195 403.5,196C 403.167,196.333 402.833,196.667 402.5,197C 404.342,198.346 405.342,200.179 405.5,202.5 Z"/></g>
<g><path style="opacity:1" fill="#2c2b29" d="M 452.5,194.5 C 452.573,196.027 451.906,197.027 450.5,197.5C 450.427,195.973 451.094,194.973 452.5,194.5 Z"/></g>
<g><path style="opacity:1" fill="#9b9b98" d="M 395.5,197.5 C 394.306,201.363 391.973,204.363 388.5,206.5C 388.167,206.5 387.833,206.5 387.5,206.5C 387.574,204.589 388.574,203.422 390.5,203C 389.483,201.951 389.316,200.784 390,199.5C 391.815,198.756 393.648,198.089 395.5,197.5 Z"/></g>
<g><path style="opacity:1" fill="#979594" d="M 447.5,200.5 C 444.725,203.605 441.392,205.938 437.5,207.5C 437.423,206.25 436.756,205.417 435.5,205C 437.577,204.808 439.577,204.308 441.5,203.5C 442.602,200.281 444.602,199.281 447.5,200.5 Z"/></g>
<g><path style="opacity:1" fill="#74746f" d="M 132.5,200.5 C 131.89,202.434 130.89,204.101 129.5,205.5C 129.241,203.011 130.241,201.344 132.5,200.5 Z"/></g>
<g><path style="opacity:1" fill="#514f4c" d="M 119.5,201.5 C 119.573,203.027 118.906,204.027 117.5,204.5C 117.427,202.973 118.094,201.973 119.5,201.5 Z"/></g>
<g><path style="opacity:1" fill="#131312" d="M 41.5,205.5 C 43.698,205.12 45.3646,205.787 46.5,207.5C 44.597,207.204 42.9303,206.537 41.5,205.5 Z"/></g>
<g><path style="opacity:1" fill="#494646" d="M 407.5,204.5 C 409.027,204.427 410.027,205.094 410.5,206.5C 408.973,206.573 407.973,205.906 407.5,204.5 Z"/></g>
<g><path style="opacity:1" fill="#4f4e4c" d="M 117.5,204.5 C 117.573,206.027 116.906,207.027 115.5,207.5C 115.427,205.973 116.094,204.973 117.5,204.5 Z"/></g>
<g><path style="opacity:1" fill="#1b1b1b" d="M 387.5,206.5 C 387.833,206.5 388.167,206.5 388.5,206.5C 388.027,207.906 387.027,208.573 385.5,208.5C 385.833,207.5 386.5,206.833 387.5,206.5 Z"/></g>
<g><path style="opacity:1" fill="#404040" d="M 410.5,206.5 C 412.027,206.427 413.027,207.094 413.5,208.5C 411.973,208.573 410.973,207.906 410.5,206.5 Z"/></g>
<g><path style="opacity:1" fill="#3e3d3d" d="M 13.5,206.5 C 13.573,208.027 12.9063,209.027 11.5,209.5C 11.427,207.973 12.0937,206.973 13.5,206.5 Z"/></g>
<g><path style="opacity:1" fill="#292827" d="M 48.5,208.5 C 50.153,208.66 51.4863,209.326 52.5,210.5C 50.6203,210.771 49.287,210.104 48.5,208.5 Z"/></g>
<g><path style="opacity:1" fill="#303030" d="M 69.5,208.5 C 67.22,210.223 64.5533,210.889 61.5,210.5C 63.9608,209.469 66.6275,208.802 69.5,208.5 Z"/></g>
<g><path style="opacity:1" fill="#20201f" d="M 384.5,208.5 C 380.817,210.25 376.817,210.917 372.5,210.5C 376.316,209.518 380.316,208.851 384.5,208.5 Z"/></g>
<g><path style="opacity:1" fill="#424241" d="M 413.5,208.5 C 418.678,210.085 424.012,210.752 429.5,210.5C 426.024,211.643 422.358,211.81 418.5,211C 416.509,210.626 414.842,209.793 413.5,208.5 Z"/></g>
<g><path style="opacity:1" fill="#484747" d="M 353.5,209.5 C 355.215,210.657 357.215,211.324 359.5,211.5C 363.818,210.918 368.151,210.585 372.5,210.5C 367.337,211.672 362.003,212.672 356.5,213.5C 354.085,213.281 353.085,211.948 353.5,209.5 Z"/></g>
<g><path style="opacity:1" fill="#b1afac" d="M 11.5,209.5 C 11.7489,211.936 12.7489,213.936 14.5,215.5C 14.3535,214.024 15.1869,212.691 17,211.5C 18.4397,212.148 19.9397,212.481 21.5,212.5C 17.7288,215.768 14.0622,219.268 10.5,223C 6.33333,224.167 4.83333,222.667 6,218.5C 7.8588,215.436 9.69213,212.436 11.5,209.5 Z"/></g>
<g><path style="opacity:1" fill="#514e4c" d="M 108.5,216.5 C 107.92,218.749 106.587,220.415 104.5,221.5C 105.08,219.251 106.413,217.585 108.5,216.5 Z"/></g>
<g><path style="opacity:1" fill="#4c4c4b" d="M 475.5,224.5 C 476.833,225.167 477.833,226.167 478.5,227.5C 476.5,227.5 475.5,226.5 475.5,224.5 Z"/></g>
<g><path style="opacity:1" fill="#424240" d="M 447.5,228.5 C 447.573,230.027 446.906,231.027 445.5,231.5C 445.427,229.973 446.094,228.973 447.5,228.5 Z"/></g>
<g><path style="opacity:1" fill="#545251" d="M 478.5,227.5 C 480.819,227.992 482.819,228.992 484.5,230.5C 481.911,230.539 479.911,229.539 478.5,227.5 Z"/></g>
<g><path style="opacity:1" fill="#d0cdcb" d="M 475.5,224.5 C 475.5,226.5 476.5,227.5 478.5,227.5C 479.911,229.539 481.911,230.539 484.5,230.5C 486.948,230.085 488.281,231.085 488.5,233.5C 487.6,236.716 485.933,239.382 483.5,241.5C 482.094,241.973 481.427,242.973 481.5,244.5C 481.5,245.167 481.167,245.5 480.5,245.5C 477.838,247.268 474.838,247.935 471.5,247.5C 471.027,246.094 470.027,245.427 468.5,245.5C 466.629,245.141 465.129,244.141 464,242.5C 462.483,244.24 460.983,245.906 459.5,247.5C 457.661,248.752 455.828,248.752 454,247.5C 453.493,248.996 453.993,250.163 455.5,251C 453.527,251.495 451.527,251.662 449.5,251.5C 448.508,251.672 447.842,251.338 447.5,250.5C 447.027,249.094 446.027,248.427 444.5,248.5C 445.745,246.011 444.745,244.678 441.5,244.5C 441.5,244.167 441.5,243.833 441.5,243.5C 442.392,240.518 443.725,237.684 445.5,235C 444.829,234.014 444.829,232.847 445.5,231.5C 446.906,231.027 447.573,230.027 447.5,228.5C 448.145,227.188 449.145,226.188 450.5,225.5C 452.164,227.491 453.831,229.491 455.5,231.5C 455.351,232.552 455.517,233.552 456,234.5C 457.707,233.862 459.54,233.862 461.5,234.5C 461.56,235.043 461.893,235.376 462.5,235.5C 465.988,233.933 467.988,231.266 468.5,227.5C 469.692,225.122 471.359,223.122 473.5,221.5C 474.919,222.005 475.585,223.005 475.5,224.5 Z"/></g>
<g><path style="opacity:1" fill="#888585" d="M 468.5,227.5 C 467.988,231.266 465.988,233.933 462.5,235.5C 461.893,235.376 461.56,235.043 461.5,234.5C 464.194,232.473 466.527,230.139 468.5,227.5 Z"/></g>
<g><path style="opacity:1" fill="#979593" d="M 112.5,228.5 C 109.855,233.145 106.188,236.812 101.5,239.5C 101.44,234.795 103.774,232.295 108.5,232C 107.833,231 107.167,230 106.5,229C 108.54,229.614 110.54,229.448 112.5,228.5 Z"/></g>
<g><path style="opacity:1" fill="#71706f" d="M 455.5,231.5 C 457.819,231.992 459.819,232.992 461.5,234.5C 459.54,233.862 457.707,233.862 456,234.5C 455.517,233.552 455.351,232.552 455.5,231.5 Z"/></g>
<g><path style="opacity:1" fill="#575655" d="M 94.5,231.5 C 92.4309,234.573 89.7642,236.906 86.5,238.5C 88.5691,235.427 91.2358,233.094 94.5,231.5 Z"/></g>
<g><path style="opacity:1" fill="#94908e" d="M 445.5,231.5 C 444.829,232.847 444.829,234.014 445.5,235C 443.725,237.684 442.392,240.518 441.5,243.5C 439.898,238.669 441.231,234.669 445.5,231.5 Z"/></g>
<g><path style="opacity:1" fill="#545351" d="M 86.5,238.5 C 86.0269,239.906 85.0269,240.573 83.5,240.5C 83.9731,239.094 84.9731,238.427 86.5,238.5 Z"/></g>
<g><path style="opacity:1" fill="#202020" d="M 483.5,241.5 C 483.573,243.027 482.906,244.027 481.5,244.5C 481.427,242.973 482.094,241.973 483.5,241.5 Z"/></g>
<g><path style="opacity:1" fill="#868381" d="M 83.5,240.5 C 81.8004,242.21 80.4671,244.21 79.5,246.5C 81.3043,247.768 83.3043,248.435 85.5,248.5C 82.9164,250.472 79.9164,251.472 76.5,251.5C 78.6455,249.921 78.8122,247.921 77,245.5C 76.3292,246.252 75.4959,246.586 74.5,246.5C 77.3197,244.255 80.3197,242.255 83.5,240.5 Z"/></g>
<g><path style="opacity:1" fill="#797675" d="M 441.5,244.5 C 444.745,244.678 445.745,246.011 444.5,248.5C 442.738,247.738 441.738,246.404 441.5,244.5 Z"/></g>
<g><path style="opacity:1" fill="#383838" d="M 468.5,245.5 C 470.027,245.427 471.027,246.094 471.5,247.5C 469.973,247.573 468.973,246.906 468.5,245.5 Z"/></g>
<g><path style="opacity:1" fill="#7e7d7c" d="M 459.5,247.5 C 457.569,252.347 454.236,253.68 449.5,251.5C 451.527,251.662 453.527,251.495 455.5,251C 453.993,250.163 453.493,248.996 454,247.5C 455.828,248.752 457.661,248.752 459.5,247.5 Z"/></g>
<g><path style="opacity:1" fill="#32322f" d="M 480.5,245.5 C 480.586,246.496 480.252,247.329 479.5,248C 476.77,249.49 474.103,249.324 471.5,247.5C 474.838,247.935 477.838,247.268 480.5,245.5 Z"/></g>
<g><path style="opacity:1" fill="#a7a6a3" d="M 76.5,251.5 C 72.5062,253.349 71.0062,252.015 72,247.5C 72.6708,246.748 73.5041,246.414 74.5,246.5C 75.4959,246.586 76.3292,246.252 77,245.5C 78.8122,247.921 78.6455,249.921 76.5,251.5 Z"/></g>
<g><path style="opacity:1" fill="#40403f" d="M 444.5,248.5 C 446.027,248.427 447.027,249.094 447.5,250.5C 445.973,250.573 444.973,249.906 444.5,248.5 Z"/></g>
</svg>
