<?xml version="1.0" encoding="UTF-8"?>
<!DOCTYPE svg PUBLIC "-//W3C//DTD SVG 1.1//EN" "http://www.w3.org/Graphics/SVG/1.1/DTD/svg11.dtd">
<svg xmlns="http://www.w3.org/2000/svg" version="1.1" width="851px" height="210px" style="shape-rendering:geometricPrecision; text-rendering:geometricPrecision; image-rendering:optimizeQuality; fill-rule:evenodd; clip-rule:evenodd" xmlns:xlink="http://www.w3.org/1999/xlink">
<g><path style="opacity:1" fill="#b0b5b2" d="M 839.5,2.5 C 839.027,3.90632 838.027,4.57298 836.5,4.5C 836.973,3.09368 837.973,2.42702 839.5,2.5 Z"/></g>
<g><path style="opacity:1" fill="#c2c2c2" d="M 836.5,4.5 C 836.027,5.90632 835.027,6.57298 833.5,6.5C 833.973,5.09368 834.973,4.42702 836.5,4.5 Z"/></g>
<g><path style="opacity:1" fill="#cccfcf" d="M 833.5,6.5 C 833.027,7.90632 832.027,8.57298 830.5,8.5C 830.973,7.09368 831.973,6.42702 833.5,6.5 Z"/></g>
<g><path style="opacity:1" fill="#cacdd1" d="M 830.5,8.5 C 829.738,10.2624 828.404,11.2624 826.5,11.5C 827.262,9.73758 828.596,8.73758 830.5,8.5 Z"/></g>
<g><path style="opacity:1" fill="#767678" d="M 842.5,-0.5 C 843.167,-0.5 843.833,-0.5 844.5,-0.5C 844.953,0.458367 845.619,1.2917 846.5,2C 844.357,7.13443 841.357,11.6344 837.5,15.5C 836.923,12.4503 838.09,10.4503 841,9.5C 843.245,6.42981 842.745,4.09647 839.5,2.5C 840.306,1.27187 841.306,0.271873 842.5,-0.5 Z"/></g>
<g><path style="opacity:1" fill="#c4c4c4" d="M 826.5,11.5 C 826.027,12.9063 825.027,13.573 823.5,13.5C 823.973,12.0937 824.973,11.427 826.5,11.5 Z"/></g>
<g><path style="opacity:1" fill="#bcbdbe" d="M 823.5,13.5 C 822.738,15.2624 821.404,16.2624 819.5,16.5C 820.262,14.7376 821.596,13.7376 823.5,13.5 Z"/></g>
<g><path style="opacity:1" fill="#242729" d="M 839.5,2.5 C 842.745,4.09647 843.245,6.42981 841,9.5C 838.09,10.4503 836.923,12.4503 837.5,15.5C 836.5,17.8333 834.833,19.5 832.5,20.5C 830.596,20.7376 829.262,21.7376 828.5,23.5C 826.565,24.1495 824.565,24.4828 822.5,24.5C 822.5,25.5 822.5,26.5 822.5,27.5C 820.973,27.427 819.973,28.0937 819.5,29.5C 819.5,30.1667 819.167,30.5 818.5,30.5C 816.973,30.427 815.973,31.0937 815.5,32.5C 813.973,32.427 812.973,33.0937 812.5,34.5C 812.5,35.1667 812.167,35.5 811.5,35.5C 809.973,35.427 808.973,36.0937 808.5,37.5C 806.973,37.427 805.973,38.0937 805.5,39.5C 803.973,39.427 802.973,40.0937 802.5,41.5C 800.973,41.427 799.973,42.0937 799.5,43.5C 799.5,44.1667 799.167,44.5 798.5,44.5C 796.973,44.427 795.973,45.0937 795.5,46.5C 793.973,46.427 792.973,47.0937 792.5,48.5C 791.417,48.5394 790.417,48.8728 789.5,49.5C 788.808,48.9747 788.308,48.3081 788,47.5C 787.648,49.2475 787.148,50.9142 786.5,52.5C 785.564,53.9744 784.23,54.9744 782.5,55.5C 780.973,55.427 779.973,56.0937 779.5,57.5C 775.465,60.8573 771.132,63.8573 766.5,66.5C 765.2,68.223 764.533,70.3897 764.5,73C 762.629,91.3063 762.296,109.473 763.5,127.5C 764.356,131.544 766.022,135.211 768.5,138.5C 768.5,138.833 768.5,139.167 768.5,139.5C 767.178,139.33 766.011,139.663 765,140.5C 763.98,139.109 763.147,137.609 762.5,136C 760.754,135.529 759.087,134.862 757.5,134C 758.28,132.927 758.113,131.76 757,130.5C 755.595,133.619 755.095,136.952 755.5,140.5C 755.167,140.5 754.833,140.5 754.5,140.5C 754.5,140.167 754.5,139.833 754.5,139.5C 754.665,136.15 754.498,132.817 754,129.5C 752.961,130.244 752.461,131.244 752.5,132.5C 751.094,132.973 750.427,133.973 750.5,135.5C 749.167,137.5 747.5,139.167 745.5,140.5C 743.596,140.738 742.262,141.738 741.5,143.5C 740.391,143.557 739.391,143.89 738.5,144.5C 738.414,143.504 738.748,142.671 739.5,142C 734.982,141.935 730.649,141.269 726.5,140C 727.833,139.333 727.833,138.667 726.5,138C 729.89,137.754 733.223,137.254 736.5,136.5C 736.205,137.826 736.705,139.159 738,140.5C 739.647,138.369 739.314,136.369 737,134.5C 735.298,135.194 733.464,135.194 731.5,134.5C 731.5,134.167 731.5,133.833 731.5,133.5C 734.346,133.448 736.68,132.448 738.5,130.5C 740.674,130.25 742.341,129.25 743.5,127.5C 745.027,127.573 746.027,126.906 746.5,125.5C 749.338,122.479 751.672,119.146 753.5,115.5C 754.29,114.391 754.79,113.058 755,111.5C 755.927,102.855 756.427,94.1886 756.5,85.5C 756.19,82.2869 756.523,79.2869 757.5,76.5C 759.968,71.8676 761.635,66.8676 762.5,61.5C 763.906,61.0269 764.573,60.0269 764.5,58.5C 766.914,57.0892 768.581,55.0892 769.5,52.5C 771.404,52.2624 772.738,51.2624 773.5,49.5C 776.089,48.5806 778.089,46.914 779.5,44.5C 781.027,44.573 782.027,43.9063 782.5,42.5C 784.404,42.2624 785.738,41.2624 786.5,39.5C 788.027,39.573 789.027,38.9063 789.5,37.5C 792.37,36.5667 794.704,34.9 796.5,32.5C 798.027,32.573 799.027,31.9063 799.5,30.5C 801.027,30.573 802.027,29.9063 802.5,28.5C 804.404,28.2624 805.738,27.2624 806.5,25.5C 809.37,24.5667 811.704,22.9 813.5,20.5C 815.027,20.573 816.027,19.9063 816.5,18.5C 818.027,18.573 819.027,17.9063 819.5,16.5C 821.404,16.2624 822.738,15.2624 823.5,13.5C 825.027,13.573 826.027,12.9063 826.5,11.5C 828.404,11.2624 829.738,10.2624 830.5,8.5C 832.027,8.57298 833.027,7.90632 833.5,6.5C 835.027,6.57298 836.027,5.90632 836.5,4.5C 838.027,4.57298 839.027,3.90632 839.5,2.5 Z"/></g>
<g><path style="opacity:1" fill="#aaafaf" d="M 819.5,16.5 C 819.027,17.9063 818.027,18.573 816.5,18.5C 816.973,17.0937 817.973,16.427 819.5,16.5 Z"/></g>
<g><path style="opacity:1" fill="#b3b5b6" d="M 816.5,18.5 C 816.027,19.9063 815.027,20.573 813.5,20.5C 813.973,19.0937 814.973,18.427 816.5,18.5 Z"/></g>
<g><path style="opacity:1" fill="#d9d9d9" d="M 832.5,20.5 C 831.738,22.2624 830.404,23.2624 828.5,23.5C 829.262,21.7376 830.596,20.7376 832.5,20.5 Z"/></g>
<g><path style="opacity:1" fill="#c4c4c5" d="M 813.5,20.5 C 811.704,22.9 809.37,24.5667 806.5,25.5C 808.296,23.1 810.63,21.4333 813.5,20.5 Z"/></g>
<g><path style="opacity:1" fill="#818586" d="M 828.5,23.5 C 826.853,25.3264 824.853,26.6597 822.5,27.5C 822.5,26.5 822.5,25.5 822.5,24.5C 824.565,24.4828 826.565,24.1495 828.5,23.5 Z"/></g>
<g><path style="opacity:1" fill="#b1b1b4" d="M 806.5,25.5 C 805.738,27.2624 804.404,28.2624 802.5,28.5C 803.262,26.7376 804.596,25.7376 806.5,25.5 Z"/></g>
<g><path style="opacity:1" fill="#ccccce" d="M 822.5,27.5 C 822.027,28.9063 821.027,29.573 819.5,29.5C 819.973,28.0937 820.973,27.427 822.5,27.5 Z"/></g>
<g><path style="opacity:1" fill="#a3a6ab" d="M 802.5,28.5 C 802.027,29.9063 801.027,30.573 799.5,30.5C 799.973,29.0937 800.973,28.427 802.5,28.5 Z"/></g>
<g><path style="opacity:1" fill="#b5b5b5" d="M 799.5,30.5 C 799.027,31.9063 798.027,32.573 796.5,32.5C 796.973,31.0937 797.973,30.427 799.5,30.5 Z"/></g>
<g><path style="opacity:1" fill="#d7d8da" d="M 818.5,30.5 C 818.027,31.9063 817.027,32.573 815.5,32.5C 815.973,31.0937 816.973,30.427 818.5,30.5 Z"/></g>
<g><path style="opacity:1" fill="#d4d5d5" d="M 815.5,32.5 C 815.027,33.9063 814.027,34.573 812.5,34.5C 812.973,33.0937 813.973,32.427 815.5,32.5 Z"/></g>
<g><path style="opacity:1" fill="#b4b4b7" d="M 796.5,32.5 C 794.704,34.9 792.37,36.5667 789.5,37.5C 791.296,35.1 793.63,33.4333 796.5,32.5 Z"/></g>
<g><path style="opacity:1" fill="#e8e8e8" d="M 811.5,35.5 C 811.027,36.9063 810.027,37.573 808.5,37.5C 808.973,36.0937 809.973,35.427 811.5,35.5 Z"/></g>
<g><path style="opacity:1" fill="#b5b5b9" d="M 789.5,37.5 C 789.027,38.9063 788.027,39.573 786.5,39.5C 786.973,38.0937 787.973,37.427 789.5,37.5 Z"/></g>
<g><path style="opacity:1" fill="#e6e6e6" d="M 808.5,37.5 C 808.027,38.9063 807.027,39.573 805.5,39.5C 805.973,38.0937 806.973,37.427 808.5,37.5 Z"/></g>
<g><path style="opacity:1" fill="#b7b7b7" d="M 786.5,39.5 C 785.738,41.2624 784.404,42.2624 782.5,42.5C 783.262,40.7376 784.596,39.7376 786.5,39.5 Z"/></g>
<g><path style="opacity:1" fill="#d5d7d7" d="M 805.5,39.5 C 805.027,40.9063 804.027,41.573 802.5,41.5C 802.973,40.0937 803.973,39.427 805.5,39.5 Z"/></g>
<g><path style="opacity:1" fill="#d6d6d6" d="M 802.5,41.5 C 802.027,42.9063 801.027,43.573 799.5,43.5C 799.973,42.0937 800.973,41.427 802.5,41.5 Z"/></g>
<g><path style="opacity:1" fill="#b4b4b4" d="M 782.5,42.5 C 782.027,43.9063 781.027,44.573 779.5,44.5C 779.973,43.0937 780.973,42.427 782.5,42.5 Z"/></g>
<g><path style="opacity:1" fill="#e3e3e6" d="M 798.5,44.5 C 798.027,45.9063 797.027,46.573 795.5,46.5C 795.973,45.0937 796.973,44.427 798.5,44.5 Z"/></g>
<g><path style="opacity:1" fill="#959797" d="M 779.5,44.5 C 778.089,46.914 776.089,48.5806 773.5,49.5C 774.911,47.086 776.911,45.4194 779.5,44.5 Z"/></g>
<g><path style="opacity:1" fill="#757878" d="M 792.5,48.5 C 791.198,50.8218 789.198,52.1551 786.5,52.5C 787.148,50.9142 787.648,49.2475 788,47.5C 788.308,48.3081 788.808,48.9747 789.5,49.5C 790.417,48.8728 791.417,48.5394 792.5,48.5 Z"/></g>
<g><path style="opacity:1" fill="#d8d9e1" d="M 795.5,46.5 C 795.027,47.9063 794.027,48.573 792.5,48.5C 792.973,47.0937 793.973,46.427 795.5,46.5 Z"/></g>
<g><path style="opacity:1" fill="#acacac" d="M 773.5,49.5 C 772.738,51.2624 771.404,52.2624 769.5,52.5C 770.262,50.7376 771.596,49.7376 773.5,49.5 Z"/></g>
<g><path style="opacity:1" fill="#96989c" d="M 769.5,52.5 C 768.581,55.0892 766.914,57.0892 764.5,58.5C 765.419,55.9108 767.086,53.9108 769.5,52.5 Z"/></g>
<g><path style="opacity:1" fill="#90e2e3" d="M 782.5,55.5 C 782.027,56.9063 781.027,57.573 779.5,57.5C 779.973,56.0937 780.973,55.427 782.5,55.5 Z"/></g>
<g><path style="opacity:1" fill="#b9b9bd" d="M 764.5,58.5 C 764.573,60.0269 763.906,61.0269 762.5,61.5C 762.427,59.9731 763.094,58.9731 764.5,58.5 Z"/></g>
<g><path style="opacity:1" fill="#626767" d="M 762.5,61.5 C 761.635,66.8676 759.968,71.8676 757.5,76.5C 757.792,70.9563 759.459,65.9563 762.5,61.5 Z"/></g>
<g><path style="opacity:1" fill="#878888" d="M 796.5,73.5 C 796.167,73.5 795.833,73.5 795.5,73.5C 795.785,71.712 795.452,70.0453 794.5,68.5C 793.817,68.8627 793.15,69.1961 792.5,69.5C 792.801,66.683 794.134,66.0163 796.5,67.5C 797.329,69.8682 797.329,71.8682 796.5,73.5 Z"/></g>
<g><path style="opacity:1" fill="#b1b2b3" d="M 766.5,66.5 C 764.408,86.166 763.408,106.499 763.5,127.5C 762.296,109.473 762.629,91.3063 764.5,73C 764.533,70.3897 765.2,68.223 766.5,66.5 Z"/></g>
<g><path style="opacity:1" fill="#acacaf" d="M 792.5,69.5 C 792.41,73.2142 791.41,76.5475 789.5,79.5C 789.899,75.8835 790.899,72.5502 792.5,69.5 Z"/></g>
<g><path style="opacity:1" fill="#939798" d="M 121.5,72.5 C 120.92,74.7488 119.587,76.4154 117.5,77.5C 118.08,75.2512 119.413,73.5846 121.5,72.5 Z"/></g>
<g><path style="opacity:1" fill="#c6c6c7" d="M 432.5,73.5 C 432.34,75.153 431.674,76.4863 430.5,77.5C 430.229,75.6203 430.896,74.287 432.5,73.5 Z"/></g>
<g><path style="opacity:1" fill="#a8a8a9" d="M 117.5,77.5 C 117.5,77.8333 117.5,78.1667 117.5,78.5C 117.134,79.6946 116.301,80.3613 115,80.5C 111.558,79.1975 108.391,77.5308 105.5,75.5C 105.783,74.7109 106.283,74.0442 107,73.5C 109.13,76.23 111.797,78.23 115,79.5C 115.708,78.6195 116.542,77.9528 117.5,77.5 Z"/></g>
<g><path style="opacity:1" fill="#3a3c3e" d="M 113.5,88.5 C 113.67,87.1779 113.337,86.0113 112.5,85C 115.14,84.161 117.473,84.661 119.5,86.5C 122.109,85.7695 124.776,85.2695 127.5,85C 126.833,84.6667 126.167,84.3333 125.5,84C 125.5,83 125.5,82 125.5,81C 124.552,80.5172 123.552,80.3505 122.5,80.5C 122.227,78.549 122.893,77.049 124.5,76C 123.5,75.3333 122.5,75.3333 121.5,76C 120.529,77.4813 119.196,78.3146 117.5,78.5C 117.5,78.1667 117.5,77.8333 117.5,77.5C 119.587,76.4154 120.92,74.7488 121.5,72.5C 121.56,71.9569 121.893,71.6236 122.5,71.5C 124.828,74.3354 127.828,76.1687 131.5,77C 131.891,81.5891 130.224,85.5891 126.5,89C 122.412,89.7111 118.912,88.5445 116,85.5C 115.623,86.9423 114.79,87.9423 113.5,88.5 Z"/></g>
<g><path style="opacity:1" fill="#252729" d="M 105.5,75.5 C 108.391,77.5308 111.558,79.1975 115,80.5C 116.301,80.3613 117.134,79.6946 117.5,78.5C 119.196,78.3146 120.529,77.4813 121.5,76C 122.5,75.3333 123.5,75.3333 124.5,76C 122.893,77.049 122.227,78.549 122.5,80.5C 123.552,80.3505 124.552,80.5172 125.5,81C 125.5,82 125.5,83 125.5,84C 126.167,84.3333 126.833,84.6667 127.5,85C 124.776,85.2695 122.109,85.7695 119.5,86.5C 117.473,84.661 115.14,84.161 112.5,85C 113.337,86.0113 113.67,87.1779 113.5,88.5C 110.673,93.4561 107.339,93.7894 103.5,89.5C 103.167,88.5 102.5,87.8333 101.5,87.5C 101.5,85.1667 101.5,82.8333 101.5,80.5C 103.587,79.4154 104.92,77.7488 105.5,75.5 Z"/></g>
<g><path style="opacity:1" fill="#898b8e" d="M 338.5,75.5 C 338.31,78.855 337.31,81.855 335.5,84.5C 335.132,80.9557 336.132,77.9557 338.5,75.5 Z"/></g>
<g><path style="opacity:1" fill="#b9b9b9" d="M 105.5,75.5 C 104.92,77.7488 103.587,79.4154 101.5,80.5C 102.08,78.2512 103.413,76.5846 105.5,75.5 Z"/></g>
<g><path style="opacity:1" fill="#2f3234" d="M 272.5,70.5 C 274.474,80.1107 275.141,90.1107 274.5,100.5C 274.412,110.843 274.078,121.176 273.5,131.5C 271.898,135.239 270.898,139.239 270.5,143.5C 270.522,146.998 269.022,148.331 266,147.5C 265.171,126.663 265.337,105.996 266.5,85.5C 268.163,83.5615 268.829,81.2282 268.5,78.5C 269.326,75.5152 270.659,72.8485 272.5,70.5 Z"/></g>
<g><path style="opacity:1" fill="#c6c7c9" d="M 458.5,68.5 C 459.478,86.0342 459.811,103.534 459.5,121C 458.883,123.277 458.216,125.444 457.5,127.5C 458.347,107.846 458.68,88.1795 458.5,68.5 Z"/></g>
<g><path style="opacity:1" fill="#999b9e" d="M 477.5,77.5 C 477.59,80.1522 476.924,82.4855 475.5,84.5C 475.41,81.8478 476.076,79.5145 477.5,77.5 Z"/></g>
<g><path style="opacity:1" fill="#838586" d="M 275.5,100.5 C 275.167,100.5 274.833,100.5 274.5,100.5C 275.141,90.1107 274.474,80.1107 272.5,70.5C 273.484,67.9296 274.651,67.9296 276,70.5C 276.5,80.5097 276.333,90.5097 275.5,100.5 Z"/></g>
<g><path style="opacity:1" fill="#a9a9a9" d="M 101.5,80.5 C 101.5,82.8333 101.5,85.1667 101.5,87.5C 99.1093,85.2358 99.1093,82.9024 101.5,80.5 Z"/></g>
<g><path style="opacity:1" fill="#abacaf" d="M 789.5,79.5 C 789.829,82.2282 789.163,84.5615 787.5,86.5C 787.721,83.9327 788.388,81.5994 789.5,79.5 Z"/></g>
<g><path style="opacity:1" fill="#b0b0b5" d="M 268.5,78.5 C 268.829,81.2282 268.163,83.5615 266.5,85.5C 266.41,82.8478 267.076,80.5145 268.5,78.5 Z"/></g>
<g><path style="opacity:1" fill="#c1c3c7" d="M 343.5,69.5 C 344.662,86.6618 344.829,103.995 344,121.5C 343.642,127.462 342.475,133.129 340.5,138.5C 343.263,115.607 344.263,92.6067 343.5,69.5 Z"/></g>
<g><path style="opacity:1" fill="#232729" d="M 343.5,69.5 C 344.263,92.6067 343.263,115.607 340.5,138.5C 340.472,141.916 339.472,144.916 337.5,147.5C 335.511,126.86 334.845,105.86 335.5,84.5C 337.31,81.855 338.31,78.855 338.5,75.5C 339.045,73.4068 339.878,71.4068 341,69.5C 341.977,68.2264 342.811,68.2264 343.5,69.5 Z"/></g>
<g><path style="opacity:1" fill="#d5d5d5" d="M 101.5,87.5 C 102.5,87.8333 103.167,88.5 103.5,89.5C 102.167,89.5 101.5,88.8333 101.5,87.5 Z"/></g>
<g><path style="opacity:1" fill="#232528" d="M 484.5,117.5 C 484.5,118.5 484.5,119.5 484.5,120.5C 483.252,121.334 482.585,122.667 482.5,124.5C 482.511,126.045 482.844,127.378 483.5,128.5C 483.5,129.167 483.167,129.5 482.5,129.5C 480.544,135.313 478.877,141.313 477.5,147.5C 476.833,148.833 476.167,148.833 475.5,147.5C 475.5,126.5 475.5,105.5 475.5,84.5C 476.924,82.4855 477.59,80.1522 477.5,77.5C 477.992,75.1815 478.992,73.1815 480.5,71.5C 481.15,71.1961 481.817,70.8627 482.5,70.5C 483.167,86.3281 483.833,101.995 484.5,117.5 Z"/></g>
<g><path style="opacity:1" fill="#9e9e9f" d="M 428.5,82.5 C 427.912,98.3191 427.245,113.986 426.5,129.5C 426.652,119.317 426.319,109.151 425.5,99C 425.603,93.2055 426.603,87.7055 428.5,82.5 Z"/></g>
<g><path style="opacity:1" fill="#b4b4b5" d="M 406.5,99.5 C 406.033,102.297 404.367,103.631 401.5,103.5C 403.142,102.197 404.809,100.864 406.5,99.5 Z"/></g>
<g><path style="opacity:1" fill="#d3d4d4" d="M 300.5,102.5 C 303.228,102.171 305.562,102.837 307.5,104.5C 304.933,104.279 302.599,103.612 300.5,102.5 Z"/></g>
<g><path style="opacity:1" fill="#acacac" d="M 484.5,117.5 C 483.833,101.995 483.167,86.3281 482.5,70.5C 481.817,70.8627 481.15,71.1961 480.5,71.5C 480.511,69.3141 481.511,68.4808 483.5,69C 484.848,70.5741 485.514,72.4075 485.5,74.5C 484.551,88.8106 484.217,103.144 484.5,117.5 Z"/></g>
<g><path style="opacity:1" fill="#d5d5d5" d="M 307.5,104.5 C 309.933,104.273 311.599,105.273 312.5,107.5C 310.566,106.89 308.899,105.89 307.5,104.5 Z"/></g>
<g><path style="opacity:1" fill="#b8b9b9" d="M 410.5,102.5 C 410.598,104.553 409.931,106.22 408.5,107.5C 408.402,105.447 409.069,103.78 410.5,102.5 Z"/></g>
<g><path style="opacity:1" fill="#a7a8a9" d="M 795.5,73.5 C 795.833,73.5 796.167,73.5 796.5,73.5C 796.425,90.173 796.091,106.84 795.5,123.5C 794.5,106.998 794.5,90.3311 795.5,73.5 Z"/></g>
<g><path style="opacity:1" fill="#a2a2a3" d="M 399.5,104.5 C 397.815,106.818 395.481,107.818 392.5,107.5C 394.426,105.707 396.759,104.707 399.5,104.5 Z"/></g>
<g><path style="opacity:1" fill="#616162" d="M 475.5,84.5 C 475.5,105.5 475.5,126.5 475.5,147.5C 474.761,147.631 474.094,147.464 473.5,147C 474.161,126.069 474.828,105.236 475.5,84.5 Z"/></g>
<g><path style="opacity:1" fill="#272a2c" d="M 300.5,102.5 C 302.599,103.612 304.933,104.279 307.5,104.5C 308.899,105.89 310.566,106.89 312.5,107.5C 313.5,107.833 314.167,108.5 314.5,109.5C 314.427,111.027 315.094,112.027 316.5,112.5C 317.799,118.217 318.799,123.884 319.5,129.5C 319.167,130.167 318.833,130.833 318.5,131.5C 317.313,133.072 316.313,134.739 315.5,136.5C 314.504,136.414 313.671,136.748 313,137.5C 312.901,135.347 312.067,133.681 310.5,132.5C 310.167,130.167 308.833,128.833 306.5,128.5C 304.046,127.773 301.713,126.773 299.5,125.5C 295.684,124.846 294.017,122.513 294.5,118.5C 294.985,113.075 295.985,107.741 297.5,102.5C 298.687,101.347 299.687,101.347 300.5,102.5 Z"/></g>
<g><path style="opacity:1" fill="#787b7e" d="M 408.5,107.5 C 407.921,110.331 406.588,112.664 404.5,114.5C 404.574,111.341 405.907,109.008 408.5,107.5 Z"/></g>
<g><path style="opacity:1" fill="#b5b5b7" d="M 756.5,85.5 C 756.427,94.1886 755.927,102.855 755,111.5C 754.79,113.058 754.29,114.391 753.5,115.5C 754.289,105.336 755.289,95.3355 756.5,85.5 Z"/></g>
<g><path style="opacity:1" fill="#afb1b2" d="M 245.5,109.5 C 244.089,111.914 242.089,113.581 239.5,114.5C 240.911,112.086 242.911,110.419 245.5,109.5 Z"/></g>
<g><path style="opacity:1" fill="#c4c7c7" d="M 314.5,109.5 C 315.906,109.973 316.573,110.973 316.5,112.5C 315.094,112.027 314.427,111.027 314.5,109.5 Z"/></g>
<g><path style="opacity:1" fill="#b1b1b1" d="M 249.5,108.5 C 250.478,108.811 251.145,109.478 251.5,110.5C 250.309,113.568 248.642,116.235 246.5,118.5C 248.08,115.341 249.08,112.007 249.5,108.5 Z"/></g>
<g><path style="opacity:1" fill="#a6a8a9" d="M 387.5,109.5 C 385.833,111.833 383.833,113.833 381.5,115.5C 382.5,112.5 384.5,110.5 387.5,109.5 Z"/></g>
<g><path style="opacity:1" fill="#c1c4c5" d="M 239.5,114.5 C 239.027,115.906 238.027,116.573 236.5,116.5C 236.973,115.094 237.973,114.427 239.5,114.5 Z"/></g>
<g><path style="opacity:1" fill="#282b2e" d="M 410.5,102.5 C 409.069,103.78 408.402,105.447 408.5,107.5C 405.907,109.008 404.574,111.341 404.5,114.5C 403.04,116.463 401.373,118.296 399.5,120C 393.656,121.84 388.156,124.34 383,127.5C 382.22,133.636 380.387,139.303 377.5,144.5C 375.917,146.663 374.584,148.996 373.5,151.5C 371.761,154.243 369.427,156.243 366.5,157.5C 359.173,157.944 351.84,158.277 344.5,158.5C 344.5,157.5 344.5,156.5 344.5,155.5C 350.158,151.335 356.158,147.668 362.5,144.5C 364.749,143.92 366.415,142.587 367.5,140.5C 370.199,136.81 372.865,133.143 375.5,129.5C 377.642,126.2 378.975,122.533 379.5,118.5C 380.906,118.027 381.573,117.027 381.5,115.5C 383.833,113.833 385.833,111.833 387.5,109.5C 388.78,108.069 390.447,107.402 392.5,107.5C 395.481,107.818 397.815,106.818 399.5,104.5C 399.842,103.662 400.508,103.328 401.5,103.5C 404.367,103.631 406.033,102.297 406.5,99.5C 406.801,96.683 408.134,96.0163 410.5,97.5C 411.666,99.1673 411.666,100.834 410.5,102.5 Z"/></g>
<g><path style="opacity:1" fill="#c3c9cc" d="M 236.5,116.5 C 236.027,117.906 235.027,118.573 233.5,118.5C 233.973,117.094 234.973,116.427 236.5,116.5 Z"/></g>
<g><path style="opacity:1" fill="#adadb0" d="M 381.5,115.5 C 381.573,117.027 380.906,118.027 379.5,118.5C 379.427,116.973 380.094,115.973 381.5,115.5 Z"/></g>
<g><path style="opacity:1" fill="#d1d1d3" d="M 246.5,118.5 C 246.573,120.027 245.906,121.027 244.5,121.5C 244.427,119.973 245.094,118.973 246.5,118.5 Z"/></g>
<g><path style="opacity:1" fill="#919193" d="M 274.5,100.5 C 274.833,100.5 275.167,100.5 275.5,100.5C 275.666,108.84 275.5,117.173 275,125.5C 274.809,127.708 274.309,129.708 273.5,131.5C 274.078,121.176 274.412,110.843 274.5,100.5 Z"/></g>
<g><path style="opacity:1" fill="#dcdcdd" d="M 229.5,120.5 C 228.22,121.931 226.553,122.598 224.5,122.5C 225.78,121.069 227.447,120.402 229.5,120.5 Z"/></g>
<g><path style="opacity:1" fill="#b2b3b4" d="M 316.5,112.5 C 317.793,113.842 318.626,115.509 319,117.5C 319.499,121.486 319.666,125.486 319.5,129.5C 318.799,123.884 317.799,118.217 316.5,112.5 Z"/></g>
<g><path style="opacity:1" fill="#898c8d" d="M 379.5,118.5 C 378.975,122.533 377.642,126.2 375.5,129.5C 376.065,125.463 377.399,121.797 379.5,118.5 Z"/></g>
<g><path style="opacity:1" fill="#bfc0c0" d="M 484.5,120.5 C 483.735,123.096 483.401,125.763 483.5,128.5C 482.844,127.378 482.511,126.045 482.5,124.5C 482.585,122.667 483.252,121.334 484.5,120.5 Z"/></g>
<g><path style="opacity:1" fill="#d7d7d7" d="M 819.5,121.5 C 821.833,121.833 823.167,123.167 823.5,125.5C 821.833,124.5 820.5,123.167 819.5,121.5 Z"/></g>
<g><path style="opacity:1" fill="#bebebe" d="M 294.5,118.5 C 294.017,122.513 295.684,124.846 299.5,125.5C 293.077,125.806 291.411,123.473 294.5,118.5 Z"/></g>
<g><path style="opacity:1" fill="#8f9090" d="M 335.5,84.5 C 334.845,105.86 335.511,126.86 337.5,147.5C 336.458,148.791 335.292,148.791 334,147.5C 333.333,128.833 333.333,110.167 334,91.5C 334.186,88.9644 334.686,86.631 335.5,84.5 Z"/></g>
<g><path style="opacity:1" fill="#959598" d="M 224.5,122.5 C 223.01,124.28 221.01,124.946 218.5,124.5C 220.214,123.262 222.214,122.595 224.5,122.5 Z"/></g>
<g><path style="opacity:1" fill="#d6d7d8" d="M 243.5,122.5 C 243.573,124.027 242.906,125.027 241.5,125.5C 241.427,123.973 242.094,122.973 243.5,122.5 Z"/></g>
<g><path style="opacity:1" fill="#24272a" d="M 249.5,108.5 C 249.08,112.007 248.08,115.341 246.5,118.5C 245.094,118.973 244.427,119.973 244.5,121.5C 244.5,122.167 244.167,122.5 243.5,122.5C 242.094,122.973 241.427,123.973 241.5,125.5C 234.506,133.668 225.839,139.334 215.5,142.5C 213.447,142.402 211.78,143.069 210.5,144.5C 208.786,145.738 206.786,146.405 204.5,146.5C 197.833,147.833 191.167,149.167 184.5,150.5C 183.437,146.667 182.604,146.667 182,150.5C 181.64,148.579 180.806,146.912 179.5,145.5C 177.737,146.954 176.403,146.62 175.5,144.5C 172.833,144.167 170.167,143.833 167.5,143.5C 159.548,144.828 151.548,145.494 143.5,145.5C 143.5,144.5 143.5,143.5 143.5,142.5C 139.863,143.741 136.53,143.074 133.5,140.5C 130.539,141.183 130.205,142.016 132.5,143C 130.82,143.034 129.32,143.201 128,143.5C 127.25,142.874 126.416,142.374 125.5,142C 126.833,141.333 126.833,140.667 125.5,140C 123.741,139.202 122.074,139.369 120.5,140.5C 121.517,143.028 122.684,143.028 124,140.5C 124.483,141.448 124.649,142.448 124.5,143.5C 122.176,143.005 120.009,143.005 118,143.5C 117.747,142.465 116.914,141.465 115.5,140.5C 112.972,141.498 112.972,142.331 115.5,143C 113.479,143.14 111.645,143.307 110,143.5C 110.534,140.458 109.034,139.292 105.5,140C 107.904,140.508 108.571,141.675 107.5,143.5C 98.9541,142.711 89.9541,142.711 80.5,143.5C 79.6667,142.5 78.8333,141.5 78,140.5C 77.3828,141.449 77.5494,142.282 78.5,143C 76.8333,143.667 75.1667,143.667 73.5,143C 74.5156,142.481 75.1822,141.647 75.5,140.5C 74.8047,139.524 74.138,138.524 73.5,137.5C 77.8333,137.5 82.1667,137.5 86.5,137.5C 91.3218,138.166 96.3218,138.499 101.5,138.5C 118.37,138.272 135.037,137.272 151.5,135.5C 151.833,135.5 152.167,135.5 152.5,135.5C 164.793,135.542 176.793,134.208 188.5,131.5C 192.942,130.01 197.609,129.01 202.5,128.5C 206.837,128.416 210.837,127.416 214.5,125.5C 215.568,124.566 216.901,124.232 218.5,124.5C 221.01,124.946 223.01,124.28 224.5,122.5C 226.553,122.598 228.22,121.931 229.5,120.5C 230.514,119.326 231.847,118.66 233.5,118.5C 235.027,118.573 236.027,117.906 236.5,116.5C 238.027,116.573 239.027,115.906 239.5,114.5C 242.089,113.581 244.089,111.914 245.5,109.5C 246.538,107.481 247.872,107.147 249.5,108.5 Z"/></g>
<g><path style="opacity:1" fill="#9da0a0" d="M 746.5,125.5 C 746.027,126.906 745.027,127.573 743.5,127.5C 743.973,126.094 744.973,125.427 746.5,125.5 Z"/></g>
<g><path style="opacity:1" fill="#e6e7e7" d="M 214.5,125.5 C 210.837,127.416 206.837,128.416 202.5,128.5C 206.239,126.898 210.239,125.898 214.5,125.5 Z"/></g>
<g><path style="opacity:1" fill="#d9d9db" d="M 12.5,128.5 C 15.4282,128.565 18.0948,129.232 20.5,130.5C 17.5049,130.706 14.8383,130.04 12.5,128.5 Z"/></g>
<g><path style="opacity:1" fill="#9fa0a1" d="M 306.5,128.5 C 308.833,128.833 310.167,130.167 310.5,132.5C 308.833,131.5 307.5,130.167 306.5,128.5 Z"/></g>
<g><path style="opacity:1" fill="#c5c5c5" d="M 743.5,127.5 C 742.341,129.25 740.674,130.25 738.5,130.5C 739.659,128.75 741.326,127.75 743.5,127.5 Z"/></g>
<g><path style="opacity:1" fill="#d4d5d7" d="M 457.5,127.5 C 457.829,130.228 457.163,132.562 455.5,134.5C 455.41,131.848 456.076,129.515 457.5,127.5 Z"/></g>
<g><path style="opacity:1" fill="#e7e7e8" d="M 20.5,130.5 C 24.3875,130.646 28.0542,131.313 31.5,132.5C 27.5422,132.749 23.8756,132.082 20.5,130.5 Z"/></g>
<g><path style="opacity:1" fill="#edf1f1" d="M 754.5,139.5 C 753.833,137.167 753.167,134.833 752.5,132.5C 752.461,131.244 752.961,130.244 754,129.5C 754.498,132.817 754.665,136.15 754.5,139.5 Z"/></g>
<g><path style="opacity:1" fill="#b3b3b3" d="M 738.5,130.5 C 736.68,132.448 734.346,133.448 731.5,133.5C 733.426,131.707 735.759,130.707 738.5,130.5 Z"/></g>
<g><path style="opacity:1" fill="#212526" d="M 12.5,128.5 C 14.8383,130.04 17.5049,130.706 20.5,130.5C 23.8756,132.082 27.5422,132.749 31.5,132.5C 35.8996,134.104 40.5662,134.771 45.5,134.5C 49.0419,134.187 52.3752,134.521 55.5,135.5C 61.3015,136.682 67.3015,137.348 73.5,137.5C 74.138,138.524 74.8047,139.524 75.5,140.5C 75.1822,141.647 74.5156,142.481 73.5,143C 75.1667,143.667 76.8333,143.667 78.5,143C 77.5494,142.282 77.3828,141.449 78,140.5C 78.8333,141.5 79.6667,142.5 80.5,143.5C 89.9541,142.711 98.9541,142.711 107.5,143.5C 108.571,141.675 107.904,140.508 105.5,140C 109.034,139.292 110.534,140.458 110,143.5C 111.645,143.307 113.479,143.14 115.5,143C 112.972,142.331 112.972,141.498 115.5,140.5C 116.914,141.465 117.747,142.465 118,143.5C 120.009,143.005 122.176,143.005 124.5,143.5C 124.649,142.448 124.483,141.448 124,140.5C 122.684,143.028 121.517,143.028 120.5,140.5C 122.074,139.369 123.741,139.202 125.5,140C 126.833,140.667 126.833,141.333 125.5,142C 126.416,142.374 127.25,142.874 128,143.5C 129.32,143.201 130.82,143.034 132.5,143C 130.205,142.016 130.539,141.183 133.5,140.5C 136.53,143.074 139.863,143.741 143.5,142.5C 143.5,143.5 143.5,144.5 143.5,145.5C 151.548,145.494 159.548,144.828 167.5,143.5C 170.167,143.833 172.833,144.167 175.5,144.5C 176.403,146.62 177.737,146.954 179.5,145.5C 180.806,146.912 181.64,148.579 182,150.5C 182.604,146.667 183.437,146.667 184.5,150.5C 183.833,150.5 183.5,150.833 183.5,151.5C 135.026,158.553 86.3591,160.219 37.5,156.5C 33.2357,156.656 29.2357,155.989 25.5,154.5C 23.5615,152.837 21.2282,152.171 18.5,152.5C 16.9921,149.907 14.6587,148.574 11.5,148.5C 10.5,146.833 9.16667,145.5 7.5,144.5C 6.66175,144.158 6.32842,143.492 6.5,142.5C 5.19271,137.934 4.52604,133.267 4.5,128.5C 4.86562,127.305 5.69895,126.639 7,126.5C 9.02991,126.954 10.8632,127.62 12.5,128.5 Z"/></g>
<g><path style="opacity:1" fill="#cfd0d0" d="M 31.5,132.5 C 36.3907,132.532 41.0574,133.199 45.5,134.5C 40.5662,134.771 35.8996,134.104 31.5,132.5 Z"/></g>
<g><path style="opacity:1" fill="#d9dadb" d="M 188.5,131.5 C 176.793,134.208 164.793,135.542 152.5,135.5C 164.35,134.109 176.35,132.776 188.5,131.5 Z"/></g>
<g><path style="opacity:1" fill="#d8d9da" d="M 752.5,132.5 C 752.573,134.027 751.906,135.027 750.5,135.5C 750.427,133.973 751.094,132.973 752.5,132.5 Z"/></g>
<g><path style="opacity:1" fill="#a8a9aa" d="M 273.5,131.5 C 273.416,135.837 272.416,139.837 270.5,143.5C 270.898,139.239 271.898,135.239 273.5,131.5 Z"/></g>
<g><path style="opacity:1" fill="#c0c0c4" d="M 318.5,131.5 C 317.935,135.537 316.601,139.203 314.5,142.5C 314.833,140.5 315.167,138.5 315.5,136.5C 316.313,134.739 317.313,133.072 318.5,131.5 Z"/></g>
<g><path style="opacity:1" fill="#242729" d="M 795.5,73.5 C 794.5,90.3311 794.5,106.998 795.5,123.5C 795.5,123.833 795.5,124.167 795.5,124.5C 795.498,129.182 797.498,132.515 801.5,134.5C 802.492,134.328 803.158,134.662 803.5,135.5C 808.92,137.537 811.253,135.537 810.5,129.5C 812.04,127.162 812.706,124.495 812.5,121.5C 814.941,120.244 817.274,120.244 819.5,121.5C 820.5,123.167 821.833,124.5 823.5,125.5C 824.782,128.936 824.782,132.269 823.5,135.5C 821.93,138.314 820.597,141.314 819.5,144.5C 817.738,145.262 816.738,146.596 816.5,148.5C 816.167,149.5 815.5,150.167 814.5,150.5C 812.973,150.427 811.973,151.094 811.5,152.5C 807.258,155.566 802.591,156.233 797.5,154.5C 797.027,153.094 796.027,152.427 794.5,152.5C 793.5,152.167 792.833,151.5 792.5,150.5C 792.573,148.973 791.906,147.973 790.5,147.5C 789.662,147.158 789.328,146.492 789.5,145.5C 788.395,141.829 787.395,142.162 786.5,146.5C 786.672,147.492 786.338,148.158 785.5,148.5C 783.413,149.585 782.08,151.251 781.5,153.5C 781.5,154.167 781.167,154.5 780.5,154.5C 778.973,154.427 777.973,155.094 777.5,156.5C 775.847,156.66 774.514,157.326 773.5,158.5C 773.5,159.167 773.167,159.5 772.5,159.5C 769.727,158.343 766.727,157.676 763.5,157.5C 762.71,156.206 761.71,155.039 760.5,154C 761.328,153.085 762.328,152.419 763.5,152C 761.414,151.685 759.414,151.185 757.5,150.5C 757.421,149.07 757.754,147.736 758.5,146.5C 756.441,145.049 755.441,143.049 755.5,140.5C 755.095,136.952 755.595,133.619 757,130.5C 758.113,131.76 758.28,132.927 757.5,134C 759.087,134.862 760.754,135.529 762.5,136C 763.147,137.609 763.98,139.109 765,140.5C 766.011,139.663 767.178,139.33 768.5,139.5C 771.969,140.7 775.302,140.7 778.5,139.5C 779.795,138.512 781.128,137.512 782.5,136.5C 784.875,134.934 786.042,132.601 786,129.5C 786.5,117.171 786.667,104.838 786.5,92.5C 786.325,90.3792 786.659,88.3792 787.5,86.5C 789.163,84.5615 789.829,82.2282 789.5,79.5C 791.41,76.5475 792.41,73.2142 792.5,69.5C 793.15,69.1961 793.817,68.8627 794.5,68.5C 795.452,70.0453 795.785,71.712 795.5,73.5 Z"/></g>
<g><path style="opacity:1" fill="#a9aaab" d="M 795.5,124.5 C 796.969,128.096 798.969,131.43 801.5,134.5C 797.498,132.515 795.498,129.182 795.5,124.5 Z"/></g>
<g><path style="opacity:1" fill="#aaabab" d="M 812.5,121.5 C 812.706,124.495 812.04,127.162 810.5,129.5C 810.565,126.572 811.232,123.905 812.5,121.5 Z"/></g>
<g><path style="opacity:1" fill="#a0a1a2" d="M 786.5,92.5 C 786.667,104.838 786.5,117.171 786,129.5C 786.042,132.601 784.875,134.934 782.5,136.5C 783.606,133.946 784.439,131.279 785,128.5C 785.169,116.326 785.669,104.326 786.5,92.5 Z"/></g>
<g><path style="opacity:1" fill="#ceced0" d="M 810.5,129.5 C 811.253,135.537 808.92,137.537 803.5,135.5C 805.288,135.785 806.955,135.452 808.5,134.5C 809.028,132.664 809.694,130.997 810.5,129.5 Z"/></g>
<g><path style="opacity:1" fill="#e9e9e9" d="M 55.5,135.5 C 69.0028,135.885 82.3361,136.551 95.5,137.5C 92.5,137.5 89.5,137.5 86.5,137.5C 82.1667,137.5 77.8333,137.5 73.5,137.5C 67.3015,137.348 61.3015,136.682 55.5,135.5 Z"/></g>
<g><path style="opacity:1" fill="#b9babb" d="M 151.5,135.5 C 135.037,137.272 118.37,138.272 101.5,138.5C 96.3218,138.499 91.3218,138.166 86.5,137.5C 89.5,137.5 92.5,137.5 95.5,137.5C 114.165,136.789 132.831,136.122 151.5,135.5 Z"/></g>
<g><path style="opacity:1" fill="#646567" d="M 310.5,132.5 C 312.067,133.681 312.901,135.347 313,137.5C 313.671,136.748 314.504,136.414 315.5,136.5C 315.167,138.5 314.833,140.5 314.5,142.5C 314.672,143.492 314.338,144.158 313.5,144.5C 313.799,142.396 313.466,140.396 312.5,138.5C 310.736,140.278 308.736,141.611 306.5,142.5C 307.793,140.704 309.293,139.037 311,137.5C 311.384,135.803 311.218,134.137 310.5,132.5 Z"/></g>
<g><path style="opacity:1" fill="#a6a6a6" d="M 482.5,129.5 C 482.371,136.028 480.704,142.028 477.5,147.5C 478.877,141.313 480.544,135.313 482.5,129.5 Z"/></g>
<g><path style="opacity:1" fill="#d0d1d3" d="M 4.5,128.5 C 4.52604,133.267 5.19271,137.934 6.5,142.5C 3.69905,138.086 3.03238,133.42 4.5,128.5 Z"/></g>
<g><path style="opacity:1" fill="#bdbdbe" d="M 731.5,133.5 C 731.5,133.833 731.5,134.167 731.5,134.5C 716.171,139.249 700.504,142.249 684.5,143.5C 700.218,140.992 715.884,137.658 731.5,133.5 Z"/></g>
<g><path style="opacity:1" fill="#cfd0d3" d="M 768.5,139.5 C 768.5,139.167 768.5,138.833 768.5,138.5C 771.786,139.207 775.119,139.54 778.5,139.5C 775.302,140.7 771.969,140.7 768.5,139.5 Z"/></g>
<g><path style="opacity:1" fill="#989a9a" d="M 425.5,136.5 C 425.829,139.228 425.163,141.562 423.5,143.5C 423.721,140.933 424.388,138.599 425.5,136.5 Z"/></g>
<g><path style="opacity:1" fill="#aaaaad" d="M 521.5,137.5 C 519.856,137.286 518.356,137.62 517,138.5C 516.502,141.482 516.335,144.482 516.5,147.5C 515.359,144.36 515.192,141.027 516,137.5C 517.943,136.193 519.777,136.193 521.5,137.5 Z"/></g>
<g><path style="opacity:1" fill="#c2c3c5" d="M 823.5,135.5 C 823.498,139.165 822.165,142.165 819.5,144.5C 820.597,141.314 821.93,138.314 823.5,135.5 Z"/></g>
<g><path style="opacity:1" fill="#d8d8d9" d="M 745.5,140.5 C 744.738,142.262 743.404,143.262 741.5,143.5C 742.262,141.738 743.596,140.738 745.5,140.5 Z"/></g>
<g><path style="opacity:1" fill="#212527" d="M 731.5,134.5 C 733.464,135.194 735.298,135.194 737,134.5C 739.314,136.369 739.647,138.369 738,140.5C 736.705,139.159 736.205,137.826 736.5,136.5C 733.223,137.254 729.89,137.754 726.5,138C 727.833,138.667 727.833,139.333 726.5,140C 730.649,141.269 734.982,141.935 739.5,142C 738.748,142.671 738.414,143.504 738.5,144.5C 738.5,144.833 738.5,145.167 738.5,145.5C 736.973,145.427 735.973,146.094 735.5,147.5C 732.088,148.042 729.088,149.375 726.5,151.5C 724.447,151.402 722.78,152.069 721.5,153.5C 707.459,157.178 693.459,160.512 679.5,163.5C 673.902,163.156 668.568,163.822 663.5,165.5C 630.19,167.766 596.857,168.433 563.5,167.5C 557.274,167.612 551.274,166.946 545.5,165.5C 541.058,164.01 536.391,163.01 531.5,162.5C 530.22,161.069 528.553,160.402 526.5,160.5C 526.027,159.094 525.027,158.427 523.5,158.5C 522.5,156.833 521.167,155.5 519.5,154.5C 518.736,151.982 517.736,149.649 516.5,147.5C 516.335,144.482 516.502,141.482 517,138.5C 518.356,137.62 519.856,137.286 521.5,137.5C 523.838,139.04 526.505,139.706 529.5,139.5C 535.518,141.776 541.851,143.276 548.5,144C 578.579,147.5 608.579,148.333 638.5,146.5C 645.799,145.65 653.132,145.317 660.5,145.5C 668.723,145.754 676.723,145.088 684.5,143.5C 700.504,142.249 716.171,139.249 731.5,134.5 Z"/></g>
<g><path style="opacity:1" fill="#d4d5d5" d="M 521.5,137.5 C 524.428,137.565 527.095,138.232 529.5,139.5C 526.505,139.706 523.838,139.04 521.5,137.5 Z"/></g>
<g><path style="opacity:1" fill="#d4d4d4" d="M 215.5,142.5 C 214.22,143.931 212.553,144.598 210.5,144.5C 211.78,143.069 213.447,142.402 215.5,142.5 Z"/></g>
<g><path style="opacity:1" fill="#b4b8b8" d="M 306.5,142.5 C 305.738,144.262 304.404,145.262 302.5,145.5C 303.262,143.738 304.596,142.738 306.5,142.5 Z"/></g>
<g><path style="opacity:1" fill="#929595" d="M 367.5,140.5 C 366.415,142.587 364.749,143.92 362.5,144.5C 363.585,142.413 365.251,141.08 367.5,140.5 Z"/></g>
<g><path style="opacity:1" fill="#25282a" d="M 458.5,68.5 C 458.68,88.1795 458.347,107.846 457.5,127.5C 456.076,129.515 455.41,131.848 455.5,134.5C 455.128,138.297 453.794,141.63 451.5,144.5C 450.115,145.574 448.949,146.907 448,148.5C 445.562,147.134 445.062,147.634 446.5,150C 445.685,151.643 444.685,153.143 443.5,154.5C 439.724,158.869 435.058,160.202 429.5,158.5C 428.22,157.069 426.553,156.402 424.5,156.5C 424.027,155.094 423.027,154.427 421.5,154.5C 421.027,153.094 420.027,152.427 418.5,152.5C 417.5,152.167 416.833,151.5 416.5,150.5C 415.962,148.883 415.629,147.216 415.5,145.5C 418.698,146.036 421.365,145.369 423.5,143.5C 425.163,141.562 425.829,139.228 425.5,136.5C 425.448,134.097 425.781,131.764 426.5,129.5C 427.245,113.986 427.912,98.3191 428.5,82.5C 428.402,80.4471 429.069,78.7804 430.5,77.5C 431.674,76.4863 432.34,75.153 432.5,73.5C 433.5,72.1667 434.5,72.1667 435.5,73.5C 435.17,90.0085 435.504,106.342 436.5,122.5C 436.125,124.698 435.458,126.698 434.5,128.5C 432.691,133.639 430.691,138.806 428.5,144C 430.387,144.78 432.054,144.613 433.5,143.5C 435.961,142.469 438.627,141.802 441.5,141.5C 444.167,140.833 445.833,139.167 446.5,136.5C 448.104,135.713 448.771,134.38 448.5,132.5C 449.117,132.389 449.617,132.056 450,131.5C 450.859,128.052 451.359,124.552 451.5,121C 450.619,108.85 450.285,96.6835 450.5,84.5C 451.924,82.4855 452.59,80.1522 452.5,77.5C 453.022,74.4318 453.855,71.4318 455,68.5C 456.292,67.2089 457.458,67.2089 458.5,68.5 Z"/></g>
<g><path style="opacity:1" fill="#b0b0b2" d="M 434.5,128.5 C 434.187,133.442 432.853,138.109 430.5,142.5C 431.325,143.386 432.325,143.719 433.5,143.5C 432.054,144.613 430.387,144.78 428.5,144C 430.691,138.806 432.691,133.639 434.5,128.5 Z"/></g>
<g><path style="opacity:1" fill="#a7a7a9" d="M 446.5,136.5 C 445.833,139.167 444.167,140.833 441.5,141.5C 442.833,139.5 444.5,137.833 446.5,136.5 Z"/></g>
<g><path style="opacity:1" fill="#cfd0d1" d="M 448.5,132.5 C 448.771,134.38 448.104,135.713 446.5,136.5C 446.66,134.847 447.326,133.514 448.5,132.5 Z"/></g>
<g><path style="opacity:1" fill="#a5a6a7" d="M 450.5,84.5 C 450.285,96.6835 450.619,108.85 451.5,121C 451.359,124.552 450.859,128.052 450,131.5C 449.617,132.056 449.117,132.389 448.5,132.5C 449.164,128.846 449.831,125.18 450.5,121.5C 449.216,109.013 449.216,96.6797 450.5,84.5 Z"/></g>
<g><path style="opacity:1" fill="#b0b1b1" d="M 435.5,73.5 C 437.035,89.6735 437.368,106.007 436.5,122.5C 435.504,106.342 435.17,90.0085 435.5,73.5 Z"/></g>
<g><path style="opacity:1" fill="#79797b" d="M 452.5,77.5 C 452.59,80.1522 451.924,82.4855 450.5,84.5C 450.41,81.8478 451.076,79.5145 452.5,77.5 Z"/></g>
<g><path style="opacity:1" fill="#d0d0d1" d="M 529.5,139.5 C 565.546,145.865 601.88,148.199 638.5,146.5C 608.579,148.333 578.579,147.5 548.5,144C 541.851,143.276 535.518,141.776 529.5,139.5 Z"/></g>
<g><path style="opacity:1" fill="#cacacb" d="M 684.5,143.5 C 676.723,145.088 668.723,145.754 660.5,145.5C 668.307,144.283 676.307,143.616 684.5,143.5 Z"/></g>
<g><path style="opacity:1" fill="#e4e4e4" d="M 741.5,143.5 C 741.027,144.906 740.027,145.573 738.5,145.5C 738.5,145.167 738.5,144.833 738.5,144.5C 739.391,143.89 740.391,143.557 741.5,143.5 Z"/></g>
<g><path style="opacity:1" fill="#d8d8db" d="M 789.5,145.5 C 788.391,145.557 787.391,145.89 786.5,146.5C 787.395,142.162 788.395,141.829 789.5,145.5 Z"/></g>
<g><path style="opacity:1" fill="#e2e3e4" d="M 7.5,144.5 C 9.16667,145.5 10.5,146.833 11.5,148.5C 9.16667,148.167 7.83333,146.833 7.5,144.5 Z"/></g>
<g><path style="opacity:1" fill="#a8a8a9" d="M 423.5,143.5 C 421.365,145.369 418.698,146.036 415.5,145.5C 415.629,147.216 415.962,148.883 416.5,150.5C 414.584,149.335 413.751,147.668 414,145.5C 417.161,144.793 420.328,144.126 423.5,143.5 Z"/></g>
<g><path style="opacity:1" fill="#dadada" d="M 738.5,145.5 C 738.027,146.906 737.027,147.573 735.5,147.5C 735.973,146.094 736.973,145.427 738.5,145.5 Z"/></g>
<g><path style="opacity:1" fill="#7c7f81" d="M 754.5,140.5 C 754.833,140.5 755.167,140.5 755.5,140.5C 755.441,143.049 756.441,145.049 758.5,146.5C 757.754,147.736 757.421,149.07 757.5,150.5C 755.32,147.619 754.32,144.286 754.5,140.5 Z"/></g>
<g><path style="opacity:1" fill="#dedede" d="M 819.5,144.5 C 819.262,146.404 818.262,147.738 816.5,148.5C 816.738,146.596 817.738,145.262 819.5,144.5 Z"/></g>
<g><path style="opacity:1" fill="#808181" d="M 451.5,144.5 C 450.657,147.516 449.157,150.183 447,152.5C 446.184,153.823 445.017,154.489 443.5,154.5C 444.685,153.143 445.685,151.643 446.5,150C 445.062,147.634 445.562,147.134 448,148.5C 448.949,146.907 450.115,145.574 451.5,144.5 Z"/></g>
<g><path style="opacity:1" fill="#c3c4c4" d="M 377.5,144.5 C 377.445,147.614 376.112,149.948 373.5,151.5C 374.584,148.996 375.917,146.663 377.5,144.5 Z"/></g>
<g><path style="opacity:1" fill="#7a7b7e" d="M 11.5,148.5 C 14.6587,148.574 16.9921,149.907 18.5,152.5C 15.6689,151.921 13.3356,150.588 11.5,148.5 Z"/></g>
<g><path style="opacity:1" fill="#a0a5a5" d="M 298.5,147.5 C 297.514,149.408 295.848,150.408 293.5,150.5C 294.659,148.75 296.326,147.75 298.5,147.5 Z"/></g>
<g><path style="opacity:1" fill="#cdcdcf" d="M 790.5,147.5 C 791.906,147.973 792.573,148.973 792.5,150.5C 791.094,150.027 790.427,149.027 790.5,147.5 Z"/></g>
<g><path style="opacity:1" fill="#dddddd" d="M 204.5,146.5 C 197.862,149.242 190.862,150.908 183.5,151.5C 183.5,150.833 183.833,150.5 184.5,150.5C 191.167,149.167 197.833,147.833 204.5,146.5 Z"/></g>
<g><path style="opacity:1" fill="#bebfc0" d="M 735.5,147.5 C 732.912,149.625 729.912,150.958 726.5,151.5C 729.088,149.375 732.088,148.042 735.5,147.5 Z"/></g>
<g><path style="opacity:1" fill="#d8d9d9" d="M 785.5,148.5 C 784.92,150.749 783.587,152.415 781.5,153.5C 782.08,151.251 783.413,149.585 785.5,148.5 Z"/></g>
<g><path style="opacity:1" fill="#cccccd" d="M 516.5,147.5 C 517.736,149.649 518.736,151.982 519.5,154.5C 517.166,152.824 516.166,150.491 516.5,147.5 Z"/></g>
<g><path style="opacity:1" fill="#67686a" d="M 757.5,150.5 C 759.414,151.185 761.414,151.685 763.5,152C 762.328,152.419 761.328,153.085 760.5,154C 761.71,155.039 762.71,156.206 763.5,157.5C 760.092,156.422 758.092,154.089 757.5,150.5 Z"/></g>
<g><path style="opacity:1" fill="#e8e9e9" d="M 814.5,150.5 C 814.027,151.906 813.027,152.573 811.5,152.5C 811.973,151.094 812.973,150.427 814.5,150.5 Z"/></g>
<g><path style="opacity:1" fill="#c1c1c1" d="M 726.5,151.5 C 725.22,152.931 723.553,153.598 721.5,153.5C 722.78,152.069 724.447,151.402 726.5,151.5 Z"/></g>
<g><path style="opacity:1" fill="#c1c1c1" d="M 18.5,152.5 C 21.2282,152.171 23.5615,152.837 25.5,154.5C 22.8478,154.59 20.5145,153.924 18.5,152.5 Z"/></g>
<g><path style="opacity:1" fill="#a7a7ac" d="M 418.5,152.5 C 420.027,152.427 421.027,153.094 421.5,154.5C 419.973,154.573 418.973,153.906 418.5,152.5 Z"/></g>
<g><path style="opacity:1" fill="#d7d7d7" d="M 794.5,152.5 C 796.027,152.427 797.027,153.094 797.5,154.5C 795.973,154.573 794.973,153.906 794.5,152.5 Z"/></g>
<g><path style="opacity:1" fill="#2e3133" d="M 313.5,144.5 C 312.502,148.505 310.502,151.839 307.5,154.5C 306.5,154.833 305.833,155.5 305.5,156.5C 303.898,158.074 301.898,158.741 299.5,158.5C 294.162,159.002 288.828,159.169 283.5,159C 282.748,158.329 282.414,157.496 282.5,156.5C 285.678,153.742 289.345,151.742 293.5,150.5C 295.848,150.408 297.514,149.408 298.5,147.5C 299.514,146.326 300.847,145.66 302.5,145.5C 304.404,145.262 305.738,144.262 306.5,142.5C 308.736,141.611 310.736,140.278 312.5,138.5C 313.466,140.396 313.799,142.396 313.5,144.5 Z"/></g>
<g><path style="opacity:1" fill="#d8d8d8" d="M 307.5,154.5 C 307.5,155.833 306.833,156.5 305.5,156.5C 305.833,155.5 306.5,154.833 307.5,154.5 Z"/></g>
<g><path style="opacity:1" fill="#bababb" d="M 421.5,154.5 C 423.027,154.427 424.027,155.094 424.5,156.5C 422.973,156.573 421.973,155.906 421.5,154.5 Z"/></g>
<g><path style="opacity:1" fill="#d8d8d9" d="M 519.5,154.5 C 521.167,155.5 522.5,156.833 523.5,158.5C 521.167,158.167 519.833,156.833 519.5,154.5 Z"/></g>
<g><path style="opacity:1" fill="#dadada" d="M 780.5,154.5 C 780.027,155.906 779.027,156.573 777.5,156.5C 777.973,155.094 778.973,154.427 780.5,154.5 Z"/></g>
<g><path style="opacity:1" fill="#e2e2e2" d="M 424.5,156.5 C 426.553,156.402 428.22,157.069 429.5,158.5C 427.447,158.598 425.78,157.931 424.5,156.5 Z"/></g>
<g><path style="opacity:1" fill="#cccdce" d="M 721.5,153.5 C 708.063,158.691 694.063,162.025 679.5,163.5C 693.459,160.512 707.459,157.178 721.5,153.5 Z"/></g>
<g><path style="opacity:1" fill="#dfdfe0" d="M 777.5,156.5 C 776.713,158.104 775.38,158.771 773.5,158.5C 774.514,157.326 775.847,156.66 777.5,156.5 Z"/></g>
<g><path style="opacity:1" fill="#e6e6e7" d="M 183.5,151.5 C 161.873,155.996 139.873,158.496 117.5,159C 98.5,159.667 79.5,159.667 60.5,159C 52.6247,158.729 44.958,157.895 37.5,156.5C 86.3591,160.219 135.026,158.553 183.5,151.5 Z"/></g>
<g><path style="opacity:1" fill="#d4d5d6" d="M 344.5,155.5 C 344.5,156.5 344.5,157.5 344.5,158.5C 351.84,158.277 359.173,157.944 366.5,157.5C 360.024,158.854 353.357,159.854 346.5,160.5C 345.558,160.392 344.725,160.059 344,159.5C 343.235,157.934 343.402,156.601 344.5,155.5 Z"/></g>
<g><path style="opacity:1" fill="#bcbdbe" d="M 763.5,157.5 C 766.727,157.676 769.727,158.343 772.5,159.5C 769.171,159.785 766.171,159.118 763.5,157.5 Z"/></g>
<g><path style="opacity:1" fill="#cccdcd" d="M 282.5,156.5 C 282.414,157.496 282.748,158.329 283.5,159C 288.828,159.169 294.162,159.002 299.5,158.5C 293.75,160.15 287.75,160.816 281.5,160.5C 281.232,158.901 281.566,157.568 282.5,156.5 Z"/></g>
<g><path style="opacity:1" fill="#d6d7d7" d="M 523.5,158.5 C 525.027,158.427 526.027,159.094 526.5,160.5C 524.973,160.573 523.973,159.906 523.5,158.5 Z"/></g>
<g><path style="opacity:1" fill="#e6e6e6" d="M 526.5,160.5 C 528.553,160.402 530.22,161.069 531.5,162.5C 529.447,162.598 527.78,161.931 526.5,160.5 Z"/></g>
<g><path style="opacity:1" fill="#c6c7c7" d="M 531.5,162.5 C 536.391,163.01 541.058,164.01 545.5,165.5C 540.5,165.502 535.833,164.502 531.5,162.5 Z"/></g>
<g><path style="opacity:1" fill="#e3e3e3" d="M 679.5,163.5 C 674.402,164.957 669.069,165.624 663.5,165.5C 668.568,163.822 673.902,163.156 679.5,163.5 Z"/></g>
<g><path style="opacity:1" fill="#dbdbdc" d="M 663.5,165.5 C 630.218,169.498 596.885,170.165 563.5,167.5C 596.857,168.433 630.19,167.766 663.5,165.5 Z"/></g>
<g><path style="opacity:1" fill="#b0b4b4" d="M 416.5,185.5 C 418.167,186.5 419.5,187.833 420.5,189.5C 418.167,189.167 416.833,187.833 416.5,185.5 Z"/></g>
<g><path style="opacity:1" fill="#a6a6a8" d="M 399.5,188.5 C 398.92,190.749 397.587,192.415 395.5,193.5C 396.08,191.251 397.413,189.585 399.5,188.5 Z"/></g>
<g><path style="opacity:1" fill="#8f9193" d="M 420.5,189.5 C 424.509,189.014 426.342,190.68 426,194.5C 425.617,195.056 425.117,195.389 424.5,195.5C 425.067,192.089 423.734,190.089 420.5,189.5 Z"/></g>
<g><path style="opacity:1" fill="#2a2d2f" d="M 416.5,185.5 C 416.833,187.833 418.167,189.167 420.5,189.5C 423.734,190.089 425.067,192.089 424.5,195.5C 423.094,195.973 422.427,196.973 422.5,198.5C 421.094,198.973 420.427,199.973 420.5,201.5C 418.25,204.034 415.916,204.034 413.5,201.5C 413.027,200.094 412.027,199.427 410.5,199.5C 409.833,199.5 409.167,199.5 408.5,199.5C 407.094,199.973 406.427,200.973 406.5,202.5C 406.167,203.5 405.5,204.167 404.5,204.5C 402.097,204.552 399.764,204.219 397.5,203.5C 396.833,202.167 395.833,201.167 394.5,200.5C 393.133,197.988 393.466,195.655 395.5,193.5C 397.587,192.415 398.92,190.749 399.5,188.5C 400.167,187.167 400.833,187.167 401.5,188.5C 401.5,190.5 402.5,191.5 404.5,191.5C 404.351,192.552 404.517,193.552 405,194.5C 407.326,194.12 409.159,193.12 410.5,191.5C 411.713,188.775 413.546,186.441 416,184.5C 416.399,184.728 416.565,185.062 416.5,185.5 Z"/></g>
<g><path style="opacity:1" fill="#7c7d7f" d="M 404.5,191.5 C 406.549,192.641 408.549,192.641 410.5,191.5C 409.159,193.12 407.326,194.12 405,194.5C 404.517,193.552 404.351,192.552 404.5,191.5 Z"/></g>
<g><path style="opacity:1" fill="#adadad" d="M 401.5,188.5 C 402.833,189.167 403.833,190.167 404.5,191.5C 402.5,191.5 401.5,190.5 401.5,188.5 Z"/></g>
<g><path style="opacity:1" fill="#c6c7c7" d="M 424.5,195.5 C 424.573,197.027 423.906,198.027 422.5,198.5C 422.427,196.973 423.094,195.973 424.5,195.5 Z"/></g>
<g><path style="opacity:1" fill="#d7d7d8" d="M 422.5,198.5 C 422.573,200.027 421.906,201.027 420.5,201.5C 420.427,199.973 421.094,198.973 422.5,198.5 Z"/></g>
<g><path style="opacity:1" fill="#dadfdc" d="M 408.5,199.5 C 408.573,201.027 407.906,202.027 406.5,202.5C 406.427,200.973 407.094,199.973 408.5,199.5 Z"/></g>
<g><path style="opacity:1" fill="#b4b6b9" d="M 410.5,199.5 C 412.027,199.427 413.027,200.094 413.5,201.5C 411.973,201.573 410.973,200.906 410.5,199.5 Z"/></g>
<g><path style="opacity:1" fill="#dddede" d="M 394.5,200.5 C 395.833,201.167 396.833,202.167 397.5,203.5C 395.5,203.5 394.5,202.5 394.5,200.5 Z"/></g>
<g><path style="opacity:1" fill="#a9a9ac" d="M 397.5,203.5 C 399.764,204.219 402.097,204.552 404.5,204.5C 403.726,205.147 402.726,205.48 401.5,205.5C 399.645,205.66 398.312,204.993 397.5,203.5 Z"/></g>
</svg>
