<?xml version="1.0" encoding="UTF-8"?>
<!DOCTYPE svg PUBLIC "-//W3C//DTD SVG 1.1//EN" "http://www.w3.org/Graphics/SVG/1.1/DTD/svg11.dtd">
<svg xmlns="http://www.w3.org/2000/svg" version="1.1" width="943px" height="284px" style="shape-rendering:geometricPrecision; text-rendering:geometricPrecision; image-rendering:optimizeQuality; fill-rule:evenodd; clip-rule:evenodd" xmlns:xlink="http://www.w3.org/1999/xlink">
<g><path style="opacity:1" fill="#cdcdcd" d="M 933.5,0.5 C 933.027,1.90632 932.027,2.57298 930.5,2.5C 930.973,1.09368 931.973,0.427017 933.5,0.5 Z"/></g>
<g><path style="opacity:1" fill="#d2d3d5" d="M 930.5,2.5 C 927.725,5.60458 924.392,7.93791 920.5,9.5C 923.275,6.39542 926.608,4.06209 930.5,2.5 Z"/></g>
<g><path style="opacity:1" fill="#c0c2c3" d="M 942.5,0.5 C 942.5,1.5 942.5,2.5 942.5,3.5C 941.407,5.34916 940.074,7.01583 938.5,8.5C 938.5,8.16667 938.5,7.83333 938.5,7.5C 939.596,4.96842 940.929,2.63509 942.5,0.5 Z"/></g>
<g><path style="opacity:1" fill="#575c5c" d="M 938.5,7.5 C 938.5,7.83333 938.5,8.16667 938.5,8.5C 937.921,11.3311 936.588,13.6644 934.5,15.5C 934.579,14.0695 934.246,12.7362 933.5,11.5C 934.035,9.72945 934.869,9.39612 936,10.5C 936.333,9.16667 936.667,7.83333 937,6.5C 937.383,7.05596 937.883,7.38929 938.5,7.5 Z"/></g>
<g><path style="opacity:1" fill="#d5d5d6" d="M 920.5,9.5 C 920.027,10.9063 919.027,11.573 917.5,11.5C 917.973,10.0937 918.973,9.42702 920.5,9.5 Z"/></g>
<g><path style="opacity:1" fill="#d5d5d6" d="M 917.5,11.5 C 915.704,13.9 913.37,15.5667 910.5,16.5C 912.296,14.1 914.63,12.4333 917.5,11.5 Z"/></g>
<g><path style="opacity:1" fill="#cdcdcd" d="M 910.5,16.5 C 910.027,17.9063 909.027,18.573 907.5,18.5C 907.973,17.0937 908.973,16.427 910.5,16.5 Z"/></g>
<g><path style="opacity:1" fill="#d6d6d7" d="M 934.5,15.5 C 934.262,17.4044 933.262,18.7377 931.5,19.5C 931.738,17.5956 932.738,16.2623 934.5,15.5 Z"/></g>
<g><path style="opacity:1" fill="#cacbcd" d="M 907.5,18.5 C 906.738,20.2624 905.404,21.2624 903.5,21.5C 904.262,19.7376 905.596,18.7376 907.5,18.5 Z"/></g>
<g><path style="opacity:1" fill="#656667" d="M 929.5,21.5 C 928.089,23.914 926.089,25.5806 923.5,26.5C 924.598,25.603 924.598,24.7697 923.5,24C 924.448,23.5172 925.448,23.3505 926.5,23.5C 926.504,19.7498 927.504,19.0831 929.5,21.5 Z"/></g>
<g><path style="opacity:1" fill="#bdc1c2" d="M 903.5,21.5 C 903.027,22.9063 902.027,23.573 900.5,23.5C 900.973,22.0937 901.973,21.427 903.5,21.5 Z"/></g>
<g><path style="opacity:1" fill="#bdbdbe" d="M 900.5,23.5 C 899.738,25.2624 898.404,26.2624 896.5,26.5C 897.262,24.7376 898.596,23.7376 900.5,23.5 Z"/></g>
<g><path style="opacity:1" fill="#acaeae" d="M 896.5,26.5 C 896.027,27.9063 895.027,28.573 893.5,28.5C 893.973,27.0937 894.973,26.427 896.5,26.5 Z"/></g>
<g><path style="opacity:1" fill="#b4b4b4" d="M 893.5,28.5 C 893.027,29.9063 892.027,30.573 890.5,30.5C 890.973,29.0937 891.973,28.427 893.5,28.5 Z"/></g>
<g><path style="opacity:1" fill="#e0e0e1" d="M 921.5,28.5 C 921.027,29.9063 920.027,30.573 918.5,30.5C 918.973,29.0937 919.973,28.427 921.5,28.5 Z"/></g>
<g><path style="opacity:1" fill="#bfc2c2" d="M 890.5,30.5 C 890.027,31.9063 889.027,32.573 887.5,32.5C 887.973,31.0937 888.973,30.427 890.5,30.5 Z"/></g>
<g><path style="opacity:1" fill="#d1d1d2" d="M 918.5,30.5 C 918.027,31.9063 917.027,32.573 915.5,32.5C 915.973,31.0937 916.973,30.427 918.5,30.5 Z"/></g>
<g><path style="opacity:1" fill="#c1c3c3" d="M 887.5,32.5 C 886.738,34.2624 885.404,35.2624 883.5,35.5C 884.262,33.7376 885.596,32.7376 887.5,32.5 Z"/></g>
<g><path style="opacity:1" fill="#bbbbbb" d="M 883.5,35.5 C 883.027,36.9063 882.027,37.573 880.5,37.5C 880.973,36.0937 881.973,35.427 883.5,35.5 Z"/></g>
<g><path style="opacity:1" fill="#c5c5c8" d="M 880.5,37.5 C 880.027,38.9063 879.027,39.573 877.5,39.5C 877.973,38.0937 878.973,37.427 880.5,37.5 Z"/></g>
<g><path style="opacity:1" fill="#d5d5d5" d="M 908.5,37.5 C 908.027,38.9063 907.027,39.573 905.5,39.5C 905.973,38.0937 906.973,37.427 908.5,37.5 Z"/></g>
<g><path style="opacity:1" fill="#c9c9c9" d="M 877.5,39.5 C 875.704,41.9 873.37,43.5667 870.5,44.5C 872.296,42.1 874.63,40.4333 877.5,39.5 Z"/></g>
<g><path style="opacity:1" fill="#b0b1b1" d="M 870.5,44.5 C 869.738,46.2624 868.404,47.2624 866.5,47.5C 867.262,45.7376 868.596,44.7376 870.5,44.5 Z"/></g>
<g><path style="opacity:1" fill="#808182" d="M 894.5,47.5 C 893.101,48.8897 891.434,49.8897 889.5,50.5C 890.598,49.603 890.598,48.7697 889.5,48C 891.134,47.5065 892.801,47.3398 894.5,47.5 Z"/></g>
<g><path style="opacity:1" fill="#a9a9a9" d="M 866.5,47.5 C 866.027,48.9063 865.027,49.573 863.5,49.5C 863.973,48.0937 864.973,47.427 866.5,47.5 Z"/></g>
<g><path style="opacity:1" fill="#b7b7ba" d="M 863.5,49.5 C 863.027,50.9063 862.027,51.573 860.5,51.5C 860.973,50.0937 861.973,49.427 863.5,49.5 Z"/></g>
<g><path style="opacity:1" fill="#bbbebe" d="M 860.5,51.5 C 857.725,54.6046 854.392,56.9379 850.5,58.5C 853.275,55.3954 856.608,53.0621 860.5,51.5 Z"/></g>
<g><path style="opacity:1" fill="#ababad" d="M 313.5,54.5 C 311.167,51.8333 308.833,51.8333 306.5,54.5C 308.833,49.1667 311.167,49.1667 313.5,54.5 Z"/></g>
<g><path style="opacity:1" fill="#9b9f9e" d="M 360.5,49.5 C 360.741,51.8984 360.074,53.8984 358.5,55.5C 358.259,53.1016 358.926,51.1016 360.5,49.5 Z"/></g>
<g><path style="opacity:1" fill="#d8d9de" d="M 885.5,53.5 C 885.027,54.9063 884.027,55.573 882.5,55.5C 882.973,54.0937 883.973,53.427 885.5,53.5 Z"/></g>
<g><path style="opacity:1" fill="#aeafb0" d="M 306.5,54.5 C 305.92,56.7488 304.587,58.4154 302.5,59.5C 303.08,57.2512 304.413,55.5846 306.5,54.5 Z"/></g>
<g><path style="opacity:1" fill="#a7a7a9" d="M 365.5,49.5 C 366.525,52.9736 367.192,56.6403 367.5,60.5C 365.783,57.1552 365.116,53.4885 365.5,49.5 Z"/></g>
<g><path style="opacity:1" fill="#d7d7d7" d="M 882.5,55.5 C 882.027,56.9063 881.027,57.573 879.5,57.5C 879.973,56.0937 880.973,55.427 882.5,55.5 Z"/></g>
<g><path style="opacity:1" fill="#878b8d" d="M 314.5,55.5 C 318.126,57.37 321.792,59.0367 325.5,60.5C 322.161,60.1103 318.827,59.6103 315.5,59C 315.833,58.6667 316.167,58.3333 316.5,58C 315.619,57.2917 314.953,56.4584 314.5,55.5 Z"/></g>
<g><path style="opacity:1" fill="#babdbd" d="M 850.5,58.5 C 849.738,60.2624 848.404,61.2624 846.5,61.5C 847.262,59.7376 848.596,58.7376 850.5,58.5 Z"/></g>
<g><path style="opacity:1" fill="#dedede" d="M 878.5,58.5 C 878.027,59.9063 877.027,60.573 875.5,60.5C 875.973,59.0937 876.973,58.427 878.5,58.5 Z"/></g>
<g><path style="opacity:1" fill="#dddedf" d="M 875.5,60.5 C 875.027,61.9063 874.027,62.573 872.5,62.5C 872.973,61.0937 873.973,60.427 875.5,60.5 Z"/></g>
<g><path style="opacity:1" fill="#bcbcbc" d="M 846.5,61.5 C 845.738,63.2624 844.404,64.2624 842.5,64.5C 843.262,62.7376 844.596,61.7376 846.5,61.5 Z"/></g>
<g><path style="opacity:1" fill="#a3a3a3" d="M 301.5,61.5 C 301.5,64.1667 301.5,66.8333 301.5,69.5C 298.833,66.8333 298.833,64.1667 301.5,61.5 Z"/></g>
<g><path style="opacity:1" fill="#282b2d" d="M 313.5,54.5 C 314.167,54.5 314.5,54.8333 314.5,55.5C 314.953,56.4584 315.619,57.2917 316.5,58C 316.167,58.3333 315.833,58.6667 315.5,59C 318.827,59.6103 322.161,60.1103 325.5,60.5C 326.598,61.6009 326.765,62.9343 326,64.5C 323.39,68.7424 320.557,72.7424 317.5,76.5C 314.833,76.5 312.167,76.5 309.5,76.5C 308.508,76.6716 307.842,76.3382 307.5,75.5C 307.027,74.0937 306.027,73.427 304.5,73.5C 302.738,72.7377 301.738,71.4044 301.5,69.5C 301.5,66.8333 301.5,64.1667 301.5,61.5C 301.328,60.5084 301.662,59.8417 302.5,59.5C 304.587,58.4154 305.92,56.7488 306.5,54.5C 308.833,51.8333 311.167,51.8333 313.5,54.5 Z"/></g>
<g><path style="opacity:1" fill="#ababac" d="M 842.5,64.5 C 841.415,66.5869 839.749,67.9202 837.5,68.5C 838.585,66.4131 840.251,65.0798 842.5,64.5 Z"/></g>
<g><path style="opacity:1" fill="#e2e2e5" d="M 865.5,67.5 C 865.027,68.9063 864.027,69.573 862.5,69.5C 862.973,68.0937 863.973,67.427 865.5,67.5 Z"/></g>
<g><path style="opacity:1" fill="#959698" d="M 354.5,67.5 C 354.074,71.4268 353.074,75.0935 351.5,78.5C 351.517,74.4661 352.517,70.7994 354.5,67.5 Z"/></g>
<g><path style="opacity:1" fill="#adadb2" d="M 304.5,73.5 C 306.027,73.427 307.027,74.0937 307.5,75.5C 305.973,75.573 304.973,74.9063 304.5,73.5 Z"/></g>
<g><path style="opacity:1" fill="#dcdcdc" d="M 370.5,72.5 C 371.931,73.7804 372.598,75.4471 372.5,77.5C 371.069,76.2196 370.402,74.5529 370.5,72.5 Z"/></g>
<g><path style="opacity:1" fill="#9e9e9f" d="M 309.5,76.5 C 312.167,76.5 314.833,76.5 317.5,76.5C 316.828,77.2674 315.995,77.9341 315,78.5C 313.052,77.8906 311.218,77.224 309.5,76.5 Z"/></g>
<g><path style="opacity:1" fill="#6f6f70" d="M 837.5,68.5 C 834.437,72.5658 830.771,75.8991 826.5,78.5C 829.563,74.4342 833.229,71.1009 837.5,68.5 Z"/></g>
<g><path style="opacity:1" fill="#7b7b7e" d="M 845.5,81.5 C 844.101,82.8897 842.434,83.8897 840.5,84.5C 841.087,81.194 842.753,80.194 845.5,81.5 Z"/></g>
<g><path style="opacity:1" fill="#9c9e9f" d="M 826.5,78.5 C 825.92,80.7488 824.587,82.4154 822.5,83.5C 823.08,81.2512 824.413,79.5846 826.5,78.5 Z"/></g>
<g><path style="opacity:1" fill="#c8cbcb" d="M 822.5,83.5 C 822.573,85.0269 821.906,86.0269 820.5,86.5C 820.427,84.9731 821.094,83.9731 822.5,83.5 Z"/></g>
<g><path style="opacity:1" fill="#78797a" d="M 168.5,90.5 C 166.14,88.9891 163.64,87.6558 161,86.5C 159.961,87.7101 158.794,88.7101 157.5,89.5C 158.396,86.9308 160.062,84.9308 162.5,83.5C 164.493,85.8277 166.493,88.161 168.5,90.5 Z"/></g>
<g><path style="opacity:1" fill="#dedede" d="M 839.5,85.5 C 839.027,86.9063 838.027,87.573 836.5,87.5C 836.973,86.0937 837.973,85.427 839.5,85.5 Z"/></g>
<g><path style="opacity:1" fill="#9d9ea0" d="M 141.5,90.5 C 140.292,89.7659 138.959,89.4326 137.5,89.5C 139.423,86.7822 140.756,87.1155 141.5,90.5 Z"/></g>
<g><path style="opacity:1" fill="#6b6b6d" d="M 374.5,82.5 C 376.341,84.8485 377.674,87.5152 378.5,90.5C 377.5,90.5 376.5,90.5 375.5,90.5C 375.167,87.8333 374.833,85.1667 374.5,82.5 Z"/></g>
<g><path style="opacity:1" fill="#bababa" d="M 137.5,89.5 C 136.92,91.7488 135.587,93.4154 133.5,94.5C 134.08,92.2512 135.413,90.5846 137.5,89.5 Z"/></g>
<g><path style="opacity:1" fill="#25282a" d="M 168.5,90.5 C 170.698,90.8751 172.698,91.5418 174.5,92.5C 175.942,93.8195 176.608,95.4862 176.5,97.5C 176.672,98.4916 176.338,99.1583 175.5,99.5C 174.178,99.67 173.011,99.3366 172,98.5C 171.5,99 171,99.5 170.5,100C 171.605,102.12 171.605,104.287 170.5,106.5C 169.094,106.973 168.427,107.973 168.5,109.5C 165.833,109.5 163.167,109.5 160.5,109.5C 159.508,109.672 158.842,109.338 158.5,108.5C 158.027,107.094 157.027,106.427 155.5,106.5C 154.241,103.474 152.908,103.14 151.5,105.5C 151.5,106.167 151.167,106.5 150.5,106.5C 149.094,106.973 148.427,107.973 148.5,109.5C 147.094,109.973 146.427,110.973 146.5,112.5C 146.389,113.117 146.056,113.617 145.5,114C 142.633,114.801 139.966,114.634 137.5,113.5C 137.027,112.094 136.027,111.427 134.5,111.5C 133.833,110.167 132.833,109.167 131.5,108.5C 130.883,108.389 130.383,108.056 130,107.5C 129.195,104.304 129.362,101.304 130.5,98.5C 132.262,97.7377 133.262,96.4044 133.5,94.5C 135.587,93.4154 136.92,91.7488 137.5,89.5C 138.959,89.4326 140.292,89.7659 141.5,90.5C 142.268,93.5616 144.268,95.2283 147.5,95.5C 150.813,98.5082 153.147,97.8416 154.5,93.5C 156.262,92.7377 157.262,91.4044 157.5,89.5C 158.794,88.7101 159.961,87.7101 161,86.5C 163.64,87.6558 166.14,88.9891 168.5,90.5 Z"/></g>
<g><path style="opacity:1" fill="#cecfcf" d="M 141.5,90.5 C 143.54,92.177 145.54,93.8437 147.5,95.5C 144.268,95.2283 142.268,93.5616 141.5,90.5 Z"/></g>
<g><path style="opacity:1" fill="#a8acae" d="M 157.5,89.5 C 157.262,91.4044 156.262,92.7377 154.5,93.5C 154.738,91.5956 155.738,90.2623 157.5,89.5 Z"/></g>
<g><path style="opacity:1" fill="#dcdcdc" d="M 174.5,92.5 C 175.496,92.4142 176.329,92.7476 177,93.5C 177.765,95.0657 177.598,96.3991 176.5,97.5C 176.608,95.4862 175.942,93.8195 174.5,92.5 Z"/></g>
<g><path style="opacity:1" fill="#c3c3c5" d="M 154.5,93.5 C 153.147,97.8416 150.813,98.5082 147.5,95.5C 150.188,95.8342 152.521,95.1675 154.5,93.5 Z"/></g>
<g><path style="opacity:1" fill="#b2b3b2" d="M 133.5,94.5 C 133.262,96.4044 132.262,97.7377 130.5,98.5C 130.738,96.5956 131.738,95.2623 133.5,94.5 Z"/></g>
<g><path style="opacity:1" fill="#717474" d="M 820.5,86.5 C 820.799,88.604 820.466,90.604 819.5,92.5C 818.511,94.5862 817.178,96.2529 815.5,97.5C 816.603,93.503 818.269,89.8363 820.5,86.5 Z"/></g>
<g><path style="opacity:1" fill="#818283" d="M 380.5,94.5 C 381.89,95.8993 382.89,97.5659 383.5,99.5C 381.241,98.656 380.241,96.9893 380.5,94.5 Z"/></g>
<g><path style="opacity:1" fill="#5b5d5e" d="M 175.5,99.5 C 174.189,102.135 172.522,104.469 170.5,106.5C 171.605,104.287 171.605,102.12 170.5,100C 171,99.5 171.5,99 172,98.5C 173.011,99.3366 174.178,99.67 175.5,99.5 Z"/></g>
<g><path style="opacity:1" fill="#a9a9a9" d="M 214.5,100.5 C 213.167,100.5 211.833,100.5 210.5,100.5C 211.634,98.2187 212.968,98.2187 214.5,100.5 Z"/></g>
<g><path style="opacity:1" fill="#9c9e9f" d="M 815.5,97.5 C 815.435,100.428 814.768,103.095 813.5,105.5C 813.294,102.505 813.96,99.8383 815.5,97.5 Z"/></g>
<g><path style="opacity:1" fill="#b2b4b5" d="M 383.5,99.5 C 384.674,100.514 385.34,101.847 385.5,103.5C 383.896,102.713 383.229,101.38 383.5,99.5 Z"/></g>
<g><path style="opacity:1" fill="#eaebeb" d="M 825.5,95.5 C 824.877,100.935 824.21,106.268 823.5,111.5C 823.5,109.5 823.5,107.5 823.5,105.5C 822.931,101.671 823.598,98.3373 825.5,95.5 Z"/></g>
<g><path style="opacity:1" fill="#becfcf" d="M 155.5,106.5 C 154.167,106.167 152.833,105.833 151.5,105.5C 152.908,103.14 154.241,103.474 155.5,106.5 Z"/></g>
<g><path style="opacity:1" fill="#939396" d="M 210.5,100.5 C 210.408,102.848 209.408,104.514 207.5,105.5C 207.75,103.326 208.75,101.659 210.5,100.5 Z"/></g>
<g><path style="opacity:1" fill="#e1e1e1" d="M 351.5,78.5 C 350.787,98.1553 350.287,117.822 350,137.5C 349.722,138.416 349.222,139.082 348.5,139.5C 349.293,121.864 349.793,104.198 350,86.5C 350.183,83.6353 350.683,80.9686 351.5,78.5 Z"/></g>
<g><path style="opacity:1" fill="#b9b9bb" d="M 155.5,106.5 C 157.027,106.427 158.027,107.094 158.5,108.5C 156.973,108.573 155.973,107.906 155.5,106.5 Z"/></g>
<g><path style="opacity:1" fill="#d7d7d7" d="M 170.5,106.5 C 170.573,108.027 169.906,109.027 168.5,109.5C 168.427,107.973 169.094,106.973 170.5,106.5 Z"/></g>
<g><path style="opacity:1" fill="#c8c8c8" d="M 150.5,106.5 C 150.573,108.027 149.906,109.027 148.5,109.5C 148.427,107.973 149.094,106.973 150.5,106.5 Z"/></g>
<g><path style="opacity:1" fill="#dcdcde" d="M 131.5,108.5 C 132.833,109.167 133.833,110.167 134.5,111.5C 132.5,111.5 131.5,110.5 131.5,108.5 Z"/></g>
<g><path style="opacity:1" fill="#878889" d="M 160.5,109.5 C 163.167,109.5 165.833,109.5 168.5,109.5C 165.881,111.972 163.214,111.972 160.5,109.5 Z"/></g>
<g><path style="opacity:1" fill="#2c2f31" d="M 210.5,100.5 C 211.833,100.5 213.167,100.5 214.5,100.5C 213.75,126.16 213.417,151.826 213.5,177.5C 213.556,182.731 212.889,187.731 211.5,192.5C 210.883,192.611 210.383,192.944 210,193.5C 209.322,198.54 208.489,203.54 207.5,208.5C 207.913,214.498 205.413,216.831 200,215.5C 199.176,186.761 199.342,158.095 200.5,129.5C 201.784,125.015 202.784,120.349 203.5,115.5C 204.931,114.22 205.598,112.553 205.5,110.5C 205.893,108.716 206.559,107.05 207.5,105.5C 209.408,104.514 210.408,102.848 210.5,100.5 Z"/></g>
<g><path style="opacity:1" fill="#d7d7d7" d="M 148.5,109.5 C 148.573,111.027 147.906,112.027 146.5,112.5C 146.427,110.973 147.094,109.973 148.5,109.5 Z"/></g>
<g><path style="opacity:1" fill="#bebebe" d="M 326.5,110.5 C 323.167,110.833 319.833,111.167 316.5,111.5C 319.737,109.624 323.07,109.29 326.5,110.5 Z"/></g>
<g><path style="opacity:1" fill="#c5c5c5" d="M 134.5,111.5 C 136.027,111.427 137.027,112.094 137.5,113.5C 135.973,113.573 134.973,112.906 134.5,111.5 Z"/></g>
<g><path style="opacity:1" fill="#c7c9c9" d="M 316.5,111.5 C 314.853,113.326 312.853,114.66 310.5,115.5C 311.802,113.178 313.802,111.845 316.5,111.5 Z"/></g>
<g><path style="opacity:1" fill="#c7c9ce" d="M 205.5,110.5 C 205.598,112.553 204.931,114.22 203.5,115.5C 203.402,113.447 204.069,111.78 205.5,110.5 Z"/></g>
<g><path style="opacity:1" fill="#696a6a" d="M 387.5,107.5 C 390.258,110.678 392.258,114.345 393.5,118.5C 390.481,118.028 389.481,116.528 390.5,114C 389.5,113.667 388.5,113.333 387.5,113C 388.536,111.224 388.536,109.391 387.5,107.5 Z"/></g>
<g><path style="opacity:1" fill="#b2b4b6" d="M 203.5,115.5 C 202.784,120.349 201.784,125.015 200.5,129.5C 200.265,124.454 201.265,119.787 203.5,115.5 Z"/></g>
<g><path style="opacity:1" fill="#c5c6c7" d="M 310.5,115.5 C 308.167,118.5 305.5,121.167 302.5,123.5C 304.167,119.833 306.833,117.167 310.5,115.5 Z"/></g>
<g><path style="opacity:1" fill="#9fa09f" d="M 302.5,123.5 C 302.262,125.404 301.262,126.738 299.5,127.5C 299.738,125.596 300.738,124.262 302.5,123.5 Z"/></g>
<g><path style="opacity:1" fill="#b1b1b2" d="M 299.5,127.5 C 299.262,129.404 298.262,130.738 296.5,131.5C 296.738,129.596 297.738,128.262 299.5,127.5 Z"/></g>
<g><path style="opacity:1" fill="#555659" d="M 393.5,118.5 C 396.296,123.105 398.296,128.105 399.5,133.5C 397.983,133.489 396.816,132.823 396,131.5C 395.58,127.048 394.747,122.715 393.5,118.5 Z"/></g>
<g><path style="opacity:1" fill="#bbbcbd" d="M 399.5,133.5 C 403.931,144.511 405.264,155.844 403.5,167.5C 403.554,155.987 402.221,144.654 399.5,133.5 Z"/></g>
<g><path style="opacity:1" fill="#939393" d="M 153.5,140.5 C 154.586,140.62 155.253,141.287 155.5,142.5C 155.122,144.717 154.455,146.717 153.5,148.5C 153.5,145.833 153.5,143.167 153.5,140.5 Z"/></g>
<g><path style="opacity:1" fill="#b4b4b6" d="M 147.5,146.5 C 147.573,148.027 146.906,149.027 145.5,149.5C 145.427,147.973 146.094,146.973 147.5,146.5 Z"/></g>
<g><path style="opacity:1" fill="#b9b9ba" d="M 214.5,100.5 C 215.166,104.988 215.499,109.654 215.5,114.5C 215.022,135.668 214.356,156.668 213.5,177.5C 213.417,151.826 213.75,126.16 214.5,100.5 Z"/></g>
<g><path style="opacity:1" fill="#b7b7b8" d="M 870.5,105.5 C 870.284,126.169 869.951,146.836 869.5,167.5C 868.419,146.821 868.753,126.154 870.5,105.5 Z"/></g>
<g><path style="opacity:1" fill="#8e8f90" d="M 122.5,154.5 C 122.5,154.833 122.5,155.167 122.5,155.5C 114.563,155.129 106.896,156.129 99.5,158.5C 106.584,154.084 114.25,152.751 122.5,154.5 Z"/></g>
<g><path style="opacity:1" fill="#dadada" d="M 141.5,153.5 C 140.089,155.539 138.089,156.539 135.5,156.5C 137.181,154.992 139.181,153.992 141.5,153.5 Z"/></g>
<g><path style="opacity:1" fill="#afb0b1" d="M 292.5,139.5 C 292.263,142.647 291.43,145.647 290,148.5C 289.501,152.152 289.335,155.818 289.5,159.5C 287.646,152.444 288.646,145.778 292.5,139.5 Z"/></g>
<g><path style="opacity:1" fill="#232729" d="M 365.5,49.5 C 365.116,53.4885 365.783,57.1552 367.5,60.5C 368.808,64.4001 369.808,68.4001 370.5,72.5C 370.402,74.5529 371.069,76.2196 372.5,77.5C 373.537,78.9303 374.204,80.597 374.5,82.5C 374.833,85.1667 375.167,87.8333 375.5,90.5C 376.5,90.5 377.5,90.5 378.5,90.5C 379.674,91.5137 380.34,92.847 380.5,94.5C 380.241,96.9893 381.241,98.656 383.5,99.5C 383.229,101.38 383.896,102.713 385.5,103.5C 386.674,104.514 387.34,105.847 387.5,107.5C 388.536,109.391 388.536,111.224 387.5,113C 388.5,113.333 389.5,113.667 390.5,114C 389.481,116.528 390.481,118.028 393.5,118.5C 394.747,122.715 395.58,127.048 396,131.5C 396.816,132.823 397.983,133.489 399.5,133.5C 402.221,144.654 403.554,155.987 403.5,167.5C 403.575,172.192 402.575,176.526 400.5,180.5C 399.175,181.953 398.342,181.619 398,179.5C 396.672,181.022 396.838,182.689 398.5,184.5C 397.754,185.736 397.421,187.07 397.5,188.5C 395.674,190.147 394.34,192.147 393.5,194.5C 392.167,196.5 390.5,198.167 388.5,199.5C 386.973,199.427 385.973,200.094 385.5,201.5C 370.538,204.079 355.538,206.412 340.5,208.5C 340.392,206.486 341.058,204.82 342.5,203.5C 345.979,201.597 349.646,199.93 353.5,198.5C 355.027,198.573 356.027,197.906 356.5,196.5C 357.514,195.326 358.847,194.66 360.5,194.5C 362.027,194.573 363.027,193.906 363.5,192.5C 365.027,192.573 366.027,191.906 366.5,190.5C 368.404,190.262 369.738,189.262 370.5,187.5C 374.5,185.5 377.5,182.5 379.5,178.5C 379.833,177.5 380.5,176.833 381.5,176.5C 382.906,176.027 383.573,175.027 383.5,173.5C 384.906,173.027 385.573,172.027 385.5,170.5C 386.906,170.027 387.573,169.027 387.5,167.5C 388.93,163.646 390.597,159.979 392.5,156.5C 393.966,155.653 394.8,154.32 395,152.5C 395.5,150.5 396,148.5 396.5,146.5C 396.457,145.584 396.124,144.917 395.5,144.5C 395.573,142.973 394.906,141.973 393.5,141.5C 392.5,141.167 391.833,140.5 391.5,139.5C 391.573,137.973 390.906,136.973 389.5,136.5C 388.833,136.5 388.5,136.167 388.5,135.5C 388.573,133.973 387.906,132.973 386.5,132.5C 385.833,132.5 385.5,132.167 385.5,131.5C 384.394,128.946 383.561,126.279 383,123.5C 382.667,123.833 382.333,124.167 382,124.5C 381.241,122.937 380.074,121.937 378.5,121.5C 378.167,120.833 377.833,120.167 377.5,119.5C 377.573,117.973 376.906,116.973 375.5,116.5C 372.742,113.322 370.742,109.655 369.5,105.5C 368.114,101.727 366.448,98.0606 364.5,94.5C 363.503,101.803 363.169,109.137 363.5,116.5C 363.81,119.713 363.477,122.713 362.5,125.5C 360.926,128.907 359.926,132.573 359.5,136.5C 359.267,139.542 358.267,142.208 356.5,144.5C 354.383,147.145 352.55,146.811 351,143.5C 349.148,145.23 349.314,146.396 351.5,147C 351.167,147.333 350.833,147.667 350.5,148C 351.574,148.739 352.241,149.739 352.5,151C 351.68,152.8 351.014,154.634 350.5,156.5C 349.557,159.109 347.89,161.109 345.5,162.5C 343.738,164.7 341.404,165.867 338.5,166C 339.598,166.77 339.598,167.603 338.5,168.5C 338.027,169.906 337.027,170.573 335.5,170.5C 333.847,170.66 332.514,171.326 331.5,172.5C 330.791,173.404 329.791,173.737 328.5,173.5C 322.159,174.668 315.826,174.668 309.5,173.5C 307.308,173.757 305.641,174.757 304.5,176.5C 303.341,178.25 301.674,179.25 299.5,179.5C 296.515,180.326 293.849,181.659 291.5,183.5C 287.059,184.424 282.725,185.758 278.5,187.5C 276.771,189.851 276.104,192.518 276.5,195.5C 274.018,197.503 273.018,200.169 273.5,203.5C 272.903,208.017 271.237,212.017 268.5,215.5C 266.896,216.287 266.229,217.62 266.5,219.5C 266.5,220.167 266.167,220.5 265.5,220.5C 261.051,222.851 258.051,225.851 256.5,229.5C 254.902,228.515 253.235,228.349 251.5,229C 252.756,229.417 253.423,230.25 253.5,231.5C 249.575,231.43 245.909,232.097 242.5,233.5C 238.489,233.644 234.489,233.977 230.5,234.5C 228.215,234.324 226.215,233.657 224.5,232.5C 223.478,231.108 223.811,229.775 225.5,228.5C 234.61,222.711 243.943,217.378 253.5,212.5C 255.027,212.573 256.027,211.906 256.5,210.5C 258.027,210.573 259.027,209.906 259.5,208.5C 261.749,207.92 263.415,206.587 264.5,204.5C 265.167,203.167 266.167,202.167 267.5,201.5C 269.104,200.713 269.771,199.38 269.5,197.5C 270.853,195.872 270.519,194.538 268.5,193.5C 265.594,194.787 262.594,195.787 259.5,196.5C 255.131,196.533 250.798,196.2 246.5,195.5C 246.027,194.094 245.027,193.427 243.5,193.5C 241.738,192.738 240.738,191.404 240.5,189.5C 241.113,185.312 241.113,180.979 240.5,176.5C 240.402,174.447 241.069,172.78 242.5,171.5C 244.585,169.316 245.585,166.649 245.5,163.5C 245.5,163.167 245.5,162.833 245.5,162.5C 247.99,159.374 249.323,155.708 249.5,151.5C 250.219,149.112 251.885,147.612 254.5,147C 258.027,146.192 261.36,146.359 264.5,147.5C 265.514,148.674 266.847,149.34 268.5,149.5C 269.167,150.833 270.167,151.833 271.5,152.5C 271.427,154.027 272.094,155.027 273.5,155.5C 274.674,156.514 275.34,157.847 275.5,159.5C 276.167,163.167 276.833,166.833 277.5,170.5C 281.902,170.692 285.902,169.692 289.5,167.5C 290.5,167.5 291.5,167.5 292.5,167.5C 292.88,165.302 292.213,163.635 290.5,162.5C 289.596,161.791 289.263,160.791 289.5,159.5C 289.335,155.818 289.501,152.152 290,148.5C 291.43,145.647 292.263,142.647 292.5,139.5C 293.326,136.515 294.659,133.849 296.5,131.5C 298.262,130.738 299.262,129.404 299.5,127.5C 301.262,126.738 302.262,125.404 302.5,123.5C 305.5,121.167 308.167,118.5 310.5,115.5C 312.853,114.66 314.853,113.326 316.5,111.5C 319.833,111.167 323.167,110.833 326.5,110.5C 328.649,111.736 330.982,112.736 333.5,113.5C 333.738,115.404 334.738,116.738 336.5,117.5C 338.018,125.915 337.684,134.249 335.5,142.5C 335.672,143.492 335.338,144.158 334.5,144.5C 332.992,146.181 331.992,148.181 331.5,150.5C 330.094,150.973 329.427,151.973 329.5,153.5C 328.067,154.833 326.733,156.333 325.5,158C 329.299,158.123 332.633,156.956 335.5,154.5C 337.404,154.262 338.738,153.262 339.5,151.5C 342.167,150.833 343.833,149.167 344.5,146.5C 345.906,146.027 346.573,145.027 346.5,143.5C 346.66,141.847 347.326,140.514 348.5,139.5C 349.222,139.082 349.722,138.416 350,137.5C 350.287,117.822 350.787,98.1553 351.5,78.5C 353.074,75.0935 354.074,71.4268 354.5,67.5C 354.926,63.0983 356.26,59.0983 358.5,55.5C 360.074,53.8984 360.741,51.8984 360.5,49.5C 362.167,48.1667 363.833,48.1667 365.5,49.5 Z M 326.5,142.5 C 326.483,144.565 326.15,146.565 325.5,148.5C 323.167,150.167 321.167,152.167 319.5,154.5C 317.742,154.877 316.075,155.544 314.5,156.5C 312.199,155.675 309.865,155.008 307.5,154.5C 304.806,152.473 302.473,150.139 300.5,147.5C 299.962,145.883 299.629,144.216 299.5,142.5C 300.338,142.158 300.672,141.492 300.5,140.5C 302.858,138.471 305.192,136.471 307.5,134.5C 316.692,131.062 323.026,133.728 326.5,142.5 Z"/></g>
<g><path style="opacity:1" fill="#b3b3b4" d="M 271.5,152.5 C 272.906,152.973 273.573,153.973 273.5,155.5C 272.094,155.027 271.427,154.027 271.5,152.5 Z"/></g>
<g><path style="opacity:1" fill="#bcbcbd" d="M 339.5,151.5 C 338.738,153.262 337.404,154.262 335.5,154.5C 336.262,152.738 337.596,151.738 339.5,151.5 Z"/></g>
<g><path style="opacity:1" fill="#bebebf" d="M 331.5,150.5 C 331.573,152.027 330.906,153.027 329.5,153.5C 329.427,151.973 330.094,150.973 331.5,150.5 Z"/></g>
<g><path style="opacity:1" fill="#797b7b" d="M 325.5,148.5 C 324.5,151.5 322.5,153.5 319.5,154.5C 321.167,152.167 323.167,150.167 325.5,148.5 Z"/></g>
<g><path style="opacity:1" fill="#8d8e90" d="M 395.5,144.5 C 396.124,144.917 396.457,145.584 396.5,146.5C 396,148.5 395.5,150.5 395,152.5C 394.8,154.32 393.966,155.653 392.5,156.5C 393.5,152.5 394.5,148.5 395.5,144.5 Z"/></g>
<g><path style="opacity:1" fill="#9ea0a0" d="M 344.5,146.5 C 343.833,149.167 342.167,150.833 339.5,151.5C 340.833,149.5 342.5,147.833 344.5,146.5 Z"/></g>
<g><path style="opacity:1" fill="#d3d4d5" d="M 268.5,149.5 C 270.5,149.5 271.5,150.5 271.5,152.5C 270.167,151.833 269.167,150.833 268.5,149.5 Z"/></g>
<g><path style="opacity:1" fill="#cbcbcf" d="M 334.5,144.5 C 334.539,147.089 333.539,149.089 331.5,150.5C 331.992,148.181 332.992,146.181 334.5,144.5 Z"/></g>
<g><path style="opacity:1" fill="#c0c1c0" d="M 264.5,147.5 C 266.38,147.229 267.713,147.896 268.5,149.5C 266.847,149.34 265.514,148.674 264.5,147.5 Z"/></g>
<g><path style="opacity:1" fill="#e0e0e1" d="M 346.5,143.5 C 346.573,145.027 345.906,146.027 344.5,146.5C 344.427,144.973 345.094,143.973 346.5,143.5 Z"/></g>
<g><path style="opacity:1" fill="#646869" d="M 356.5,144.5 C 355.54,149.086 353.54,153.086 350.5,156.5C 351.014,154.634 351.68,152.8 352.5,151C 352.241,149.739 351.574,148.739 350.5,148C 350.833,147.667 351.167,147.333 351.5,147C 349.314,146.396 349.148,145.23 351,143.5C 352.55,146.811 354.383,147.145 356.5,144.5 Z"/></g>
<g><path style="opacity:1" fill="#d0d1d7" d="M 299.5,142.5 C 299.629,144.216 299.962,145.883 300.5,147.5C 298.403,146.121 298.07,144.455 299.5,142.5 Z"/></g>
<g><path style="opacity:1" fill="#d7d7d8" d="M 393.5,141.5 C 394.906,141.973 395.573,142.973 395.5,144.5C 394.094,144.027 393.427,143.027 393.5,141.5 Z"/></g>
<g><path style="opacity:1" fill="#d6d6d6" d="M 389.5,136.5 C 390.906,136.973 391.573,137.973 391.5,139.5C 390.094,139.027 389.427,138.027 389.5,136.5 Z"/></g>
<g><path style="opacity:1" fill="#818282" d="M 307.5,134.5 C 305.192,136.471 302.858,138.471 300.5,140.5C 300.586,139.504 300.252,138.671 299.5,138C 301.935,136.285 304.602,135.118 307.5,134.5 Z"/></g>
<g><path style="opacity:1" fill="#bebfc0" d="M 336.5,117.5 C 338.039,120.865 338.706,124.531 338.5,128.5C 338.333,131.167 338.167,133.833 338,136.5C 337.76,138.852 336.927,140.852 335.5,142.5C 337.684,134.249 338.018,125.915 336.5,117.5 Z"/></g>
<g><path style="opacity:1" fill="#d8d9db" d="M 386.5,132.5 C 387.906,132.973 388.573,133.973 388.5,135.5C 387.094,135.027 386.427,134.027 386.5,132.5 Z"/></g>
<g><path style="opacity:1" fill="#b6b7b7" d="M 326.5,142.5 C 323.026,133.728 316.692,131.062 307.5,134.5C 307.918,133.778 308.584,133.278 309.5,133C 315.516,131.52 320.85,132.687 325.5,136.5C 326.466,138.396 326.799,140.396 326.5,142.5 Z"/></g>
<g><path style="opacity:1" fill="#c9c9cb" d="M 362.5,125.5 C 362.483,129.534 361.483,133.201 359.5,136.5C 359.926,132.573 360.926,128.907 362.5,125.5 Z"/></g>
<g><path style="opacity:1" fill="#838586" d="M 378.5,121.5 C 380.074,121.937 381.241,122.937 382,124.5C 382.333,124.167 382.667,123.833 383,123.5C 383.561,126.279 384.394,128.946 385.5,131.5C 382.687,128.554 380.354,125.221 378.5,121.5 Z"/></g>
<g><path style="opacity:1" fill="#d8d8d8" d="M 375.5,116.5 C 376.906,116.973 377.573,117.973 377.5,119.5C 376.094,119.027 375.427,118.027 375.5,116.5 Z"/></g>
<g><path style="opacity:1" fill="#9ea1a4" d="M 333.5,113.5 C 335.262,114.262 336.262,115.596 336.5,117.5C 334.738,116.738 333.738,115.404 333.5,113.5 Z"/></g>
<g><path style="opacity:1" fill="#ccced1" d="M 326.5,110.5 C 329.491,110.166 331.824,111.166 333.5,113.5C 330.982,112.736 328.649,111.736 326.5,110.5 Z"/></g>
<g><path style="opacity:1" fill="#cccdd1" d="M 369.5,105.5 C 367.946,104.086 366.612,102.419 365.5,100.5C 364.833,105.985 364.167,111.319 363.5,116.5C 363.169,109.137 363.503,101.803 364.5,94.5C 366.448,98.0606 368.114,101.727 369.5,105.5 Z"/></g>
<g><path style="opacity:1" fill="#24282a" d="M 153.5,140.5 C 153.5,143.167 153.5,145.833 153.5,148.5C 152.72,155.184 150.387,161.184 146.5,166.5C 142.398,167.609 140.731,170.275 141.5,174.5C 139.167,176.167 137.167,178.167 135.5,180.5C 135.5,181.167 135.167,181.5 134.5,181.5C 128.8,184.051 122.8,185.051 116.5,184.5C 108.267,183.914 100.267,184.914 92.5,187.5C 90.9731,187.427 89.9731,188.094 89.5,189.5C 89.1667,190.5 88.5,191.167 87.5,191.5C 84.1667,192.833 81.8333,195.167 80.5,198.5C 78.3971,201.72 76.0638,204.72 73.5,207.5C 71.7975,208.075 70.1309,208.908 68.5,210C 69.4132,211.414 69.4132,212.914 68.5,214.5C 67.3307,217.511 65.664,220.178 63.5,222.5C 61.7497,223.659 60.7497,225.326 60.5,227.5C 60.5,228.167 60.1667,228.5 59.5,228.5C 57.8615,229.914 56.5282,229.58 55.5,227.5C 55.1667,227.833 54.8333,228.167 54.5,228.5C 55.8334,229.62 56.3334,230.953 56,232.5C 55.6667,232.167 55.3333,231.833 55,231.5C 54.2904,232.973 53.1238,233.64 51.5,233.5C 51.6567,234.873 51.49,236.207 51,237.5C 49.4702,239.226 48.4702,241.226 48,243.5C 47.6667,242.833 47.3333,242.167 47,241.5C 46.1436,243.868 45.3103,246.202 44.5,248.5C 44.5,249.167 44.1667,249.5 43.5,249.5C 40.1667,252.167 37.1667,255.167 34.5,258.5C 33.8333,259.833 32.8333,260.833 31.5,261.5C 29.9731,261.427 28.9731,262.094 28.5,263.5C 26.9731,263.427 25.9731,264.094 25.5,265.5C 23.6644,267.588 21.3311,268.921 18.5,269.5C 13.2623,271.143 7.929,272.476 2.5,273.5C 2.5,272.167 2.5,270.833 2.5,269.5C 3.89928,268.11 5.56594,267.11 7.5,266.5C 9.02694,266.573 10.0269,265.906 10.5,264.5C 12.0269,264.573 13.0269,263.906 13.5,262.5C 15.0269,262.573 16.0269,261.906 16.5,260.5C 19.0892,259.581 21.0892,257.914 22.5,255.5C 27.5,252.5 31.5,248.5 34.5,243.5C 36.914,242.089 38.5806,240.089 39.5,237.5C 41.016,234.467 43.016,231.8 45.5,229.5C 46.9063,229.027 47.573,228.027 47.5,226.5C 49.2624,225.738 50.2624,224.404 50.5,222.5C 51.9063,222.027 52.573,221.027 52.5,219.5C 54.3264,217.853 55.6597,215.853 56.5,213.5C 58.4077,212.514 59.4077,210.848 59.5,208.5C 60.7738,205.24 62.4405,202.24 64.5,199.5C 65.9063,199.027 66.573,198.027 66.5,196.5C 66.9321,195.29 67.5987,194.29 68.5,193.5C 69.9063,193.027 70.573,192.027 70.5,190.5C 72.2624,189.738 73.2624,188.404 73.5,186.5C 74.9063,186.027 75.573,185.027 75.5,183.5C 76.9063,183.027 77.573,182.027 77.5,180.5C 79.2624,179.738 80.2624,178.404 80.5,176.5C 83.6192,174.39 85.9525,171.723 87.5,168.5C 88.8333,168.5 90.1667,168.5 91.5,168.5C 91.3505,167.448 91.5172,166.448 92,165.5C 93.7073,163.963 95.2073,162.296 96.5,160.5C 98.0269,160.573 99.0269,159.906 99.5,158.5C 106.896,156.129 114.563,155.129 122.5,155.5C 126.824,157.54 131.157,157.873 135.5,156.5C 138.089,156.539 140.089,155.539 141.5,153.5C 142.5,151.833 143.833,150.5 145.5,149.5C 146.906,149.027 147.573,148.027 147.5,146.5C 148.045,144.407 148.878,142.407 150,140.5C 151.292,139.209 152.458,139.209 153.5,140.5 Z"/></g>
<g><path style="opacity:1" fill="#c3c5c6" d="M 122.5,155.5 C 122.5,155.167 122.5,154.833 122.5,154.5C 126.661,156.063 130.995,156.729 135.5,156.5C 131.157,157.873 126.824,157.54 122.5,155.5 Z"/></g>
<g><path style="opacity:1" fill="#ccced1" d="M 307.5,154.5 C 309.865,155.008 312.199,155.675 314.5,156.5C 316.075,155.544 317.742,154.877 319.5,154.5C 318.232,156.387 316.399,157.387 314,157.5C 311.325,157.343 309.159,156.343 307.5,154.5 Z"/></g>
<g><path style="opacity:1" fill="#d7d8d9" d="M 329.5,153.5 C 328.913,154.767 328.913,155.767 329.5,156.5C 331.323,155.253 333.323,154.586 335.5,154.5C 332.633,156.956 329.299,158.123 325.5,158C 326.733,156.333 328.067,154.833 329.5,153.5 Z"/></g>
<g><path style="opacity:1" fill="#84888c" d="M 249.5,151.5 C 249.323,155.708 247.99,159.374 245.5,162.5C 246.065,158.463 247.399,154.797 249.5,151.5 Z"/></g>
<g><path style="opacity:1" fill="#bebebe" d="M 809.5,148.5 C 809.665,152.182 809.499,155.848 809,159.5C 808.768,160.737 808.268,161.737 807.5,162.5C 807.911,157.662 808.578,152.995 809.5,148.5 Z"/></g>
<g><path style="opacity:1" fill="#b3b4b8" d="M 99.5,158.5 C 99.0269,159.906 98.0269,160.573 96.5,160.5C 96.9731,159.094 97.9731,158.427 99.5,158.5 Z"/></g>
<g><path style="opacity:1" fill="#d2d3d7" d="M 290.5,162.5 C 292.213,163.635 292.88,165.302 292.5,167.5C 291.5,167.5 290.5,167.5 289.5,167.5C 290.091,166.849 290.757,166.182 291.5,165.5C 290.873,164.583 290.539,163.583 290.5,162.5 Z"/></g>
<g><path style="opacity:1" fill="#888c8d" d="M 345.5,162.5 C 344.221,165.652 341.888,167.652 338.5,168.5C 339.598,167.603 339.598,166.77 338.5,166C 341.404,165.867 343.738,164.7 345.5,162.5 Z"/></g>
<g><path style="opacity:1" fill="#67686b" d="M 96.5,160.5 C 95.2073,162.296 93.7073,163.963 92,165.5C 91.5172,166.448 91.3505,167.448 91.5,168.5C 90.1667,168.5 88.8333,168.5 87.5,168.5C 89.8537,165.149 92.8537,162.482 96.5,160.5 Z"/></g>
<g><path style="opacity:1" fill="#929397" d="M 245.5,163.5 C 245.585,166.649 244.585,169.316 242.5,171.5C 242.733,168.458 243.733,165.792 245.5,163.5 Z"/></g>
<g><path style="opacity:1" fill="#606465" d="M 146.5,166.5 C 145.617,169.704 143.95,172.371 141.5,174.5C 140.731,170.275 142.398,167.609 146.5,166.5 Z"/></g>
<g><path style="opacity:1" fill="#b7b7b9" d="M 275.5,159.5 C 277.41,162.452 278.41,165.786 278.5,169.5C 282.085,168.417 285.751,167.751 289.5,167.5C 285.902,169.692 281.902,170.692 277.5,170.5C 276.833,166.833 276.167,163.167 275.5,159.5 Z"/></g>
<g><path style="opacity:1" fill="#bfbfbf" d="M 387.5,167.5 C 387.573,169.027 386.906,170.027 385.5,170.5C 385.427,168.973 386.094,167.973 387.5,167.5 Z"/></g>
<g><path style="opacity:1" fill="#7d7e7f" d="M 87.5,168.5 C 85.9525,171.723 83.6192,174.39 80.5,176.5C 82.1464,173.19 84.4797,170.523 87.5,168.5 Z"/></g>
<g><path style="opacity:1" fill="#d9d9d9" d="M 335.5,170.5 C 334.713,172.104 333.38,172.771 331.5,172.5C 332.514,171.326 333.847,170.66 335.5,170.5 Z"/></g>
<g><path style="opacity:1" fill="#c7c8c8" d="M 385.5,170.5 C 385.573,172.027 384.906,173.027 383.5,173.5C 383.427,171.973 384.094,170.973 385.5,170.5 Z"/></g>
<g><path style="opacity:1" fill="#bbbebe" d="M 328.5,173.5 C 324.946,174.984 321.112,175.651 317,175.5C 312.525,174.561 308.359,174.895 304.5,176.5C 305.641,174.757 307.308,173.757 309.5,173.5C 315.826,174.668 322.159,174.668 328.5,173.5 Z"/></g>
<g><path style="opacity:1" fill="#b2b2b6" d="M 383.5,173.5 C 383.573,175.027 382.906,176.027 381.5,176.5C 381.427,174.973 382.094,173.973 383.5,173.5 Z"/></g>
<g><path style="opacity:1" fill="#a1a1a3" d="M 80.5,176.5 C 80.2624,178.404 79.2624,179.738 77.5,180.5C 77.7376,178.596 78.7376,177.262 80.5,176.5 Z"/></g>
<g><path style="opacity:1" fill="#d9d9d9" d="M 141.5,174.5 C 140.5,177.5 138.5,179.5 135.5,180.5C 137.167,178.167 139.167,176.167 141.5,174.5 Z"/></g>
<g><path style="opacity:1" fill="#cccccc" d="M 299.5,179.5 C 297.421,181.873 294.754,183.206 291.5,183.5C 293.849,181.659 296.515,180.326 299.5,179.5 Z"/></g>
<g><path style="opacity:1" fill="#5c5f63" d="M 400.5,180.5 C 400.267,183.542 399.267,186.208 397.5,188.5C 397.421,187.07 397.754,185.736 398.5,184.5C 396.838,182.689 396.672,181.022 398,179.5C 398.342,181.619 399.175,181.953 400.5,180.5 Z"/></g>
<g><path style="opacity:1" fill="#b7b7ba" d="M 907.5,179.5 C 909.262,180.262 910.262,181.596 910.5,183.5C 908.738,182.738 907.738,181.404 907.5,179.5 Z"/></g>
<g><path style="opacity:1" fill="#acacae" d="M 77.5,180.5 C 77.573,182.027 76.9063,183.027 75.5,183.5C 75.427,181.973 76.0937,180.973 77.5,180.5 Z"/></g>
<g><path style="opacity:1" fill="#84878a" d="M 240.5,176.5 C 241.113,180.979 241.113,185.312 240.5,189.5C 237.939,185.148 237.939,180.815 240.5,176.5 Z"/></g>
<g><path style="opacity:1" fill="#b5b8b8" d="M 797.5,181.5 C 796.415,183.587 794.749,184.92 792.5,185.5C 793.585,183.413 795.251,182.08 797.5,181.5 Z"/></g>
<g><path style="opacity:1" fill="#24282a" d="M 933.5,-0.5 C 936.5,-0.5 939.5,-0.5 942.5,-0.5C 942.5,-0.166667 942.5,0.166667 942.5,0.5C 940.929,2.63509 939.596,4.96842 938.5,7.5C 937.883,7.38929 937.383,7.05596 937,6.5C 936.667,7.83333 936.333,9.16667 936,10.5C 934.869,9.39612 934.035,9.72945 933.5,11.5C 934.246,12.7362 934.579,14.0695 934.5,15.5C 932.738,16.2623 931.738,17.5956 931.5,19.5C 931.167,20.5 930.5,21.1667 929.5,21.5C 927.504,19.0831 926.504,19.7498 926.5,23.5C 925.448,23.3505 924.448,23.5172 923.5,24C 924.598,24.7697 924.598,25.603 923.5,26.5C 923.167,27.5 922.5,28.1667 921.5,28.5C 919.973,28.427 918.973,29.0937 918.5,30.5C 916.973,30.427 915.973,31.0937 915.5,32.5C 913.469,34.5224 911.135,36.1891 908.5,37.5C 906.973,37.427 905.973,38.0937 905.5,39.5C 902.048,42.3993 898.382,45.0659 894.5,47.5C 892.801,47.3398 891.134,47.5065 889.5,48C 890.598,48.7697 890.598,49.603 889.5,50.5C 888.564,51.9744 887.23,52.9744 885.5,53.5C 883.973,53.427 882.973,54.0937 882.5,55.5C 880.973,55.427 879.973,56.0937 879.5,57.5C 879.5,58.1667 879.167,58.5 878.5,58.5C 876.973,58.427 875.973,59.0937 875.5,60.5C 873.973,60.427 872.973,61.0937 872.5,62.5C 870.469,64.5224 868.135,66.1891 865.5,67.5C 863.973,67.427 862.973,68.0937 862.5,69.5C 857.046,73.7335 851.38,77.7335 845.5,81.5C 842.753,80.194 841.087,81.194 840.5,84.5C 840.5,85.1667 840.167,85.5 839.5,85.5C 837.973,85.427 836.973,86.0937 836.5,87.5C 833.048,90.3993 829.382,93.0659 825.5,95.5C 823.598,98.3373 822.931,101.671 823.5,105.5C 820.544,131.781 819.544,158.115 820.5,184.5C 820.068,187.877 820.735,190.877 822.5,193.5C 822.229,195.38 822.896,196.713 824.5,197.5C 829.272,203.541 835.605,205.874 843.5,204.5C 844.496,204.414 845.329,204.748 846,205.5C 847.75,203.266 849.25,200.932 850.5,198.5C 852.975,197.313 853.975,195.313 853.5,192.5C 855.018,172.056 856.018,151.723 856.5,131.5C 857.768,129.095 858.435,126.428 858.5,123.5C 858.5,123.167 858.5,122.833 858.5,122.5C 860.163,120.562 860.829,118.228 860.5,115.5C 860.232,113.901 860.566,112.568 861.5,111.5C 863.812,107.217 865.145,102.55 865.5,97.5C 867.223,96.193 869.057,96.193 871,97.5C 871.801,100.367 871.634,103.034 870.5,105.5C 868.753,126.154 868.419,146.821 869.5,167.5C 868.944,175.401 869.944,183.068 872.5,190.5C 872.427,192.027 873.094,193.027 874.5,193.5C 875.167,193.5 875.5,193.833 875.5,194.5C 879.084,199.047 883.75,200.547 889.5,199C 890.38,197.644 890.714,196.144 890.5,194.5C 890.216,192.585 890.549,190.919 891.5,189.5C 893.258,186.146 894.258,182.479 894.5,178.5C 894.611,177.883 894.944,177.383 895.5,177C 900.022,175.89 904.022,176.723 907.5,179.5C 907.738,181.404 908.738,182.738 910.5,183.5C 910.5,183.833 910.5,184.167 910.5,184.5C 910.653,190.869 910.32,197.203 909.5,203.5C 908.502,207.505 906.502,210.839 903.5,213.5C 902.292,214.234 900.959,214.567 899.5,214.5C 899.5,215.5 899.5,216.5 899.5,217.5C 898.5,217.5 897.5,217.5 896.5,217.5C 896.5,218.833 896.5,220.167 896.5,221.5C 894.973,221.427 893.973,222.094 893.5,223.5C 893.158,224.338 892.492,224.672 891.5,224.5C 885.654,226.233 879.654,226.9 873.5,226.5C 872.101,225.11 870.434,224.11 868.5,223.5C 867.833,222.167 866.833,221.167 865.5,220.5C 863.178,219.198 861.845,217.198 861.5,214.5C 861.34,212.847 860.674,211.514 859.5,210.5C 859.649,209.448 859.483,208.448 859,207.5C 858.209,208.745 857.709,210.078 857.5,211.5C 857.672,212.492 857.338,213.158 856.5,213.5C 854.914,214.148 853.247,214.648 851.5,215C 852.308,215.308 852.975,215.808 853.5,216.5C 852.873,217.417 852.539,218.417 852.5,219.5C 851.094,219.973 850.427,220.973 850.5,222.5C 849.833,223.833 848.833,224.833 847.5,225.5C 846.127,225.343 844.793,225.51 843.5,226C 843.833,226.333 844.167,226.667 844.5,227C 841.182,226.825 839.182,228.325 838.5,231.5C 834.202,232.2 829.869,232.533 825.5,232.5C 825.167,232.5 824.833,232.5 824.5,232.5C 823.486,231.326 822.153,230.66 820.5,230.5C 820.027,229.094 819.027,228.427 817.5,228.5C 817.573,226.973 816.906,225.973 815.5,225.5C 813.412,223.664 812.079,221.331 811.5,218.5C 811.59,215.848 810.924,213.515 809.5,211.5C 808.923,204.144 808.09,196.811 807,189.5C 805.558,191.391 804.391,193.391 803.5,195.5C 802.833,195.833 802.167,196.167 801.5,196.5C 801.565,196.062 801.399,195.728 801,195.5C 799.255,197.749 797.088,199.416 794.5,200.5C 795.55,202.102 794.883,202.935 792.5,203C 793.252,203.671 793.586,204.504 793.5,205.5C 792.5,205.833 791.833,206.5 791.5,207.5C 791.5,208.167 791.167,208.5 790.5,208.5C 788.901,208.768 787.568,208.434 786.5,207.5C 786.351,206.448 786.517,205.448 787,204.5C 788.676,204.041 790.176,203.374 791.5,202.5C 789.389,201.152 787.555,201.485 786,203.5C 785.727,201.671 784.893,200.171 783.5,199C 784.357,198.311 785.023,197.478 785.5,196.5C 784.007,195.859 783.007,194.859 782.5,193.5C 783.401,192.71 784.068,191.71 784.5,190.5C 785.899,189.11 787.566,188.11 789.5,187.5C 791.027,187.573 792.027,186.906 792.5,185.5C 794.749,184.92 796.415,183.587 797.5,181.5C 803.196,176.442 806.529,170.109 807.5,162.5C 808.268,161.737 808.768,160.737 809,159.5C 809.499,155.848 809.665,152.182 809.5,148.5C 809.785,138.159 810.285,127.826 811,117.5C 811.189,113.233 812.023,109.233 813.5,105.5C 814.768,103.095 815.435,100.428 815.5,97.5C 817.178,96.2529 818.511,94.5862 819.5,92.5C 820.466,90.604 820.799,88.604 820.5,86.5C 821.906,86.0269 822.573,85.0269 822.5,83.5C 824.587,82.4154 825.92,80.7488 826.5,78.5C 830.771,75.8991 834.437,72.5658 837.5,68.5C 839.749,67.9202 841.415,66.5869 842.5,64.5C 844.404,64.2624 845.738,63.2624 846.5,61.5C 848.404,61.2624 849.738,60.2624 850.5,58.5C 854.392,56.9379 857.725,54.6046 860.5,51.5C 862.027,51.573 863.027,50.9063 863.5,49.5C 865.027,49.573 866.027,48.9063 866.5,47.5C 868.404,47.2624 869.738,46.2624 870.5,44.5C 873.37,43.5667 875.704,41.9 877.5,39.5C 879.027,39.573 880.027,38.9063 880.5,37.5C 882.027,37.573 883.027,36.9063 883.5,35.5C 885.404,35.2624 886.738,34.2624 887.5,32.5C 889.027,32.573 890.027,31.9063 890.5,30.5C 892.027,30.573 893.027,29.9063 893.5,28.5C 895.027,28.573 896.027,27.9063 896.5,26.5C 898.404,26.2624 899.738,25.2624 900.5,23.5C 902.027,23.573 903.027,22.9063 903.5,21.5C 905.404,21.2624 906.738,20.2624 907.5,18.5C 909.027,18.573 910.027,17.9063 910.5,16.5C 913.37,15.5667 915.704,13.9 917.5,11.5C 919.027,11.573 920.027,10.9063 920.5,9.5C 924.392,7.93791 927.725,5.60458 930.5,2.5C 932.027,2.57298 933.027,1.90632 933.5,0.5C 933.5,0.166667 933.5,-0.166667 933.5,-0.5 Z"/></g>
<g><path style="opacity:1" fill="#b1b2b3" d="M 894.5,178.5 C 894.258,182.479 893.258,186.146 891.5,189.5C 891.742,185.521 892.742,181.854 894.5,178.5 Z"/></g>
<g><path style="opacity:1" fill="#b8b9ba" d="M 823.5,105.5 C 823.5,107.5 823.5,109.5 823.5,111.5C 822.013,135.535 821.013,159.868 820.5,184.5C 819.544,158.115 820.544,131.781 823.5,105.5 Z"/></g>
<g><path style="opacity:1" fill="#9d9d9e" d="M 858.5,123.5 C 858.435,126.428 857.768,129.095 856.5,131.5C 856.294,128.505 856.96,125.838 858.5,123.5 Z"/></g>
<g><path style="opacity:1" fill="#919191" d="M 860.5,115.5 C 860.829,118.228 860.163,120.562 858.5,122.5C 858.721,119.933 859.388,117.599 860.5,115.5 Z"/></g>
<g><path style="opacity:1" fill="#9f9fa0" d="M 865.5,97.5 C 865.145,102.55 863.812,107.217 861.5,111.5C 862.233,106.555 863.566,101.888 865.5,97.5 Z"/></g>
<g><path style="opacity:1" fill="#c2c3c4" d="M 134.5,181.5 C 133.025,183.41 131.025,184.576 128.5,185C 124.311,185.812 120.311,185.645 116.5,184.5C 122.8,185.051 128.8,184.051 134.5,181.5 Z"/></g>
<g><path style="opacity:1" fill="#8c8e90" d="M 379.5,178.5 C 377.5,182.5 374.5,185.5 370.5,187.5C 373.167,184.167 376.167,181.167 379.5,178.5 Z"/></g>
<g><path style="opacity:1" fill="#999b9c" d="M 75.5,183.5 C 75.573,185.027 74.9063,186.027 73.5,186.5C 73.427,184.973 74.0937,183.973 75.5,183.5 Z"/></g>
<g><path style="opacity:1" fill="#bbbbbe" d="M 792.5,185.5 C 792.027,186.906 791.027,187.573 789.5,187.5C 789.973,186.094 790.973,185.427 792.5,185.5 Z"/></g>
<g><path style="opacity:1" fill="#d9d9da" d="M 291.5,183.5 C 287.763,185.531 283.763,187.198 279.5,188.5C 278.34,190.875 277.34,193.208 276.5,195.5C 276.104,192.518 276.771,189.851 278.5,187.5C 282.725,185.758 287.059,184.424 291.5,183.5 Z"/></g>
<g><path style="opacity:1" fill="#a8a8aa" d="M 73.5,186.5 C 73.2624,188.404 72.2624,189.738 70.5,190.5C 70.7376,188.596 71.7376,187.262 73.5,186.5 Z"/></g>
<g><path style="opacity:1" fill="#d5d6d5" d="M 92.5,187.5 C 92.0269,188.906 91.0269,189.573 89.5,189.5C 89.9731,188.094 90.9731,187.427 92.5,187.5 Z"/></g>
<g><path style="opacity:1" fill="#a7a8a8" d="M 370.5,187.5 C 369.738,189.262 368.404,190.262 366.5,190.5C 367.262,188.738 368.596,187.738 370.5,187.5 Z"/></g>
<g><path style="opacity:1" fill="#d7d8d8" d="M 809.5,211.5 C 808.016,205.699 806.849,199.699 806,193.5C 805.292,194.381 804.458,195.047 803.5,195.5C 804.391,193.391 805.558,191.391 807,189.5C 808.09,196.811 808.923,204.144 809.5,211.5 Z"/></g>
<g><path style="opacity:1" fill="#b4b4b4" d="M 366.5,190.5 C 366.027,191.906 365.027,192.573 363.5,192.5C 363.973,191.094 364.973,190.427 366.5,190.5 Z"/></g>
<g><path style="opacity:1" fill="#c8caca" d="M 820.5,184.5 C 821.475,187.311 822.142,190.311 822.5,193.5C 820.735,190.877 820.068,187.877 820.5,184.5 Z"/></g>
<g><path style="opacity:1" fill="#9a9a9c" d="M 910.5,184.5 C 913.237,190.958 912.903,197.291 909.5,203.5C 910.32,197.203 910.653,190.869 910.5,184.5 Z"/></g>
<g><path style="opacity:1" fill="#cccccd" d="M 70.5,190.5 C 70.573,192.027 69.9063,193.027 68.5,193.5C 68.427,191.973 69.0937,190.973 70.5,190.5 Z"/></g>
<g><path style="opacity:1" fill="#c1c5c5" d="M 397.5,188.5 C 397.155,191.198 395.822,193.198 393.5,194.5C 394.34,192.147 395.674,190.147 397.5,188.5 Z"/></g>
<g><path style="opacity:1" fill="#848585" d="M 784.5,190.5 C 784.068,191.71 783.401,192.71 782.5,193.5C 782.565,193.062 782.399,192.728 782,192.5C 780.103,194.016 777.936,194.683 775.5,194.5C 778.088,192.408 781.088,191.075 784.5,190.5 Z"/></g>
<g><path style="opacity:1" fill="#afafaf" d="M 872.5,190.5 C 873.906,190.973 874.573,191.973 874.5,193.5C 873.094,193.027 872.427,192.027 872.5,190.5 Z"/></g>
<g><path style="opacity:1" fill="#b5b5b8" d="M 363.5,192.5 C 363.027,193.906 362.027,194.573 360.5,194.5C 360.973,193.094 361.973,192.427 363.5,192.5 Z"/></g>
<g><path style="opacity:1" fill="#d8d9da" d="M 87.5,191.5 C 85.5,194.167 83.1667,196.5 80.5,198.5C 81.8333,195.167 84.1667,192.833 87.5,191.5 Z"/></g>
<g><path style="opacity:1" fill="#b7b7ba" d="M 243.5,193.5 C 245.027,193.427 246.027,194.094 246.5,195.5C 244.973,195.573 243.973,194.906 243.5,193.5 Z"/></g>
<g><path style="opacity:1" fill="#a3a4a4" d="M 268.5,193.5 C 270.519,194.538 270.853,195.872 269.5,197.5C 268.766,196.292 268.433,194.959 268.5,193.5 Z"/></g>
<g><path style="opacity:1" fill="#868a89" d="M 775.5,194.5 C 773.081,196.862 770.081,197.862 766.5,197.5C 769.215,195.928 772.215,194.928 775.5,194.5 Z"/></g>
<g><path style="opacity:1" fill="#c9c9c9" d="M 246.5,195.5 C 250.798,196.2 255.131,196.533 259.5,196.5C 258.036,197.16 256.369,197.493 254.5,197.5C 251.514,197.618 248.848,196.952 246.5,195.5 Z"/></g>
<g><path style="opacity:1" fill="#212527" d="M 782.5,193.5 C 783.007,194.859 784.007,195.859 785.5,196.5C 785.023,197.478 784.357,198.311 783.5,199C 784.893,200.171 785.727,201.671 786,203.5C 787.555,201.485 789.389,201.152 791.5,202.5C 790.176,203.374 788.676,204.041 787,204.5C 786.517,205.448 786.351,206.448 786.5,207.5C 785.226,208.189 785.226,209.023 786.5,210C 785.167,210.333 783.833,210.667 782.5,211C 783.598,211.77 783.598,212.603 782.5,213.5C 780.609,214.536 778.776,214.536 777,213.5C 776.59,214.901 776.09,216.234 775.5,217.5C 773.819,219.008 771.819,220.008 769.5,220.5C 751.191,227.408 732.524,232.741 713.5,236.5C 690.45,239.924 667.45,242.591 644.5,244.5C 607.858,246.214 571.191,246.881 534.5,246.5C 525.39,246.626 516.39,245.96 507.5,244.5C 502.897,242.672 498.231,242.339 493.5,243.5C 489.712,242.615 486.046,241.615 482.5,240.5C 479.495,238.723 476.162,237.723 472.5,237.5C 471.22,236.069 469.553,235.402 467.5,235.5C 466.508,235.672 465.842,235.338 465.5,234.5C 464.738,232.738 463.404,231.738 461.5,231.5C 459.833,230.5 458.5,229.167 457.5,227.5C 457.573,225.973 456.906,224.973 455.5,224.5C 455.34,222.847 454.674,221.514 453.5,220.5C 450.787,214.886 449.954,208.886 451,202.5C 451.383,201.944 451.883,201.611 452.5,201.5C 455.205,201.653 457.872,201.653 460.5,201.5C 462.099,201.232 463.432,201.566 464.5,202.5C 465.842,203.793 467.509,204.626 469.5,205C 523.194,215.427 577.194,218.927 631.5,215.5C 646.072,215.768 660.406,214.768 674.5,212.5C 679.453,211.671 684.453,211.337 689.5,211.5C 701.14,211.627 712.473,210.294 723.5,207.5C 725.265,206.539 727.265,206.205 729.5,206.5C 738.489,205.418 747.155,203.418 755.5,200.5C 756.568,199.566 757.901,199.232 759.5,199.5C 762.228,199.829 764.562,199.163 766.5,197.5C 770.081,197.862 773.081,196.862 775.5,194.5C 777.936,194.683 780.103,194.016 782,192.5C 782.399,192.728 782.565,193.062 782.5,193.5 Z"/></g>
<g><path style="opacity:1" fill="#dfdfe1" d="M 803.5,195.5 C 803.573,197.027 802.906,198.027 801.5,198.5C 801.5,197.833 801.5,197.167 801.5,196.5C 802.167,196.167 802.833,195.833 803.5,195.5 Z"/></g>
<g><path style="opacity:1" fill="#c5c5c5" d="M 822.5,193.5 C 823.674,194.514 824.34,195.847 824.5,197.5C 822.896,196.713 822.229,195.38 822.5,193.5 Z"/></g>
<g><path style="opacity:1" fill="#cbcbcb" d="M 356.5,196.5 C 356.027,197.906 355.027,198.573 353.5,198.5C 353.973,197.094 354.973,196.427 356.5,196.5 Z"/></g>
<g><path style="opacity:1" fill="#a3a3a3" d="M 853.5,192.5 C 853.975,195.313 852.975,197.313 850.5,198.5C 850.992,196.181 851.992,194.181 853.5,192.5 Z"/></g>
<g><path style="opacity:1" fill="#d4d4d6" d="M 66.5,196.5 C 66.573,198.027 65.9063,199.027 64.5,199.5C 64.427,197.973 65.0937,196.973 66.5,196.5 Z"/></g>
<g><path style="opacity:1" fill="#a7a7a7" d="M 766.5,197.5 C 764.562,199.163 762.228,199.829 759.5,199.5C 761.599,198.388 763.933,197.721 766.5,197.5 Z"/></g>
<g><path style="opacity:1" fill="#d1d3d4" d="M 875.5,194.5 C 878.577,196.368 881.91,197.701 885.5,198.5C 888.41,198.58 890.077,197.247 890.5,194.5C 890.714,196.144 890.38,197.644 889.5,199C 883.75,200.547 879.084,199.047 875.5,194.5 Z"/></g>
<g><path style="opacity:1" fill="#979798" d="M 276.5,195.5 C 276.585,198.649 275.585,201.316 273.5,203.5C 273.018,200.169 274.018,197.503 276.5,195.5 Z"/></g>
<g><path style="opacity:1" fill="#4d4d4f" d="M 801.5,196.5 C 801.5,197.167 801.5,197.833 801.5,198.5C 799.5,201.167 797.167,203.5 794.5,205.5C 794.167,205.5 793.833,205.5 793.5,205.5C 793.586,204.504 793.252,203.671 792.5,203C 794.883,202.935 795.55,202.102 794.5,200.5C 797.088,199.416 799.255,197.749 801,195.5C 801.399,195.728 801.565,196.062 801.5,196.5 Z"/></g>
<g><path style="opacity:1" fill="#99999a" d="M 211.5,192.5 C 211.083,198.17 209.749,203.503 207.5,208.5C 208.489,203.54 209.322,198.54 210,193.5C 210.383,192.944 210.883,192.611 211.5,192.5 Z"/></g>
<g><path style="opacity:1" fill="#b9b9bd" d="M 269.5,197.5 C 269.771,199.38 269.104,200.713 267.5,201.5C 267.66,199.847 268.326,198.514 269.5,197.5 Z"/></g>
<g><path style="opacity:1" fill="#d8dadb" d="M 388.5,199.5 C 388.027,200.906 387.027,201.573 385.5,201.5C 385.973,200.094 386.973,199.427 388.5,199.5 Z"/></g>
<g><path style="opacity:1" fill="#828386" d="M 460.5,201.5 C 457.872,201.653 455.205,201.653 452.5,201.5C 452.962,200.12 453.962,199.453 455.5,199.5C 457.422,199.801 459.088,200.467 460.5,201.5 Z"/></g>
<g><path style="opacity:1" fill="#c3c4c4" d="M 755.5,200.5 C 747.155,203.418 738.489,205.418 729.5,206.5C 737.913,203.899 746.579,201.899 755.5,200.5 Z"/></g>
<g><path style="opacity:1" fill="#9a9b9b" d="M 850.5,198.5 C 849.25,200.932 847.75,203.266 846,205.5C 845.329,204.748 844.496,204.414 843.5,204.5C 845.808,202.529 848.142,200.529 850.5,198.5 Z"/></g>
<g><path style="opacity:1" fill="#b5b6b9" d="M 264.5,204.5 C 263.415,206.587 261.749,207.92 259.5,208.5C 260.585,206.413 262.251,205.08 264.5,204.5 Z"/></g>
<g><path style="opacity:1" fill="#babbbd" d="M 385.5,201.5 C 383.524,203.011 381.191,203.844 378.5,204C 365.553,206.437 352.553,208.104 339.5,209C 338.034,205.942 339.034,204.109 342.5,203.5C 341.058,204.82 340.392,206.486 340.5,208.5C 355.538,206.412 370.538,204.079 385.5,201.5 Z"/></g>
<g><path style="opacity:1" fill="#c3c4c6" d="M 464.5,202.5 C 517.594,213.397 571.261,217.73 625.5,215.5C 627.5,215.5 629.5,215.5 631.5,215.5C 577.194,218.927 523.194,215.427 469.5,205C 467.509,204.626 465.842,203.793 464.5,202.5 Z"/></g>
<g><path style="opacity:1" fill="#dbdbdc" d="M 793.5,205.5 C 793.833,205.5 794.167,205.5 794.5,205.5C 794.027,206.906 793.027,207.573 791.5,207.5C 791.833,206.5 792.5,205.833 793.5,205.5 Z"/></g>
<g><path style="opacity:1" fill="#747474" d="M 786.5,207.5 C 787.568,208.434 788.901,208.768 790.5,208.5C 788.178,210.664 785.511,212.331 782.5,213.5C 783.598,212.603 783.598,211.77 782.5,211C 783.833,210.667 785.167,210.333 786.5,210C 785.226,209.023 785.226,208.189 786.5,207.5 Z"/></g>
<g><path style="opacity:1" fill="#707073" d="M 73.5,207.5 C 72.1891,210.135 70.5224,212.469 68.5,214.5C 69.4132,212.914 69.4132,211.414 68.5,210C 70.1309,208.908 71.7975,208.075 73.5,207.5 Z"/></g>
<g><path style="opacity:1" fill="#a8a8aa" d="M 259.5,208.5 C 259.027,209.906 258.027,210.573 256.5,210.5C 256.973,209.094 257.973,208.427 259.5,208.5 Z"/></g>
<g><path style="opacity:1" fill="#dedfe0" d="M 859.5,210.5 C 858.833,210.833 858.167,211.167 857.5,211.5C 857.709,210.078 858.209,208.745 859,207.5C 859.483,208.448 859.649,209.448 859.5,210.5 Z"/></g>
<g><path style="opacity:1" fill="#c1c1c3" d="M 723.5,207.5 C 712.473,210.294 701.14,211.627 689.5,211.5C 700.656,209.857 711.989,208.523 723.5,207.5 Z"/></g>
<g><path style="opacity:1" fill="#9ea1a1" d="M 256.5,210.5 C 256.027,211.906 255.027,212.573 253.5,212.5C 253.973,211.094 254.973,210.427 256.5,210.5 Z"/></g>
<g><path style="opacity:1" fill="#717172" d="M 59.5,208.5 C 59.4077,210.848 58.4077,212.514 56.5,213.5C 56.7497,211.326 57.7497,209.659 59.5,208.5 Z"/></g>
<g><path style="opacity:1" fill="#d7d8d8" d="M 674.5,212.5 C 660.406,214.768 646.072,215.768 631.5,215.5C 629.5,215.5 627.5,215.5 625.5,215.5C 641.681,214.529 658.015,213.529 674.5,212.5 Z"/></g>
<g><path style="opacity:1" fill="#d5d5d5" d="M 859.5,210.5 C 860.674,211.514 861.34,212.847 861.5,214.5C 859.896,213.713 859.229,212.38 859.5,210.5 Z"/></g>
<g><path style="opacity:1" fill="#838385" d="M 782.5,213.5 C 780.664,215.588 778.331,216.921 775.5,217.5C 776.09,216.234 776.59,214.901 777,213.5C 778.776,214.536 780.609,214.536 782.5,213.5 Z"/></g>
<g><path style="opacity:1" fill="#c5c5c5" d="M 809.5,211.5 C 810.924,213.515 811.59,215.848 811.5,218.5C 810.076,216.485 809.41,214.152 809.5,211.5 Z"/></g>
<g><path style="opacity:1" fill="#737477" d="M 856.5,213.5 C 855.66,215.853 854.326,217.853 852.5,219.5C 852.539,218.417 852.873,217.417 853.5,216.5C 852.975,215.808 852.308,215.308 851.5,215C 853.247,214.648 854.914,214.148 856.5,213.5 Z"/></g>
<g><path style="opacity:1" fill="#848484" d="M 903.5,213.5 C 901.906,216.764 899.573,219.431 896.5,221.5C 896.5,220.167 896.5,218.833 896.5,217.5C 897.5,217.5 898.5,217.5 899.5,217.5C 899.5,216.5 899.5,215.5 899.5,214.5C 900.959,214.567 902.292,214.234 903.5,213.5 Z"/></g>
<g><path style="opacity:1" fill="#a5a5a6" d="M 56.5,213.5 C 55.6597,215.853 54.3264,217.853 52.5,219.5C 52.8449,216.802 54.1782,214.802 56.5,213.5 Z"/></g>
<g><path style="opacity:1" fill="#d0d0d0" d="M 268.5,215.5 C 268.34,217.153 267.674,218.486 266.5,219.5C 266.229,217.62 266.896,216.287 268.5,215.5 Z"/></g>
<g><path style="opacity:1" fill="#c9d2d4" d="M 852.5,219.5 C 852.573,221.027 851.906,222.027 850.5,222.5C 850.427,220.973 851.094,219.973 852.5,219.5 Z"/></g>
<g><path style="opacity:1" fill="#9a9a9b" d="M 52.5,219.5 C 52.573,221.027 51.9063,222.027 50.5,222.5C 50.427,220.973 51.0937,219.973 52.5,219.5 Z"/></g>
<g><path style="opacity:1" fill="#d6d8d8" d="M 453.5,220.5 C 454.674,221.514 455.34,222.847 455.5,224.5C 453.896,223.713 453.229,222.38 453.5,220.5 Z"/></g>
<g><path style="opacity:1" fill="#dadbdd" d="M 865.5,220.5 C 866.833,221.167 867.833,222.167 868.5,223.5C 866.5,223.5 865.5,222.5 865.5,220.5 Z"/></g>
<g><path style="opacity:1" fill="#bbbbbb" d="M 126.5,220.5 C 126.573,222.027 125.906,223.027 124.5,223.5C 124.427,221.973 125.094,220.973 126.5,220.5 Z"/></g>
<g><path style="opacity:1" fill="#c2c2c2" d="M 129.5,220.5 C 130.906,220.973 131.573,221.973 131.5,223.5C 130.094,223.027 129.427,222.027 129.5,220.5 Z"/></g>
<g><path style="opacity:1" fill="#e6e8ea" d="M 896.5,221.5 C 896.027,222.906 895.027,223.573 893.5,223.5C 893.973,222.094 894.973,221.427 896.5,221.5 Z"/></g>
<g><path style="opacity:1" fill="#575b5b" d="M 265.5,220.5 C 263.396,226.272 259.396,229.939 253.5,231.5C 253.423,230.25 252.756,229.417 251.5,229C 253.235,228.349 254.902,228.515 256.5,229.5C 258.051,225.851 261.051,222.851 265.5,220.5 Z"/></g>
<g><path style="opacity:1" fill="#999a9e" d="M 50.5,222.5 C 50.2624,224.404 49.2624,225.738 47.5,226.5C 47.7376,224.596 48.7376,223.262 50.5,222.5 Z"/></g>
<g><path style="opacity:1" fill="#cfd1d1" d="M 63.5,222.5 C 63.2503,224.674 62.2503,226.341 60.5,227.5C 60.7497,225.326 61.7497,223.659 63.5,222.5 Z"/></g>
<g><path style="opacity:1" fill="#9e9fa0" d="M 868.5,223.5 C 870.434,224.11 872.101,225.11 873.5,226.5C 871.067,226.727 869.401,225.727 868.5,223.5 Z"/></g>
<g><path style="opacity:1" fill="#dcdcdc" d="M 455.5,224.5 C 456.906,224.973 457.573,225.973 457.5,227.5C 456.094,227.027 455.427,226.027 455.5,224.5 Z"/></g>
<g><path style="opacity:1" fill="#7f8081" d="M 132.5,224.5 C 134.819,224.992 136.819,225.992 138.5,227.5C 135.68,227.913 133.68,226.913 132.5,224.5 Z"/></g>
<g><path style="opacity:1" fill="#d2d3d4" d="M 815.5,225.5 C 816.906,225.973 817.573,226.973 817.5,228.5C 816.094,228.027 815.427,227.027 815.5,225.5 Z"/></g>
<g><path style="opacity:1" fill="#a2a4a5" d="M 891.5,224.5 C 885.871,228.694 879.871,229.361 873.5,226.5C 879.654,226.9 885.654,226.233 891.5,224.5 Z"/></g>
<g><path style="opacity:1" fill="#6d6e6f" d="M 847.5,225.5 C 845.049,228.277 842.049,230.277 838.5,231.5C 839.182,228.325 841.182,226.825 844.5,227C 844.167,226.667 843.833,226.333 843.5,226C 844.793,225.51 846.127,225.343 847.5,225.5 Z"/></g>
<g><path style="opacity:1" fill="#a5a5a5" d="M 47.5,226.5 C 47.573,228.027 46.9063,229.027 45.5,229.5C 45.427,227.973 46.0937,226.973 47.5,226.5 Z"/></g>
<g><path style="opacity:1" fill="#bfc2c3" d="M 817.5,228.5 C 819.027,228.427 820.027,229.094 820.5,230.5C 818.973,230.573 817.973,229.906 817.5,228.5 Z"/></g>
<g><path style="opacity:1" fill="#282c2d" d="M 129.5,220.5 C 129.427,222.027 130.094,223.027 131.5,223.5C 132.167,223.5 132.5,223.833 132.5,224.5C 133.68,226.913 135.68,227.913 138.5,227.5C 141.127,227.293 142.793,228.46 143.5,231C 141.679,235.494 139.012,239.328 135.5,242.5C 134.167,243.167 133.167,244.167 132.5,245.5C 130.047,246.645 127.713,246.312 125.5,244.5C 125.027,243.094 124.027,242.427 122.5,242.5C 121.409,239.808 119.743,239.142 117.5,240.5C 116.974,242.23 115.974,243.564 114.5,244.5C 113.094,244.973 112.427,245.973 112.5,247.5C 112.5,248.167 112.167,248.5 111.5,248.5C 108.14,248.384 104.807,248.051 101.5,247.5C 100.167,245.5 98.5,243.833 96.5,242.5C 95.8442,241.378 95.5108,240.045 95.5,238.5C 95.361,236.117 96.0277,234.117 97.5,232.5C 98.9063,232.027 99.573,231.027 99.5,229.5C 100.842,226.834 102.675,224.501 105,222.5C 105.717,223.044 106.217,223.711 106.5,224.5C 107.167,227.167 108.833,228.833 111.5,229.5C 112.492,229.328 113.158,229.662 113.5,230.5C 116.813,233.508 119.147,232.842 120.5,228.5C 122.587,227.415 123.92,225.749 124.5,223.5C 125.906,223.027 126.573,222.027 126.5,220.5C 127.5,219.167 128.5,219.167 129.5,220.5 Z"/></g>
<g><path style="opacity:1" fill="#adafb2" d="M 124.5,223.5 C 123.92,225.749 122.587,227.415 120.5,228.5C 121.08,226.251 122.413,224.585 124.5,223.5 Z"/></g>
<g><path style="opacity:1" fill="#bbbcbe" d="M 106.5,224.5 C 108.5,225.833 110.167,227.5 111.5,229.5C 108.833,228.833 107.167,227.167 106.5,224.5 Z"/></g>
<g><path style="opacity:1" fill="#c1c1c1" d="M 99.5,229.5 C 99.573,231.027 98.9063,232.027 97.5,232.5C 97.427,230.973 98.0937,229.973 99.5,229.5 Z"/></g>
<g><path style="opacity:1" fill="#c0c1c2" d="M 120.5,228.5 C 119.147,232.842 116.813,233.508 113.5,230.5C 114.822,230.33 115.989,230.663 117,231.5C 118.039,230.29 119.206,229.29 120.5,228.5 Z"/></g>
<g><path style="opacity:1" fill="#d0d0d0" d="M 820.5,230.5 C 822.153,230.66 823.486,231.326 824.5,232.5C 822.62,232.771 821.287,232.104 820.5,230.5 Z"/></g>
<g><path style="opacity:1" fill="#d7d7da" d="M 253.5,231.5 C 250.124,233.082 246.458,233.749 242.5,233.5C 245.909,232.097 249.575,231.43 253.5,231.5 Z"/></g>
<g><path style="opacity:1" fill="#b0b1b4" d="M 461.5,231.5 C 463.404,231.738 464.738,232.738 465.5,234.5C 463.596,234.262 462.262,233.262 461.5,231.5 Z"/></g>
<g><path style="opacity:1" fill="#e8e9e9" d="M 838.5,231.5 C 836.152,232.952 833.486,233.618 830.5,233.5C 828.631,233.493 826.964,233.16 825.5,232.5C 829.869,232.533 834.202,232.2 838.5,231.5 Z"/></g>
<g><path style="opacity:1" fill="#4b4c4c" d="M 59.5,228.5 C 58.2411,232.025 56.2411,235.025 53.5,237.5C 52.0937,237.973 51.427,238.973 51.5,240.5C 49.883,243.784 47.5497,246.451 44.5,248.5C 45.3103,246.202 46.1436,243.868 47,241.5C 47.3333,242.167 47.6667,242.833 48,243.5C 48.4702,241.226 49.4702,239.226 51,237.5C 51.49,236.207 51.6567,234.873 51.5,233.5C 53.1238,233.64 54.2904,232.973 55,231.5C 55.3333,231.833 55.6667,232.167 56,232.5C 56.3334,230.953 55.8334,229.62 54.5,228.5C 54.8333,228.167 55.1667,227.833 55.5,227.5C 56.5282,229.58 57.8615,229.914 59.5,228.5 Z"/></g>
<g><path style="opacity:1" fill="#d5d6d6" d="M 769.5,220.5 C 751.833,228.921 733.167,234.254 713.5,236.5C 732.524,232.741 751.191,227.408 769.5,220.5 Z"/></g>
<g><path style="opacity:1" fill="#a9aaab" d="M 224.5,232.5 C 226.215,233.657 228.215,234.324 230.5,234.5C 234.489,233.977 238.489,233.644 242.5,233.5C 237.339,234.786 232.006,235.786 226.5,236.5C 224.889,235.68 224.222,234.346 224.5,232.5 Z"/></g>
<g><path style="opacity:1" fill="#dddddd" d="M 467.5,235.5 C 469.553,235.402 471.22,236.069 472.5,237.5C 470.447,237.598 468.78,236.931 467.5,235.5 Z"/></g>
<g><path style="opacity:1" fill="#b4b4b5" d="M 472.5,237.5 C 476.162,237.723 479.495,238.723 482.5,240.5C 478.786,240.41 475.452,239.41 472.5,237.5 Z"/></g>
<g><path style="opacity:1" fill="#d3d3d3" d="M 53.5,237.5 C 53.573,239.027 52.9063,240.027 51.5,240.5C 51.427,238.973 52.0937,237.973 53.5,237.5 Z"/></g>
<g><path style="opacity:1" fill="#cecfd0" d="M 713.5,236.5 C 692.848,240.873 671.848,243.54 650.5,244.5C 648.5,244.5 646.5,244.5 644.5,244.5C 667.45,242.591 690.45,239.924 713.5,236.5 Z"/></g>
<g><path style="opacity:1" fill="#d4d4d5" d="M 117.5,240.5 C 119.743,239.142 121.409,239.808 122.5,242.5C 120.833,241.833 119.167,241.167 117.5,240.5 Z"/></g>
<g><path style="opacity:1" fill="#9fa0a2" d="M 39.5,237.5 C 38.5806,240.089 36.914,242.089 34.5,243.5C 35.4194,240.911 37.086,238.911 39.5,237.5 Z"/></g>
<g><path style="opacity:1" fill="#d7d8da" d="M 96.5,242.5 C 98.5,243.833 100.167,245.5 101.5,247.5C 98.8333,246.833 97.1667,245.167 96.5,242.5 Z"/></g>
<g><path style="opacity:1" fill="#c0c1c3" d="M 122.5,242.5 C 124.027,242.427 125.027,243.094 125.5,244.5C 123.973,244.573 122.973,243.906 122.5,242.5 Z"/></g>
<g><path style="opacity:1" fill="#dddede" d="M 493.5,243.5 C 498.231,242.339 502.897,242.672 507.5,244.5C 502.819,244.331 498.152,243.998 493.5,243.5 Z"/></g>
<g><path style="opacity:1" fill="#cbcbcc" d="M 135.5,242.5 C 135.5,244.5 134.5,245.5 132.5,245.5C 133.167,244.167 134.167,243.167 135.5,242.5 Z"/></g>
<g><path style="opacity:1" fill="#d6d6d6" d="M 114.5,244.5 C 114.573,246.027 113.906,247.027 112.5,247.5C 112.427,245.973 113.094,244.973 114.5,244.5 Z"/></g>
<g><path style="opacity:1" fill="#ddddde" d="M 644.5,244.5 C 646.5,244.5 648.5,244.5 650.5,244.5C 624.698,246.722 598.698,248.055 572.5,248.5C 559.674,247.911 547.008,247.244 534.5,246.5C 571.191,246.881 607.858,246.214 644.5,244.5 Z"/></g>
<g><path style="opacity:1" fill="#919195" d="M 101.5,247.5 C 104.807,248.051 108.14,248.384 111.5,248.5C 108.053,250.823 104.719,250.489 101.5,247.5 Z"/></g>
<g><path style="opacity:1" fill="#888a8c" d="M 34.5,243.5 C 31.5,248.5 27.5,252.5 22.5,255.5C 26.1667,251.167 30.1667,247.167 34.5,243.5 Z"/></g>
<g><path style="opacity:1" fill="#dadadb" d="M 43.5,249.5 C 41.5,253.5 38.5,256.5 34.5,258.5C 37.1667,255.167 40.1667,252.167 43.5,249.5 Z"/></g>
<g><path style="opacity:1" fill="#919294" d="M 22.5,255.5 C 21.0892,257.914 19.0892,259.581 16.5,260.5C 17.9108,258.086 19.9108,256.419 22.5,255.5 Z"/></g>
<g><path style="opacity:1" fill="#a4a5a7" d="M 16.5,260.5 C 16.0269,261.906 15.0269,262.573 13.5,262.5C 13.9731,261.094 14.9731,260.427 16.5,260.5 Z"/></g>
<g><path style="opacity:1" fill="#e1e2e2" d="M 31.5,261.5 C 31.0269,262.906 30.0269,263.573 28.5,263.5C 28.9731,262.094 29.9731,261.427 31.5,261.5 Z"/></g>
<g><path style="opacity:1" fill="#bbbfc2" d="M 13.5,262.5 C 13.0269,263.906 12.0269,264.573 10.5,264.5C 10.9731,263.094 11.9731,262.427 13.5,262.5 Z"/></g>
<g><path style="opacity:1" fill="#dcdcdc" d="M 28.5,263.5 C 28.0269,264.906 27.0269,265.573 25.5,265.5C 25.9731,264.094 26.9731,263.427 28.5,263.5 Z"/></g>
<g><path style="opacity:1" fill="#b5b5b5" d="M 10.5,264.5 C 10.0269,265.906 9.02694,266.573 7.5,266.5C 7.97306,265.094 8.97306,264.427 10.5,264.5 Z"/></g>
<g><path style="opacity:1" fill="#cdcdcd" d="M 2.5,269.5 C 2.5,270.833 2.5,272.167 2.5,273.5C 7.929,272.476 13.2623,271.143 18.5,269.5C 13.3499,272.542 7.68326,274.209 1.5,274.5C 1.21552,272.585 1.54885,270.919 2.5,269.5 Z"/></g>
</svg>
