<?xml version="1.0" encoding="UTF-8"?>
<!DOCTYPE svg PUBLIC "-//W3C//DTD SVG 1.1//EN" "http://www.w3.org/Graphics/SVG/1.1/DTD/svg11.dtd">
<svg xmlns="http://www.w3.org/2000/svg" version="1.1" width="943px" height="284px" style="shape-rendering:geometricPrecision; text-rendering:geometricPrecision; image-rendering:optimizeQuality; fill-rule:evenodd; clip-rule:evenodd" xmlns:xlink="http://www.w3.org/1999/xlink">
<g><path style="opacity:1" fill="#2b2b28" d="M 933.5,0.5 C 933.027,1.90632 932.027,2.57298 930.5,2.5C 930.973,1.09368 931.973,0.427017 933.5,0.5 Z"/></g>
<g><path style="opacity:1" fill="#20211e" d="M 930.5,2.5 C 930.027,3.90632 929.027,4.57298 927.5,4.5C 927.973,3.09368 928.973,2.42702 930.5,2.5 Z"/></g>
<g><path style="opacity:1" fill="#201f1f" d="M 927.5,4.5 C 925.704,6.89999 923.37,8.56666 920.5,9.5C 922.296,7.10001 924.63,5.43334 927.5,4.5 Z"/></g>
<g><path style="opacity:1" fill="#656362" d="M 942.5,0.5 C 942.5,1.5 942.5,2.5 942.5,3.5C 940.5,6.5 938.5,9.5 936.5,12.5C 936.215,10.712 936.548,9.04533 937.5,7.5C 939.422,5.31344 941.088,2.98011 942.5,0.5 Z"/></g>
<g><path style="opacity:1" fill="#242423" d="M 920.5,9.5 C 920.027,10.9063 919.027,11.573 917.5,11.5C 917.973,10.0937 918.973,9.42702 920.5,9.5 Z"/></g>
<g><path style="opacity:1" fill="#242424" d="M 917.5,11.5 C 915.704,13.9 913.37,15.5667 910.5,16.5C 912.296,14.1 914.63,12.4333 917.5,11.5 Z"/></g>
<g><path style="opacity:1" fill="#262525" d="M 934.5,15.5 C 934.573,17.0269 933.906,18.0269 932.5,18.5C 932.427,16.9731 933.094,15.9731 934.5,15.5 Z"/></g>
<g><path style="opacity:1" fill="#2b2b2b" d="M 910.5,16.5 C 910.027,17.9063 909.027,18.573 907.5,18.5C 907.973,17.0937 908.973,16.427 910.5,16.5 Z"/></g>
<g><path style="opacity:1" fill="#2b2b2b" d="M 907.5,18.5 C 906.738,20.2624 905.404,21.2624 903.5,21.5C 904.262,19.7376 905.596,18.7376 907.5,18.5 Z"/></g>
<g><path style="opacity:1" fill="#393736" d="M 903.5,21.5 C 903.027,22.9063 902.027,23.573 900.5,23.5C 900.973,22.0937 901.973,21.427 903.5,21.5 Z"/></g>
<g><path style="opacity:1" fill="#888787" d="M 929.5,21.5 C 928.089,23.914 926.089,25.5806 923.5,26.5C 923.808,22.9909 925.808,21.3243 929.5,21.5 Z"/></g>
<g><path style="opacity:1" fill="#393938" d="M 900.5,23.5 C 899.738,25.2624 898.404,26.2624 896.5,26.5C 897.262,24.7376 898.596,23.7376 900.5,23.5 Z"/></g>
<g><path style="opacity:1" fill="#494848" d="M 896.5,26.5 C 896.027,27.9063 895.027,28.573 893.5,28.5C 893.973,27.0937 894.973,26.427 896.5,26.5 Z"/></g>
<g><path style="opacity:1" fill="#8c8c89" d="M 923.5,26.5 C 921.557,29.4707 918.891,31.4707 915.5,32.5C 916.791,31.5272 916.791,30.5272 915.5,29.5C 916.391,28.4104 917.391,28.4104 918.5,29.5C 919.427,27.8872 920.261,26.2205 921,24.5C 921.708,25.3805 922.542,26.0472 923.5,26.5 Z"/></g>
<g><path style="opacity:1" fill="#3f3f3f" d="M 893.5,28.5 C 893.027,29.9063 892.027,30.573 890.5,30.5C 890.973,29.0937 891.973,28.427 893.5,28.5 Z"/></g>
<g><path style="opacity:1" fill="#383535" d="M 890.5,30.5 C 890.027,31.9063 889.027,32.573 887.5,32.5C 887.973,31.0937 888.973,30.427 890.5,30.5 Z"/></g>
<g><path style="opacity:1" fill="#343433" d="M 887.5,32.5 C 886.738,34.2624 885.404,35.2624 883.5,35.5C 884.262,33.7376 885.596,32.7376 887.5,32.5 Z"/></g>
<g><path style="opacity:1" fill="#767474" d="M 914.5,33.5 C 913.101,34.8897 911.434,35.8897 909.5,36.5C 910.598,35.603 910.598,34.7697 909.5,34C 911.134,33.5065 912.801,33.3398 914.5,33.5 Z"/></g>
<g><path style="opacity:1" fill="#3c3c3c" d="M 883.5,35.5 C 883.027,36.9063 882.027,37.573 880.5,37.5C 880.973,36.0937 881.973,35.427 883.5,35.5 Z"/></g>
<g><path style="opacity:1" fill="#333331" d="M 880.5,37.5 C 880.027,38.9063 879.027,39.573 877.5,39.5C 877.973,38.0937 878.973,37.427 880.5,37.5 Z"/></g>
<g><path style="opacity:1" fill="#93918f" d="M 904.5,40.5 C 900.024,44.5746 895.024,47.9079 889.5,50.5C 889.579,49.0416 890.079,47.7083 891,46.5C 893.129,47.8627 893.629,47.5294 892.5,45.5C 893.651,44.269 894.817,44.269 896,45.5C 896.17,43.2852 896.837,41.2852 898,39.5C 900.041,40.4231 902.208,40.7564 904.5,40.5 Z"/></g>
<g><path style="opacity:1" fill="#2e2e2d" d="M 877.5,39.5 C 875.704,41.9 873.37,43.5667 870.5,44.5C 872.296,42.1 874.63,40.4333 877.5,39.5 Z"/></g>
<g><path style="opacity:1" fill="#444444" d="M 870.5,44.5 C 869.738,46.2624 868.404,47.2624 866.5,47.5C 867.262,45.7376 868.596,44.7376 870.5,44.5 Z"/></g>
<g><path style="opacity:1" fill="#4c4c4c" d="M 866.5,47.5 C 866.027,48.9063 865.027,49.573 863.5,49.5C 863.973,48.0937 864.973,47.427 866.5,47.5 Z"/></g>
<g><path style="opacity:1" fill="#403f3c" d="M 863.5,49.5 C 863.027,50.9063 862.027,51.573 860.5,51.5C 860.973,50.0937 861.973,49.427 863.5,49.5 Z"/></g>
<g><path style="opacity:1" fill="#373535" d="M 860.5,51.5 C 860.027,52.9063 859.027,53.573 857.5,53.5C 857.973,52.0937 858.973,51.427 860.5,51.5 Z"/></g>
<g><path style="opacity:1" fill="#484847" d="M 313.5,54.5 C 311.167,51.8333 308.833,51.8333 306.5,54.5C 308.833,49.1667 311.167,49.1667 313.5,54.5 Z"/></g>
<g><path style="opacity:1" fill="#565555" d="M 360.5,49.5 C 360.741,51.8984 360.074,53.8984 358.5,55.5C 358.259,53.1016 358.926,51.1016 360.5,49.5 Z"/></g>
<g><path style="opacity:1" fill="#322e2e" d="M 857.5,53.5 C 857.027,54.9063 856.027,55.573 854.5,55.5C 854.973,54.0937 855.973,53.427 857.5,53.5 Z"/></g>
<g><path style="opacity:1" fill="#454544" d="M 306.5,54.5 C 305.92,56.7488 304.587,58.4154 302.5,59.5C 303.08,57.2512 304.413,55.5846 306.5,54.5 Z"/></g>
<g><path style="opacity:1" fill="#242423" d="M 314.5,55.5 C 316.027,55.427 317.027,56.0937 317.5,57.5C 315.973,57.573 314.973,56.9063 314.5,55.5 Z"/></g>
<g><path style="opacity:1" fill="#2e2e2e" d="M 854.5,55.5 C 853.738,57.2624 852.404,58.2624 850.5,58.5C 851.262,56.7376 852.596,55.7376 854.5,55.5 Z"/></g>
<g><path style="opacity:1" fill="#585857" d="M 365.5,49.5 C 366.525,52.9736 367.192,56.6403 367.5,60.5C 366.778,60.0825 366.278,59.4158 366,58.5C 365.502,55.5184 365.335,52.5184 365.5,49.5 Z"/></g>
<g><path style="opacity:1" fill="#3c3c3c" d="M 319.5,58.5 C 321.786,58.595 323.786,59.2616 325.5,60.5C 323.102,60.7406 321.102,60.0739 319.5,58.5 Z"/></g>
<g><path style="opacity:1" fill="#3d3a38" d="M 850.5,58.5 C 849.738,60.2624 848.404,61.2624 846.5,61.5C 847.262,59.7376 848.596,58.7376 850.5,58.5 Z"/></g>
<g><path style="opacity:1" fill="#1b1b1b" d="M 878.5,58.5 C 878.027,59.9063 877.027,60.573 875.5,60.5C 875.973,59.0937 876.973,58.427 878.5,58.5 Z"/></g>
<g><path style="opacity:1" fill="#d2cecc" d="M 313.5,54.5 C 314.167,54.5 314.5,54.8333 314.5,55.5C 314.973,56.9063 315.973,57.573 317.5,57.5C 318.492,57.3284 319.158,57.6618 319.5,58.5C 321.102,60.0739 323.102,60.7406 325.5,60.5C 325.5,61.5 325.5,62.5 325.5,63.5C 323.801,63.3398 322.134,63.5065 320.5,64C 323.167,64.6667 323.167,65.3333 320.5,66C 321.022,66.5613 321.355,67.228 321.5,68C 320.115,69.5971 319.449,71.4305 319.5,73.5C 318.127,73.3433 316.793,73.51 315.5,74C 315.957,74.414 316.291,74.914 316.5,75.5C 314.257,76.4742 311.924,76.8076 309.5,76.5C 305.571,75.5692 302.905,73.2359 301.5,69.5C 301.5,66.8333 301.5,64.1667 301.5,61.5C 301.328,60.5084 301.662,59.8417 302.5,59.5C 304.587,58.4154 305.92,56.7488 306.5,54.5C 308.833,51.8333 311.167,51.8333 313.5,54.5 Z"/></g>
<g><path style="opacity:1" fill="#3b3b3b" d="M 846.5,61.5 C 845.738,63.2624 844.404,64.2624 842.5,64.5C 843.262,62.7376 844.596,61.7376 846.5,61.5 Z"/></g>
<g><path style="opacity:1" fill="#4e4e4e" d="M 301.5,61.5 C 301.5,64.1667 301.5,66.8333 301.5,69.5C 298.833,66.8333 298.833,64.1667 301.5,61.5 Z"/></g>
<g><path style="opacity:1" fill="#9b9896" d="M 325.5,60.5 C 326.598,61.6009 326.765,62.9343 326,64.5C 324.301,67.921 322.135,70.921 319.5,73.5C 319.449,71.4305 320.115,69.5971 321.5,68C 321.355,67.228 321.022,66.5613 320.5,66C 323.167,65.3333 323.167,64.6667 320.5,64C 322.134,63.5065 323.801,63.3398 325.5,63.5C 325.5,62.5 325.5,61.5 325.5,60.5 Z"/></g>
<g><path style="opacity:1" fill="#4a4948" d="M 842.5,64.5 C 841.415,66.5869 839.749,67.9202 837.5,68.5C 838.585,66.4131 840.251,65.0798 842.5,64.5 Z"/></g>
<g><path style="opacity:1" fill="#939190" d="M 356.5,60.5 C 356.216,63.7766 356.549,66.9433 357.5,70C 356.234,70.3095 355.067,70.8095 354,71.5C 353.302,74.0037 352.469,76.337 351.5,78.5C 352.386,72.1893 354.053,66.1893 356.5,60.5 Z"/></g>
<g><path style="opacity:1" fill="#4d4d4b" d="M 368.5,65.5 C 370.007,69.3528 371.34,73.3528 372.5,77.5C 369.804,74.0785 368.47,70.0785 368.5,65.5 Z"/></g>
<g><path style="opacity:1" fill="#858584" d="M 837.5,68.5 C 834.042,73.0054 830.375,76.3387 826.5,78.5C 829.563,74.4342 833.229,71.1009 837.5,68.5 Z"/></g>
<g><path style="opacity:1" fill="#666564" d="M 319.5,73.5 C 317.311,78.7346 313.978,79.7346 309.5,76.5C 311.924,76.8076 314.257,76.4742 316.5,75.5C 316.291,74.914 315.957,74.414 315.5,74C 316.793,73.51 318.127,73.3433 319.5,73.5 Z"/></g>
<g><path style="opacity:1" fill="#989896" d="M 845.5,81.5 C 841.777,84.5515 837.777,87.2181 833.5,89.5C 833.821,84.028 836.487,82.028 841.5,83.5C 841.64,81.8762 840.973,80.7096 839.5,80C 841.874,79.2568 843.874,79.7568 845.5,81.5 Z"/></g>
<g><path style="opacity:1" fill="#4d4949" d="M 161.5,84.5 C 160.92,86.7488 159.587,88.4154 157.5,89.5C 158.08,87.2512 159.413,85.5846 161.5,84.5 Z"/></g>
<g><path style="opacity:1" fill="#2f2d2d" d="M 822.5,83.5 C 822.573,85.0269 821.906,86.0269 820.5,86.5C 820.427,84.9731 821.094,83.9731 822.5,83.5 Z"/></g>
<g><path style="opacity:1" fill="#3d3d3b" d="M 164.5,86.5 C 166.167,87.5 167.5,88.8333 168.5,90.5C 166.167,90.1667 164.833,88.8333 164.5,86.5 Z"/></g>
<g><path style="opacity:1" fill="#555552" d="M 141.5,90.5 C 140.292,89.7659 138.959,89.4326 137.5,89.5C 139.423,86.7822 140.756,87.1155 141.5,90.5 Z"/></g>
<g><path style="opacity:1" fill="#8f8e8e" d="M 833.5,89.5 C 831.853,91.3264 829.853,92.6597 827.5,93.5C 828.953,92.1751 828.619,91.3418 826.5,91C 827.931,90.5348 829.097,89.7014 830,88.5C 831.011,89.3366 832.178,89.67 833.5,89.5 Z"/></g>
<g><path style="opacity:1" fill="#2d2d2d" d="M 170.5,91.5 C 172.655,91.372 174.655,91.872 176.5,93C 177.801,94.6155 177.801,96.1155 176.5,97.5C 176.5,96.8333 176.5,96.1667 176.5,95.5C 174.81,93.6583 172.81,92.325 170.5,91.5 Z"/></g>
<g><path style="opacity:1" fill="#3b3b3b" d="M 137.5,89.5 C 136.92,91.7488 135.587,93.4154 133.5,94.5C 134.08,92.2512 135.413,90.5846 137.5,89.5 Z"/></g>
<g><path style="opacity:1" fill="#918f8f" d="M 820.5,86.5 C 819.952,89.1825 819.952,92.0159 820.5,95C 819.241,95.9234 817.908,96.7568 816.5,97.5C 816.833,98.1667 817.167,98.8333 817.5,99.5C 817.154,100.696 816.654,100.696 816,99.5C 815.155,101.611 814.322,103.611 813.5,105.5C 814.458,98.5987 816.791,92.2653 820.5,86.5 Z"/></g>
<g><path style="opacity:1" fill="#434343" d="M 133.5,94.5 C 133.262,96.4044 132.262,97.7377 130.5,98.5C 130.738,96.5956 131.738,95.2623 133.5,94.5 Z"/></g>
<g><path style="opacity:1" fill="#d0cdcb" d="M 164.5,86.5 C 164.833,88.8333 166.167,90.1667 168.5,90.5C 169.492,90.3284 170.158,90.6618 170.5,91.5C 172.81,92.325 174.81,93.6583 176.5,95.5C 174.455,96.9228 173.455,98.9228 173.5,101.5C 172.448,101.351 171.448,101.517 170.5,102C 171.413,103.414 171.413,104.914 170.5,106.5C 169.094,106.973 168.427,107.973 168.5,109.5C 165.14,109.384 161.807,109.051 158.5,108.5C 158.027,107.094 157.027,106.427 155.5,106.5C 154.241,103.474 152.908,103.14 151.5,105.5C 149.879,108.567 147.879,111.401 145.5,114C 142.633,114.801 139.966,114.634 137.5,113.5C 137.027,112.094 136.027,111.427 134.5,111.5C 133.833,110.167 132.833,109.167 131.5,108.5C 130.883,108.389 130.383,108.056 130,107.5C 129.195,104.304 129.362,101.304 130.5,98.5C 132.262,97.7377 133.262,96.4044 133.5,94.5C 135.587,93.4154 136.92,91.7488 137.5,89.5C 138.959,89.4326 140.292,89.7659 141.5,90.5C 141.967,93.2974 143.633,94.6308 146.5,94.5C 147.167,94.8333 147.833,95.1667 148.5,95.5C 149.946,96.6129 151.613,96.7796 153.5,96C 154.252,95.3292 154.586,94.4959 154.5,93.5C 156.262,92.7377 157.262,91.4044 157.5,89.5C 159.587,88.4154 160.92,86.7488 161.5,84.5C 163.332,83.2819 164.332,83.9486 164.5,86.5 Z"/></g>
<g><path style="opacity:1" fill="#43413f" d="M 154.5,93.5 C 154.586,94.4959 154.252,95.3292 153.5,96C 151.613,96.7796 149.946,96.6129 148.5,95.5C 150.858,95.7475 152.858,95.0808 154.5,93.5 Z"/></g>
<g><path style="opacity:1" fill="#393939" d="M 141.5,90.5 C 143.191,91.8637 144.858,93.197 146.5,94.5C 143.633,94.6308 141.967,93.2974 141.5,90.5 Z"/></g>
<g><path style="opacity:1" fill="#4d4a49" d="M 157.5,89.5 C 157.262,91.4044 156.262,92.7377 154.5,93.5C 154.738,91.5956 155.738,90.2623 157.5,89.5 Z"/></g>
<g><path style="opacity:1" fill="#8e8e8d" d="M 176.5,95.5 C 176.5,96.1667 176.5,96.8333 176.5,97.5C 175.241,101.025 173.241,104.025 170.5,106.5C 171.413,104.914 171.413,103.414 170.5,102C 171.448,101.517 172.448,101.351 173.5,101.5C 173.455,98.9228 174.455,96.9228 176.5,95.5 Z"/></g>
<g><path style="opacity:1" fill="#262526" d="M 381.5,96.5 C 382.906,96.9731 383.573,97.9731 383.5,99.5C 382.094,99.0269 381.427,98.0269 381.5,96.5 Z"/></g>
<g><path style="opacity:1" fill="#4c4c4c" d="M 214.5,100.5 C 213.167,100.5 211.833,100.5 210.5,100.5C 211.634,98.2187 212.968,98.2187 214.5,100.5 Z"/></g>
<g><path style="opacity:1" fill="#444242" d="M 383.5,99.5 C 384.674,100.514 385.34,101.847 385.5,103.5C 383.896,102.713 383.229,101.38 383.5,99.5 Z"/></g>
<g><path style="opacity:1" fill="#d0ccca" d="M 933.5,-0.5 C 936.5,-0.5 939.5,-0.5 942.5,-0.5C 942.5,-0.166667 942.5,0.166667 942.5,0.5C 941.088,2.98011 939.422,5.31344 937.5,7.5C 936.548,9.04533 936.215,10.712 936.5,12.5C 936.068,13.7095 935.401,14.7095 934.5,15.5C 933.094,15.9731 932.427,16.9731 932.5,18.5C 931.833,19.8333 930.833,20.8333 929.5,21.5C 925.808,21.3243 923.808,22.9909 923.5,26.5C 922.542,26.0472 921.708,25.3805 921,24.5C 920.261,26.2205 919.427,27.8872 918.5,29.5C 917.391,28.4104 916.391,28.4104 915.5,29.5C 916.791,30.5272 916.791,31.5272 915.5,32.5C 915.5,33.1667 915.167,33.5 914.5,33.5C 912.801,33.3398 911.134,33.5065 909.5,34C 910.598,34.7697 910.598,35.603 909.5,36.5C 908.421,38.543 906.754,39.8763 904.5,40.5C 902.208,40.7564 900.041,40.4231 898,39.5C 896.837,41.2852 896.17,43.2852 896,45.5C 894.817,44.269 893.651,44.269 892.5,45.5C 893.629,47.5294 893.129,47.8627 891,46.5C 890.079,47.7083 889.579,49.0416 889.5,50.5C 886.403,53.8884 882.736,56.5551 878.5,58.5C 876.973,58.427 875.973,59.0937 875.5,60.5C 865.537,67.4875 855.537,74.4875 845.5,81.5C 843.874,79.7568 841.874,79.2568 839.5,80C 840.973,80.7096 841.64,81.8762 841.5,83.5C 836.487,82.028 833.821,84.028 833.5,89.5C 832.178,89.67 831.011,89.3366 830,88.5C 829.097,89.7014 827.931,90.5348 826.5,91C 828.619,91.3418 828.953,92.1751 827.5,93.5C 827.167,94.5 826.5,95.1667 825.5,95.5C 823.725,99.3864 822.892,103.72 823,108.5C 822.183,114.016 822.349,119.35 823.5,124.5C 822.897,125.635 822.564,126.635 822.5,127.5C 820.825,137.617 820.159,147.95 820.5,158.5C 820.334,167.173 820.5,175.84 821,184.5C 821.85,200.535 830.017,206.868 845.5,203.5C 848.167,202.833 849.833,201.167 850.5,198.5C 852.944,193.126 854.444,187.459 855,181.5C 855.168,164.662 855.668,147.995 856.5,131.5C 857.768,129.095 858.435,126.428 858.5,123.5C 859.315,122.571 860.148,121.571 861,120.5C 861.642,116.509 862.142,112.509 862.5,108.5C 864.483,105.201 865.483,101.534 865.5,97.5C 867.223,96.193 869.057,96.193 871,97.5C 871.736,100.592 871.569,103.592 870.5,106.5C 869.221,124.32 868.554,142.32 868.5,160.5C 867.347,166.653 867.18,172.986 868,179.5C 868.278,180.416 868.778,181.082 869.5,181.5C 870.669,184.341 871.669,187.341 872.5,190.5C 872.427,192.027 873.094,193.027 874.5,193.5C 875.167,193.5 875.5,193.833 875.5,194.5C 875.973,195.906 876.973,196.573 878.5,196.5C 878.351,197.552 878.517,198.552 879,199.5C 882.362,199.417 885.862,199.25 889.5,199C 890.38,197.644 890.714,196.144 890.5,194.5C 892.435,189.427 893.768,184.094 894.5,178.5C 894.611,177.883 894.944,177.383 895.5,177C 900.022,175.89 904.022,176.723 907.5,179.5C 907.738,181.404 908.738,182.738 910.5,183.5C 912.425,187.846 912.758,192.179 911.5,196.5C 910.076,198.515 909.41,200.848 909.5,203.5C 908.502,207.505 906.502,210.839 903.5,213.5C 902.833,213.833 902.167,214.167 901.5,214.5C 897.849,214.818 895.849,216.818 895.5,220.5C 893.902,219.515 892.235,219.349 890.5,220C 891.167,220.333 891.833,220.667 892.5,221C 892.381,222.145 892.048,223.312 891.5,224.5C 889.847,224.66 888.514,225.326 887.5,226.5C 882.833,226.5 878.167,226.5 873.5,226.5C 872.101,225.11 870.434,224.11 868.5,223.5C 867.833,222.167 866.833,221.167 865.5,220.5C 863.178,219.198 861.845,217.198 861.5,214.5C 861.34,212.847 860.674,211.514 859.5,210.5C 858.699,208.207 858.032,208.54 857.5,211.5C 853.32,221.846 845.986,229.013 835.5,233C 831.745,233.755 828.078,233.589 824.5,232.5C 823.486,231.326 822.153,230.66 820.5,230.5C 819.5,228.167 817.833,226.5 815.5,225.5C 813.75,224.341 812.75,222.674 812.5,220.5C 812.673,217.017 811.673,214.017 809.5,211.5C 808.878,203.181 808.378,194.848 808,186.5C 807.487,187.527 806.987,188.527 806.5,189.5C 805.167,190.833 805.167,192.167 806.5,193.5C 805.5,194.167 804.5,194.833 803.5,195.5C 802.094,195.973 801.427,196.973 801.5,198.5C 798.052,203.287 793.719,206.954 788.5,209.5C 788.5,208.5 788.5,207.5 788.5,206.5C 793.371,206.422 793.371,205.255 788.5,203C 789.654,202.086 789.487,201.253 788,200.5C 787,201.167 786,201.833 785,202.5C 784.239,199.947 783.406,197.447 782.5,195C 783.712,193.893 783.379,193.393 781.5,193.5C 782.694,192.728 783.694,191.728 784.5,190.5C 785.899,189.11 787.566,188.11 789.5,187.5C 791.027,187.573 792.027,186.906 792.5,185.5C 794.749,184.92 796.415,183.587 797.5,181.5C 800.5,180.5 802.5,178.5 803.5,175.5C 805.586,171.412 806.919,167.078 807.5,162.5C 808.268,161.737 808.768,160.737 809,159.5C 809.499,155.848 809.665,152.182 809.5,148.5C 809.785,138.159 810.285,127.826 811,117.5C 811.189,113.233 812.023,109.233 813.5,105.5C 814.322,103.611 815.155,101.611 816,99.5C 816.654,100.696 817.154,100.696 817.5,99.5C 817.167,98.8333 816.833,98.1667 816.5,97.5C 817.908,96.7568 819.241,95.9234 820.5,95C 819.952,92.0159 819.952,89.1825 820.5,86.5C 821.906,86.0269 822.573,85.0269 822.5,83.5C 823.08,81.2512 824.413,79.5846 826.5,78.5C 830.375,76.3387 834.042,73.0054 837.5,68.5C 839.749,67.9202 841.415,66.5869 842.5,64.5C 844.404,64.2624 845.738,63.2624 846.5,61.5C 848.404,61.2624 849.738,60.2624 850.5,58.5C 852.404,58.2624 853.738,57.2624 854.5,55.5C 856.027,55.573 857.027,54.9063 857.5,53.5C 859.027,53.573 860.027,52.9063 860.5,51.5C 862.027,51.573 863.027,50.9063 863.5,49.5C 865.027,49.573 866.027,48.9063 866.5,47.5C 868.404,47.2624 869.738,46.2624 870.5,44.5C 873.37,43.5667 875.704,41.9 877.5,39.5C 879.027,39.573 880.027,38.9063 880.5,37.5C 882.027,37.573 883.027,36.9063 883.5,35.5C 885.404,35.2624 886.738,34.2624 887.5,32.5C 889.027,32.573 890.027,31.9063 890.5,30.5C 892.027,30.573 893.027,29.9063 893.5,28.5C 895.027,28.573 896.027,27.9063 896.5,26.5C 898.404,26.2624 899.738,25.2624 900.5,23.5C 902.027,23.573 903.027,22.9063 903.5,21.5C 905.404,21.2624 906.738,20.2624 907.5,18.5C 909.027,18.573 910.027,17.9063 910.5,16.5C 913.37,15.5667 915.704,13.9 917.5,11.5C 919.027,11.573 920.027,10.9063 920.5,9.5C 923.37,8.56666 925.704,6.89999 927.5,4.5C 929.027,4.57298 930.027,3.90632 930.5,2.5C 932.027,2.57298 933.027,1.90632 933.5,0.5C 933.5,0.166667 933.5,-0.166667 933.5,-0.5 Z"/></g>
<g><path style="opacity:1" fill="#535351" d="M 865.5,97.5 C 865.483,101.534 864.483,105.201 862.5,108.5C 862.742,104.521 863.742,100.854 865.5,97.5 Z"/></g>
<g><path style="opacity:1" fill="#402d2b" d="M 155.5,106.5 C 154.167,106.167 152.833,105.833 151.5,105.5C 152.908,103.14 154.241,103.474 155.5,106.5 Z"/></g>
<g><path style="opacity:1" fill="#5d5d5b" d="M 210.5,100.5 C 210.408,102.848 209.408,104.514 207.5,105.5C 207.75,103.326 208.75,101.659 210.5,100.5 Z"/></g>
<g><path style="opacity:1" fill="#3d3d3d" d="M 155.5,106.5 C 157.027,106.427 158.027,107.094 158.5,108.5C 156.973,108.573 155.973,107.906 155.5,106.5 Z"/></g>
<g><path style="opacity:1" fill="#242424" d="M 170.5,106.5 C 170.573,108.027 169.906,109.027 168.5,109.5C 168.427,107.973 169.094,106.973 170.5,106.5 Z"/></g>
<g><path style="opacity:1" fill="#757270" d="M 158.5,108.5 C 161.807,109.051 165.14,109.384 168.5,109.5C 165.053,111.823 161.719,111.489 158.5,108.5 Z"/></g>
<g><path style="opacity:1" fill="#1f1f1e" d="M 131.5,108.5 C 132.833,109.167 133.833,110.167 134.5,111.5C 132.5,111.5 131.5,110.5 131.5,108.5 Z"/></g>
<g><path style="opacity:1" fill="#d2cecd" d="M 210.5,100.5 C 211.833,100.5 213.167,100.5 214.5,100.5C 213.75,126.16 213.417,151.826 213.5,177.5C 213.007,190.632 210.34,203.299 205.5,215.5C 203.701,216.788 202.035,216.788 200.5,215.5C 200.333,188.165 200.5,160.831 201,133.5C 201.501,128.492 202.001,123.492 202.5,118.5C 202.5,118.167 202.5,117.833 202.5,117.5C 204.254,115.427 205.92,113.261 207.5,111C 206.748,110.329 206.414,109.496 206.5,108.5C 206.557,107.391 206.89,106.391 207.5,105.5C 209.408,104.514 210.408,102.848 210.5,100.5 Z"/></g>
<g><path style="opacity:1" fill="#73716f" d="M 206.5,108.5 C 206.414,109.496 206.748,110.329 207.5,111C 205.92,113.261 204.254,115.427 202.5,117.5C 203.075,114.088 204.408,111.088 206.5,108.5 Z"/></g>
<g><path style="opacity:1" fill="#494747" d="M 332.5,112.5 C 326.508,111.226 320.508,111.226 314.5,112.5C 320.5,108.5 326.5,108.5 332.5,112.5 Z"/></g>
<g><path style="opacity:1" fill="#333333" d="M 134.5,111.5 C 136.027,111.427 137.027,112.094 137.5,113.5C 135.973,113.573 134.973,112.906 134.5,111.5 Z"/></g>
<g><path style="opacity:1" fill="#3a3737" d="M 314.5,112.5 C 313.738,114.262 312.404,115.262 310.5,115.5C 311.262,113.738 312.596,112.738 314.5,112.5 Z"/></g>
<g><path style="opacity:1" fill="#292928" d="M 825.5,95.5 C 824.306,105.077 823.639,114.744 823.5,124.5C 822.349,119.35 822.183,114.016 823,108.5C 822.892,103.72 823.725,99.3864 825.5,95.5 Z"/></g>
<g><path style="opacity:1" fill="#333332" d="M 310.5,115.5 C 308.167,118.5 305.5,121.167 302.5,123.5C 304.167,119.833 306.833,117.167 310.5,115.5 Z"/></g>
<g><path style="opacity:1" fill="#898988" d="M 862.5,108.5 C 862.142,112.509 861.642,116.509 861,120.5C 860.148,121.571 859.315,122.571 858.5,123.5C 859.076,118.191 860.409,113.191 862.5,108.5 Z"/></g>
<g><path style="opacity:1" fill="#545454" d="M 302.5,123.5 C 302.262,125.404 301.262,126.738 299.5,127.5C 299.738,125.596 300.738,124.262 302.5,123.5 Z"/></g>
<g><path style="opacity:1" fill="#565554" d="M 858.5,123.5 C 858.435,126.428 857.768,129.095 856.5,131.5C 856.294,128.505 856.96,125.838 858.5,123.5 Z"/></g>
<g><path style="opacity:1" fill="#454544" d="M 299.5,127.5 C 299.262,129.404 298.262,130.738 296.5,131.5C 296.738,129.596 297.738,128.262 299.5,127.5 Z"/></g>
<g><path style="opacity:1" fill="#3b3a3a" d="M 336.5,117.5 C 338.039,120.865 338.706,124.531 338.5,128.5C 338.333,131.167 338.167,133.833 338,136.5C 337.76,138.852 336.927,140.852 335.5,142.5C 337.684,134.249 338.018,125.915 336.5,117.5 Z"/></g>
<g><path style="opacity:1" fill="#4d4a48" d="M 399.5,133.5 C 400.924,135.515 401.59,137.848 401.5,140.5C 400.076,138.485 399.41,136.152 399.5,133.5 Z"/></g>
<g><path style="opacity:1" fill="#747271" d="M 349.5,136.5 C 349.66,138.199 349.494,139.866 349,141.5C 348.583,142.756 347.75,143.423 346.5,143.5C 347.264,140.982 348.264,138.649 349.5,136.5 Z"/></g>
<g><path style="opacity:1" fill="#8e8c8c" d="M 152.5,151.5 C 152.662,149.473 152.495,147.473 152,145.5C 151.346,146.696 150.846,146.696 150.5,145.5C 152.561,143.356 151.895,143.023 148.5,144.5C 149.678,138.88 152.011,138.213 155.5,142.5C 154.943,145.765 153.943,148.765 152.5,151.5 Z"/></g>
<g><path style="opacity:1" fill="#3d3d3c" d="M 214.5,100.5 C 215.166,104.988 215.499,109.654 215.5,114.5C 215.022,135.668 214.356,156.668 213.5,177.5C 213.417,151.826 213.75,126.16 214.5,100.5 Z"/></g>
<g><path style="opacity:1" fill="#1a1a19" d="M 346.5,143.5 C 346.5,144.167 346.5,144.833 346.5,145.5C 345.833,145.5 345.5,145.833 345.5,146.5C 345.167,146.5 344.833,146.5 344.5,146.5C 344.427,144.973 345.094,143.973 346.5,143.5 Z"/></g>
<g><path style="opacity:1" fill="#aaa6a5" d="M 357.5,142.5 C 355.611,149.956 351.944,156.289 346.5,161.5C 346.343,160.127 346.51,158.793 347,157.5C 347.333,157.833 347.667,158.167 348,158.5C 348.318,156.939 349.151,155.772 350.5,155C 349.366,153.984 349.699,153.317 351.5,153C 346.581,151.149 346.581,149.982 351.5,149.5C 349.757,147.962 347.757,146.962 345.5,146.5C 345.5,145.833 345.833,145.5 346.5,145.5C 347.496,145.414 348.329,145.748 349,146.5C 349.333,145.833 349.667,145.167 350,144.5C 350.833,145.5 351.667,146.5 352.5,147.5C 353.427,145.887 354.261,144.221 355,142.5C 355.77,141.402 356.603,141.402 357.5,142.5 Z"/></g>
<g><path style="opacity:1" fill="#333333" d="M 822.5,127.5 C 822.372,138.02 821.706,148.353 820.5,158.5C 820.159,147.95 820.825,137.617 822.5,127.5 Z"/></g>
<g><path style="opacity:1" fill="#414140" d="M 147.5,146.5 C 147.573,148.027 146.906,149.027 145.5,149.5C 145.427,147.973 146.094,146.973 147.5,146.5 Z"/></g>
<g><path style="opacity:1" fill="#d2cecc" d="M 332.5,112.5 C 334.587,113.585 335.92,115.251 336.5,117.5C 338.018,125.915 337.684,134.249 335.5,142.5C 335.104,145.721 333.771,148.388 331.5,150.5C 329.205,149.864 327.539,148.531 326.5,146.5C 327.306,145.003 327.972,143.336 328.5,141.5C 328.154,140.304 327.654,140.304 327,141.5C 327.024,137.588 325.19,135.255 321.5,134.5C 321.389,133.883 321.056,133.383 320.5,133C 316.973,132.192 313.64,132.359 310.5,133.5C 305.941,135.391 302.274,138.391 299.5,142.5C 298.07,144.455 298.403,146.121 300.5,147.5C 302.452,150.118 304.785,152.452 307.5,154.5C 309.159,156.343 311.325,157.343 314,157.5C 316.399,157.387 318.232,156.387 319.5,154.5C 321.736,153.611 323.736,152.278 325.5,150.5C 327.756,151.421 328.756,153.088 328.5,155.5C 327.373,156.122 326.373,156.955 325.5,158C 327.391,158.203 329.057,157.703 330.5,156.5C 332.553,156.598 334.22,155.931 335.5,154.5C 337.404,154.262 338.738,153.262 339.5,151.5C 342.167,150.833 343.833,149.167 344.5,146.5C 344.833,146.5 345.167,146.5 345.5,146.5C 347.757,146.962 349.757,147.962 351.5,149.5C 346.581,149.982 346.581,151.149 351.5,153C 349.699,153.317 349.366,153.984 350.5,155C 349.151,155.772 348.318,156.939 348,158.5C 347.667,158.167 347.333,157.833 347,157.5C 346.51,158.793 346.343,160.127 346.5,161.5C 346.5,162.167 346.167,162.5 345.5,162.5C 343.833,163.5 342.5,164.833 341.5,166.5C 341.027,167.906 340.027,168.573 338.5,168.5C 337.504,168.586 336.671,168.252 336,167.5C 334.941,169.659 333.441,171.326 331.5,172.5C 329.485,173.924 327.152,174.59 324.5,174.5C 318.388,174.225 313.055,174.225 308.5,174.5C 306.337,176.083 304.004,177.416 301.5,178.5C 298.11,178.115 295.777,179.448 294.5,182.5C 293.791,183.404 292.791,183.737 291.5,183.5C 288.654,183.552 286.32,184.552 284.5,186.5C 283.292,187.234 281.959,187.567 280.5,187.5C 279.5,187.5 278.5,187.5 277.5,187.5C 277.5,188.833 277.5,190.167 277.5,191.5C 277.768,193.099 277.434,194.432 276.5,195.5C 274.018,197.503 273.018,200.169 273.5,203.5C 272.903,208.017 271.237,212.017 268.5,215.5C 266.929,216.197 265.429,216.53 264,216.5C 263.647,217.672 263.813,218.838 264.5,220C 262.571,221.694 261.571,223.861 261.5,226.5C 261.167,227.5 260.5,228.167 259.5,228.5C 258.007,224.588 257.34,224.921 257.5,229.5C 255.208,229.756 253.041,229.423 251,228.5C 249.968,230.027 248.801,231.36 247.5,232.5C 241.658,233.025 235.825,233.691 230,234.5C 227.879,234.302 226.046,233.636 224.5,232.5C 223.478,231.108 223.811,229.775 225.5,228.5C 229.728,225.887 234.061,223.554 238.5,221.5C 240.027,221.573 241.027,220.906 241.5,219.5C 246.326,216.252 251.326,213.252 256.5,210.5C 258.027,210.573 259.027,209.906 259.5,208.5C 261.749,207.92 263.415,206.587 264.5,204.5C 265.864,202.809 267.197,201.142 268.5,199.5C 271.167,197.5 271.167,195.5 268.5,193.5C 264.14,195.841 259.473,197.175 254.5,197.5C 251.514,197.618 248.848,196.952 246.5,195.5C 246.027,194.094 245.027,193.427 243.5,193.5C 241.738,192.738 240.738,191.404 240.5,189.5C 240.167,186.167 239.833,182.833 239.5,179.5C 239.733,176.458 240.733,173.792 242.5,171.5C 244.585,169.316 245.585,166.649 245.5,163.5C 245.5,163.167 245.5,162.833 245.5,162.5C 247.99,159.374 249.323,155.708 249.5,151.5C 250.219,149.112 251.885,147.612 254.5,147C 259.136,146.061 263.469,146.561 267.5,148.5C 268.326,150.264 269.659,151.598 271.5,152.5C 271.427,154.027 272.094,155.027 273.5,155.5C 274.338,155.842 274.672,156.508 274.5,157.5C 274.69,160.855 275.69,163.855 277.5,166.5C 277.5,167.833 277.5,169.167 277.5,170.5C 279.099,170.768 280.432,170.434 281.5,169.5C 285.557,169.152 289.557,168.486 293.5,167.5C 293.715,165.821 293.048,164.821 291.5,164.5C 290.069,163.22 289.402,161.553 289.5,159.5C 289.268,153.378 289.935,147.378 291.5,141.5C 292.659,137.849 294.326,134.515 296.5,131.5C 298.262,130.738 299.262,129.404 299.5,127.5C 301.262,126.738 302.262,125.404 302.5,123.5C 305.5,121.167 308.167,118.5 310.5,115.5C 312.404,115.262 313.738,114.262 314.5,112.5C 320.508,111.226 326.508,111.226 332.5,112.5 Z M 310.5,133.5 C 314.234,133.323 317.901,133.656 321.5,134.5C 324.716,137.807 326.383,141.807 326.5,146.5C 324.196,149.141 321.862,151.808 319.5,154.5C 317.742,154.877 316.075,155.544 314.5,156.5C 312.199,155.675 309.865,155.008 307.5,154.5C 304.785,152.452 302.452,150.118 300.5,147.5C 299.962,145.883 299.629,144.216 299.5,142.5C 302.274,138.391 305.941,135.391 310.5,133.5 Z"/></g>
<g><path style="opacity:1" fill="#918f8d" d="M 326.5,146.5 C 327.539,148.531 329.205,149.864 331.5,150.5C 330.89,152.434 329.89,154.101 328.5,155.5C 328.756,153.088 327.756,151.421 325.5,150.5C 323.736,152.278 321.736,153.611 319.5,154.5C 321.862,151.808 324.196,149.141 326.5,146.5 Z"/></g>
<g><path style="opacity:1" fill="#282620" d="M 299.5,142.5 C 299.629,144.216 299.962,145.883 300.5,147.5C 298.403,146.121 298.07,144.455 299.5,142.5 Z"/></g>
<g><path style="opacity:1" fill="#706f6e" d="M 321.5,134.5 C 325.19,135.255 327.024,137.588 327,141.5C 327.654,140.304 328.154,140.304 328.5,141.5C 327.972,143.336 327.306,145.003 326.5,146.5C 326.383,141.807 324.716,137.807 321.5,134.5 Z"/></g>
<g><path style="opacity:1" fill="#242322" d="M 310.5,133.5 C 313.64,132.359 316.973,132.192 320.5,133C 321.056,133.383 321.389,133.883 321.5,134.5C 317.901,133.656 314.234,133.323 310.5,133.5 Z"/></g>
<g><path style="opacity:1" fill="#403d3c" d="M 267.5,148.5 C 269.773,148.957 271.106,150.29 271.5,152.5C 269.659,151.598 268.326,150.264 267.5,148.5 Z"/></g>
<g><path style="opacity:1" fill="#555452" d="M 344.5,146.5 C 343.833,149.167 342.167,150.833 339.5,151.5C 340.833,149.5 342.5,147.833 344.5,146.5 Z"/></g>
<g><path style="opacity:1" fill="#565451" d="M 395.5,144.5 C 396.124,144.917 396.457,145.584 396.5,146.5C 395.565,149.471 394.732,152.471 394,155.5C 393.617,156.056 393.117,156.389 392.5,156.5C 393.5,152.5 394.5,148.5 395.5,144.5 Z"/></g>
<g><path style="opacity:1" fill="#424140" d="M 870.5,106.5 C 870.328,125.837 869.995,145.17 869.5,164.5C 868.566,163.432 868.232,162.099 868.5,160.5C 868.554,142.32 869.221,124.32 870.5,106.5 Z"/></g>
<g><path style="opacity:1" fill="#3a3939" d="M 291.5,141.5 C 289.935,147.378 289.268,153.378 289.5,159.5C 287.853,153.272 288.52,147.272 291.5,141.5 Z"/></g>
<g><path style="opacity:1" fill="#3a3a39" d="M 339.5,151.5 C 338.738,153.262 337.404,154.262 335.5,154.5C 336.262,152.738 337.596,151.738 339.5,151.5 Z"/></g>
<g><path style="opacity:1" fill="#363534" d="M 402.5,144.5 C 404.539,152.111 404.872,159.777 403.5,167.5C 403.32,159.825 402.986,152.158 402.5,144.5 Z"/></g>
<g><path style="opacity:1" fill="#282828" d="M 202.5,118.5 C 202.001,123.492 201.501,128.492 201,133.5C 200.5,160.831 200.333,188.165 200.5,215.5C 199.336,187.336 199.17,159.003 200,130.5C 200.189,126.233 201.023,122.233 202.5,118.5 Z"/></g>
<g><path style="opacity:1" fill="#424242" d="M 271.5,152.5 C 272.906,152.973 273.573,153.973 273.5,155.5C 272.094,155.027 271.427,154.027 271.5,152.5 Z"/></g>
<g><path style="opacity:1" fill="#1e1e1e" d="M 335.5,154.5 C 334.22,155.931 332.553,156.598 330.5,156.5C 331.78,155.069 333.447,154.402 335.5,154.5 Z"/></g>
<g><path style="opacity:1" fill="#4c4b4b" d="M 135.5,156.5 C 134.207,157.158 132.707,157.492 131,157.5C 126.301,156.11 121.467,155.443 116.5,155.5C 110.618,155.466 104.951,156.466 99.5,158.5C 104.571,155.209 110.238,153.542 116.5,153.5C 122.808,154.83 129.141,155.83 135.5,156.5 Z"/></g>
<g><path style="opacity:1" fill="#151515" d="M 139.5,154.5 C 138.713,156.104 137.38,156.771 135.5,156.5C 136.514,155.326 137.847,154.66 139.5,154.5 Z"/></g>
<g><path style="opacity:1" fill="#2b2a27" d="M 307.5,154.5 C 309.865,155.008 312.199,155.675 314.5,156.5C 316.075,155.544 317.742,154.877 319.5,154.5C 318.232,156.387 316.399,157.387 314,157.5C 311.325,157.343 309.159,156.343 307.5,154.5 Z"/></g>
<g><path style="opacity:1" fill="#171715" d="M 328.5,155.5 C 328.842,156.338 329.508,156.672 330.5,156.5C 329.057,157.703 327.391,158.203 325.5,158C 326.373,156.955 327.373,156.122 328.5,155.5 Z"/></g>
<g><path style="opacity:1" fill="#6c6765" d="M 249.5,151.5 C 249.323,155.708 247.99,159.374 245.5,162.5C 246.065,158.463 247.399,154.797 249.5,151.5 Z"/></g>
<g><path style="opacity:1" fill="#393939" d="M 809.5,148.5 C 809.665,152.182 809.499,155.848 809,159.5C 808.768,160.737 808.268,161.737 807.5,162.5C 807.911,157.662 808.578,152.995 809.5,148.5 Z"/></g>
<g><path style="opacity:1" fill="#413f3c" d="M 99.5,158.5 C 99.0269,159.906 98.0269,160.573 96.5,160.5C 96.9731,159.094 97.9731,158.427 99.5,158.5 Z"/></g>
<g><path style="opacity:1" fill="#757473" d="M 274.5,157.5 C 276.585,159.684 277.585,162.351 277.5,165.5C 277.5,165.833 277.5,166.167 277.5,166.5C 275.69,163.855 274.69,160.855 274.5,157.5 Z"/></g>
<g><path style="opacity:1" fill="#615f5e" d="M 96.5,160.5 C 94.7607,163.243 92.4274,165.243 89.5,166.5C 91.2393,163.757 93.5726,161.757 96.5,160.5 Z"/></g>
<g><path style="opacity:1" fill="#cbc7c6" d="M 365.5,49.5 C 365.335,52.5184 365.502,55.5184 366,58.5C 366.278,59.4158 366.778,60.0825 367.5,60.5C 368.301,62.0418 368.634,63.7085 368.5,65.5C 368.47,70.0785 369.804,74.0785 372.5,77.5C 375.737,83.643 378.737,89.9764 381.5,96.5C 381.427,98.0269 382.094,99.0269 383.5,99.5C 383.229,101.38 383.896,102.713 385.5,103.5C 391.759,112.689 396.426,122.689 399.5,133.5C 399.41,136.152 400.076,138.485 401.5,140.5C 402.434,141.568 402.768,142.901 402.5,144.5C 402.986,152.158 403.32,159.825 403.5,167.5C 402.723,176.331 400.223,184.665 396,192.5C 392.902,196.107 389.402,199.107 385.5,201.5C 374.626,203.087 363.959,205.087 353.5,207.5C 351.626,208.285 349.626,208.952 347.5,209.5C 345.393,208.532 343.059,208.198 340.5,208.5C 340.392,206.486 341.058,204.82 342.5,203.5C 348.461,200.519 354.461,197.519 360.5,194.5C 362.027,194.573 363.027,193.906 363.5,192.5C 365.027,192.573 366.027,191.906 366.5,190.5C 368.404,190.262 369.738,189.262 370.5,187.5C 373.833,183.5 377.5,179.833 381.5,176.5C 382.906,176.027 383.573,175.027 383.5,173.5C 384.906,173.027 385.573,172.027 385.5,170.5C 386.906,170.027 387.573,169.027 387.5,167.5C 388.766,166.91 390.099,166.41 391.5,166C 391.043,165.586 390.709,165.086 390.5,164.5C 392.055,162.057 392.722,159.39 392.5,156.5C 393.117,156.389 393.617,156.056 394,155.5C 394.732,152.471 395.565,149.471 396.5,146.5C 396.457,145.584 396.124,144.917 395.5,144.5C 395.573,142.973 394.906,141.973 393.5,141.5C 391.11,140.109 389.443,138.109 388.5,135.5C 388.573,133.973 387.906,132.973 386.5,132.5C 385.833,132.5 385.5,132.167 385.5,131.5C 385.446,129.368 384.446,128.035 382.5,127.5C 381.662,127.158 381.328,126.492 381.5,125.5C 381.123,123.742 380.456,122.075 379.5,120.5C 379.833,119.833 380.167,119.167 380.5,118.5C 378.861,117.678 377.195,117.011 375.5,116.5C 375.36,114.876 376.027,113.71 377.5,113C 376.167,112.333 374.833,111.667 373.5,111C 373.833,110.667 374.167,110.333 374.5,110C 373.552,109.517 372.552,109.351 371.5,109.5C 370.326,108.486 369.66,107.153 369.5,105.5C 368.372,101.91 366.705,98.5766 364.5,95.5C 363.503,102.468 363.17,109.468 363.5,116.5C 363.81,123.615 362.477,130.282 359.5,136.5C 356.752,137.884 356.086,139.884 357.5,142.5C 356.603,141.402 355.77,141.402 355,142.5C 354.261,144.221 353.427,145.887 352.5,147.5C 351.667,146.5 350.833,145.5 350,144.5C 349.667,145.167 349.333,145.833 349,146.5C 348.329,145.748 347.496,145.414 346.5,145.5C 346.5,144.833 346.5,144.167 346.5,143.5C 347.75,143.423 348.583,142.756 349,141.5C 349.494,139.866 349.66,138.199 349.5,136.5C 349.333,119.83 349.5,103.163 350,86.5C 350.183,83.6353 350.683,80.9686 351.5,78.5C 352.469,76.337 353.302,74.0037 354,71.5C 355.067,70.8095 356.234,70.3095 357.5,70C 356.549,66.9433 356.216,63.7766 356.5,60.5C 356.796,58.597 357.463,56.9303 358.5,55.5C 360.074,53.8984 360.741,51.8984 360.5,49.5C 362.167,48.1667 363.833,48.1667 365.5,49.5 Z"/></g>
<g><path style="opacity:1" fill="#232222" d="M 393.5,141.5 C 394.906,141.973 395.573,142.973 395.5,144.5C 394.094,144.027 393.427,143.027 393.5,141.5 Z"/></g>
<g><path style="opacity:1" fill="#70706e" d="M 359.5,136.5 C 359.405,138.786 358.738,140.786 357.5,142.5C 356.086,139.884 356.752,137.884 359.5,136.5 Z"/></g>
<g><path style="opacity:1" fill="#202020" d="M 386.5,132.5 C 387.906,132.973 388.573,133.973 388.5,135.5C 387.094,135.027 386.427,134.027 386.5,132.5 Z"/></g>
<g><path style="opacity:1" fill="#333331" d="M 382.5,127.5 C 384.446,128.035 385.446,129.368 385.5,131.5C 384.026,130.564 383.026,129.23 382.5,127.5 Z"/></g>
<g><path style="opacity:1" fill="#868585" d="M 375.5,116.5 C 377.195,117.011 378.861,117.678 380.5,118.5C 380.167,119.167 379.833,119.833 379.5,120.5C 380.456,122.075 381.123,123.742 381.5,125.5C 379.255,122.68 377.255,119.68 375.5,116.5 Z"/></g>
<g><path style="opacity:1" fill="#8b8986" d="M 371.5,109.5 C 372.552,109.351 373.552,109.517 374.5,110C 374.167,110.333 373.833,110.667 373.5,111C 374.833,111.667 376.167,112.333 377.5,113C 376.027,113.71 375.36,114.876 375.5,116.5C 373.917,114.337 372.584,112.004 371.5,109.5 Z"/></g>
<g><path style="opacity:1" fill="#262423" d="M 369.5,105.5 C 367.946,104.086 366.612,102.419 365.5,100.5C 364.833,105.985 364.167,111.319 363.5,116.5C 363.17,109.468 363.503,102.468 364.5,95.5C 366.705,98.5766 368.372,101.91 369.5,105.5 Z"/></g>
<g><path style="opacity:1" fill="#232222" d="M 345.5,162.5 C 345.167,164.833 343.833,166.167 341.5,166.5C 342.5,164.833 343.833,163.5 345.5,162.5 Z"/></g>
<g><path style="opacity:1" fill="#8f8e8d" d="M 392.5,156.5 C 392.722,159.39 392.055,162.057 390.5,164.5C 390.709,165.086 391.043,165.586 391.5,166C 390.099,166.41 388.766,166.91 387.5,167.5C 388.93,163.646 390.597,159.979 392.5,156.5 Z"/></g>
<g><path style="opacity:1" fill="#6c6c6a" d="M 338.5,168.5 C 336.66,170.669 334.326,172.002 331.5,172.5C 333.441,171.326 334.941,169.659 336,167.5C 336.671,168.252 337.504,168.586 338.5,168.5 Z"/></g>
<g><path style="opacity:1" fill="#696868" d="M 868.5,160.5 C 868.232,162.099 868.566,163.432 869.5,164.5C 869.5,170.167 869.5,175.833 869.5,181.5C 868.778,181.082 868.278,180.416 868,179.5C 867.18,172.986 867.347,166.653 868.5,160.5 Z"/></g>
<g><path style="opacity:1" fill="#605f5b" d="M 245.5,163.5 C 245.585,166.649 244.585,169.316 242.5,171.5C 242.733,168.458 243.733,165.792 245.5,163.5 Z"/></g>
<g><path style="opacity:1" fill="#484846" d="M 291.5,164.5 C 293.048,164.821 293.715,165.821 293.5,167.5C 289.557,168.486 285.557,169.152 281.5,169.5C 283.877,168.113 286.543,167.279 289.5,167C 290.756,166.583 291.423,165.75 291.5,164.5 Z"/></g>
<g><path style="opacity:1" fill="#757575" d="M 89.5,166.5 C 88.7659,167.708 88.4326,169.041 88.5,170.5C 87.5,170.5 86.5,170.5 85.5,170.5C 86.1667,168.5 87.5,167.167 89.5,166.5 Z"/></g>
<g><path style="opacity:1" fill="#252423" d="M 277.5,165.5 C 278.434,166.568 278.768,167.901 278.5,169.5C 279.5,169.5 280.5,169.5 281.5,169.5C 280.432,170.434 279.099,170.768 277.5,170.5C 277.5,169.167 277.5,167.833 277.5,166.5C 277.5,166.167 277.5,165.833 277.5,165.5 Z"/></g>
<g><path style="opacity:1" fill="#373737" d="M 387.5,167.5 C 387.573,169.027 386.906,170.027 385.5,170.5C 385.427,168.973 386.094,167.973 387.5,167.5 Z"/></g>
<g><path style="opacity:1" fill="#323131" d="M 385.5,170.5 C 385.573,172.027 384.906,173.027 383.5,173.5C 383.427,171.973 384.094,170.973 385.5,170.5 Z"/></g>
<g><path style="opacity:1" fill="#575655" d="M 85.5,170.5 C 84.5806,173.089 82.914,175.089 80.5,176.5C 81.4194,173.911 83.086,171.911 85.5,170.5 Z"/></g>
<g><path style="opacity:1" fill="#666462" d="M 142.5,173.5 C 141.145,176.855 138.811,179.189 135.5,180.5C 136.68,178.986 137.68,177.319 138.5,175.5C 139.524,174.147 140.857,173.48 142.5,173.5 Z"/></g>
<g><path style="opacity:1" fill="#3e3b3a" d="M 324.5,174.5 C 319.266,175.802 313.933,175.802 308.5,174.5C 313.055,174.225 318.388,174.225 324.5,174.5 Z"/></g>
<g><path style="opacity:1" fill="#444440" d="M 383.5,173.5 C 383.573,175.027 382.906,176.027 381.5,176.5C 381.427,174.973 382.094,173.973 383.5,173.5 Z"/></g>
<g><path style="opacity:1" fill="#555452" d="M 80.5,176.5 C 80.2624,178.404 79.2624,179.738 77.5,180.5C 77.7376,178.596 78.7376,177.262 80.5,176.5 Z"/></g>
<g><path style="opacity:1" fill="#636261" d="M 301.5,178.5 C 299.664,180.588 297.331,181.921 294.5,182.5C 295.777,179.448 298.11,178.115 301.5,178.5 Z"/></g>
<g><path style="opacity:1" fill="#7a7776" d="M 803.5,175.5 C 802.5,178.5 800.5,180.5 797.5,181.5C 799.167,179.167 801.167,177.167 803.5,175.5 Z"/></g>
<g><path style="opacity:1" fill="#2f2624" d="M 239.5,179.5 C 239.833,182.833 240.167,186.167 240.5,189.5C 238.624,186.263 238.29,182.93 239.5,179.5 Z"/></g>
<g><path style="opacity:1" fill="#3e3c3a" d="M 907.5,179.5 C 909.262,180.262 910.262,181.596 910.5,183.5C 908.738,182.738 907.738,181.404 907.5,179.5 Z"/></g>
<g><path style="opacity:1" fill="#494946" d="M 77.5,180.5 C 77.573,182.027 76.9063,183.027 75.5,183.5C 75.427,181.973 76.0937,180.973 77.5,180.5 Z"/></g>
<g><path style="opacity:1" fill="#151515" d="M 114.5,184.5 C 108.797,184.375 103.13,184.708 97.5,185.5C 100.526,183.981 103.859,183.315 107.5,183.5C 110.025,183.503 112.359,183.837 114.5,184.5 Z"/></g>
<g><path style="opacity:1" fill="#4b4a49" d="M 131.5,183.5 C 128.814,184.991 125.814,185.657 122.5,185.5C 120.304,185.495 118.304,185.162 116.5,184.5C 121.537,184.587 126.537,184.254 131.5,183.5 Z"/></g>
<g><path style="opacity:1" fill="#222220" d="M 291.5,183.5 C 289.491,185.065 287.157,186.065 284.5,186.5C 286.32,184.552 288.654,183.552 291.5,183.5 Z"/></g>
<g><path style="opacity:1" fill="#4e4b4a" d="M 797.5,181.5 C 796.415,183.587 794.749,184.92 792.5,185.5C 793.585,183.413 795.251,182.08 797.5,181.5 Z"/></g>
<g><path style="opacity:1" fill="#3a3a39" d="M 792.5,185.5 C 792.027,186.906 791.027,187.573 789.5,187.5C 789.973,186.094 790.973,185.427 792.5,185.5 Z"/></g>
<g><path style="opacity:1" fill="#939191" d="M 94.5,186.5 C 90.9026,188.756 87.5693,191.423 84.5,194.5C 84.1667,194.5 83.8333,194.5 83.5,194.5C 83.0825,193.778 82.4158,193.278 81.5,193C 82.7932,192.51 84.1266,192.343 85.5,192.5C 85.6307,186.191 88.6307,184.191 94.5,186.5 Z"/></g>
<g><path style="opacity:1" fill="#4b4b4a" d="M 73.5,186.5 C 73.2624,188.404 72.2624,189.738 70.5,190.5C 70.7376,188.596 71.7376,187.262 73.5,186.5 Z"/></g>
<g><path style="opacity:1" fill="#010101" d="M 280.5,187.5 C 279.341,188.74 278.341,190.074 277.5,191.5C 277.5,190.167 277.5,188.833 277.5,187.5C 278.5,187.5 279.5,187.5 280.5,187.5 Z"/></g>
<g><path style="opacity:1" fill="#4f4e4e" d="M 370.5,187.5 C 369.738,189.262 368.404,190.262 366.5,190.5C 367.262,188.738 368.596,187.738 370.5,187.5 Z"/></g>
<g><path style="opacity:1" fill="#4c4a48" d="M 894.5,178.5 C 893.768,184.094 892.435,189.427 890.5,194.5C 890.917,188.83 892.251,183.497 894.5,178.5 Z"/></g>
<g><path style="opacity:1" fill="#080606" d="M 806.5,189.5 C 807.477,192.287 807.81,195.287 807.5,198.5C 806.549,197.081 806.216,195.415 806.5,193.5C 805.167,192.167 805.167,190.833 806.5,189.5 Z"/></g>
<g><path style="opacity:1" fill="#414141" d="M 366.5,190.5 C 366.027,191.906 365.027,192.573 363.5,192.5C 363.973,191.094 364.973,190.427 366.5,190.5 Z"/></g>
<g><path style="opacity:1" fill="#2c2c2b" d="M 70.5,190.5 C 70.573,192.027 69.9063,193.027 68.5,193.5C 68.427,191.973 69.0937,190.973 70.5,190.5 Z"/></g>
<g><path style="opacity:1" fill="#626160" d="M 784.5,190.5 C 783.694,191.728 782.694,192.728 781.5,193.5C 779.565,194.15 777.565,194.483 775.5,194.5C 778.088,192.408 781.088,191.075 784.5,190.5 Z"/></g>
<g><path style="opacity:1" fill="#706e6d" d="M 809.5,211.5 C 807.946,207.433 807.28,203.1 807.5,198.5C 807.81,195.287 807.477,192.287 806.5,189.5C 806.987,188.527 807.487,187.527 808,186.5C 808.378,194.848 808.878,203.181 809.5,211.5 Z"/></g>
<g><path style="opacity:1" fill="#474746" d="M 872.5,190.5 C 873.906,190.973 874.573,191.973 874.5,193.5C 873.094,193.027 872.427,192.027 872.5,190.5 Z"/></g>
<g><path style="opacity:1" fill="#40403e" d="M 363.5,192.5 C 363.027,193.906 362.027,194.573 360.5,194.5C 360.973,193.094 361.973,192.427 363.5,192.5 Z"/></g>
<g><path style="opacity:1" fill="#40403d" d="M 243.5,193.5 C 245.027,193.427 246.027,194.094 246.5,195.5C 244.973,195.573 243.973,194.906 243.5,193.5 Z"/></g>
<g><path style="opacity:1" fill="#1e1e1c" d="M 875.5,194.5 C 877.027,194.427 878.027,195.094 878.5,196.5C 876.973,196.573 875.973,195.906 875.5,194.5 Z"/></g>
<g><path style="opacity:1" fill="#1c1c1c" d="M 83.5,194.5 C 83.8333,194.5 84.1667,194.5 84.5,194.5C 83.8333,195.833 82.8333,196.833 81.5,197.5C 81.427,195.973 82.0937,194.973 83.5,194.5 Z"/></g>
<g><path style="opacity:1" fill="#504f4e" d="M 268.5,193.5 C 271.167,195.5 271.167,197.5 268.5,199.5C 269.38,197.611 269.38,195.611 268.5,193.5 Z"/></g>
<g><path style="opacity:1" fill="#5f5f5e" d="M 775.5,194.5 C 774.01,196.28 772.01,196.946 769.5,196.5C 771.214,195.262 773.214,194.595 775.5,194.5 Z"/></g>
<g><path style="opacity:1" fill="#1d1d1b" d="M 803.5,195.5 C 803.573,197.027 802.906,198.027 801.5,198.5C 801.427,196.973 802.094,195.973 803.5,195.5 Z"/></g>
<g><path style="opacity:1" fill="#41413e" d="M 67.5,195.5 C 67.2624,197.404 66.2624,198.738 64.5,199.5C 64.7376,197.596 65.7376,196.262 67.5,195.5 Z"/></g>
<g><path style="opacity:1" fill="#d5d0cf" d="M 781.5,193.5 C 783.379,193.393 783.712,193.893 782.5,195C 783.406,197.447 784.239,199.947 785,202.5C 786,201.833 787,201.167 788,200.5C 789.487,201.253 789.654,202.086 788.5,203C 793.371,205.255 793.371,206.422 788.5,206.5C 788.5,207.5 788.5,208.5 788.5,209.5C 788.5,210.167 788.167,210.5 787.5,210.5C 783.747,209.773 781.081,211.107 779.5,214.5C 777.273,213.737 775.94,214.737 775.5,217.5C 773.151,219.341 770.485,220.674 767.5,221.5C 765.447,221.402 763.78,222.069 762.5,223.5C 759.458,223.733 756.792,224.733 754.5,226.5C 744.317,228.878 734.317,231.544 724.5,234.5C 718.977,236.137 713.31,237.137 707.5,237.5C 703.236,237.344 699.236,238.011 695.5,239.5C 680.981,240.774 666.648,242.441 652.5,244.5C 651.833,244.5 651.167,244.5 650.5,244.5C 636.994,244.813 623.66,245.479 610.5,246.5C 576.47,246.926 542.47,246.26 508.5,244.5C 503.552,242.754 498.552,242.421 493.5,243.5C 491.374,242.952 489.374,242.285 487.5,241.5C 482.722,239.721 477.722,238.387 472.5,237.5C 471.22,236.069 469.553,235.402 467.5,235.5C 466.508,235.672 465.842,235.338 465.5,234.5C 464.738,232.738 463.404,231.738 461.5,231.5C 459.833,230.5 458.5,229.167 457.5,227.5C 457.573,225.973 456.906,224.973 455.5,224.5C 455.34,222.847 454.674,221.514 453.5,220.5C 450.787,214.886 449.954,208.886 451,202.5C 451.383,201.944 451.883,201.611 452.5,201.5C 453.583,201.461 454.583,201.127 455.5,200.5C 458.212,202.26 461.212,202.927 464.5,202.5C 466.438,204.163 468.772,204.829 471.5,204.5C 473.415,204.216 475.081,204.549 476.5,205.5C 481.106,207.876 486.106,208.876 491.5,208.5C 509.163,212.289 527.163,214.289 545.5,214.5C 558.797,216.044 572.297,216.711 586,216.5C 596.006,216.5 605.839,216.166 615.5,215.5C 643.87,214.45 672.203,212.783 700.5,210.5C 707.829,210.871 714.829,209.871 721.5,207.5C 724.096,206.735 726.763,206.401 729.5,206.5C 739.848,205.167 749.848,202.834 759.5,199.5C 763.286,199.68 766.619,198.68 769.5,196.5C 772.01,196.946 774.01,196.28 775.5,194.5C 777.565,194.483 779.565,194.15 781.5,193.5 Z"/></g>
<g><path style="opacity:1" fill="#535351" d="M 769.5,196.5 C 766.619,198.68 763.286,199.68 759.5,199.5C 762.619,198.13 765.952,197.13 769.5,196.5 Z"/></g>
<g><path style="opacity:1" fill="#2f2d2d" d="M 890.5,194.5 C 890.714,196.144 890.38,197.644 889.5,199C 885.862,199.25 882.362,199.417 879,199.5C 878.517,198.552 878.351,197.552 878.5,196.5C 881.645,198.191 884.979,198.691 888.5,198C 889.085,196.698 889.751,195.531 890.5,194.5 Z"/></g>
<g><path style="opacity:1" fill="#585857" d="M 276.5,195.5 C 276.585,198.649 275.585,201.316 273.5,203.5C 273.018,200.169 274.018,197.503 276.5,195.5 Z"/></g>
<g><path style="opacity:1" fill="#212120" d="M 911.5,196.5 C 911.59,199.152 910.924,201.485 909.5,203.5C 909.41,200.848 910.076,198.515 911.5,196.5 Z"/></g>
<g><path style="opacity:1" fill="#2f2f2f" d="M 759.5,199.5 C 749.848,202.834 739.848,205.167 729.5,206.5C 739.27,203.676 749.27,201.342 759.5,199.5 Z"/></g>
<g><path style="opacity:1" fill="#656362" d="M 464.5,202.5 C 461.212,202.927 458.212,202.26 455.5,200.5C 454.583,201.127 453.583,201.461 452.5,201.5C 452.962,200.12 453.962,199.453 455.5,199.5C 458.677,200.337 461.677,201.337 464.5,202.5 Z"/></g>
<g><path style="opacity:1" fill="#494949" d="M 850.5,198.5 C 849.833,201.167 848.167,202.833 845.5,203.5C 846.833,201.5 848.5,199.833 850.5,198.5 Z"/></g>
<g><path style="opacity:1" fill="#2a2a27" d="M 464.5,202.5 C 467.067,202.721 469.401,203.388 471.5,204.5C 468.772,204.829 466.438,204.163 464.5,202.5 Z"/></g>
<g><path style="opacity:1" fill="#41413d" d="M 264.5,204.5 C 263.415,206.587 261.749,207.92 259.5,208.5C 260.585,206.413 262.251,205.08 264.5,204.5 Z"/></g>
<g><path style="opacity:1" fill="#414141" d="M 342.5,203.5 C 341.058,204.82 340.392,206.486 340.5,208.5C 343.059,208.198 345.393,208.532 347.5,209.5C 344.552,209.777 341.719,209.444 339,208.5C 338.36,205.632 339.527,203.965 342.5,203.5 Z"/></g>
<g><path style="opacity:1" fill="#33312e" d="M 385.5,201.5 C 383.524,203.011 381.191,203.844 378.5,204C 370.189,205.402 361.856,206.568 353.5,207.5C 363.959,205.087 374.626,203.087 385.5,201.5 Z"/></g>
<g><path style="opacity:1" fill="#1c1c1b" d="M 476.5,205.5 C 481.696,206.139 486.696,207.139 491.5,208.5C 486.106,208.876 481.106,207.876 476.5,205.5 Z"/></g>
<g><path style="opacity:1" fill="#a7a4a3" d="M 73.5,207.5 C 71.6465,211.221 69.3131,214.554 66.5,217.5C 66.8511,215.131 67.0178,212.797 67,210.5C 66.3333,211.833 65.6667,211.833 65,210.5C 64.3333,209.5 64.3333,208.5 65,207.5C 66.1369,208.364 67.4702,209.364 69,210.5C 69.7504,209.874 70.5838,209.374 71.5,209C 71.1667,208.667 70.8333,208.333 70.5,208C 71.448,207.517 72.448,207.351 73.5,207.5 Z"/></g>
<g><path style="opacity:1" fill="#262424" d="M 491.5,208.5 C 509.632,210.589 527.632,212.589 545.5,214.5C 527.163,214.289 509.163,212.289 491.5,208.5 Z"/></g>
<g><path style="opacity:1" fill="#4d4d4c" d="M 259.5,208.5 C 259.027,209.906 258.027,210.573 256.5,210.5C 256.973,209.094 257.973,208.427 259.5,208.5 Z"/></g>
<g><path style="opacity:1" fill="#383836" d="M 721.5,207.5 C 714.829,209.871 707.829,210.871 700.5,210.5C 707.308,209.105 714.308,208.105 721.5,207.5 Z"/></g>
<g><path style="opacity:1" fill="#141412" d="M 859.5,210.5 C 858.833,210.833 858.167,211.167 857.5,211.5C 858.032,208.54 858.699,208.207 859.5,210.5 Z"/></g>
<g><path style="opacity:1" fill="#848382" d="M 787.5,210.5 C 784.024,213.623 780.024,215.957 775.5,217.5C 775.94,214.737 777.273,213.737 779.5,214.5C 781.081,211.107 783.747,209.773 787.5,210.5 Z"/></g>
<g><path style="opacity:1" fill="#737271" d="M 59.5,208.5 C 58.5977,213.105 56.2643,216.772 52.5,219.5C 54.4462,215.561 56.7795,211.894 59.5,208.5 Z"/></g>
<g><path style="opacity:1" fill="#242424" d="M 859.5,210.5 C 860.674,211.514 861.34,212.847 861.5,214.5C 859.896,213.713 859.229,212.38 859.5,210.5 Z"/></g>
<g><path style="opacity:1" fill="#201f1e" d="M 903.5,213.5 C 903.573,215.027 902.906,216.027 901.5,216.5C 901.5,215.833 901.5,215.167 901.5,214.5C 902.167,214.167 902.833,213.833 903.5,213.5 Z"/></g>
<g><path style="opacity:1" fill="#3d3d3b" d="M 545.5,214.5 C 568.827,215.194 592.16,215.528 615.5,215.5C 605.839,216.166 596.006,216.5 586,216.5C 572.297,216.711 558.797,216.044 545.5,214.5 Z"/></g>
<g><path style="opacity:1" fill="#8b8886" d="M 268.5,215.5 C 266.913,219.683 264.579,223.35 261.5,226.5C 261.571,223.861 262.571,221.694 264.5,220C 263.813,218.838 263.647,217.672 264,216.5C 265.429,216.53 266.929,216.197 268.5,215.5 Z"/></g>
<g><path style="opacity:1" fill="#6d6b6c" d="M 809.5,211.5 C 811.673,214.017 812.673,217.017 812.5,220.5C 810.528,217.916 809.528,214.916 809.5,211.5 Z"/></g>
<g><path style="opacity:1" fill="#9b9a99" d="M 901.5,214.5 C 901.5,215.167 901.5,215.833 901.5,216.5C 900.167,218.5 898.5,220.167 896.5,221.5C 894.973,221.427 893.973,222.094 893.5,223.5C 893.158,224.338 892.492,224.672 891.5,224.5C 892.048,223.312 892.381,222.145 892.5,221C 891.833,220.667 891.167,220.333 890.5,220C 892.235,219.349 893.902,219.515 895.5,220.5C 895.849,216.818 897.849,214.818 901.5,214.5 Z"/></g>
<g><path style="opacity:1" fill="#393636" d="M 241.5,219.5 C 241.027,220.906 240.027,221.573 238.5,221.5C 238.973,220.094 239.973,219.427 241.5,219.5 Z"/></g>
<g><path style="opacity:1" fill="#a5a4a3" d="M 129.5,220.5 C 129.427,222.027 130.094,223.027 131.5,223.5C 134.032,224.596 136.365,225.929 138.5,227.5C 135.541,227.65 133.041,226.65 131,224.5C 129.984,225.634 129.317,225.301 129,223.5C 128.667,224.167 128.333,224.833 128,225.5C 126.887,224.695 125.721,224.028 124.5,223.5C 125.098,220.179 126.765,219.179 129.5,220.5 Z"/></g>
<g><path style="opacity:1" fill="#232121" d="M 453.5,220.5 C 454.674,221.514 455.34,222.847 455.5,224.5C 453.896,223.713 453.229,222.38 453.5,220.5 Z"/></g>
<g><path style="opacity:1" fill="#211e1d" d="M 865.5,220.5 C 866.833,221.167 867.833,222.167 868.5,223.5C 866.5,223.5 865.5,222.5 865.5,220.5 Z"/></g>
<g><path style="opacity:1" fill="#353535" d="M 129.5,220.5 C 130.906,220.973 131.573,221.973 131.5,223.5C 130.094,223.027 129.427,222.027 129.5,220.5 Z"/></g>
<g><path style="opacity:1" fill="#272522" d="M 767.5,221.5 C 766.22,222.931 764.553,223.598 762.5,223.5C 763.78,222.069 765.447,221.402 767.5,221.5 Z"/></g>
<g><path style="opacity:1" fill="#141413" d="M 896.5,221.5 C 896.027,222.906 895.027,223.573 893.5,223.5C 893.973,222.094 894.973,221.427 896.5,221.5 Z"/></g>
<g><path style="opacity:1" fill="#535252" d="M 868.5,223.5 C 870.434,224.11 872.101,225.11 873.5,226.5C 871.067,226.727 869.401,225.727 868.5,223.5 Z"/></g>
<g><path style="opacity:1" fill="#1a1a1a" d="M 62.5,224.5 C 62.573,226.027 61.9063,227.027 60.5,227.5C 60.427,225.973 61.0937,224.973 62.5,224.5 Z"/></g>
<g><path style="opacity:1" fill="#1f1f1e" d="M 455.5,224.5 C 456.906,224.973 457.573,225.973 457.5,227.5C 456.094,227.027 455.427,226.027 455.5,224.5 Z"/></g>
<g><path style="opacity:1" fill="#202020" d="M 762.5,223.5 C 760.208,225.267 757.542,226.267 754.5,226.5C 756.792,224.733 759.458,223.733 762.5,223.5 Z"/></g>
<g><path style="opacity:1" fill="#2a2a26" d="M 891.5,224.5 C 890.713,226.104 889.38,226.771 887.5,226.5C 888.514,225.326 889.847,224.66 891.5,224.5 Z"/></g>
<g><path style="opacity:1" fill="#565453" d="M 873.5,226.5 C 878.167,226.5 882.833,226.5 887.5,226.5C 882.849,229.039 878.182,229.039 873.5,226.5 Z"/></g>
<g><path style="opacity:1" fill="#515151" d="M 47.5,226.5 C 47.573,228.027 46.9063,229.027 45.5,229.5C 45.427,227.973 46.0937,226.973 47.5,226.5 Z"/></g>
<g><path style="opacity:1" fill="#d0ccca" d="M 152.5,151.5 C 150.771,159.62 147.438,166.954 142.5,173.5C 140.857,173.48 139.524,174.147 138.5,175.5C 137.68,177.319 136.68,178.986 135.5,180.5C 134.738,182.262 133.404,183.262 131.5,183.5C 126.537,184.254 121.537,184.587 116.5,184.5C 115.833,184.5 115.167,184.5 114.5,184.5C 112.359,183.837 110.025,183.503 107.5,183.5C 103.859,183.315 100.526,183.981 97.5,185.5C 96.791,186.404 95.791,186.737 94.5,186.5C 88.6307,184.191 85.6307,186.191 85.5,192.5C 84.1266,192.343 82.7932,192.51 81.5,193C 82.4158,193.278 83.0825,193.778 83.5,194.5C 82.0937,194.973 81.427,195.973 81.5,197.5C 78.8225,200.873 76.1558,204.206 73.5,207.5C 72.448,207.351 71.448,207.517 70.5,208C 70.8333,208.333 71.1667,208.667 71.5,209C 70.5838,209.374 69.7504,209.874 69,210.5C 67.4702,209.364 66.1369,208.364 65,207.5C 64.3333,208.5 64.3333,209.5 65,210.5C 65.6667,211.833 66.3333,211.833 67,210.5C 67.0178,212.797 66.8511,215.131 66.5,217.5C 65.4161,220.004 64.0828,222.337 62.5,224.5C 61.0937,224.973 60.427,225.973 60.5,227.5C 60.5,228.167 60.1667,228.5 59.5,228.5C 55.492,230.173 53.492,233.173 53.5,237.5C 52.5514,239.777 51.2181,241.777 49.5,243.5C 49.5654,243.062 49.3988,242.728 49,242.5C 47.9614,243.244 47.4614,244.244 47.5,245.5C 46.5,247.167 45.1667,248.5 43.5,249.5C 40.1667,252.167 37.1667,255.167 34.5,258.5C 33.8333,259.833 32.8333,260.833 31.5,261.5C 29.9731,261.427 28.9731,262.094 28.5,263.5C 22.2129,268.974 14.8796,272.308 6.5,273.5C 5.16667,273.5 3.83333,273.5 2.5,273.5C 2.5,272.167 2.5,270.833 2.5,269.5C 3.89928,268.11 5.56594,267.11 7.5,266.5C 9.02694,266.573 10.0269,265.906 10.5,264.5C 12.0269,264.573 13.0269,263.906 13.5,262.5C 15.0269,262.573 16.0269,261.906 16.5,260.5C 19.0892,259.581 21.0892,257.914 22.5,255.5C 22.8333,254.5 23.5,253.833 24.5,253.5C 27.1667,252.833 28.8333,251.167 29.5,248.5C 30.8333,246.5 32.5,244.833 34.5,243.5C 36.914,242.089 38.5806,240.089 39.5,237.5C 41.016,234.467 43.016,231.8 45.5,229.5C 46.9063,229.027 47.573,228.027 47.5,226.5C 48.7859,223.883 50.4525,221.55 52.5,219.5C 56.2643,216.772 58.5977,213.105 59.5,208.5C 60.7738,205.24 62.4405,202.24 64.5,199.5C 66.2624,198.738 67.2624,197.404 67.5,195.5C 67.3284,194.508 67.6618,193.842 68.5,193.5C 69.9063,193.027 70.573,192.027 70.5,190.5C 72.2624,189.738 73.2624,188.404 73.5,186.5C 73.427,184.973 74.0937,183.973 75.5,183.5C 76.9063,183.027 77.573,182.027 77.5,180.5C 79.2624,179.738 80.2624,178.404 80.5,176.5C 82.914,175.089 84.5806,173.089 85.5,170.5C 86.5,170.5 87.5,170.5 88.5,170.5C 88.4326,169.041 88.7659,167.708 89.5,166.5C 92.4274,165.243 94.7607,163.243 96.5,160.5C 98.0269,160.573 99.0269,159.906 99.5,158.5C 104.951,156.466 110.618,155.466 116.5,155.5C 121.467,155.443 126.301,156.11 131,157.5C 132.707,157.492 134.207,157.158 135.5,156.5C 137.38,156.771 138.713,156.104 139.5,154.5C 141.475,152.863 143.475,151.196 145.5,149.5C 146.906,149.027 147.573,148.027 147.5,146.5C 147.328,145.508 147.662,144.842 148.5,144.5C 151.895,143.023 152.561,143.356 150.5,145.5C 150.846,146.696 151.346,146.696 152,145.5C 152.495,147.473 152.662,149.473 152.5,151.5 Z"/></g>
<g><path style="opacity:1" fill="#4f4c4b" d="M 815.5,225.5 C 817.833,226.5 819.5,228.167 820.5,230.5C 817.833,229.833 816.167,228.167 815.5,225.5 Z"/></g>
<g><path style="opacity:1" fill="#cdc9c7" d="M 106.5,224.5 C 107.167,227.167 108.833,228.833 111.5,229.5C 112.492,229.328 113.158,229.662 113.5,230.5C 116.813,233.508 119.147,232.842 120.5,228.5C 122.587,227.415 123.92,225.749 124.5,223.5C 125.721,224.028 126.887,224.695 128,225.5C 128.333,224.833 128.667,224.167 129,223.5C 129.317,225.301 129.984,225.634 131,224.5C 133.041,226.65 135.541,227.65 138.5,227.5C 141.127,227.293 142.793,228.46 143.5,231C 141.078,235.756 138.244,240.256 135,244.5C 131.758,247.051 128.592,247.051 125.5,244.5C 125.027,243.094 124.027,242.427 122.5,242.5C 121.409,239.808 119.743,239.142 117.5,240.5C 115.975,243.563 113.975,246.23 111.5,248.5C 108.14,248.384 104.807,248.051 101.5,247.5C 100.167,245.5 98.5,243.833 96.5,242.5C 95.8442,241.378 95.5108,240.045 95.5,238.5C 95.361,236.117 96.0277,234.117 97.5,232.5C 98.9063,232.027 99.573,231.027 99.5,229.5C 100.842,226.834 102.675,224.501 105,222.5C 105.717,223.044 106.217,223.711 106.5,224.5 Z"/></g>
<g><path style="opacity:1" fill="#464543" d="M 124.5,223.5 C 123.92,225.749 122.587,227.415 120.5,228.5C 121.08,226.251 122.413,224.585 124.5,223.5 Z"/></g>
<g><path style="opacity:1" fill="#3b3937" d="M 106.5,224.5 C 108.5,225.833 110.167,227.5 111.5,229.5C 108.833,228.833 107.167,227.167 106.5,224.5 Z"/></g>
<g><path style="opacity:1" fill="#8e8d8c" d="M 259.5,228.5 C 256.808,231.181 253.475,232.514 249.5,232.5C 248.833,232.5 248.167,232.5 247.5,232.5C 248.801,231.36 249.968,230.027 251,228.5C 253.041,229.423 255.208,229.756 257.5,229.5C 257.34,224.921 258.007,224.588 259.5,228.5 Z"/></g>
<g><path style="opacity:1" fill="#8a8a89" d="M 59.5,228.5 C 58.2411,232.025 56.2411,235.025 53.5,237.5C 53.492,233.173 55.492,230.173 59.5,228.5 Z"/></g>
<g><path style="opacity:1" fill="#373737" d="M 99.5,229.5 C 99.573,231.027 98.9063,232.027 97.5,232.5C 97.427,230.973 98.0937,229.973 99.5,229.5 Z"/></g>
<g><path style="opacity:1" fill="#363333" d="M 120.5,228.5 C 119.147,232.842 116.813,233.508 113.5,230.5C 114.822,230.33 115.989,230.663 117,231.5C 118.039,230.29 119.206,229.29 120.5,228.5 Z"/></g>
<g><path style="opacity:1" fill="#232221" d="M 754.5,226.5 C 744.935,230.393 734.935,233.06 724.5,234.5C 734.317,231.544 744.317,228.878 754.5,226.5 Z"/></g>
<g><path style="opacity:1" fill="#282828" d="M 820.5,230.5 C 822.153,230.66 823.486,231.326 824.5,232.5C 822.62,232.771 821.287,232.104 820.5,230.5 Z"/></g>
<g><path style="opacity:1" fill="#454442" d="M 461.5,231.5 C 463.404,231.738 464.738,232.738 465.5,234.5C 463.596,234.262 462.262,233.262 461.5,231.5 Z"/></g>
<g><path style="opacity:1" fill="#2f2e2d" d="M 224.5,232.5 C 226.046,233.636 227.879,234.302 230,234.5C 235.825,233.691 241.658,233.025 247.5,232.5C 248.167,232.5 248.833,232.5 249.5,232.5C 242.006,234.139 234.339,235.472 226.5,236.5C 224.889,235.68 224.222,234.346 224.5,232.5 Z"/></g>
<g><path style="opacity:1" fill="#1f1e1f" d="M 467.5,235.5 C 469.553,235.402 471.22,236.069 472.5,237.5C 470.447,237.598 468.78,236.931 467.5,235.5 Z"/></g>
<g><path style="opacity:1" fill="#3e3e3d" d="M 472.5,237.5 C 477.722,238.387 482.722,239.721 487.5,241.5C 482.101,241.235 477.101,239.902 472.5,237.5 Z"/></g>
<g><path style="opacity:1" fill="#1d1d1b" d="M 707.5,237.5 C 703.733,238.795 699.733,239.461 695.5,239.5C 699.236,238.011 703.236,237.344 707.5,237.5 Z"/></g>
<g><path style="opacity:1" fill="#262524" d="M 117.5,240.5 C 119.743,239.142 121.409,239.808 122.5,242.5C 120.833,241.833 119.167,241.167 117.5,240.5 Z"/></g>
<g><path style="opacity:1" fill="#535352" d="M 39.5,237.5 C 38.5806,240.089 36.914,242.089 34.5,243.5C 35.4194,240.911 37.086,238.911 39.5,237.5 Z"/></g>
<g><path style="opacity:1" fill="#1e1e1d" d="M 695.5,239.5 C 681.443,242.362 667.11,244.028 652.5,244.5C 666.648,242.441 680.981,240.774 695.5,239.5 Z"/></g>
<g><path style="opacity:1" fill="#2a2a2a" d="M 49.5,243.5 C 49.1667,244.5 48.5,245.167 47.5,245.5C 47.4614,244.244 47.9614,243.244 49,242.5C 49.3988,242.728 49.5654,243.062 49.5,243.5 Z"/></g>
<g><path style="opacity:1" fill="#232221" d="M 96.5,242.5 C 98.5,243.833 100.167,245.5 101.5,247.5C 98.8333,246.833 97.1667,245.167 96.5,242.5 Z"/></g>
<g><path style="opacity:1" fill="#373635" d="M 122.5,242.5 C 124.027,242.427 125.027,243.094 125.5,244.5C 123.973,244.573 122.973,243.906 122.5,242.5 Z"/></g>
<g><path style="opacity:1" fill="#201f1f" d="M 493.5,243.5 C 498.552,242.421 503.552,242.754 508.5,244.5C 503.482,244.387 498.482,244.053 493.5,243.5 Z"/></g>
<g><path style="opacity:1" fill="#1e1e1d" d="M 650.5,244.5 C 640.039,246.035 629.372,246.701 618.5,246.5C 615.833,246.5 613.167,246.5 610.5,246.5C 623.66,245.479 636.994,244.813 650.5,244.5 Z"/></g>
<g><path style="opacity:1" fill="#191918" d="M 508.5,244.5 C 542.47,246.26 576.47,246.926 610.5,246.5C 613.167,246.5 615.833,246.5 618.5,246.5C 603.325,247.229 587.991,247.896 572.5,248.5C 550.959,248.068 529.626,246.734 508.5,244.5 Z"/></g>
<g><path style="opacity:1" fill="#5f5f5c" d="M 101.5,247.5 C 104.807,248.051 108.14,248.384 111.5,248.5C 108.053,250.823 104.719,250.489 101.5,247.5 Z"/></g>
<g><path style="opacity:1" fill="#5a5251" d="M 29.5,248.5 C 28.8333,251.167 27.1667,252.833 24.5,253.5C 25.8333,251.5 27.5,249.833 29.5,248.5 Z"/></g>
<g><path style="opacity:1" fill="#20201f" d="M 43.5,249.5 C 41.5,253.5 38.5,256.5 34.5,258.5C 37.1667,255.167 40.1667,252.167 43.5,249.5 Z"/></g>
<g><path style="opacity:1" fill="#625f5f" d="M 22.5,255.5 C 21.0892,257.914 19.0892,259.581 16.5,260.5C 17.9108,258.086 19.9108,256.419 22.5,255.5 Z"/></g>
<g><path style="opacity:1" fill="#51504c" d="M 16.5,260.5 C 16.0269,261.906 15.0269,262.573 13.5,262.5C 13.9731,261.094 14.9731,260.427 16.5,260.5 Z"/></g>
<g><path style="opacity:1" fill="#1b1a1a" d="M 31.5,261.5 C 31.0269,262.906 30.0269,263.573 28.5,263.5C 28.9731,262.094 29.9731,261.427 31.5,261.5 Z"/></g>
<g><path style="opacity:1" fill="#3a3636" d="M 13.5,262.5 C 13.0269,263.906 12.0269,264.573 10.5,264.5C 10.9731,263.094 11.9731,262.427 13.5,262.5 Z"/></g>
<g><path style="opacity:1" fill="#414141" d="M 10.5,264.5 C 10.0269,265.906 9.02694,266.573 7.5,266.5C 7.97306,265.094 8.97306,264.427 10.5,264.5 Z"/></g>
<g><path style="opacity:1" fill="#151515" d="M 2.5,269.5 C 2.5,270.833 2.5,272.167 2.5,273.5C 3.83333,273.5 5.16667,273.5 6.5,273.5C 5.08134,274.451 3.41467,274.784 1.5,274.5C 1.21552,272.585 1.54885,270.919 2.5,269.5 Z"/></g>
</svg>
