<?xml version="1.0" encoding="UTF-8"?>
<!DOCTYPE svg PUBLIC "-//W3C//DTD SVG 1.1//EN" "http://www.w3.org/Graphics/SVG/1.1/DTD/svg11.dtd">
<svg xmlns="http://www.w3.org/2000/svg" version="1.1" width="851px" height="210px" style="shape-rendering:geometricPrecision; text-rendering:geometricPrecision; image-rendering:optimizeQuality; fill-rule:evenodd; clip-rule:evenodd" xmlns:xlink="http://www.w3.org/1999/xlink">
<g><path style="opacity:1" fill="#818081" d="M 842.5,-0.5 C 843.167,-0.5 843.833,-0.5 844.5,-0.5C 844.953,0.458367 845.619,1.2917 846.5,2C 844.583,5.30658 842.583,8.47324 840.5,11.5C 841.536,9.60886 841.536,7.77552 840.5,6C 841.167,5.66667 841.833,5.33333 842.5,5C 841.922,3.58296 840.922,2.74962 839.5,2.5C 840.306,1.27187 841.306,0.271873 842.5,-0.5 Z"/></g>
<g><path style="opacity:1" fill="#434141" d="M 839.5,2.5 C 839.027,3.90632 838.027,4.57298 836.5,4.5C 836.973,3.09368 837.973,2.42702 839.5,2.5 Z"/></g>
<g><path style="opacity:1" fill="#343434" d="M 836.5,4.5 C 836.027,5.90632 835.027,6.57298 833.5,6.5C 833.973,5.09368 834.973,4.42702 836.5,4.5 Z"/></g>
<g><path style="opacity:1" fill="#2c2a2a" d="M 833.5,6.5 C 833.027,7.90632 832.027,8.57298 830.5,8.5C 830.973,7.09368 831.973,6.42702 833.5,6.5 Z"/></g>
<g><path style="opacity:1" fill="#2c2928" d="M 830.5,8.5 C 829.738,10.2624 828.404,11.2624 826.5,11.5C 827.262,9.73758 828.596,8.73758 830.5,8.5 Z"/></g>
<g><path style="opacity:1" fill="#343434" d="M 826.5,11.5 C 826.027,12.9063 825.027,13.573 823.5,13.5C 823.973,12.0937 824.973,11.427 826.5,11.5 Z"/></g>
<g><path style="opacity:1" fill="#393937" d="M 823.5,13.5 C 822.738,15.2624 821.404,16.2624 819.5,16.5C 820.262,14.7376 821.596,13.7376 823.5,13.5 Z"/></g>
<g><path style="opacity:1" fill="#4a4545" d="M 819.5,16.5 C 819.027,17.9063 818.027,18.573 816.5,18.5C 816.973,17.0937 817.973,16.427 819.5,16.5 Z"/></g>
<g><path style="opacity:1" fill="#d1cecb" d="M 839.5,2.5 C 840.922,2.74962 841.922,3.58296 842.5,5C 841.833,5.33333 841.167,5.66667 840.5,6C 841.536,7.77552 841.536,9.60886 840.5,11.5C 838.541,15.1261 835.874,18.1261 832.5,20.5C 830.596,20.7376 829.262,21.7376 828.5,23.5C 824.447,26.8827 820.114,29.8827 815.5,32.5C 813.973,32.427 812.973,33.0937 812.5,34.5C 812.5,35.1667 812.167,35.5 811.5,35.5C 809.973,35.427 808.973,36.0937 808.5,37.5C 806.973,37.427 805.973,38.0937 805.5,39.5C 803.853,41.3264 801.853,42.6597 799.5,43.5C 798.127,43.3433 796.793,43.51 795.5,44C 796.598,44.7697 796.598,45.603 795.5,46.5C 793.973,46.427 792.973,47.0937 792.5,48.5C 790.733,50.8901 788.4,52.5568 785.5,53.5C 782.592,54.7126 779.592,55.8793 776.5,57C 777.888,57.8893 777.722,58.3893 776,58.5C 773.756,58.1333 773.256,57.1333 774.5,55.5C 774,54.5 773.5,53.5 773,52.5C 772.023,53.7736 771.189,53.7736 770.5,52.5C 771.833,51.8333 772.833,50.8333 773.5,49.5C 776.089,48.5806 778.089,46.914 779.5,44.5C 781.027,44.573 782.027,43.9063 782.5,42.5C 784.404,42.2624 785.738,41.2624 786.5,39.5C 788.027,39.573 789.027,38.9063 789.5,37.5C 791.404,37.2624 792.738,36.2624 793.5,34.5C 798.312,34.8626 801.312,32.8626 802.5,28.5C 804.404,28.2624 805.738,27.2624 806.5,25.5C 808.404,25.2624 809.738,24.2624 810.5,22.5C 812.027,22.573 813.027,21.9063 813.5,20.5C 815.027,20.573 816.027,19.9063 816.5,18.5C 818.027,18.573 819.027,17.9063 819.5,16.5C 821.404,16.2624 822.738,15.2624 823.5,13.5C 825.027,13.573 826.027,12.9063 826.5,11.5C 828.404,11.2624 829.738,10.2624 830.5,8.5C 832.027,8.57298 833.027,7.90632 833.5,6.5C 835.027,6.57298 836.027,5.90632 836.5,4.5C 838.027,4.57298 839.027,3.90632 839.5,2.5 Z"/></g>
<g><path style="opacity:1" fill="#42413d" d="M 816.5,18.5 C 816.027,19.9063 815.027,20.573 813.5,20.5C 813.973,19.0937 814.973,18.427 816.5,18.5 Z"/></g>
<g><path style="opacity:1" fill="#302d2d" d="M 813.5,20.5 C 813.027,21.9063 812.027,22.573 810.5,22.5C 810.973,21.0937 811.973,20.427 813.5,20.5 Z"/></g>
<g><path style="opacity:1" fill="#212121" d="M 832.5,20.5 C 831.738,22.2624 830.404,23.2624 828.5,23.5C 829.262,21.7376 830.596,20.7376 832.5,20.5 Z"/></g>
<g><path style="opacity:1" fill="#2f2c2c" d="M 810.5,22.5 C 809.738,24.2624 808.404,25.2624 806.5,25.5C 807.262,23.7376 808.596,22.7376 810.5,22.5 Z"/></g>
<g><path style="opacity:1" fill="#424240" d="M 806.5,25.5 C 805.738,27.2624 804.404,28.2624 802.5,28.5C 803.262,26.7376 804.596,25.7376 806.5,25.5 Z"/></g>
<g><path style="opacity:1" fill="#8a8885" d="M 802.5,28.5 C 801.312,32.8626 798.312,34.8626 793.5,34.5C 795.975,31.7589 798.975,29.7589 802.5,28.5 Z"/></g>
<g><path style="opacity:1" fill="#232323" d="M 815.5,32.5 C 815.027,33.9063 814.027,34.573 812.5,34.5C 812.973,33.0937 813.973,32.427 815.5,32.5 Z"/></g>
<g><path style="opacity:1" fill="#3f3f3d" d="M 793.5,34.5 C 792.738,36.2624 791.404,37.2624 789.5,37.5C 790.262,35.7376 791.596,34.7376 793.5,34.5 Z"/></g>
<g><path style="opacity:1" fill="#151515" d="M 811.5,35.5 C 811.027,36.9063 810.027,37.573 808.5,37.5C 808.973,36.0937 809.973,35.427 811.5,35.5 Z"/></g>
<g><path style="opacity:1" fill="#3d3d3d" d="M 789.5,37.5 C 789.027,38.9063 788.027,39.573 786.5,39.5C 786.973,38.0937 787.973,37.427 789.5,37.5 Z"/></g>
<g><path style="opacity:1" fill="#161616" d="M 808.5,37.5 C 808.027,38.9063 807.027,39.573 805.5,39.5C 805.973,38.0937 806.973,37.427 808.5,37.5 Z"/></g>
<g><path style="opacity:1" fill="#3f3f3f" d="M 786.5,39.5 C 785.738,41.2624 784.404,42.2624 782.5,42.5C 783.262,40.7376 784.596,39.7376 786.5,39.5 Z"/></g>
<g><path style="opacity:1" fill="#414141" d="M 782.5,42.5 C 782.027,43.9063 781.027,44.573 779.5,44.5C 779.973,43.0937 780.973,42.427 782.5,42.5 Z"/></g>
<g><path style="opacity:1" fill="#676360" d="M 799.5,43.5 C 798.738,45.2624 797.404,46.2624 795.5,46.5C 796.598,45.603 796.598,44.7697 795.5,44C 796.793,43.51 798.127,43.3433 799.5,43.5 Z"/></g>
<g><path style="opacity:1" fill="#5a5a5a" d="M 779.5,44.5 C 778.089,46.914 776.089,48.5806 773.5,49.5C 774.911,47.086 776.911,45.4194 779.5,44.5 Z"/></g>
<g><path style="opacity:1" fill="#21211b" d="M 795.5,46.5 C 795.027,47.9063 794.027,48.573 792.5,48.5C 792.973,47.0937 793.973,46.427 795.5,46.5 Z"/></g>
<g><path style="opacity:1" fill="#494949" d="M 773.5,49.5 C 772.833,50.8333 771.833,51.8333 770.5,52.5C 770.167,52.5 769.833,52.5 769.5,52.5C 770.262,50.7376 771.596,49.7376 773.5,49.5 Z"/></g>
<g><path style="opacity:1" fill="#3f3d3a" d="M 764.5,58.5 C 764.573,60.0269 763.906,61.0269 762.5,61.5C 762.427,59.9731 763.094,58.9731 764.5,58.5 Z"/></g>
<g><path style="opacity:1" fill="#b7b3b1" d="M 769.5,52.5 C 769.833,52.5 770.167,52.5 770.5,52.5C 771.189,53.7736 772.023,53.7736 773,52.5C 773.5,53.5 774,54.5 774.5,55.5C 773.256,57.1333 773.756,58.1333 776,58.5C 777.722,58.3893 777.888,57.8893 776.5,57C 779.592,55.8793 782.592,54.7126 785.5,53.5C 779.741,57.8908 773.741,62.0574 767.5,66C 765.759,67.083 765.093,68.2497 765.5,69.5C 765.167,69.5 764.833,69.5 764.5,69.5C 764.33,68.1779 764.663,67.0113 765.5,66C 763.658,66.068 761.991,65.9014 760.5,65.5C 760.66,63.847 761.326,62.5137 762.5,61.5C 763.906,61.0269 764.573,60.0269 764.5,58.5C 765.419,55.9108 767.086,53.9108 769.5,52.5 Z"/></g>
<g><path style="opacity:1" fill="#595555" d="M 760.5,65.5 C 760.074,69.4268 759.074,73.0935 757.5,76.5C 757.517,72.4661 758.517,68.7994 760.5,65.5 Z"/></g>
<g><path style="opacity:1" fill="#383534" d="M 458.5,68.5 C 459.478,86.0342 459.811,103.534 459.5,121C 458.883,123.277 458.216,125.444 457.5,127.5C 458.33,107.845 458.663,88.1787 458.5,68.5 Z"/></g>
<g><path style="opacity:1" fill="#494946" d="M 792.5,69.5 C 792.59,72.1522 791.924,74.4855 790.5,76.5C 790.41,73.8478 791.076,71.5145 792.5,69.5 Z"/></g>
<g><path style="opacity:1" fill="#242423" d="M 125.5,74.5 C 126.71,74.9321 127.71,75.5987 128.5,76.5C 126.821,76.7148 125.821,76.0481 125.5,74.5 Z"/></g>
<g><path style="opacity:1" fill="#323030" d="M 432.5,73.5 C 432.34,75.153 431.674,76.4863 430.5,77.5C 430.229,75.6203 430.896,74.287 432.5,73.5 Z"/></g>
<g><path style="opacity:1" fill="#4c4b4b" d="M 117.5,77.5 C 117.582,79.2517 116.749,80.2517 115,80.5C 111.558,79.1975 108.391,77.5308 105.5,75.5C 105.783,74.7109 106.283,74.0442 107,73.5C 109.13,76.23 111.797,78.23 115,79.5C 115.708,78.6195 116.542,77.9528 117.5,77.5 Z"/></g>
<g><path style="opacity:1" fill="#d1cecc" d="M 484.5,117.5 C 484.5,118.5 484.5,119.5 484.5,120.5C 483.252,121.334 482.585,122.667 482.5,124.5C 482.511,126.045 482.844,127.378 483.5,128.5C 482.935,130.952 482.268,133.285 481.5,135.5C 479.928,138.215 478.928,141.215 478.5,144.5C 477.5,144.5 476.5,144.5 475.5,144.5C 475.5,124.5 475.5,104.5 475.5,84.5C 476.924,82.4855 477.59,80.1522 477.5,77.5C 477.992,75.1815 478.992,73.1815 480.5,71.5C 481.15,71.1961 481.817,70.8627 482.5,70.5C 483.167,86.3281 483.833,101.995 484.5,117.5 Z"/></g>
<g><path style="opacity:1" fill="#c3bfbd" d="M 272.5,70.5 C 274.162,87.6426 275.162,104.976 275.5,122.5C 275.142,125.689 274.475,128.689 273.5,131.5C 271.898,135.239 270.898,139.239 270.5,143.5C 270.522,146.998 269.022,148.331 266,147.5C 265.171,126.663 265.337,105.996 266.5,85.5C 268.163,83.5615 268.829,81.2282 268.5,78.5C 269.326,75.5152 270.659,72.8485 272.5,70.5 Z"/></g>
<g><path style="opacity:1" fill="#686664" d="M 338.5,75.5 C 338.31,78.855 337.31,81.855 335.5,84.5C 335.132,80.9557 336.132,77.9557 338.5,75.5 Z"/></g>
<g><path style="opacity:1" fill="#3d3d3d" d="M 105.5,75.5 C 104.92,77.7488 103.587,79.4154 101.5,80.5C 102.08,78.2512 103.413,76.5846 105.5,75.5 Z"/></g>
<g><path style="opacity:1" fill="#686765" d="M 275.5,122.5 C 275.162,104.976 274.162,87.6426 272.5,70.5C 273.484,67.9296 274.651,67.9296 276,70.5C 275.917,87.8261 275.75,105.159 275.5,122.5 Z"/></g>
<g><path style="opacity:1" fill="#c4c2c0" d="M 125.5,74.5 C 125.821,76.0481 126.821,76.7148 128.5,76.5C 130.948,76.0847 132.281,77.0847 132.5,79.5C 131.129,83.043 129.129,86.2096 126.5,89C 122.412,89.7111 118.912,88.5445 116,85.5C 111.993,94.0248 107.16,94.6915 101.5,87.5C 101.5,85.1667 101.5,82.8333 101.5,80.5C 103.587,79.4154 104.92,77.7488 105.5,75.5C 108.391,77.5308 111.558,79.1975 115,80.5C 116.749,80.2517 117.582,79.2517 117.5,77.5C 118.396,74.9308 120.062,72.9308 122.5,71.5C 123.735,72.3398 124.735,73.3398 125.5,74.5 Z"/></g>
<g><path style="opacity:1" fill="#5a5856" d="M 477.5,77.5 C 477.59,80.1522 476.924,82.4855 475.5,84.5C 475.41,81.8478 476.076,79.5145 477.5,77.5 Z"/></g>
<g><path style="opacity:1" fill="#565553" d="M 790.5,76.5 C 790.483,80.5339 789.483,84.2006 787.5,87.5C 787.742,83.521 788.742,79.8544 790.5,76.5 Z"/></g>
<g><path style="opacity:1" fill="#383737" d="M 795.5,123.5 C 794.733,111.172 794.733,98.6715 795.5,86C 795.167,80.1667 794.833,74.3333 794.5,68.5C 793.817,68.8627 793.15,69.1961 792.5,69.5C 793.891,65.6557 795.557,65.6557 797.5,69.5C 796.519,87.1992 795.852,105.199 795.5,123.5 Z"/></g>
<g><path style="opacity:1" fill="#4b4b4b" d="M 101.5,80.5 C 101.5,82.8333 101.5,85.1667 101.5,87.5C 99.1093,85.2358 99.1093,82.9024 101.5,80.5 Z"/></g>
<g><path style="opacity:1" fill="#44433f" d="M 268.5,78.5 C 268.829,81.2282 268.163,83.5615 266.5,85.5C 266.41,82.8478 267.076,80.5145 268.5,78.5 Z"/></g>
<g><path style="opacity:1" fill="#c4c1bf" d="M 343.5,121.5 C 342.105,125.591 341.438,129.924 341.5,134.5C 341.5,134.833 341.5,135.167 341.5,135.5C 340.234,136.09 338.901,136.59 337.5,137C 338.574,137.739 339.241,138.739 339.5,140C 338.392,141.677 338.392,143.177 339.5,144.5C 339.068,145.71 338.401,146.71 337.5,147.5C 335.511,126.86 334.845,105.86 335.5,84.5C 337.31,81.855 338.31,78.855 338.5,75.5C 339.045,73.4068 339.878,71.4068 341,69.5C 342,68.1667 343,68.1667 344,69.5C 344.829,87.0049 344.662,104.338 343.5,121.5 Z"/></g>
<g><path style="opacity:1" fill="#434241" d="M 764.5,69.5 C 764.833,69.5 765.167,69.5 765.5,69.5C 765.611,70.1174 765.944,70.6174 766.5,71C 764.194,89.708 763.194,108.541 763.5,127.5C 762.51,121.69 762.177,115.69 762.5,109.5C 763.072,96.1616 763.738,82.8283 764.5,69.5 Z"/></g>
<g><path style="opacity:1" fill="#5f5f5e" d="M 335.5,84.5 C 334.845,105.86 335.511,126.86 337.5,147.5C 336.458,148.791 335.292,148.791 334,147.5C 333.333,128.833 333.333,110.167 334,91.5C 334.186,88.9644 334.686,86.631 335.5,84.5 Z"/></g>
<g><path style="opacity:1" fill="#494948" d="M 484.5,117.5 C 483.833,101.995 483.167,86.3281 482.5,70.5C 481.817,70.8627 481.15,71.1961 480.5,71.5C 480.511,69.3141 481.511,68.4808 483.5,69C 484.848,70.5741 485.514,72.4075 485.5,74.5C 484.551,88.8106 484.217,103.144 484.5,117.5 Z"/></g>
<g><path style="opacity:1" fill="#434343" d="M 757.5,76.5 C 757.663,83.0616 756.996,89.395 755.5,95.5C 755.454,88.9503 756.121,82.617 757.5,76.5 Z"/></g>
<g><path style="opacity:1" fill="#8f8f8f" d="M 475.5,84.5 C 475.5,104.5 475.5,124.5 475.5,144.5C 476.5,144.5 477.5,144.5 478.5,144.5C 478.928,141.215 479.928,138.215 481.5,135.5C 481.192,140.435 479.525,144.768 476.5,148.5C 475.5,148 474.5,147.5 473.5,147C 474.161,126.069 474.828,105.236 475.5,84.5 Z"/></g>
<g><path style="opacity:1" fill="#1d1d1c" d="M 786.5,92.5 C 786.667,104.838 786.5,117.171 786,129.5C 785.722,130.416 785.222,131.082 784.5,131.5C 785.112,118.358 785.778,105.358 786.5,92.5 Z"/></g>
<g><path style="opacity:1" fill="#4f4e4d" d="M 406.5,99.5 C 405.57,103.093 403.237,104.759 399.5,104.5C 401.972,103.091 404.305,101.424 406.5,99.5 Z"/></g>
<g><path style="opacity:1" fill="#1a1a1a" d="M 307.5,104.5 C 309.38,104.229 310.713,104.896 311.5,106.5C 309.847,106.34 308.514,105.674 307.5,104.5 Z"/></g>
<g><path style="opacity:1" fill="#4d4d4c" d="M 399.5,104.5 C 397.815,106.818 395.481,107.818 392.5,107.5C 394.426,105.707 396.759,104.707 399.5,104.5 Z"/></g>
<g><path style="opacity:1" fill="#767573" d="M 406.5,111.5 C 406.423,110.25 405.756,109.417 404.5,109C 405.701,108.097 406.535,106.931 407,105.5C 407.333,105.833 407.667,106.167 408,106.5C 409.422,103.97 409.755,101.303 409,98.5C 408.329,99.2524 407.496,99.5858 406.5,99.5C 407.891,95.6557 409.557,95.6557 411.5,99.5C 410.893,104.034 409.227,108.034 406.5,111.5 Z"/></g>
<g><path style="opacity:1" fill="#474544" d="M 245.5,109.5 C 244.089,111.914 242.089,113.581 239.5,114.5C 240.911,112.086 242.911,110.419 245.5,109.5 Z"/></g>
<g><path style="opacity:1" fill="#d5d2ce" d="M 406.5,111.5 C 406.573,113.027 405.906,114.027 404.5,114.5C 403.07,114.421 401.736,114.754 400.5,115.5C 399.848,117.808 398.515,119.475 396.5,120.5C 392.625,120.698 388.958,120.198 385.5,119C 384.364,117.855 383.364,116.688 382.5,115.5C 384.167,113.5 385.833,111.5 387.5,109.5C 388.78,108.069 390.447,107.402 392.5,107.5C 395.481,107.818 397.815,106.818 399.5,104.5C 403.237,104.759 405.57,103.093 406.5,99.5C 407.496,99.5858 408.329,99.2524 409,98.5C 409.755,101.303 409.422,103.97 408,106.5C 407.667,106.167 407.333,105.833 407,105.5C 406.535,106.931 405.701,108.097 404.5,109C 405.756,109.417 406.423,110.25 406.5,111.5 Z"/></g>
<g><path style="opacity:1" fill="#4e4d4c" d="M 387.5,109.5 C 385.833,111.5 384.167,113.5 382.5,115.5C 382.167,115.5 381.833,115.5 381.5,115.5C 382.5,112.5 384.5,110.5 387.5,109.5 Z"/></g>
<g><path style="opacity:1" fill="#373533" d="M 239.5,114.5 C 239.027,115.906 238.027,116.573 236.5,116.5C 236.973,115.094 237.973,114.427 239.5,114.5 Z"/></g>
<g><path style="opacity:1" fill="#adaaa9" d="M 381.5,115.5 C 381.833,115.5 382.167,115.5 382.5,115.5C 383.364,116.688 384.364,117.855 385.5,119C 388.958,120.198 392.625,120.698 396.5,120.5C 392.71,122.558 388.71,124.391 384.5,126C 382.626,129.359 381.293,132.859 380.5,136.5C 381.274,132.125 381.274,127.792 380.5,123.5C 378.833,123.833 377.833,124.833 377.5,126.5C 379.463,128.183 379.63,129.849 378,131.5C 377.549,129.071 376.715,128.904 375.5,131C 376.337,132.011 376.67,133.178 376.5,134.5C 374.053,134.615 372.053,135.615 370.5,137.5C 374.081,131.415 377.081,125.082 379.5,118.5C 380.906,118.027 381.573,117.027 381.5,115.5 Z"/></g>
<g><path style="opacity:1" fill="#878483" d="M 404.5,114.5 C 402.656,117.687 399.989,119.687 396.5,120.5C 398.515,119.475 399.848,117.808 400.5,115.5C 401.736,114.754 403.07,114.421 404.5,114.5 Z"/></g>
<g><path style="opacity:1" fill="#3e3e3e" d="M 426.5,107.5 C 427.657,115.99 427.824,124.657 427,133.5C 426.722,134.416 426.222,135.082 425.5,135.5C 426.387,126.199 426.721,116.866 426.5,107.5 Z"/></g>
<g><path style="opacity:1" fill="#342f2c" d="M 236.5,116.5 C 236.027,117.906 235.027,118.573 233.5,118.5C 233.973,117.094 234.973,116.427 236.5,116.5 Z"/></g>
<g><path style="opacity:1" fill="#2c2c2c" d="M 248.5,115.5 C 248.573,117.027 247.906,118.027 246.5,118.5C 246.427,116.973 247.094,115.973 248.5,115.5 Z"/></g>
<g><path style="opacity:1" fill="#494947" d="M 381.5,115.5 C 381.573,117.027 380.906,118.027 379.5,118.5C 379.427,116.973 380.094,115.973 381.5,115.5 Z"/></g>
<g><path style="opacity:1" fill="#c5c2c0" d="M 307.5,104.5 C 308.514,105.674 309.847,106.34 311.5,106.5C 313.914,107.911 315.581,109.911 316.5,112.5C 317.799,118.217 318.799,123.884 319.5,129.5C 319.167,130.167 318.833,130.833 318.5,131.5C 316.399,134.797 315.065,138.463 314.5,142.5C 312.087,143.68 311.087,145.68 311.5,148.5C 310.106,152.728 307.44,155.895 303.5,158C 296.293,159.934 288.96,160.767 281.5,160.5C 281.178,158.278 281.845,156.444 283.5,155C 289.886,151.807 296.22,148.64 302.5,145.5C 304.404,145.262 305.738,144.262 306.5,142.5C 309.167,141.833 310.833,140.167 311.5,137.5C 311.262,133.862 309.596,131.029 306.5,129C 302.947,126.879 299.28,125.379 295.5,124.5C 294.659,122.621 294.325,120.621 294.5,118.5C 294.985,113.075 295.985,107.741 297.5,102.5C 298.167,102.167 298.833,101.833 299.5,101.5C 302.462,102.009 305.129,103.009 307.5,104.5 Z"/></g>
<g><path style="opacity:1" fill="#1e1d1d" d="M 229.5,120.5 C 228.22,121.931 226.553,122.598 224.5,122.5C 225.78,121.069 227.447,120.402 229.5,120.5 Z"/></g>
<g><path style="opacity:1" fill="#41413f" d="M 316.5,112.5 C 317.793,113.842 318.626,115.509 319,117.5C 319.499,121.486 319.666,125.486 319.5,129.5C 318.799,123.884 317.799,118.217 316.5,112.5 Z"/></g>
<g><path style="opacity:1" fill="#393836" d="M 484.5,120.5 C 483.735,123.096 483.401,125.763 483.5,128.5C 482.844,127.378 482.511,126.045 482.5,124.5C 482.585,122.667 483.252,121.334 484.5,120.5 Z"/></g>
<g><path style="opacity:1" fill="#232322" d="M 819.5,121.5 C 821.833,121.833 823.167,123.167 823.5,125.5C 821.833,124.5 820.5,123.167 819.5,121.5 Z"/></g>
<g><path style="opacity:1" fill="#c3c0bd" d="M 248.5,115.5 C 247.094,115.973 246.427,116.973 246.5,118.5C 246.262,120.404 245.262,121.738 243.5,122.5C 242.094,122.973 241.427,123.973 241.5,125.5C 237.659,131.014 232.659,135.014 226.5,137.5C 226.392,135.777 226.892,134.11 228,132.5C 228.308,133.308 228.808,133.975 229.5,134.5C 230.578,131.792 232.578,130.292 235.5,130C 232.833,129.333 232.833,128.667 235.5,128C 233.337,127.755 231.67,126.755 230.5,125C 232.131,123.164 232.798,123.664 232.5,126.5C 238.796,125.53 238.963,123.53 233,120.5C 230.044,123.256 226.877,124.589 223.5,124.5C 223.833,123.833 224.167,123.167 224.5,122.5C 226.553,122.598 228.22,121.931 229.5,120.5C 230.514,119.326 231.847,118.66 233.5,118.5C 235.027,118.573 236.027,117.906 236.5,116.5C 238.027,116.573 239.027,115.906 239.5,114.5C 242.089,113.581 244.089,111.914 245.5,109.5C 247.198,106.876 249.031,106.876 251,109.5C 251.008,111.821 250.175,113.821 248.5,115.5 Z"/></g>
<g><path style="opacity:1" fill="#424242" d="M 294.5,118.5 C 294.325,120.621 294.659,122.621 295.5,124.5C 294.244,124.539 293.244,124.039 292.5,123C 293.099,121.378 293.766,119.878 294.5,118.5 Z"/></g>
<g><path style="opacity:1" fill="#595856" d="M 224.5,122.5 C 224.167,123.167 223.833,123.833 223.5,124.5C 221.833,124.5 220.167,124.5 218.5,124.5C 220.214,123.262 222.214,122.595 224.5,122.5 Z"/></g>
<g><path style="opacity:1" fill="#242222" d="M 243.5,122.5 C 243.573,124.027 242.906,125.027 241.5,125.5C 241.427,123.973 242.094,122.973 243.5,122.5 Z"/></g>
<g><path style="opacity:1" fill="#cbc8c6" d="M 458.5,68.5 C 458.663,88.1787 458.33,107.845 457.5,127.5C 455.025,130.251 454.025,133.584 454.5,137.5C 452.345,138.932 450.012,140.099 447.5,141C 448.678,141.967 450.011,142.467 451.5,142.5C 450.5,143.167 449.5,143.833 448.5,144.5C 449.535,146.128 449.535,147.795 448.5,149.5C 448.5,150.167 448.167,150.5 447.5,150.5C 446.167,151.167 445.167,152.167 444.5,153.5C 442.692,153.491 441.025,153.991 439.5,155C 439.833,155.333 440.167,155.667 440.5,156C 438.881,156.236 437.881,157.069 437.5,158.5C 433.634,159.797 429.967,159.463 426.5,157.5C 425.656,155.241 423.989,154.241 421.5,154.5C 419.251,153.92 417.585,152.587 416.5,150.5C 415.962,148.883 415.629,147.216 415.5,145.5C 423.253,147.414 426.586,144.414 425.5,136.5C 425.5,136.167 425.5,135.833 425.5,135.5C 426.222,135.082 426.722,134.416 427,133.5C 427.824,124.657 427.657,115.99 426.5,107.5C 424.592,96.9689 425.925,86.9689 430.5,77.5C 431.674,76.4863 432.34,75.153 432.5,73.5C 433.5,72.1667 434.5,72.1667 435.5,73.5C 435.17,90.0085 435.504,106.342 436.5,122.5C 435.985,124.894 435.319,127.228 434.5,129.5C 432.928,132.215 431.928,135.215 431.5,138.5C 431.737,139.791 431.404,140.791 430.5,141.5C 429.596,142.209 429.263,143.209 429.5,144.5C 431.099,144.768 432.432,144.434 433.5,143.5C 435.527,143.662 437.527,143.495 439.5,143C 440.056,142.617 440.389,142.117 440.5,141.5C 440.833,141.5 441.167,141.5 441.5,141.5C 444.167,140.833 445.833,139.167 446.5,136.5C 448.104,135.713 448.771,134.38 448.5,132.5C 450.223,130.22 450.889,127.553 450.5,124.5C 449.452,111.185 449.285,97.8518 450,84.5C 451.465,79.1057 453.131,73.7724 455,68.5C 456.292,67.2089 457.458,67.2089 458.5,68.5 Z"/></g>
<g><path style="opacity:1" fill="#454444" d="M 435.5,73.5 C 437.035,89.6735 437.368,106.007 436.5,122.5C 435.504,106.342 435.17,90.0085 435.5,73.5 Z"/></g>
<g><path style="opacity:1" fill="#151514" d="M 214.5,125.5 C 212.162,127.04 209.495,127.706 206.5,127.5C 208.905,126.232 211.572,125.565 214.5,125.5 Z"/></g>
<g><path style="opacity:1" fill="#d4cfce" d="M 226.5,137.5 C 223.68,137.087 221.68,138.087 220.5,140.5C 220.158,141.338 219.492,141.672 218.5,141.5C 215.786,141.25 213.119,141.083 210.5,141C 212.931,142.092 212.931,143.259 210.5,144.5C 209.791,145.404 208.791,145.737 207.5,145.5C 205.856,145.714 204.356,145.38 203,144.5C 201.961,145.244 201.461,146.244 201.5,147.5C 199.095,148.768 196.428,149.435 193.5,149.5C 189.922,149.549 186.589,150.215 183.5,151.5C 182.081,152.451 180.415,152.784 178.5,152.5C 171.276,152.865 164.276,153.865 157.5,155.5C 143.976,155.942 130.642,156.942 117.5,158.5C 90.8039,158.807 64.1373,158.14 37.5,156.5C 31.858,156.504 26.5247,155.504 21.5,153.5C 20.653,152.034 19.3197,151.2 17.5,151C 18.8333,150.333 18.8333,149.667 17.5,149C 15.5273,148.505 13.5273,148.338 11.5,148.5C 10.5,146.833 9.16667,145.5 7.5,144.5C 6.32627,143.486 5.6596,142.153 5.5,140.5C 4.97913,136.519 4.6458,132.519 4.5,128.5C 4.86562,127.305 5.69895,126.639 7,126.5C 17.5066,129.432 28.0066,131.765 38.5,133.5C 43.916,135.117 49.5827,135.784 55.5,135.5C 65.6206,137.125 75.954,137.792 86.5,137.5C 91.3218,138.166 96.3218,138.499 101.5,138.5C 118.701,138.244 135.701,137.244 152.5,135.5C 159.415,135.867 166.081,135.201 172.5,133.5C 173.167,133.5 173.833,133.5 174.5,133.5C 181.147,133.669 187.48,132.669 193.5,130.5C 197.615,129.057 201.948,128.057 206.5,127.5C 209.495,127.706 212.162,127.04 214.5,125.5C 215.568,124.566 216.901,124.232 218.5,124.5C 220.167,124.5 221.833,124.5 223.5,124.5C 226.877,124.589 230.044,123.256 233,120.5C 238.963,123.53 238.796,125.53 232.5,126.5C 232.798,123.664 232.131,123.164 230.5,125C 231.67,126.755 233.337,127.755 235.5,128C 232.833,128.667 232.833,129.333 235.5,130C 232.578,130.292 230.578,131.792 229.5,134.5C 228.808,133.975 228.308,133.308 228,132.5C 226.892,134.11 226.392,135.777 226.5,137.5 Z"/></g>
<g><path style="opacity:1" fill="#d1cecc" d="M 795.5,123.5 C 795.5,123.833 795.5,124.167 795.5,124.5C 796.092,128.885 797.592,132.885 800,136.5C 801.011,135.663 802.178,135.33 803.5,135.5C 805.265,136.461 807.265,136.795 809.5,136.5C 809.5,135.5 809.5,134.5 809.5,133.5C 809.232,131.901 809.566,130.568 810.5,129.5C 812.04,127.162 812.706,124.495 812.5,121.5C 814.941,120.244 817.274,120.244 819.5,121.5C 820.5,123.167 821.833,124.5 823.5,125.5C 824.833,129.167 824.833,132.833 823.5,136.5C 821.659,138.849 820.326,141.515 819.5,144.5C 818.5,145.167 817.5,145.833 816.5,146.5C 815.25,146.577 814.417,147.244 814,148.5C 813.586,148.043 813.086,147.709 812.5,147.5C 811.571,148.689 811.238,150.022 811.5,151.5C 809.381,151.468 808.048,152.468 807.5,154.5C 804.269,155.782 800.936,155.782 797.5,154.5C 796.738,152.738 795.404,151.738 793.5,151.5C 791.178,150.198 789.845,148.198 789.5,145.5C 788.395,141.829 787.395,142.162 786.5,146.5C 786.672,147.492 786.338,148.158 785.5,148.5C 784.094,148.973 783.427,149.973 783.5,151.5C 783.167,152.5 782.5,153.167 781.5,153.5C 781.703,151.61 781.037,150.11 779.5,149C 780.956,148.577 781.456,147.744 781,146.5C 780.586,146.957 780.086,147.291 779.5,147.5C 778.3,146.469 776.966,145.635 775.5,145C 777.891,144.309 777.891,143.309 775.5,142C 779.82,142.5 782.154,140.667 782.5,136.5C 782.893,134.716 783.559,133.05 784.5,131.5C 785.222,131.082 785.722,130.416 786,129.5C 786.5,117.171 786.667,104.838 786.5,92.5C 786.216,90.5853 786.549,88.9187 787.5,87.5C 789.483,84.2006 790.483,80.5339 790.5,76.5C 791.924,74.4855 792.59,72.1522 792.5,69.5C 793.15,69.1961 793.817,68.8627 794.5,68.5C 794.833,74.3333 795.167,80.1667 795.5,86C 794.733,98.6715 794.733,111.172 795.5,123.5 Z"/></g>
<g><path style="opacity:1" fill="#585857" d="M 343.5,121.5 C 343.72,126.1 343.054,130.433 341.5,134.5C 341.438,129.924 342.105,125.591 343.5,121.5 Z"/></g>
<g><path style="opacity:1" fill="#4a4a4a" d="M 812.5,121.5 C 812.706,124.495 812.04,127.162 810.5,129.5C 810.565,126.572 811.232,123.905 812.5,121.5 Z"/></g>
<g><path style="opacity:1" fill="#31302f" d="M 450.5,124.5 C 450.889,127.553 450.223,130.22 448.5,132.5C 448.802,129.627 449.469,126.961 450.5,124.5 Z"/></g>
<g><path style="opacity:1" fill="#595858" d="M 741.5,128.5 C 741.5,128.833 741.5,129.167 741.5,129.5C 739.281,131.606 736.615,132.606 733.5,132.5C 736.035,130.983 738.702,129.65 741.5,128.5 Z"/></g>
<g><path style="opacity:1" fill="#171717" d="M 4.5,128.5 C 4.6458,132.519 4.97913,136.519 5.5,140.5C 3.51064,136.598 3.17731,132.598 4.5,128.5 Z"/></g>
<g><path style="opacity:1" fill="#1c1c1c" d="M 193.5,130.5 C 187.48,132.669 181.147,133.669 174.5,133.5C 180.653,132.198 186.986,131.198 193.5,130.5 Z"/></g>
<g><path style="opacity:1" fill="#0f0c0c" d="M 754.5,139.5 C 753.833,137.167 753.167,134.833 752.5,132.5C 752.461,131.244 752.961,130.244 754,129.5C 754.498,132.817 754.665,136.15 754.5,139.5 Z"/></g>
<g><path style="opacity:1" fill="#5d5958" d="M 457.5,127.5 C 457.605,131.258 456.605,134.592 454.5,137.5C 454.025,133.584 455.025,130.251 457.5,127.5 Z"/></g>
<g><path style="opacity:1" fill="#43433f" d="M 434.5,129.5 C 434.472,132.916 433.472,135.916 431.5,138.5C 431.928,135.215 432.928,132.215 434.5,129.5 Z"/></g>
<g><path style="opacity:1" fill="#272726" d="M 38.5,133.5 C 44.36,133.717 50.0266,134.383 55.5,135.5C 49.5827,135.784 43.916,135.117 38.5,133.5 Z"/></g>
<g><path style="opacity:1" fill="#31302e" d="M 172.5,133.5 C 166.081,135.201 159.415,135.867 152.5,135.5C 158.987,134.485 165.654,133.818 172.5,133.5 Z"/></g>
<g><path style="opacity:1" fill="#4c4c4b" d="M 273.5,131.5 C 273.416,135.837 272.416,139.837 270.5,143.5C 270.898,139.239 271.898,135.239 273.5,131.5 Z"/></g>
<g><path style="opacity:1" fill="#373734" d="M 318.5,131.5 C 317.935,135.537 316.601,139.203 314.5,142.5C 315.065,138.463 316.399,134.797 318.5,131.5 Z"/></g>
<g><path style="opacity:1" fill="#d8d4d2" d="M 760.5,65.5 C 761.991,65.9014 763.658,66.068 765.5,66C 764.663,67.0113 764.33,68.1779 764.5,69.5C 763.738,82.8283 763.072,96.1616 762.5,109.5C 761.814,115.234 761.148,121.067 760.5,127C 762.466,132.861 764.799,138.195 767.5,143C 765.559,143.743 763.726,143.576 762,142.5C 760.103,144.016 757.936,144.683 755.5,144.5C 755.807,138.907 755.473,133.407 754.5,128C 755.191,126.933 755.691,125.766 756,124.5C 757.049,125.517 758.216,125.684 759.5,125C 757.231,123.257 755.231,121.09 753.5,118.5C 754.304,116.864 755.304,115.364 756.5,114C 755.529,108.928 755.195,103.762 755.5,98.5C 755.5,97.5 755.5,96.5 755.5,95.5C 756.996,89.395 757.663,83.0616 757.5,76.5C 759.074,73.0935 760.074,69.4268 760.5,65.5 Z"/></g>
<g><path style="opacity:1" fill="#7a7a79" d="M 795.5,124.5 C 796.945,129.056 799.611,132.722 803.5,135.5C 802.178,135.33 801.011,135.663 800,136.5C 797.592,132.885 796.092,128.885 795.5,124.5 Z"/></g>
<g><path style="opacity:1" fill="#292827" d="M 448.5,132.5 C 448.771,134.38 448.104,135.713 446.5,136.5C 446.66,134.847 447.326,133.514 448.5,132.5 Z"/></g>
<g><path style="opacity:1" fill="#131313" d="M 809.5,133.5 C 809.5,134.5 809.5,135.5 809.5,136.5C 807.265,136.795 805.265,136.461 803.5,135.5C 805.886,135.741 807.886,135.075 809.5,133.5 Z"/></g>
<g><path style="opacity:1" fill="#0f0f0f" d="M 55.5,135.5 C 69.0028,135.885 82.3361,136.551 95.5,137.5C 92.5,137.5 89.5,137.5 86.5,137.5C 75.954,137.792 65.6206,137.125 55.5,135.5 Z"/></g>
<g><path style="opacity:1" fill="#3e3d3c" d="M 152.5,135.5 C 135.701,137.244 118.701,138.244 101.5,138.5C 96.3218,138.499 91.3218,138.166 86.5,137.5C 89.5,137.5 92.5,137.5 95.5,137.5C 114.497,136.767 133.497,136.1 152.5,135.5 Z"/></g>
<g><path style="opacity:1" fill="#807b78" d="M 341.5,135.5 C 340.99,138.539 340.323,141.539 339.5,144.5C 338.392,143.177 338.392,141.677 339.5,140C 339.241,138.739 338.574,137.739 337.5,137C 338.901,136.59 340.234,136.09 341.5,135.5 Z"/></g>
<g><path style="opacity:1" fill="#464545" d="M 733.5,132.5 C 728.778,135.688 723.444,137.355 717.5,137.5C 722.733,135.852 728.067,134.186 733.5,132.5 Z"/></g>
<g><path style="opacity:1" fill="#73706c" d="M 226.5,137.5 C 224.819,139.008 222.819,140.008 220.5,140.5C 221.68,138.087 223.68,137.087 226.5,137.5 Z"/></g>
<g><path style="opacity:1" fill="#4e4c4b" d="M 446.5,136.5 C 445.833,139.167 444.167,140.833 441.5,141.5C 442.833,139.5 444.5,137.833 446.5,136.5 Z"/></g>
<g><path style="opacity:1" fill="#5b5a58" d="M 311.5,137.5 C 310.833,140.167 309.167,141.833 306.5,142.5C 307.833,140.5 309.5,138.833 311.5,137.5 Z"/></g>
<g><path style="opacity:1" fill="#d3cecd" d="M 741.5,129.5 C 744.15,130.937 746.816,131.604 749.5,131.5C 750.813,133.518 750.147,134.685 747.5,135C 748.252,135.671 748.586,136.504 748.5,137.5C 747.5,139.167 746.167,140.5 744.5,141.5C 742.973,141.427 741.973,142.094 741.5,143.5C 739.973,143.427 738.973,144.094 738.5,145.5C 736.973,145.427 735.973,146.094 735.5,147.5C 733.62,147.229 732.287,147.896 731.5,149.5C 729.447,149.402 727.78,150.069 726.5,151.5C 719.41,153.641 712.41,155.974 705.5,158.5C 705.167,158.5 704.833,158.5 704.5,158.5C 701.505,158.294 698.838,158.96 696.5,160.5C 695.081,161.451 693.415,161.784 691.5,161.5C 684.889,161.547 678.556,162.547 672.5,164.5C 665.721,165.983 658.721,166.65 651.5,166.5C 622.174,168.167 592.84,168.5 563.5,167.5C 559.434,167.693 555.434,167.36 551.5,166.5C 547.79,164.864 543.79,164.198 539.5,164.5C 539.167,164.5 538.833,164.5 538.5,164.5C 536.562,162.837 534.228,162.171 531.5,162.5C 530.365,160.787 528.698,160.12 526.5,160.5C 526.027,159.094 525.027,158.427 523.5,158.5C 522.508,158.672 521.842,158.338 521.5,157.5C 521.573,155.973 520.906,154.973 519.5,154.5C 518.736,151.982 517.736,149.649 516.5,147.5C 515.359,144.36 515.192,141.027 516,137.5C 518.163,136.232 520.33,136.232 522.5,137.5C 522.987,138.473 523.487,139.473 524,140.5C 525.699,139.594 527.533,139.261 529.5,139.5C 531.562,140.776 533.896,141.61 536.5,142C 544.079,143.683 551.745,144.516 559.5,144.5C 559.833,144.5 560.167,144.5 560.5,144.5C 565.949,145.851 571.616,146.685 577.5,147C 597.338,147.829 617.004,147.662 636.5,146.5C 652.497,145.5 668.497,144.5 684.5,143.5C 695.645,143.403 706.312,141.403 716.5,137.5C 716.833,137.5 717.167,137.5 717.5,137.5C 723.444,137.355 728.778,135.688 733.5,132.5C 736.615,132.606 739.281,131.606 741.5,129.5 Z"/></g>
<g><path style="opacity:1" fill="#222220" d="M 529.5,139.5 C 539.625,141.182 549.625,142.848 559.5,144.5C 551.745,144.516 544.079,143.683 536.5,142C 533.896,141.61 531.562,140.776 529.5,139.5 Z"/></g>
<g><path style="opacity:1" fill="#5f5d5d" d="M 522.5,137.5 C 525.067,137.721 527.401,138.388 529.5,139.5C 527.533,139.261 525.699,139.594 524,140.5C 523.487,139.473 522.987,138.473 522.5,137.5 Z"/></g>
<g><path style="opacity:1" fill="#747474" d="M 218.5,141.5 C 216.11,143.02 213.443,144.02 210.5,144.5C 212.931,143.259 212.931,142.092 210.5,141C 213.119,141.083 215.786,141.25 218.5,141.5 Z"/></g>
<g><path style="opacity:1" fill="#a19f9e" d="M 454.5,137.5 C 453.54,142.086 451.54,146.086 448.5,149.5C 449.535,147.795 449.535,146.128 448.5,144.5C 449.5,143.833 450.5,143.167 451.5,142.5C 450.011,142.467 448.678,141.967 447.5,141C 450.012,140.099 452.345,138.932 454.5,137.5 Z"/></g>
<g><path style="opacity:1" fill="#c2bfbd" d="M 755.5,98.5 C 755.195,103.762 755.529,108.928 756.5,114C 755.304,115.364 754.304,116.864 753.5,118.5C 755.231,121.09 757.231,123.257 759.5,125C 758.216,125.684 757.049,125.517 756,124.5C 755.691,125.766 755.191,126.933 754.5,128C 755.473,133.407 755.807,138.907 755.5,144.5C 757.936,144.683 760.103,144.016 762,142.5C 763.726,143.576 765.559,143.743 767.5,143C 764.799,138.195 762.466,132.861 760.5,127C 761.148,121.067 761.814,115.234 762.5,109.5C 762.177,115.69 762.51,121.69 763.5,127.5C 764.356,131.544 766.022,135.211 768.5,138.5C 770.117,139.972 772.117,140.639 774.5,140.5C 776.045,140.489 777.378,140.156 778.5,139.5C 779.795,138.512 781.128,137.512 782.5,136.5C 782.154,140.667 779.82,142.5 775.5,142C 777.891,143.309 777.891,144.309 775.5,145C 776.966,145.635 778.3,146.469 779.5,147.5C 780.086,147.291 780.586,146.957 781,146.5C 781.456,147.744 780.956,148.577 779.5,149C 781.037,150.11 781.703,151.61 781.5,153.5C 776.487,159.546 770.487,160.879 763.5,157.5C 763.027,156.094 762.027,155.427 760.5,155.5C 756.351,151.061 754.351,145.728 754.5,139.5C 754.665,136.15 754.498,132.817 754,129.5C 752.961,130.244 752.461,131.244 752.5,132.5C 751.92,134.749 750.587,136.415 748.5,137.5C 748.586,136.504 748.252,135.671 747.5,135C 750.147,134.685 750.813,133.518 749.5,131.5C 746.816,131.604 744.15,130.937 741.5,129.5C 741.5,129.167 741.5,128.833 741.5,128.5C 746.867,125.627 750.7,121.294 753,115.5C 753.891,109.697 754.725,104.03 755.5,98.5 Z"/></g>
<g><path style="opacity:1" fill="#282826" d="M 768.5,138.5 C 771.786,139.207 775.119,139.54 778.5,139.5C 777.378,140.156 776.045,140.489 774.5,140.5C 772.117,140.639 770.117,139.972 768.5,138.5 Z"/></g>
<g><path style="opacity:1" fill="#494845" d="M 440.5,141.5 C 440.389,142.117 440.056,142.617 439.5,143C 437.527,143.495 435.527,143.662 433.5,143.5C 435.657,142.593 437.99,141.927 440.5,141.5 Z"/></g>
<g><path style="opacity:1" fill="#3c3b3b" d="M 716.5,137.5 C 706.312,141.403 695.645,143.403 684.5,143.5C 695.086,141.733 705.752,139.733 716.5,137.5 Z"/></g>
<g><path style="opacity:1" fill="#161615" d="M 744.5,141.5 C 744.027,142.906 743.027,143.573 741.5,143.5C 741.973,142.094 742.973,141.427 744.5,141.5 Z"/></g>
<g><path style="opacity:1" fill="#3f3e3e" d="M 306.5,142.5 C 305.738,144.262 304.404,145.262 302.5,145.5C 303.262,143.738 304.596,142.738 306.5,142.5 Z"/></g>
<g><path style="opacity:1" fill="#5e5c5c" d="M 367.5,140.5 C 366.415,142.587 364.749,143.92 362.5,144.5C 363.585,142.413 365.251,141.08 367.5,140.5 Z"/></g>
<g><path style="opacity:1" fill="#cdcac7" d="M 380.5,136.5 C 380.097,139.486 379.097,142.152 377.5,144.5C 375.992,146.181 374.992,148.181 374.5,150.5C 371.327,156.586 366.327,159.253 359.5,158.5C 354.5,158.5 349.5,158.5 344.5,158.5C 344.5,157.5 344.5,156.5 344.5,155.5C 350.158,151.335 356.158,147.668 362.5,144.5C 364.749,143.92 366.415,142.587 367.5,140.5C 368.167,139.167 369.167,138.167 370.5,137.5C 372.053,135.615 374.053,134.615 376.5,134.5C 376.67,133.178 376.337,132.011 375.5,131C 376.715,128.904 377.549,129.071 378,131.5C 379.63,129.849 379.463,128.183 377.5,126.5C 377.833,124.833 378.833,123.833 380.5,123.5C 381.274,127.792 381.274,132.125 380.5,136.5 Z"/></g>
<g><path style="opacity:1" fill="#1d1c1c" d="M 430.5,141.5 C 430.821,143.048 431.821,143.715 433.5,143.5C 432.432,144.434 431.099,144.768 429.5,144.5C 429.263,143.209 429.596,142.209 430.5,141.5 Z"/></g>
<g><path style="opacity:1" fill="#2a2928" d="M 823.5,136.5 C 823.206,139.754 821.873,142.421 819.5,144.5C 820.326,141.515 821.659,138.849 823.5,136.5 Z"/></g>
<g><path style="opacity:1" fill="#6d6d6b" d="M 314.5,142.5 C 314.008,144.819 313.008,146.819 311.5,148.5C 311.087,145.68 312.087,143.68 314.5,142.5 Z"/></g>
<g><path style="opacity:1" fill="#4e4d4b" d="M 425.5,136.5 C 426.586,144.414 423.253,147.414 415.5,145.5C 415.629,147.216 415.962,148.883 416.5,150.5C 414.584,149.335 413.751,147.668 414,145.5C 416.74,144.718 419.574,144.218 422.5,144C 423.587,141.433 424.587,138.933 425.5,136.5 Z"/></g>
<g><path style="opacity:1" fill="#181818" d="M 741.5,143.5 C 741.027,144.906 740.027,145.573 738.5,145.5C 738.973,144.094 739.973,143.427 741.5,143.5 Z"/></g>
<g><path style="opacity:1" fill="#22221f" d="M 789.5,145.5 C 788.391,145.557 787.391,145.89 786.5,146.5C 787.395,142.162 788.395,141.829 789.5,145.5 Z"/></g>
<g><path style="opacity:1" fill="#1a1818" d="M 7.5,144.5 C 9.16667,145.5 10.5,146.833 11.5,148.5C 9.16667,148.167 7.83333,146.833 7.5,144.5 Z"/></g>
<g><path style="opacity:1" fill="#6e6e6d" d="M 207.5,145.5 C 205.786,146.738 203.786,147.405 201.5,147.5C 201.461,146.244 201.961,145.244 203,144.5C 204.356,145.38 205.856,145.714 207.5,145.5 Z"/></g>
<g><path style="opacity:1" fill="#302f2f" d="M 560.5,144.5 C 585.797,146.228 611.13,146.894 636.5,146.5C 617.004,147.662 597.338,147.829 577.5,147C 571.616,146.685 565.949,145.851 560.5,144.5 Z"/></g>
<g><path style="opacity:1" fill="#1f1f1f" d="M 738.5,145.5 C 738.027,146.906 737.027,147.573 735.5,147.5C 735.973,146.094 736.973,145.427 738.5,145.5 Z"/></g>
<g><path style="opacity:1" fill="#1d1d1d" d="M 819.5,144.5 C 819.262,146.404 818.262,147.738 816.5,148.5C 816.5,147.833 816.5,147.167 816.5,146.5C 817.5,145.833 818.5,145.167 819.5,144.5 Z"/></g>
<g><path style="opacity:1" fill="#9a9997" d="M 816.5,146.5 C 816.5,147.167 816.5,147.833 816.5,148.5C 814.37,151.737 811.37,153.737 807.5,154.5C 808.048,152.468 809.381,151.468 811.5,151.5C 811.238,150.022 811.571,148.689 812.5,147.5C 813.086,147.709 813.586,148.043 814,148.5C 814.417,147.244 815.25,146.577 816.5,146.5 Z"/></g>
<g><path style="opacity:1" fill="#8d8a88" d="M 11.5,148.5 C 13.5273,148.338 15.5273,148.505 17.5,149C 18.8333,149.667 18.8333,150.333 17.5,151C 19.3197,151.2 20.653,152.034 21.5,153.5C 17.5799,152.873 14.2466,151.207 11.5,148.5 Z"/></g>
<g><path style="opacity:1" fill="#323130" d="M 377.5,144.5 C 377.539,147.089 376.539,149.089 374.5,150.5C 374.992,148.181 375.992,146.181 377.5,144.5 Z"/></g>
<g><path style="opacity:1" fill="#373434" d="M 735.5,147.5 C 734.486,148.674 733.153,149.34 731.5,149.5C 732.287,147.896 733.62,147.229 735.5,147.5 Z"/></g>
<g><path style="opacity:1" fill="#181818" d="M 785.5,148.5 C 785.573,150.027 784.906,151.027 783.5,151.5C 783.427,149.973 784.094,148.973 785.5,148.5 Z"/></g>
<g><path style="opacity:1" fill="#1c1c1b" d="M 193.5,149.5 C 190.456,151.011 187.122,151.678 183.5,151.5C 186.589,150.215 189.922,149.549 193.5,149.5 Z"/></g>
<g><path style="opacity:1" fill="#383735" d="M 731.5,149.5 C 730.22,150.931 728.553,151.598 726.5,151.5C 727.78,150.069 729.447,149.402 731.5,149.5 Z"/></g>
<g><path style="opacity:1" fill="#2c2c2b" d="M 516.5,147.5 C 517.736,149.649 518.736,151.982 519.5,154.5C 517.166,152.824 516.166,150.491 516.5,147.5 Z"/></g>
<g><path style="opacity:1" fill="#595857" d="M 726.5,151.5 C 720.057,155.201 713.057,157.535 705.5,158.5C 712.41,155.974 719.41,153.641 726.5,151.5 Z"/></g>
<g><path style="opacity:1" fill="#454544" d="M 793.5,151.5 C 795.404,151.738 796.738,152.738 797.5,154.5C 795.596,154.262 794.262,153.262 793.5,151.5 Z"/></g>
<g><path style="opacity:1" fill="#212121" d="M 447.5,150.5 C 447.262,152.404 446.262,153.738 444.5,154.5C 444.5,154.167 444.5,153.833 444.5,153.5C 445.167,152.167 446.167,151.167 447.5,150.5 Z"/></g>
<g><path style="opacity:1" fill="#1a1918" d="M 178.5,152.5 C 171.749,154.322 164.749,155.322 157.5,155.5C 164.276,153.865 171.276,152.865 178.5,152.5 Z"/></g>
<g><path style="opacity:1" fill="#737270" d="M 421.5,154.5 C 423.989,154.241 425.656,155.241 426.5,157.5C 424.326,157.25 422.659,156.25 421.5,154.5 Z"/></g>
<g><path style="opacity:1" fill="#8a8989" d="M 444.5,153.5 C 444.5,153.833 444.5,154.167 444.5,154.5C 442.628,156.604 440.295,157.937 437.5,158.5C 437.881,157.069 438.881,156.236 440.5,156C 440.167,155.667 439.833,155.333 439.5,155C 441.025,153.991 442.692,153.491 444.5,153.5 Z"/></g>
<g><path style="opacity:1" fill="#191818" d="M 157.5,155.5 C 144.393,157.532 131.059,158.532 117.5,158.5C 130.642,156.942 143.976,155.942 157.5,155.5 Z"/></g>
<g><path style="opacity:1" fill="#161615" d="M 519.5,154.5 C 520.906,154.973 521.573,155.973 521.5,157.5C 520.094,157.027 519.427,156.027 519.5,154.5 Z"/></g>
<g><path style="opacity:1" fill="#343432" d="M 760.5,155.5 C 762.027,155.427 763.027,156.094 763.5,157.5C 761.973,157.573 760.973,156.906 760.5,155.5 Z"/></g>
<g><path style="opacity:1" fill="#0f0f0f" d="M 37.5,156.5 C 64.1373,158.14 90.8039,158.807 117.5,158.5C 98.6711,159.662 79.6711,159.829 60.5,159C 52.6247,158.729 44.958,157.895 37.5,156.5 Z"/></g>
<g><path style="opacity:1" fill="#232321" d="M 344.5,155.5 C 344.5,156.5 344.5,157.5 344.5,158.5C 349.5,158.5 354.5,158.5 359.5,158.5C 355.326,159.282 350.992,159.949 346.5,160.5C 345.558,160.392 344.725,160.059 344,159.5C 343.235,157.934 343.402,156.601 344.5,155.5 Z"/></g>
<g><path style="opacity:1" fill="#232222" d="M 523.5,158.5 C 525.027,158.427 526.027,159.094 526.5,160.5C 524.973,160.573 523.973,159.906 523.5,158.5 Z"/></g>
<g><path style="opacity:1" fill="#141313" d="M 704.5,158.5 C 702.095,159.768 699.428,160.435 696.5,160.5C 698.838,158.96 701.505,158.294 704.5,158.5 Z"/></g>
<g><path style="opacity:1" fill="#484444" d="M 526.5,160.5 C 528.698,160.12 530.365,160.787 531.5,162.5C 529.447,162.598 527.78,161.931 526.5,160.5 Z"/></g>
<g><path style="opacity:1" fill="#2b2b2a" d="M 691.5,161.5 C 685.411,163.236 679.078,164.236 672.5,164.5C 678.556,162.547 684.889,161.547 691.5,161.5 Z"/></g>
<g><path style="opacity:1" fill="#2b2b2b" d="M 531.5,162.5 C 534.228,162.171 536.562,162.837 538.5,164.5C 535.848,164.59 533.515,163.924 531.5,162.5 Z"/></g>
<g><path style="opacity:1" fill="#393635" d="M 539.5,164.5 C 543.79,164.198 547.79,164.864 551.5,166.5C 547.267,166.461 543.267,165.795 539.5,164.5 Z"/></g>
<g><path style="opacity:1" fill="#191918" d="M 651.5,166.5 C 622.19,169.766 592.857,170.099 563.5,167.5C 592.84,168.5 622.174,168.167 651.5,166.5 Z"/></g>
<g><path style="opacity:1" fill="#969493" d="M 422.5,198.5 C 422.229,196.179 422.896,194.179 424.5,192.5C 424.291,191.914 423.957,191.414 423.5,191C 420.57,190.394 417.737,189.56 415,188.5C 413.908,190.117 412.408,191.117 410.5,191.5C 411.713,188.775 413.546,186.441 416,184.5C 417.5,186 419,187.5 420.5,189C 427.693,190.75 428.359,193.916 422.5,198.5 Z"/></g>
<g><path style="opacity:1" fill="#4f4f4c" d="M 399.5,188.5 C 398.92,190.749 397.587,192.415 395.5,193.5C 396.08,191.251 397.413,189.585 399.5,188.5 Z"/></g>
<g><path style="opacity:1" fill="#c5c2c0" d="M 410.5,191.5 C 412.408,191.117 413.908,190.117 415,188.5C 417.737,189.56 420.57,190.394 423.5,191C 423.957,191.414 424.291,191.914 424.5,192.5C 422.896,194.179 422.229,196.179 422.5,198.5C 421.094,198.973 420.427,199.973 420.5,201.5C 420.038,202.88 419.038,203.547 417.5,203.5C 414.335,202.415 411.335,201.082 408.5,199.5C 407.094,199.973 406.427,200.973 406.5,202.5C 406.167,203.5 405.5,204.167 404.5,204.5C 402.097,204.552 399.764,204.219 397.5,203.5C 396.833,202.167 395.833,201.167 394.5,200.5C 393.133,197.988 393.466,195.655 395.5,193.5C 397.587,192.415 398.92,190.749 399.5,188.5C 399.56,187.957 399.893,187.624 400.5,187.5C 402.602,189.77 405.102,191.437 408,192.5C 408.902,192.257 409.735,191.923 410.5,191.5 Z"/></g>
<g><path style="opacity:1" fill="#222220" d="M 422.5,198.5 C 422.573,200.027 421.906,201.027 420.5,201.5C 420.427,199.973 421.094,198.973 422.5,198.5 Z"/></g>
<g><path style="opacity:1" fill="#1f1d1e" d="M 408.5,199.5 C 408.573,201.027 407.906,202.027 406.5,202.5C 406.427,200.973 407.094,199.973 408.5,199.5 Z"/></g>
<g><path style="opacity:1" fill="#1e1d1d" d="M 394.5,200.5 C 395.833,201.167 396.833,202.167 397.5,203.5C 395.5,203.5 394.5,202.5 394.5,200.5 Z"/></g>
<g><path style="opacity:1" fill="#4a4a48" d="M 397.5,203.5 C 399.764,204.219 402.097,204.552 404.5,204.5C 403.726,205.147 402.726,205.48 401.5,205.5C 399.645,205.66 398.312,204.993 397.5,203.5 Z"/></g>
</svg>
