<?xml version="1.0" encoding="utf-8"?>
<!-- Generator: Adobe Illustrator 23.0.0, SVG Export Plug-In . SVG Version: 6.00 Build 0)  -->
<svg version="1.1" id="Layer_1" xmlns="http://www.w3.org/2000/svg" xmlns:xlink="http://www.w3.org/1999/xlink" x="0px" y="0px"
	 viewBox="236 1 342 431" style="enable-background:new 236 1 342 431;" xml:space="preserve">
<style type="text/css">
	.st0{fill-rule:evenodd;clip-rule:evenodd;}
</style>
<g>
	<path fill="currentColor" id="XMLID_9_" d="M455.91,59.73c-1.83,0.05-3.34,0.09-5.28-0.01c-7.83-0.39-25.39-6.15-25.39-6.15
		c9.57,8.69,20.36,11.72,26.5,12.77C451.75,66.35,453.38,62.73,455.91,59.73z"/>
	<path fill="currentColor" id="XMLID_25_" d="M466.18,66.27c34.15-4.36,46.49-31.36,46.49-31.36s-39.53,9.71-49.72-6.25c-4.42-6.93,5.24-6.84,5.24-6.84
		s5.27-0.48,7.61,6.84l8.89-9.27c0,0-0.78-12.94-15.91-8.01c-4.49,1.46-14.64,12.4-16.2,19.72c-1.1,5.15-1.07,22.45,40.12,17.28
		c0,0-9.46,7.25-25.17,10.2C467.51,58.58,466.84,62.61,466.18,66.27z"/>
	<g id="XMLID_14_">
		<path fill="currentColor" id="XMLID_17_" d="M465.54,164.72c-12.02-66.67,2.93-114.31,2.93-114.31c-26.91,12.8-29.6,71.77-22.79,119.16
			C445.68,169.57,455.65,168.36,465.54,164.72z"/>
		<path fill="currentColor" id="XMLID_24_" d="M472.11,192.6c-0.38-1.34-0.65-2.63-1-3.96c-13.22,6.04-20.1,7.79-20.1,7.79
			c0.35,1.45,0.54,2.45,0.91,3.84c8.02,30.09,8.97,57.85,6.75,81.6h19.15C482.17,250.58,479.14,217.73,472.11,192.6z"/>
		<path fill="currentColor" id="XMLID_23_" d="M438.58,362.25c15.22-12.53,25.5-29.99,32.03-49.52l-16.69-0.91
			C446.48,345.58,434.88,365.29,438.58,362.25z"/>
		<g id="XMLID_10_">
			<path fill="currentColor" id="XMLID_11_" d="M317.7,245.21c9.39,5.45,31.2,23.02,137.24,13.63c0.44-0.04,1.99-0.05,2.42-0.09
				c-0.28-8.6-0.97-17.18-2.27-25.97c-26.55-0.09-55.25,2.1-71.34,2.42c-29.69,0.61-59.98-19.69-59.98-19.69
				c25.75-22.42,36.35-42.11,36.35-42.11c19.99,37.87,67.98,27.32,71.8,26.36c67.25-16.97,78.46-44.23,85.43-62.1
				c6.12-15.71,6.66-26.36-8.18-18.78c-19.64,10.02-33.68,7.86-45.26,4.5c0.32,8.16,0.97,16.79,2.14,25.9
				c15.95,1.25,22.53,0.53,24.64-0.1c3.03-0.91-8.79,20.3-56.35,24.84c-34.16,3.26-44.23-7.88-44.23-7.88s10-24.74,50.59-19.59
				c-0.67-9.49-0.93-19.15-0.62-28.59c-1.2-0.03-4.77-0.33-6.05-0.29c-43.63,0.91-52.71,40.29-52.71,40.29
				c-11.51-14.54-9.69-27.27-13.03-39.99c-3.33-12.72-8.48,12.47-9.69,19.69c-10.91,64.83-67.06,67.37-68.47,69.07
				c-7.27,8.79-9.69,25.14-9.69,25.14C300.43,232.48,308.31,239.75,317.7,245.21z"/>
			<path fill="currentColor" id="XMLID_15_" d="M511.89,240.66c-7.59-3.37-18.97-5.48-30.14-6.67c0.45,8.15,0.82,16.42,0.45,25.15
				c41.07,6.3,48.47,36.35,48.47,36.35c-31.2-20.6-103-3.64-159.96-15.75c-39.07-8.31-61.94-33.86-62.71-32.42
				c-20.3,38.17-2.73,59.98,20.9,78.77c51.25,40.74,49.99,56.05,49.99,56.05c-5.15-5.76-27.06-17.6-41.2-24.54
				c-48.17-23.63-73.86-68.22-76.95-86.95c-5.76-34.84,35.13-92.62,24.24-81.8c-43.93,43.62-40.37,90.53-38.47,99.97
				c13.63,67.86,88.32,99.66,96.34,103.91c44.53,23.63,27.8,34.73,35.14,30.3c26.05-15.75,22.72-41.5,21.51-48.47
				c-7.03-40.4-71.16-80.95-63.32-77.25c32.11,15.15,87.85,13.83,90.28,13.63c74.22-6.06,94.52,11.82,100.88,15.75
				c6.36,3.94,8.62,16.3,14.84,6.97C573.09,287.32,539.16,252.78,511.89,240.66z"/>
		</g>
	</g>
	<path fill="currentColor" id="XMLID_18_" class="st0" d="M261.15,98.39c-0.77-3.75,1.21-4.76,1-7.97c20.07,7.4,15.4,36.69,9.2,55.41
		c8.03-5.07,12.8-8.41,22.34-17.34c1.21,2.54,1.14,4.54-0.68,8.33l-12.19,10c-3.32,12.4-7.5,28.7,2.12,32.64
		c2.6,0.78,4.44-2.72,4.11-6.38c2.48,3.12,2.1,12.51-2.99,13.94c-15.13,1.07-8.53-28.65-3.98-39.84
		c-9.73,7.54-27.72,15.44-29.88,33.86c-4.35-15.51,6.05-27.55,18.92-33.86C275.57,130.84,276.56,105.03,261.15,98.39z"/>
	<path fill="currentColor" id="XMLID_5_" class="st0" d="M381.69,26.88c6.77-3.2,19.45-4.8,26.98-9.71c-0.29,13.56-4.5,26.08-12.36,32.37
		c-1.63,1.3-5.1,2.42-7.53,3.63c-10.39,5.16-13.15,9.65-18.27,15.78c4.51-14.81,13.69-21.55,22.65-28.69
		c-7.01,2.39-14.97,3.16-20.15,8.71C369.4,42.23,375.81,28.91,381.69,26.88L381.69,26.88z"/>
	<path fill="currentColor" id="XMLID_16_" class="st0" d="M415,335.4c-4.45-0.12-7.11,5.69-7.19,10.85c-2.6-5.55-1.13-20.64,7.46-20.2
		c17.77,1.2,6.38,30.21,0.98,40.3C408.65,376.24,430.07,338.64,415,335.4z"/>
	<path fill="currentColor" id="XMLID_20_" class="st0" d="M512.99,216.42c4.12,0.12,6.58-5.26,6.65-10.05c2.4,5.14,1.05,19.11-6.91,18.7
		c-16.45-1.11-5.9-27.96-0.91-37.3C518.87,178.62,499.03,213.43,512.99,216.42z"/>
	<path fill="currentColor" id="XMLID_21_" class="st0" d="M366.98,214.16c2.56,0.07,4.09-3.27,4.13-6.24c1.49,3.19,0.65,11.87-4.29,11.62
		c-10.22-0.69-3.67-17.38-0.56-23.18C370.63,190.68,358.3,212.3,366.98,214.16z"/>
	<path fill="currentColor" id="XMLID_12_" class="st0" d="M405.93,95.54c-0.93,6.21-10.24,15.44-15.86,17.91c3.18-11.49-10.65-13.04-14.2-20.17
		c3.34-7.24,10.03-12.21,14.72-18.1C390.58,75.18,407.52,84.86,405.93,95.54z"/>
	<path fill="currentColor" id="XMLID_13_" class="st0" d="M350.67,99.36c-1.98,27.44-38.28,26.22-43.03,52.34l0,0c-0.35-16.28,8.42-26.96,21.07-33.33
		C328.71,118.37,344.97,109.38,350.67,99.36z"/>
	<path fill="currentColor" id="XMLID_19_" class="st0" d="M500.03,377.88c-2.46-3.96-6.82-9.52-9.02-13.15c-1.8-1.31-2.03,2.22-0.99,2.69
		c-3.09-0.7-6.34-2.88-9.35-2.84c-3-3.75-2.5-9.56-0.7-12.18c8.97-2.74,16.29,11.35,19.96,17.14c0-11.89-10.83-25.81,2.99-37.1
		c14.64,2.5,6.82,19.49,2.25,26.2c-1.31-4.8,4.51-10.39,2.84-15.15c-1.99-3.69-5.61-4.68-7.93-1.7
		c-4.03,10.98,5.46,20.47,1.54,31.44L500.03,377.88z"/>
	<path fill="currentColor" id="XMLID_22_" class="st0" d="M286.57,280.88c-1.86-2.99-5.15-7.18-6.81-9.92c-1.36-0.99-1.53,1.68-0.75,2.03
		c-2.33-0.53-4.78-2.17-7.05-2.14c-2.26-2.83-1.89-7.21-0.53-9.19c6.77-2.06,12.29,8.56,15.06,12.93c0-8.97-8.17-19.47,2.26-27.99
		c11.04,1.88,5.14,14.7,1.7,19.76c-0.99-3.62,3.4-7.84,2.14-11.43c-1.5-2.78-4.23-3.53-5.98-1.28c-3.04,8.28,4.12,15.44,1.17,23.72
		L286.57,280.88z"/>
</g>
</svg>
